<?xml version="1.0" encoding="utf-8" standalone="no"?>
<!DOCTYPE svg PUBLIC "-//W3C//DTD SVG 1.1//EN"
  "http://www.w3.org/Graphics/SVG/1.1/DTD/svg11.dtd">
<svg xmlns:xlink="http://www.w3.org/1999/xlink" width="855.977559pt" height="590.718125pt" viewBox="0 0 855.977559 590.718125" xmlns="http://www.w3.org/2000/svg" version="1.1">
 <metadata>
  <rdf:RDF xmlns:dc="http://purl.org/dc/elements/1.1/" xmlns:cc="http://creativecommons.org/ns#" xmlns:rdf="http://www.w3.org/1999/02/22-rdf-syntax-ns#">
   <cc:Work>
    <dc:type rdf:resource="http://purl.org/dc/dcmitype/StillImage"/>
    <dc:date>2026-07-15T17:58:42.338569</dc:date>
    <dc:format>image/svg+xml</dc:format>
    <dc:creator>
     <cc:Agent>
      <dc:title>Matplotlib v3.10.8, https://matplotlib.org/</dc:title>
     </cc:Agent>
    </dc:creator>
   </cc:Work>
  </rdf:RDF>
 </metadata>
 <defs>
  <style type="text/css">*{stroke-linejoin: round; stroke-linecap: butt}</style>
 </defs>
 <g id="figure_1">
  <g id="patch_1">
   <path d="M 0 590.718125 
L 855.977559 590.718125 
L 855.977559 0 
L 0 0 
z
" style="fill: #ffffff"/>
  </g>
  <g id="axes_1">
   <g id="patch_2">
    <path d="M 43.78125 289.08 
L 420.242035 289.08 
L 420.242035 69.36 
L 43.78125 69.36 
z
" style="fill: #ffffff"/>
   </g>
   <g id="PathCollection_1">
    <defs>
     <path id="m0eb7b9d3f2" d="M 0 3.535534 
C 0.937635 3.535534 1.836992 3.163008 2.5 2.5 
C 3.163008 1.836992 3.535534 0.937635 3.535534 0 
C 3.535534 -0.937635 3.163008 -1.836992 2.5 -2.5 
C 1.836992 -3.163008 0.937635 -3.535534 0 -3.535534 
C -0.937635 -3.535534 -1.836992 -3.163008 -2.5 -2.5 
C -3.163008 -1.836992 -3.535534 -0.937635 -3.535534 0 
C -3.535534 0.937635 -3.163008 1.836992 -2.5 2.5 
C -1.836992 3.163008 -0.937635 3.535534 0 3.535534 
z
" style="stroke: #1f77b4"/>
    </defs>
    <g clip-path="url(#pd7621e0cc4)">
     <use xlink:href="#m0eb7b9d3f2" x="117.932617" y="273.877441" style="fill: #1f77b4; stroke: #1f77b4"/>
     <use xlink:href="#m0eb7b9d3f2" x="146.452373" y="265.681992" style="fill: #1f77b4; stroke: #1f77b4"/>
     <use xlink:href="#m0eb7b9d3f2" x="174.97213" y="247.05597" style="fill: #1f77b4; stroke: #1f77b4"/>
     <use xlink:href="#m0eb7b9d3f2" x="232.011643" y="201.608478" style="fill: #1f77b4; stroke: #1f77b4"/>
     <use xlink:href="#m0eb7b9d3f2" x="403.130181" y="79.347273" style="fill: #1f77b4; stroke: #1f77b4"/>
    </g>
   </g>
   <g id="matplotlib.axis_1">
    <g id="xtick_1">
     <g id="line2d_1">
      <defs>
       <path id="m9ac1134e6b" d="M 0 0 
L 0 3.5 
" style="stroke: #000000; stroke-width: 0.8"/>
      </defs>
      <g>
       <use xlink:href="#m9ac1134e6b" x="60.893104" y="289.08" style="stroke: #000000; stroke-width: 0.8"/>
      </g>
     </g>
     <g id="text_1">
      <!-- 0 -->
      <g transform="translate(57.711854 303.678437) scale(0.1 -0.1)">
       <defs>
        <path id="DejaVuSans-30" d="M 2034 4250 
Q 1547 4250 1301 3770 
Q 1056 3291 1056 2328 
Q 1056 1369 1301 889 
Q 1547 409 2034 409 
Q 2525 409 2770 889 
Q 3016 1369 3016 2328 
Q 3016 3291 2770 3770 
Q 2525 4250 2034 4250 
z
M 2034 4750 
Q 2819 4750 3233 4129 
Q 3647 3509 3647 2328 
Q 3647 1150 3233 529 
Q 2819 -91 2034 -91 
Q 1250 -91 836 529 
Q 422 1150 422 2328 
Q 422 3509 836 4129 
Q 1250 4750 2034 4750 
z
" transform="scale(0.015625)"/>
       </defs>
       <use xlink:href="#DejaVuSans-30"/>
      </g>
     </g>
    </g>
    <g id="xtick_2">
     <g id="line2d_2">
      <g>
       <use xlink:href="#m9ac1134e6b" x="132.192495" y="289.08" style="stroke: #000000; stroke-width: 0.8"/>
      </g>
     </g>
     <g id="text_2">
      <!-- 5 -->
      <g transform="translate(129.011245 303.678437) scale(0.1 -0.1)">
       <defs>
        <path id="DejaVuSans-35" d="M 691 4666 
L 3169 4666 
L 3169 4134 
L 1269 4134 
L 1269 2991 
Q 1406 3038 1543 3061 
Q 1681 3084 1819 3084 
Q 2600 3084 3056 2656 
Q 3513 2228 3513 1497 
Q 3513 744 3044 326 
Q 2575 -91 1722 -91 
Q 1428 -91 1123 -41 
Q 819 9 494 109 
L 494 744 
Q 775 591 1075 516 
Q 1375 441 1709 441 
Q 2250 441 2565 725 
Q 2881 1009 2881 1497 
Q 2881 1984 2565 2268 
Q 2250 2553 1709 2553 
Q 1456 2553 1204 2497 
Q 953 2441 691 2322 
L 691 4666 
z
" transform="scale(0.015625)"/>
       </defs>
       <use xlink:href="#DejaVuSans-35"/>
      </g>
     </g>
    </g>
    <g id="xtick_3">
     <g id="line2d_3">
      <g>
       <use xlink:href="#m9ac1134e6b" x="203.491886" y="289.08" style="stroke: #000000; stroke-width: 0.8"/>
      </g>
     </g>
     <g id="text_3">
      <!-- 10 -->
      <g transform="translate(197.129386 303.678437) scale(0.1 -0.1)">
       <defs>
        <path id="DejaVuSans-31" d="M 794 531 
L 1825 531 
L 1825 4091 
L 703 3866 
L 703 4441 
L 1819 4666 
L 2450 4666 
L 2450 531 
L 3481 531 
L 3481 0 
L 794 0 
L 794 531 
z
" transform="scale(0.015625)"/>
       </defs>
       <use xlink:href="#DejaVuSans-31"/>
       <use xlink:href="#DejaVuSans-30" transform="translate(63.623047 0)"/>
      </g>
     </g>
    </g>
    <g id="xtick_4">
     <g id="line2d_4">
      <g>
       <use xlink:href="#m9ac1134e6b" x="274.791277" y="289.08" style="stroke: #000000; stroke-width: 0.8"/>
      </g>
     </g>
     <g id="text_4">
      <!-- 15 -->
      <g transform="translate(268.428777 303.678437) scale(0.1 -0.1)">
       <use xlink:href="#DejaVuSans-31"/>
       <use xlink:href="#DejaVuSans-35" transform="translate(63.623047 0)"/>
      </g>
     </g>
    </g>
    <g id="xtick_5">
     <g id="line2d_5">
      <g>
       <use xlink:href="#m9ac1134e6b" x="346.090668" y="289.08" style="stroke: #000000; stroke-width: 0.8"/>
      </g>
     </g>
     <g id="text_5">
      <!-- 20 -->
      <g transform="translate(339.728168 303.678437) scale(0.1 -0.1)">
       <defs>
        <path id="DejaVuSans-32" d="M 1228 531 
L 3431 531 
L 3431 0 
L 469 0 
L 469 531 
Q 828 903 1448 1529 
Q 2069 2156 2228 2338 
Q 2531 2678 2651 2914 
Q 2772 3150 2772 3378 
Q 2772 3750 2511 3984 
Q 2250 4219 1831 4219 
Q 1534 4219 1204 4116 
Q 875 4013 500 3803 
L 500 4441 
Q 881 4594 1212 4672 
Q 1544 4750 1819 4750 
Q 2544 4750 2975 4387 
Q 3406 4025 3406 3419 
Q 3406 3131 3298 2873 
Q 3191 2616 2906 2266 
Q 2828 2175 2409 1742 
Q 1991 1309 1228 531 
z
" transform="scale(0.015625)"/>
       </defs>
       <use xlink:href="#DejaVuSans-32"/>
       <use xlink:href="#DejaVuSans-30" transform="translate(63.623047 0)"/>
      </g>
     </g>
    </g>
    <g id="xtick_6">
     <g id="line2d_6">
      <g>
       <use xlink:href="#m9ac1134e6b" x="417.390059" y="289.08" style="stroke: #000000; stroke-width: 0.8"/>
      </g>
     </g>
     <g id="text_6">
      <!-- 25 -->
      <g transform="translate(411.027559 303.678437) scale(0.1 -0.1)">
       <use xlink:href="#DejaVuSans-32"/>
       <use xlink:href="#DejaVuSans-35" transform="translate(63.623047 0)"/>
      </g>
     </g>
    </g>
    <g id="text_7">
     <!-- Time (h) -->
     <g transform="translate(211.118674 317.356562) scale(0.1 -0.1)">
      <defs>
       <path id="DejaVuSans-54" d="M -19 4666 
L 3928 4666 
L 3928 4134 
L 2272 4134 
L 2272 0 
L 1638 0 
L 1638 4134 
L -19 4134 
L -19 4666 
z
" transform="scale(0.015625)"/>
       <path id="DejaVuSans-69" d="M 603 3500 
L 1178 3500 
L 1178 0 
L 603 0 
L 603 3500 
z
M 603 4863 
L 1178 4863 
L 1178 4134 
L 603 4134 
L 603 4863 
z
" transform="scale(0.015625)"/>
       <path id="DejaVuSans-6d" d="M 3328 2828 
Q 3544 3216 3844 3400 
Q 4144 3584 4550 3584 
Q 5097 3584 5394 3201 
Q 5691 2819 5691 2113 
L 5691 0 
L 5113 0 
L 5113 2094 
Q 5113 2597 4934 2840 
Q 4756 3084 4391 3084 
Q 3944 3084 3684 2787 
Q 3425 2491 3425 1978 
L 3425 0 
L 2847 0 
L 2847 2094 
Q 2847 2600 2669 2842 
Q 2491 3084 2119 3084 
Q 1678 3084 1418 2786 
Q 1159 2488 1159 1978 
L 1159 0 
L 581 0 
L 581 3500 
L 1159 3500 
L 1159 2956 
Q 1356 3278 1631 3431 
Q 1906 3584 2284 3584 
Q 2666 3584 2933 3390 
Q 3200 3197 3328 2828 
z
" transform="scale(0.015625)"/>
       <path id="DejaVuSans-65" d="M 3597 1894 
L 3597 1613 
L 953 1613 
Q 991 1019 1311 708 
Q 1631 397 2203 397 
Q 2534 397 2845 478 
Q 3156 559 3463 722 
L 3463 178 
Q 3153 47 2828 -22 
Q 2503 -91 2169 -91 
Q 1331 -91 842 396 
Q 353 884 353 1716 
Q 353 2575 817 3079 
Q 1281 3584 2069 3584 
Q 2775 3584 3186 3129 
Q 3597 2675 3597 1894 
z
M 3022 2063 
Q 3016 2534 2758 2815 
Q 2500 3097 2075 3097 
Q 1594 3097 1305 2825 
Q 1016 2553 972 2059 
L 3022 2063 
z
" transform="scale(0.015625)"/>
       <path id="DejaVuSans-20" transform="scale(0.015625)"/>
       <path id="DejaVuSans-28" d="M 1984 4856 
Q 1566 4138 1362 3434 
Q 1159 2731 1159 2009 
Q 1159 1288 1364 580 
Q 1569 -128 1984 -844 
L 1484 -844 
Q 1016 -109 783 600 
Q 550 1309 550 2009 
Q 550 2706 781 3412 
Q 1013 4119 1484 4856 
L 1984 4856 
z
" transform="scale(0.015625)"/>
       <path id="DejaVuSans-68" d="M 3513 2113 
L 3513 0 
L 2938 0 
L 2938 2094 
Q 2938 2591 2744 2837 
Q 2550 3084 2163 3084 
Q 1697 3084 1428 2787 
Q 1159 2491 1159 1978 
L 1159 0 
L 581 0 
L 581 4863 
L 1159 4863 
L 1159 2956 
Q 1366 3272 1645 3428 
Q 1925 3584 2291 3584 
Q 2894 3584 3203 3211 
Q 3513 2838 3513 2113 
z
" transform="scale(0.015625)"/>
       <path id="DejaVuSans-29" d="M 513 4856 
L 1013 4856 
Q 1481 4119 1714 3412 
Q 1947 2706 1947 2009 
Q 1947 1309 1714 600 
Q 1481 -109 1013 -844 
L 513 -844 
Q 928 -128 1133 580 
Q 1338 1288 1338 2009 
Q 1338 2731 1133 3434 
Q 928 4138 513 4856 
z
" transform="scale(0.015625)"/>
      </defs>
      <use xlink:href="#DejaVuSans-54"/>
      <use xlink:href="#DejaVuSans-69" transform="translate(57.958984 0)"/>
      <use xlink:href="#DejaVuSans-6d" transform="translate(85.742188 0)"/>
      <use xlink:href="#DejaVuSans-65" transform="translate(183.154297 0)"/>
      <use xlink:href="#DejaVuSans-20" transform="translate(244.677734 0)"/>
      <use xlink:href="#DejaVuSans-28" transform="translate(276.464844 0)"/>
      <use xlink:href="#DejaVuSans-68" transform="translate(315.478516 0)"/>
      <use xlink:href="#DejaVuSans-29" transform="translate(378.857422 0)"/>
     </g>
    </g>
   </g>
   <g id="matplotlib.axis_2">
    <g id="ytick_1">
     <g id="line2d_7">
      <defs>
       <path id="m109f5be842" d="M 0 0 
L -3.5 0 
" style="stroke: #000000; stroke-width: 0.8"/>
      </defs>
      <g>
       <use xlink:href="#m109f5be842" x="43.78125" y="279.092727" style="stroke: #000000; stroke-width: 0.8"/>
      </g>
     </g>
     <g id="text_8">
      <!-- 0 -->
      <g transform="translate(30.41875 282.891946) scale(0.1 -0.1)">
       <use xlink:href="#DejaVuSans-30"/>
      </g>
     </g>
    </g>
    <g id="ytick_2">
     <g id="line2d_8">
      <g>
       <use xlink:href="#m109f5be842" x="43.78125" y="241.840684" style="stroke: #000000; stroke-width: 0.8"/>
      </g>
     </g>
     <g id="text_9">
      <!-- 5 -->
      <g transform="translate(30.41875 245.639903) scale(0.1 -0.1)">
       <use xlink:href="#DejaVuSans-35"/>
      </g>
     </g>
    </g>
    <g id="ytick_3">
     <g id="line2d_9">
      <g>
       <use xlink:href="#m109f5be842" x="43.78125" y="204.588641" style="stroke: #000000; stroke-width: 0.8"/>
      </g>
     </g>
     <g id="text_10">
      <!-- 10 -->
      <g transform="translate(24.05625 208.38786) scale(0.1 -0.1)">
       <use xlink:href="#DejaVuSans-31"/>
       <use xlink:href="#DejaVuSans-30" transform="translate(63.623047 0)"/>
      </g>
     </g>
    </g>
    <g id="ytick_4">
     <g id="line2d_10">
      <g>
       <use xlink:href="#m109f5be842" x="43.78125" y="167.336598" style="stroke: #000000; stroke-width: 0.8"/>
      </g>
     </g>
     <g id="text_11">
      <!-- 15 -->
      <g transform="translate(24.05625 171.135817) scale(0.1 -0.1)">
       <use xlink:href="#DejaVuSans-31"/>
       <use xlink:href="#DejaVuSans-35" transform="translate(63.623047 0)"/>
      </g>
     </g>
    </g>
    <g id="ytick_5">
     <g id="line2d_11">
      <g>
       <use xlink:href="#m109f5be842" x="43.78125" y="130.084555" style="stroke: #000000; stroke-width: 0.8"/>
      </g>
     </g>
     <g id="text_12">
      <!-- 20 -->
      <g transform="translate(24.05625 133.883774) scale(0.1 -0.1)">
       <use xlink:href="#DejaVuSans-32"/>
       <use xlink:href="#DejaVuSans-30" transform="translate(63.623047 0)"/>
      </g>
     </g>
    </g>
    <g id="ytick_6">
     <g id="line2d_12">
      <g>
       <use xlink:href="#m109f5be842" x="43.78125" y="92.832512" style="stroke: #000000; stroke-width: 0.8"/>
      </g>
     </g>
     <g id="text_13">
      <!-- 25 -->
      <g transform="translate(24.05625 96.631731) scale(0.1 -0.1)">
       <use xlink:href="#DejaVuSans-32"/>
       <use xlink:href="#DejaVuSans-35" transform="translate(63.623047 0)"/>
      </g>
     </g>
    </g>
    <g id="text_14">
     <!-- Ketoconazole amount (µg/cm²) -->
     <g transform="translate(17.976563 256.570781) rotate(-90) scale(0.1 -0.1)">
      <defs>
       <path id="DejaVuSans-4b" d="M 628 4666 
L 1259 4666 
L 1259 2694 
L 3353 4666 
L 4166 4666 
L 1850 2491 
L 4331 0 
L 3500 0 
L 1259 2247 
L 1259 0 
L 628 0 
L 628 4666 
z
" transform="scale(0.015625)"/>
       <path id="DejaVuSans-74" d="M 1172 4494 
L 1172 3500 
L 2356 3500 
L 2356 3053 
L 1172 3053 
L 1172 1153 
Q 1172 725 1289 603 
Q 1406 481 1766 481 
L 2356 481 
L 2356 0 
L 1766 0 
Q 1100 0 847 248 
Q 594 497 594 1153 
L 594 3053 
L 172 3053 
L 172 3500 
L 594 3500 
L 594 4494 
L 1172 4494 
z
" transform="scale(0.015625)"/>
       <path id="DejaVuSans-6f" d="M 1959 3097 
Q 1497 3097 1228 2736 
Q 959 2375 959 1747 
Q 959 1119 1226 758 
Q 1494 397 1959 397 
Q 2419 397 2687 759 
Q 2956 1122 2956 1747 
Q 2956 2369 2687 2733 
Q 2419 3097 1959 3097 
z
M 1959 3584 
Q 2709 3584 3137 3096 
Q 3566 2609 3566 1747 
Q 3566 888 3137 398 
Q 2709 -91 1959 -91 
Q 1206 -91 779 398 
Q 353 888 353 1747 
Q 353 2609 779 3096 
Q 1206 3584 1959 3584 
z
" transform="scale(0.015625)"/>
       <path id="DejaVuSans-63" d="M 3122 3366 
L 3122 2828 
Q 2878 2963 2633 3030 
Q 2388 3097 2138 3097 
Q 1578 3097 1268 2742 
Q 959 2388 959 1747 
Q 959 1106 1268 751 
Q 1578 397 2138 397 
Q 2388 397 2633 464 
Q 2878 531 3122 666 
L 3122 134 
Q 2881 22 2623 -34 
Q 2366 -91 2075 -91 
Q 1284 -91 818 406 
Q 353 903 353 1747 
Q 353 2603 823 3093 
Q 1294 3584 2113 3584 
Q 2378 3584 2631 3529 
Q 2884 3475 3122 3366 
z
" transform="scale(0.015625)"/>
       <path id="DejaVuSans-6e" d="M 3513 2113 
L 3513 0 
L 2938 0 
L 2938 2094 
Q 2938 2591 2744 2837 
Q 2550 3084 2163 3084 
Q 1697 3084 1428 2787 
Q 1159 2491 1159 1978 
L 1159 0 
L 581 0 
L 581 3500 
L 1159 3500 
L 1159 2956 
Q 1366 3272 1645 3428 
Q 1925 3584 2291 3584 
Q 2894 3584 3203 3211 
Q 3513 2838 3513 2113 
z
" transform="scale(0.015625)"/>
       <path id="DejaVuSans-61" d="M 2194 1759 
Q 1497 1759 1228 1600 
Q 959 1441 959 1056 
Q 959 750 1161 570 
Q 1363 391 1709 391 
Q 2188 391 2477 730 
Q 2766 1069 2766 1631 
L 2766 1759 
L 2194 1759 
z
M 3341 1997 
L 3341 0 
L 2766 0 
L 2766 531 
Q 2569 213 2275 61 
Q 1981 -91 1556 -91 
Q 1019 -91 701 211 
Q 384 513 384 1019 
Q 384 1609 779 1909 
Q 1175 2209 1959 2209 
L 2766 2209 
L 2766 2266 
Q 2766 2663 2505 2880 
Q 2244 3097 1772 3097 
Q 1472 3097 1187 3025 
Q 903 2953 641 2809 
L 641 3341 
Q 956 3463 1253 3523 
Q 1550 3584 1831 3584 
Q 2591 3584 2966 3190 
Q 3341 2797 3341 1997 
z
" transform="scale(0.015625)"/>
       <path id="DejaVuSans-7a" d="M 353 3500 
L 3084 3500 
L 3084 2975 
L 922 459 
L 3084 459 
L 3084 0 
L 275 0 
L 275 525 
L 2438 3041 
L 353 3041 
L 353 3500 
z
" transform="scale(0.015625)"/>
       <path id="DejaVuSans-6c" d="M 603 4863 
L 1178 4863 
L 1178 0 
L 603 0 
L 603 4863 
z
" transform="scale(0.015625)"/>
       <path id="DejaVuSans-75" d="M 544 1381 
L 544 3500 
L 1119 3500 
L 1119 1403 
Q 1119 906 1312 657 
Q 1506 409 1894 409 
Q 2359 409 2629 706 
Q 2900 1003 2900 1516 
L 2900 3500 
L 3475 3500 
L 3475 0 
L 2900 0 
L 2900 538 
Q 2691 219 2414 64 
Q 2138 -91 1772 -91 
Q 1169 -91 856 284 
Q 544 659 544 1381 
z
M 1991 3584 
L 1991 3584 
z
" transform="scale(0.015625)"/>
       <path id="DejaVuSans-b5" d="M 544 -1331 
L 544 3500 
L 1119 3500 
L 1119 1325 
Q 1119 872 1334 640 
Q 1550 409 1972 409 
Q 2434 409 2667 671 
Q 2900 934 2900 1459 
L 2900 3500 
L 3475 3500 
L 3475 806 
Q 3475 619 3529 530 
Q 3584 441 3700 441 
Q 3728 441 3778 458 
Q 3828 475 3916 513 
L 3916 50 
Q 3788 -22 3673 -56 
Q 3559 -91 3450 -91 
Q 3234 -91 3106 31 
Q 2978 153 2931 403 
Q 2775 156 2548 32 
Q 2322 -91 2016 -91 
Q 1697 -91 1473 31 
Q 1250 153 1119 397 
L 1119 -1331 
L 544 -1331 
z
" transform="scale(0.015625)"/>
       <path id="DejaVuSans-67" d="M 2906 1791 
Q 2906 2416 2648 2759 
Q 2391 3103 1925 3103 
Q 1463 3103 1205 2759 
Q 947 2416 947 1791 
Q 947 1169 1205 825 
Q 1463 481 1925 481 
Q 2391 481 2648 825 
Q 2906 1169 2906 1791 
z
M 3481 434 
Q 3481 -459 3084 -895 
Q 2688 -1331 1869 -1331 
Q 1566 -1331 1297 -1286 
Q 1028 -1241 775 -1147 
L 775 -588 
Q 1028 -725 1275 -790 
Q 1522 -856 1778 -856 
Q 2344 -856 2625 -561 
Q 2906 -266 2906 331 
L 2906 616 
Q 2728 306 2450 153 
Q 2172 0 1784 0 
Q 1141 0 747 490 
Q 353 981 353 1791 
Q 353 2603 747 3093 
Q 1141 3584 1784 3584 
Q 2172 3584 2450 3431 
Q 2728 3278 2906 2969 
L 2906 3500 
L 3481 3500 
L 3481 434 
z
" transform="scale(0.015625)"/>
       <path id="DejaVuSans-2f" d="M 1625 4666 
L 2156 4666 
L 531 -594 
L 0 -594 
L 1625 4666 
z
" transform="scale(0.015625)"/>
       <path id="DejaVuSans-b2" d="M 838 2444 
L 2163 2444 
L 2163 2088 
L 294 2088 
L 294 2431 
Q 400 2528 597 2703 
Q 1672 3656 1672 3950 
Q 1672 4156 1509 4282 
Q 1347 4409 1081 4409 
Q 919 4409 728 4354 
Q 538 4300 313 4191 
L 313 4575 
Q 553 4663 761 4706 
Q 969 4750 1147 4750 
Q 1600 4750 1872 4544 
Q 2144 4338 2144 4000 
Q 2144 3566 1109 2678 
Q 934 2528 838 2444 
z
" transform="scale(0.015625)"/>
      </defs>
      <use xlink:href="#DejaVuSans-4b"/>
      <use xlink:href="#DejaVuSans-65" transform="translate(60.576172 0)"/>
      <use xlink:href="#DejaVuSans-74" transform="translate(122.099609 0)"/>
      <use xlink:href="#DejaVuSans-6f" transform="translate(161.308594 0)"/>
      <use xlink:href="#DejaVuSans-63" transform="translate(222.490234 0)"/>
      <use xlink:href="#DejaVuSans-6f" transform="translate(277.470703 0)"/>
      <use xlink:href="#DejaVuSans-6e" transform="translate(338.652344 0)"/>
      <use xlink:href="#DejaVuSans-61" transform="translate(402.03125 0)"/>
      <use xlink:href="#DejaVuSans-7a" transform="translate(463.310547 0)"/>
      <use xlink:href="#DejaVuSans-6f" transform="translate(515.800781 0)"/>
      <use xlink:href="#DejaVuSans-6c" transform="translate(576.982422 0)"/>
      <use xlink:href="#DejaVuSans-65" transform="translate(604.765625 0)"/>
      <use xlink:href="#DejaVuSans-20" transform="translate(666.289062 0)"/>
      <use xlink:href="#DejaVuSans-61" transform="translate(698.076172 0)"/>
      <use xlink:href="#DejaVuSans-6d" transform="translate(759.355469 0)"/>
      <use xlink:href="#DejaVuSans-6f" transform="translate(856.767578 0)"/>
      <use xlink:href="#DejaVuSans-75" transform="translate(917.949219 0)"/>
      <use xlink:href="#DejaVuSans-6e" transform="translate(981.328125 0)"/>
      <use xlink:href="#DejaVuSans-74" transform="translate(1044.707031 0)"/>
      <use xlink:href="#DejaVuSans-20" transform="translate(1083.916016 0)"/>
      <use xlink:href="#DejaVuSans-28" transform="translate(1115.703125 0)"/>
      <use xlink:href="#DejaVuSans-b5" transform="translate(1154.716797 0)"/>
      <use xlink:href="#DejaVuSans-67" transform="translate(1218.339844 0)"/>
      <use xlink:href="#DejaVuSans-2f" transform="translate(1281.816406 0)"/>
      <use xlink:href="#DejaVuSans-63" transform="translate(1315.507812 0)"/>
      <use xlink:href="#DejaVuSans-6d" transform="translate(1370.488281 0)"/>
      <use xlink:href="#DejaVuSans-b2" transform="translate(1467.900391 0)"/>
      <use xlink:href="#DejaVuSans-29" transform="translate(1507.988281 0)"/>
     </g>
    </g>
   </g>
   <g id="line2d_13">
    <path d="M 60.893104 279.092727 
L 63.74508 279.092727 
L 66.597055 279.092686 
L 69.449031 279.090348 
L 72.301006 279.072822 
L 75.152982 279.017189 
L 78.004958 278.901367 
L 80.856933 278.709894 
L 83.708909 278.434053 
L 86.560885 278.070165 
L 89.41286 277.617874 
L 92.264836 277.078874 
L 95.116812 276.456063 
L 97.968787 275.752987 
L 100.820763 274.973504 
L 103.672739 274.121576 
L 106.524714 273.201136 
L 109.37669 272.216017 
L 112.228665 271.169911 
L 115.080641 270.066345 
L 117.932617 268.908673 
L 120.784592 267.700075 
L 123.636568 266.443556 
L 126.488544 265.141957 
L 129.340519 263.797957 
L 132.192495 262.414082 
L 135.044471 260.992715 
L 137.896446 259.536099 
L 140.748422 258.04635 
L 143.600398 256.52546 
L 146.452373 254.975304 
L 149.304349 253.397652 
L 152.156325 251.794166 
L 155.0083 250.166418 
L 157.860276 248.515882 
L 160.712251 246.843952 
L 163.564227 245.151937 
L 166.416203 243.44107 
L 169.268178 241.712516 
L 172.120154 239.967367 
L 174.97213 238.206656 
L 177.824105 236.431353 
L 180.676081 234.642373 
L 183.528057 232.840577 
L 186.380032 231.026777 
L 189.232008 229.201737 
L 192.083984 227.366175 
L 194.935959 225.520771 
L 197.787935 223.666162 
L 200.63991 221.80295 
L 203.491886 219.9317 
L 206.343862 218.052946 
L 209.195837 216.16719 
L 212.047813 214.274905 
L 214.899789 212.376536 
L 217.751764 210.472503 
L 220.60374 208.563201 
L 223.455716 206.649002 
L 226.307691 204.730257 
L 229.159667 202.807295 
L 232.011643 200.880427 
L 234.863618 198.949946 
L 237.715594 197.016127 
L 240.567569 195.079231 
L 243.419545 193.1395 
L 246.271521 191.197167 
L 249.123496 189.252446 
L 251.975472 187.305543 
L 254.827448 185.356649 
L 257.679423 183.405946 
L 260.531399 181.453605 
L 263.383375 179.499785 
L 266.23535 177.544637 
L 269.087326 175.588305 
L 271.939302 173.630922 
L 274.791277 171.672613 
L 277.643253 169.713499 
L 280.495229 167.753691 
L 283.347204 165.793293 
L 286.19918 163.832406 
L 289.051155 161.871123 
L 291.903131 159.909531 
L 294.755107 157.947713 
L 297.607082 155.985748 
L 300.459058 154.023708 
L 303.311034 152.061663 
L 306.163009 150.099677 
L 309.014985 148.137812 
L 311.866961 146.176125 
L 314.718936 144.214671 
L 317.570912 142.2535 
L 320.422888 140.292661 
L 323.274863 138.332198 
L 326.126839 136.372154 
L 328.978814 134.41257 
L 331.83079 132.453482 
L 334.682766 130.494926 
L 337.534741 128.536936 
L 340.386717 126.579543 
L 343.238693 124.622776 
L 346.090668 122.666664 
L 348.942644 120.711231 
L 351.79462 118.756503 
L 354.646595 116.802504 
L 357.498571 114.849253 
L 360.350547 112.896773 
L 363.202522 110.945081 
L 366.054498 108.994197 
L 368.906474 107.044137 
L 371.758449 105.094916 
L 374.610425 103.146551 
L 377.4624 101.199054 
L 380.314376 99.25244 
L 383.166352 97.30672 
L 386.018327 95.361906 
L 388.870303 93.41801 
L 391.722279 91.475041 
L 394.574254 89.533009 
L 397.42623 87.591923 
L 400.278206 85.651791 
L 403.130181 83.712622 
" clip-path="url(#pd7621e0cc4)" style="fill: none; stroke: #1f77b4; stroke-width: 2; stroke-linecap: square"/>
   </g>
   <g id="patch_3">
    <path d="M 43.78125 289.08 
L 43.78125 69.36 
" style="fill: none; stroke: #000000; stroke-width: 0.8; stroke-linejoin: miter; stroke-linecap: square"/>
   </g>
   <g id="patch_4">
    <path d="M 43.78125 289.08 
L 420.242035 289.08 
" style="fill: none; stroke: #000000; stroke-width: 0.8; stroke-linejoin: miter; stroke-linecap: square"/>
   </g>
   <g id="text_15">
    <!-- A. Free KC receptor fit -->
    <g transform="translate(166.50758 63.36) scale(0.12 -0.12)">
     <defs>
      <path id="DejaVuSans-41" d="M 2188 4044 
L 1331 1722 
L 3047 1722 
L 2188 4044 
z
M 1831 4666 
L 2547 4666 
L 4325 0 
L 3669 0 
L 3244 1197 
L 1141 1197 
L 716 0 
L 50 0 
L 1831 4666 
z
" transform="scale(0.015625)"/>
      <path id="DejaVuSans-2e" d="M 684 794 
L 1344 794 
L 1344 0 
L 684 0 
L 684 794 
z
" transform="scale(0.015625)"/>
      <path id="DejaVuSans-46" d="M 628 4666 
L 3309 4666 
L 3309 4134 
L 1259 4134 
L 1259 2759 
L 3109 2759 
L 3109 2228 
L 1259 2228 
L 1259 0 
L 628 0 
L 628 4666 
z
" transform="scale(0.015625)"/>
      <path id="DejaVuSans-72" d="M 2631 2963 
Q 2534 3019 2420 3045 
Q 2306 3072 2169 3072 
Q 1681 3072 1420 2755 
Q 1159 2438 1159 1844 
L 1159 0 
L 581 0 
L 581 3500 
L 1159 3500 
L 1159 2956 
Q 1341 3275 1631 3429 
Q 1922 3584 2338 3584 
Q 2397 3584 2469 3576 
Q 2541 3569 2628 3553 
L 2631 2963 
z
" transform="scale(0.015625)"/>
      <path id="DejaVuSans-43" d="M 4122 4306 
L 4122 3641 
Q 3803 3938 3442 4084 
Q 3081 4231 2675 4231 
Q 1875 4231 1450 3742 
Q 1025 3253 1025 2328 
Q 1025 1406 1450 917 
Q 1875 428 2675 428 
Q 3081 428 3442 575 
Q 3803 722 4122 1019 
L 4122 359 
Q 3791 134 3420 21 
Q 3050 -91 2638 -91 
Q 1578 -91 968 557 
Q 359 1206 359 2328 
Q 359 3453 968 4101 
Q 1578 4750 2638 4750 
Q 3056 4750 3426 4639 
Q 3797 4528 4122 4306 
z
" transform="scale(0.015625)"/>
      <path id="DejaVuSans-70" d="M 1159 525 
L 1159 -1331 
L 581 -1331 
L 581 3500 
L 1159 3500 
L 1159 2969 
Q 1341 3281 1617 3432 
Q 1894 3584 2278 3584 
Q 2916 3584 3314 3078 
Q 3713 2572 3713 1747 
Q 3713 922 3314 415 
Q 2916 -91 2278 -91 
Q 1894 -91 1617 61 
Q 1341 213 1159 525 
z
M 3116 1747 
Q 3116 2381 2855 2742 
Q 2594 3103 2138 3103 
Q 1681 3103 1420 2742 
Q 1159 2381 1159 1747 
Q 1159 1113 1420 752 
Q 1681 391 2138 391 
Q 2594 391 2855 752 
Q 3116 1113 3116 1747 
z
" transform="scale(0.015625)"/>
      <path id="DejaVuSans-66" d="M 2375 4863 
L 2375 4384 
L 1825 4384 
Q 1516 4384 1395 4259 
Q 1275 4134 1275 3809 
L 1275 3500 
L 2222 3500 
L 2222 3053 
L 1275 3053 
L 1275 0 
L 697 0 
L 697 3053 
L 147 3053 
L 147 3500 
L 697 3500 
L 697 3744 
Q 697 4328 969 4595 
Q 1241 4863 1831 4863 
L 2375 4863 
z
" transform="scale(0.015625)"/>
     </defs>
     <use xlink:href="#DejaVuSans-41"/>
     <use xlink:href="#DejaVuSans-2e" transform="translate(66.658203 0)"/>
     <use xlink:href="#DejaVuSans-20" transform="translate(98.445312 0)"/>
     <use xlink:href="#DejaVuSans-46" transform="translate(130.232422 0)"/>
     <use xlink:href="#DejaVuSans-72" transform="translate(180.501953 0)"/>
     <use xlink:href="#DejaVuSans-65" transform="translate(219.365234 0)"/>
     <use xlink:href="#DejaVuSans-65" transform="translate(280.888672 0)"/>
     <use xlink:href="#DejaVuSans-20" transform="translate(342.412109 0)"/>
     <use xlink:href="#DejaVuSans-4b" transform="translate(374.199219 0)"/>
     <use xlink:href="#DejaVuSans-43" transform="translate(434.275391 0)"/>
     <use xlink:href="#DejaVuSans-20" transform="translate(504.099609 0)"/>
     <use xlink:href="#DejaVuSans-72" transform="translate(535.886719 0)"/>
     <use xlink:href="#DejaVuSans-65" transform="translate(574.75 0)"/>
     <use xlink:href="#DejaVuSans-63" transform="translate(636.273438 0)"/>
     <use xlink:href="#DejaVuSans-65" transform="translate(691.253906 0)"/>
     <use xlink:href="#DejaVuSans-70" transform="translate(752.777344 0)"/>
     <use xlink:href="#DejaVuSans-74" transform="translate(816.253906 0)"/>
     <use xlink:href="#DejaVuSans-6f" transform="translate(855.462891 0)"/>
     <use xlink:href="#DejaVuSans-72" transform="translate(916.644531 0)"/>
     <use xlink:href="#DejaVuSans-20" transform="translate(957.757812 0)"/>
     <use xlink:href="#DejaVuSans-66" transform="translate(989.544922 0)"/>
     <use xlink:href="#DejaVuSans-69" transform="translate(1024.75 0)"/>
     <use xlink:href="#DejaVuSans-74" transform="translate(1052.533203 0)"/>
    </g>
   </g>
   <g id="legend_1">
    <g id="line2d_14">
     <path d="M 52.78125 82.458437 
L 62.78125 82.458437 
L 72.78125 82.458437 
" style="fill: none; stroke: #1f77b4; stroke-width: 2; stroke-linecap: square"/>
    </g>
    <g id="text_16">
     <!-- Case 2 model -->
     <g transform="translate(80.78125 85.958437) scale(0.1 -0.1)">
      <defs>
       <path id="DejaVuSans-73" d="M 2834 3397 
L 2834 2853 
Q 2591 2978 2328 3040 
Q 2066 3103 1784 3103 
Q 1356 3103 1142 2972 
Q 928 2841 928 2578 
Q 928 2378 1081 2264 
Q 1234 2150 1697 2047 
L 1894 2003 
Q 2506 1872 2764 1633 
Q 3022 1394 3022 966 
Q 3022 478 2636 193 
Q 2250 -91 1575 -91 
Q 1294 -91 989 -36 
Q 684 19 347 128 
L 347 722 
Q 666 556 975 473 
Q 1284 391 1588 391 
Q 1994 391 2212 530 
Q 2431 669 2431 922 
Q 2431 1156 2273 1281 
Q 2116 1406 1581 1522 
L 1381 1569 
Q 847 1681 609 1914 
Q 372 2147 372 2553 
Q 372 3047 722 3315 
Q 1072 3584 1716 3584 
Q 2034 3584 2315 3537 
Q 2597 3491 2834 3397 
z
" transform="scale(0.015625)"/>
       <path id="DejaVuSans-64" d="M 2906 2969 
L 2906 4863 
L 3481 4863 
L 3481 0 
L 2906 0 
L 2906 525 
Q 2725 213 2448 61 
Q 2172 -91 1784 -91 
Q 1150 -91 751 415 
Q 353 922 353 1747 
Q 353 2572 751 3078 
Q 1150 3584 1784 3584 
Q 2172 3584 2448 3432 
Q 2725 3281 2906 2969 
z
M 947 1747 
Q 947 1113 1208 752 
Q 1469 391 1925 391 
Q 2381 391 2643 752 
Q 2906 1113 2906 1747 
Q 2906 2381 2643 2742 
Q 2381 3103 1925 3103 
Q 1469 3103 1208 2742 
Q 947 2381 947 1747 
z
" transform="scale(0.015625)"/>
      </defs>
      <use xlink:href="#DejaVuSans-43"/>
      <use xlink:href="#DejaVuSans-61" transform="translate(69.824219 0)"/>
      <use xlink:href="#DejaVuSans-73" transform="translate(131.103516 0)"/>
      <use xlink:href="#DejaVuSans-65" transform="translate(183.203125 0)"/>
      <use xlink:href="#DejaVuSans-20" transform="translate(244.726562 0)"/>
      <use xlink:href="#DejaVuSans-32" transform="translate(276.513672 0)"/>
      <use xlink:href="#DejaVuSans-20" transform="translate(340.136719 0)"/>
      <use xlink:href="#DejaVuSans-6d" transform="translate(371.923828 0)"/>
      <use xlink:href="#DejaVuSans-6f" transform="translate(469.335938 0)"/>
      <use xlink:href="#DejaVuSans-64" transform="translate(530.517578 0)"/>
      <use xlink:href="#DejaVuSans-65" transform="translate(593.994141 0)"/>
      <use xlink:href="#DejaVuSans-6c" transform="translate(655.517578 0)"/>
     </g>
    </g>
    <g id="PathCollection_2">
     <g>
      <use xlink:href="#m0eb7b9d3f2" x="62.78125" y="98.011562" style="fill: #1f77b4; stroke: #1f77b4"/>
     </g>
    </g>
    <g id="text_17">
     <!-- Experimental data -->
     <g transform="translate(80.78125 100.636562) scale(0.1 -0.1)">
      <defs>
       <path id="DejaVuSans-45" d="M 628 4666 
L 3578 4666 
L 3578 4134 
L 1259 4134 
L 1259 2753 
L 3481 2753 
L 3481 2222 
L 1259 2222 
L 1259 531 
L 3634 531 
L 3634 0 
L 628 0 
L 628 4666 
z
" transform="scale(0.015625)"/>
       <path id="DejaVuSans-78" d="M 3513 3500 
L 2247 1797 
L 3578 0 
L 2900 0 
L 1881 1375 
L 863 0 
L 184 0 
L 1544 1831 
L 300 3500 
L 978 3500 
L 1906 2253 
L 2834 3500 
L 3513 3500 
z
" transform="scale(0.015625)"/>
      </defs>
      <use xlink:href="#DejaVuSans-45"/>
      <use xlink:href="#DejaVuSans-78" transform="translate(63.183594 0)"/>
      <use xlink:href="#DejaVuSans-70" transform="translate(122.363281 0)"/>
      <use xlink:href="#DejaVuSans-65" transform="translate(185.839844 0)"/>
      <use xlink:href="#DejaVuSans-72" transform="translate(247.363281 0)"/>
      <use xlink:href="#DejaVuSans-69" transform="translate(288.476562 0)"/>
      <use xlink:href="#DejaVuSans-6d" transform="translate(316.259766 0)"/>
      <use xlink:href="#DejaVuSans-65" transform="translate(413.671875 0)"/>
      <use xlink:href="#DejaVuSans-6e" transform="translate(475.195312 0)"/>
      <use xlink:href="#DejaVuSans-74" transform="translate(538.574219 0)"/>
      <use xlink:href="#DejaVuSans-61" transform="translate(577.783203 0)"/>
      <use xlink:href="#DejaVuSans-6c" transform="translate(639.0625 0)"/>
      <use xlink:href="#DejaVuSans-20" transform="translate(666.845703 0)"/>
      <use xlink:href="#DejaVuSans-64" transform="translate(698.632812 0)"/>
      <use xlink:href="#DejaVuSans-61" transform="translate(762.109375 0)"/>
      <use xlink:href="#DejaVuSans-74" transform="translate(823.388672 0)"/>
      <use xlink:href="#DejaVuSans-61" transform="translate(862.597656 0)"/>
     </g>
    </g>
   </g>
  </g>
  <g id="axes_2">
   <g id="patch_5">
    <path d="M 468.80625 289.08 
L 845.267035 289.08 
L 845.267035 69.36 
L 468.80625 69.36 
z
" style="fill: #ffffff"/>
   </g>
   <g id="PathCollection_3">
    <g clip-path="url(#p41691ce246)">
     <use xlink:href="#m0eb7b9d3f2" x="542.957617" y="268.861716" style="fill: #1f77b4; stroke: #1f77b4"/>
     <use xlink:href="#m0eb7b9d3f2" x="571.477373" y="256.223407" style="fill: #1f77b4; stroke: #1f77b4"/>
     <use xlink:href="#m0eb7b9d3f2" x="599.99713" y="238.770505" style="fill: #1f77b4; stroke: #1f77b4"/>
     <use xlink:href="#m0eb7b9d3f2" x="657.036643" y="197.244635" style="fill: #1f77b4; stroke: #1f77b4"/>
     <use xlink:href="#m0eb7b9d3f2" x="828.155181" y="79.347273" style="fill: #1f77b4; stroke: #1f77b4"/>
    </g>
   </g>
   <g id="matplotlib.axis_3">
    <g id="xtick_7">
     <g id="line2d_15">
      <g>
       <use xlink:href="#m9ac1134e6b" x="485.918104" y="289.08" style="stroke: #000000; stroke-width: 0.8"/>
      </g>
     </g>
     <g id="text_18">
      <!-- 0 -->
      <g transform="translate(482.736854 303.678437) scale(0.1 -0.1)">
       <use xlink:href="#DejaVuSans-30"/>
      </g>
     </g>
    </g>
    <g id="xtick_8">
     <g id="line2d_16">
      <g>
       <use xlink:href="#m9ac1134e6b" x="557.217495" y="289.08" style="stroke: #000000; stroke-width: 0.8"/>
      </g>
     </g>
     <g id="text_19">
      <!-- 5 -->
      <g transform="translate(554.036245 303.678437) scale(0.1 -0.1)">
       <use xlink:href="#DejaVuSans-35"/>
      </g>
     </g>
    </g>
    <g id="xtick_9">
     <g id="line2d_17">
      <g>
       <use xlink:href="#m9ac1134e6b" x="628.516886" y="289.08" style="stroke: #000000; stroke-width: 0.8"/>
      </g>
     </g>
     <g id="text_20">
      <!-- 10 -->
      <g transform="translate(622.154386 303.678437) scale(0.1 -0.1)">
       <use xlink:href="#DejaVuSans-31"/>
       <use xlink:href="#DejaVuSans-30" transform="translate(63.623047 0)"/>
      </g>
     </g>
    </g>
    <g id="xtick_10">
     <g id="line2d_18">
      <g>
       <use xlink:href="#m9ac1134e6b" x="699.816277" y="289.08" style="stroke: #000000; stroke-width: 0.8"/>
      </g>
     </g>
     <g id="text_21">
      <!-- 15 -->
      <g transform="translate(693.453777 303.678437) scale(0.1 -0.1)">
       <use xlink:href="#DejaVuSans-31"/>
       <use xlink:href="#DejaVuSans-35" transform="translate(63.623047 0)"/>
      </g>
     </g>
    </g>
    <g id="xtick_11">
     <g id="line2d_19">
      <g>
       <use xlink:href="#m9ac1134e6b" x="771.115668" y="289.08" style="stroke: #000000; stroke-width: 0.8"/>
      </g>
     </g>
     <g id="text_22">
      <!-- 20 -->
      <g transform="translate(764.753168 303.678437) scale(0.1 -0.1)">
       <use xlink:href="#DejaVuSans-32"/>
       <use xlink:href="#DejaVuSans-30" transform="translate(63.623047 0)"/>
      </g>
     </g>
    </g>
    <g id="xtick_12">
     <g id="line2d_20">
      <g>
       <use xlink:href="#m9ac1134e6b" x="842.415059" y="289.08" style="stroke: #000000; stroke-width: 0.8"/>
      </g>
     </g>
     <g id="text_23">
      <!-- 25 -->
      <g transform="translate(836.052559 303.678437) scale(0.1 -0.1)">
       <use xlink:href="#DejaVuSans-32"/>
       <use xlink:href="#DejaVuSans-35" transform="translate(63.623047 0)"/>
      </g>
     </g>
    </g>
    <g id="text_24">
     <!-- Time (h) -->
     <g transform="translate(636.143674 317.356562) scale(0.1 -0.1)">
      <use xlink:href="#DejaVuSans-54"/>
      <use xlink:href="#DejaVuSans-69" transform="translate(57.958984 0)"/>
      <use xlink:href="#DejaVuSans-6d" transform="translate(85.742188 0)"/>
      <use xlink:href="#DejaVuSans-65" transform="translate(183.154297 0)"/>
      <use xlink:href="#DejaVuSans-20" transform="translate(244.677734 0)"/>
      <use xlink:href="#DejaVuSans-28" transform="translate(276.464844 0)"/>
      <use xlink:href="#DejaVuSans-68" transform="translate(315.478516 0)"/>
      <use xlink:href="#DejaVuSans-29" transform="translate(378.857422 0)"/>
     </g>
    </g>
   </g>
   <g id="matplotlib.axis_4">
    <g id="ytick_7">
     <g id="line2d_21">
      <g>
       <use xlink:href="#m109f5be842" x="468.80625" y="279.092727" style="stroke: #000000; stroke-width: 0.8"/>
      </g>
     </g>
     <g id="text_25">
      <!-- 0 -->
      <g transform="translate(455.44375 282.891946) scale(0.1 -0.1)">
       <use xlink:href="#DejaVuSans-30"/>
      </g>
     </g>
    </g>
    <g id="ytick_8">
     <g id="line2d_22">
      <g>
       <use xlink:href="#m109f5be842" x="468.80625" y="249.001517" style="stroke: #000000; stroke-width: 0.8"/>
      </g>
     </g>
     <g id="text_26">
      <!-- 5 -->
      <g transform="translate(455.44375 252.800736) scale(0.1 -0.1)">
       <use xlink:href="#DejaVuSans-35"/>
      </g>
     </g>
    </g>
    <g id="ytick_9">
     <g id="line2d_23">
      <g>
       <use xlink:href="#m109f5be842" x="468.80625" y="218.910306" style="stroke: #000000; stroke-width: 0.8"/>
      </g>
     </g>
     <g id="text_27">
      <!-- 10 -->
      <g transform="translate(449.08125 222.709525) scale(0.1 -0.1)">
       <use xlink:href="#DejaVuSans-31"/>
       <use xlink:href="#DejaVuSans-30" transform="translate(63.623047 0)"/>
      </g>
     </g>
    </g>
    <g id="ytick_10">
     <g id="line2d_24">
      <g>
       <use xlink:href="#m109f5be842" x="468.80625" y="188.819096" style="stroke: #000000; stroke-width: 0.8"/>
      </g>
     </g>
     <g id="text_28">
      <!-- 15 -->
      <g transform="translate(449.08125 192.618315) scale(0.1 -0.1)">
       <use xlink:href="#DejaVuSans-31"/>
       <use xlink:href="#DejaVuSans-35" transform="translate(63.623047 0)"/>
      </g>
     </g>
    </g>
    <g id="ytick_11">
     <g id="line2d_25">
      <g>
       <use xlink:href="#m109f5be842" x="468.80625" y="158.727886" style="stroke: #000000; stroke-width: 0.8"/>
      </g>
     </g>
     <g id="text_29">
      <!-- 20 -->
      <g transform="translate(449.08125 162.527104) scale(0.1 -0.1)">
       <use xlink:href="#DejaVuSans-32"/>
       <use xlink:href="#DejaVuSans-30" transform="translate(63.623047 0)"/>
      </g>
     </g>
    </g>
    <g id="ytick_12">
     <g id="line2d_26">
      <g>
       <use xlink:href="#m109f5be842" x="468.80625" y="128.636675" style="stroke: #000000; stroke-width: 0.8"/>
      </g>
     </g>
     <g id="text_30">
      <!-- 25 -->
      <g transform="translate(449.08125 132.435894) scale(0.1 -0.1)">
       <use xlink:href="#DejaVuSans-32"/>
       <use xlink:href="#DejaVuSans-35" transform="translate(63.623047 0)"/>
      </g>
     </g>
    </g>
    <g id="ytick_13">
     <g id="line2d_27">
      <g>
       <use xlink:href="#m109f5be842" x="468.80625" y="98.545465" style="stroke: #000000; stroke-width: 0.8"/>
      </g>
     </g>
     <g id="text_31">
      <!-- 30 -->
      <g transform="translate(449.08125 102.344684) scale(0.1 -0.1)">
       <defs>
        <path id="DejaVuSans-33" d="M 2597 2516 
Q 3050 2419 3304 2112 
Q 3559 1806 3559 1356 
Q 3559 666 3084 287 
Q 2609 -91 1734 -91 
Q 1441 -91 1130 -33 
Q 819 25 488 141 
L 488 750 
Q 750 597 1062 519 
Q 1375 441 1716 441 
Q 2309 441 2620 675 
Q 2931 909 2931 1356 
Q 2931 1769 2642 2001 
Q 2353 2234 1838 2234 
L 1294 2234 
L 1294 2753 
L 1863 2753 
Q 2328 2753 2575 2939 
Q 2822 3125 2822 3475 
Q 2822 3834 2567 4026 
Q 2313 4219 1838 4219 
Q 1578 4219 1281 4162 
Q 984 4106 628 3988 
L 628 4550 
Q 988 4650 1302 4700 
Q 1616 4750 1894 4750 
Q 2613 4750 3031 4423 
Q 3450 4097 3450 3541 
Q 3450 3153 3228 2886 
Q 3006 2619 2597 2516 
z
" transform="scale(0.015625)"/>
       </defs>
       <use xlink:href="#DejaVuSans-33"/>
       <use xlink:href="#DejaVuSans-30" transform="translate(63.623047 0)"/>
      </g>
     </g>
    </g>
    <g id="text_32">
     <!-- Ketoconazole amount (µg/cm²) -->
     <g transform="translate(443.001562 256.570781) rotate(-90) scale(0.1 -0.1)">
      <use xlink:href="#DejaVuSans-4b"/>
      <use xlink:href="#DejaVuSans-65" transform="translate(60.576172 0)"/>
      <use xlink:href="#DejaVuSans-74" transform="translate(122.099609 0)"/>
      <use xlink:href="#DejaVuSans-6f" transform="translate(161.308594 0)"/>
      <use xlink:href="#DejaVuSans-63" transform="translate(222.490234 0)"/>
      <use xlink:href="#DejaVuSans-6f" transform="translate(277.470703 0)"/>
      <use xlink:href="#DejaVuSans-6e" transform="translate(338.652344 0)"/>
      <use xlink:href="#DejaVuSans-61" transform="translate(402.03125 0)"/>
      <use xlink:href="#DejaVuSans-7a" transform="translate(463.310547 0)"/>
      <use xlink:href="#DejaVuSans-6f" transform="translate(515.800781 0)"/>
      <use xlink:href="#DejaVuSans-6c" transform="translate(576.982422 0)"/>
      <use xlink:href="#DejaVuSans-65" transform="translate(604.765625 0)"/>
      <use xlink:href="#DejaVuSans-20" transform="translate(666.289062 0)"/>
      <use xlink:href="#DejaVuSans-61" transform="translate(698.076172 0)"/>
      <use xlink:href="#DejaVuSans-6d" transform="translate(759.355469 0)"/>
      <use xlink:href="#DejaVuSans-6f" transform="translate(856.767578 0)"/>
      <use xlink:href="#DejaVuSans-75" transform="translate(917.949219 0)"/>
      <use xlink:href="#DejaVuSans-6e" transform="translate(981.328125 0)"/>
      <use xlink:href="#DejaVuSans-74" transform="translate(1044.707031 0)"/>
      <use xlink:href="#DejaVuSans-20" transform="translate(1083.916016 0)"/>
      <use xlink:href="#DejaVuSans-28" transform="translate(1115.703125 0)"/>
      <use xlink:href="#DejaVuSans-b5" transform="translate(1154.716797 0)"/>
      <use xlink:href="#DejaVuSans-67" transform="translate(1218.339844 0)"/>
      <use xlink:href="#DejaVuSans-2f" transform="translate(1281.816406 0)"/>
      <use xlink:href="#DejaVuSans-63" transform="translate(1315.507812 0)"/>
      <use xlink:href="#DejaVuSans-6d" transform="translate(1370.488281 0)"/>
      <use xlink:href="#DejaVuSans-b2" transform="translate(1467.900391 0)"/>
      <use xlink:href="#DejaVuSans-29" transform="translate(1507.988281 0)"/>
     </g>
    </g>
   </g>
   <g id="line2d_28">
    <path d="M 485.918104 279.092727 
L 488.77008 279.092727 
L 491.622055 279.092719 
L 494.474031 279.091811 
L 497.326006 279.082349 
L 500.177982 279.045551 
L 503.029958 278.958073 
L 505.881933 278.799722 
L 508.733909 278.556459 
L 511.585885 278.220201 
L 514.43786 277.787526 
L 517.289836 277.258303 
L 520.141812 276.63458 
L 522.993787 275.919768 
L 525.845763 275.118071 
L 528.697739 274.234104 
L 531.549714 273.272632 
L 534.40169 272.238417 
L 537.253665 271.136103 
L 540.105641 269.970162 
L 542.957617 268.744852 
L 545.809592 267.464205 
L 548.661568 266.132017 
L 551.513544 264.751852 
L 554.365519 263.327047 
L 557.217495 261.860723 
L 560.069471 260.355792 
L 562.921446 258.814973 
L 565.773422 257.240798 
L 568.625398 255.635629 
L 571.477373 254.001665 
L 574.329349 252.340953 
L 577.181325 250.655401 
L 580.0333 248.946784 
L 582.885276 247.216756 
L 585.737251 245.466855 
L 588.589227 243.698513 
L 591.441203 241.913063 
L 594.293178 240.111745 
L 597.145154 238.295716 
L 599.99713 236.466048 
L 602.849105 234.623744 
L 605.701081 232.769733 
L 608.553057 230.904884 
L 611.405032 229.030001 
L 614.257008 227.145836 
L 617.108984 225.253088 
L 619.960959 223.352405 
L 622.812935 221.444395 
L 625.66491 219.529619 
L 628.516886 217.608602 
L 631.368862 215.681831 
L 634.220837 213.749761 
L 637.072813 211.812814 
L 639.924789 209.871384 
L 642.776764 207.925835 
L 645.62874 205.97651 
L 648.480716 204.023724 
L 651.332691 202.067772 
L 654.184667 200.10893 
L 657.036643 198.147453 
L 659.888618 196.183578 
L 662.740594 194.217527 
L 665.592569 192.249505 
L 668.444545 190.279705 
L 671.296521 188.308304 
L 674.148496 186.335469 
L 677.000472 184.361354 
L 679.852448 182.386102 
L 682.704423 180.409848 
L 685.556399 178.432715 
L 688.408375 176.45482 
L 691.26035 174.47627 
L 694.112326 172.497167 
L 696.964302 170.517602 
L 699.816277 168.537662 
L 702.668253 166.55743 
L 705.520229 164.576979 
L 708.372204 162.596379 
L 711.22418 160.615697 
L 714.076155 158.634991 
L 716.928131 156.654319 
L 719.780107 154.673733 
L 722.632082 152.693281 
L 725.484058 150.71301 
L 728.336034 148.73296 
L 731.188009 146.753172 
L 734.039985 144.773682 
L 736.891961 142.794524 
L 739.743936 140.81573 
L 742.595912 138.837328 
L 745.447888 136.859346 
L 748.299863 134.88181 
L 751.151839 132.904743 
L 754.003814 130.928167 
L 756.85579 128.952102 
L 759.707766 126.976568 
L 762.559741 125.001582 
L 765.411717 123.02716 
L 768.263693 121.053319 
L 771.115668 119.080071 
L 773.967644 117.10743 
L 776.81962 115.135408 
L 779.671595 113.164017 
L 782.523571 111.193267 
L 785.375547 109.223169 
L 788.227522 107.25373 
L 791.079498 105.28496 
L 793.931474 103.316866 
L 796.783449 101.349455 
L 799.635425 99.382735 
L 802.4874 97.416712 
L 805.339376 95.451391 
L 808.191352 93.486778 
L 811.043327 91.522877 
L 813.895303 89.559694 
L 816.747279 87.597233 
L 819.599254 85.635498 
L 822.45123 83.674491 
L 825.303206 81.714218 
L 828.155181 79.75468 
" clip-path="url(#p41691ce246)" style="fill: none; stroke: #1f77b4; stroke-width: 2; stroke-linecap: square"/>
   </g>
   <g id="patch_6">
    <path d="M 468.80625 289.08 
L 468.80625 69.36 
" style="fill: none; stroke: #000000; stroke-width: 0.8; stroke-linejoin: miter; stroke-linecap: square"/>
   </g>
   <g id="patch_7">
    <path d="M 468.80625 289.08 
L 845.267035 289.08 
" style="fill: none; stroke: #000000; stroke-width: 0.8; stroke-linejoin: miter; stroke-linecap: square"/>
   </g>
   <g id="text_33">
    <!-- B. KLZ-NPs receptor fit -->
    <g transform="translate(589.273205 63.36) scale(0.12 -0.12)">
     <defs>
      <path id="DejaVuSans-42" d="M 1259 2228 
L 1259 519 
L 2272 519 
Q 2781 519 3026 730 
Q 3272 941 3272 1375 
Q 3272 1813 3026 2020 
Q 2781 2228 2272 2228 
L 1259 2228 
z
M 1259 4147 
L 1259 2741 
L 2194 2741 
Q 2656 2741 2882 2914 
Q 3109 3088 3109 3444 
Q 3109 3797 2882 3972 
Q 2656 4147 2194 4147 
L 1259 4147 
z
M 628 4666 
L 2241 4666 
Q 2963 4666 3353 4366 
Q 3744 4066 3744 3513 
Q 3744 3084 3544 2831 
Q 3344 2578 2956 2516 
Q 3422 2416 3680 2098 
Q 3938 1781 3938 1306 
Q 3938 681 3513 340 
Q 3088 0 2303 0 
L 628 0 
L 628 4666 
z
" transform="scale(0.015625)"/>
      <path id="DejaVuSans-4c" d="M 628 4666 
L 1259 4666 
L 1259 531 
L 3531 531 
L 3531 0 
L 628 0 
L 628 4666 
z
" transform="scale(0.015625)"/>
      <path id="DejaVuSans-5a" d="M 359 4666 
L 4025 4666 
L 4025 4184 
L 1075 531 
L 4097 531 
L 4097 0 
L 288 0 
L 288 481 
L 3238 4134 
L 359 4134 
L 359 4666 
z
" transform="scale(0.015625)"/>
      <path id="DejaVuSans-2d" d="M 313 2009 
L 1997 2009 
L 1997 1497 
L 313 1497 
L 313 2009 
z
" transform="scale(0.015625)"/>
      <path id="DejaVuSans-4e" d="M 628 4666 
L 1478 4666 
L 3547 763 
L 3547 4666 
L 4159 4666 
L 4159 0 
L 3309 0 
L 1241 3903 
L 1241 0 
L 628 0 
L 628 4666 
z
" transform="scale(0.015625)"/>
      <path id="DejaVuSans-50" d="M 1259 4147 
L 1259 2394 
L 2053 2394 
Q 2494 2394 2734 2622 
Q 2975 2850 2975 3272 
Q 2975 3691 2734 3919 
Q 2494 4147 2053 4147 
L 1259 4147 
z
M 628 4666 
L 2053 4666 
Q 2838 4666 3239 4311 
Q 3641 3956 3641 3272 
Q 3641 2581 3239 2228 
Q 2838 1875 2053 1875 
L 1259 1875 
L 1259 0 
L 628 0 
L 628 4666 
z
" transform="scale(0.015625)"/>
     </defs>
     <use xlink:href="#DejaVuSans-42"/>
     <use xlink:href="#DejaVuSans-2e" transform="translate(68.603516 0)"/>
     <use xlink:href="#DejaVuSans-20" transform="translate(100.390625 0)"/>
     <use xlink:href="#DejaVuSans-4b" transform="translate(132.177734 0)"/>
     <use xlink:href="#DejaVuSans-4c" transform="translate(197.753906 0)"/>
     <use xlink:href="#DejaVuSans-5a" transform="translate(253.466797 0)"/>
     <use xlink:href="#DejaVuSans-2d" transform="translate(320.222656 0)"/>
     <use xlink:href="#DejaVuSans-4e" transform="translate(356.306641 0)"/>
     <use xlink:href="#DejaVuSans-50" transform="translate(431.111328 0)"/>
     <use xlink:href="#DejaVuSans-73" transform="translate(489.664062 0)"/>
     <use xlink:href="#DejaVuSans-20" transform="translate(541.763672 0)"/>
     <use xlink:href="#DejaVuSans-72" transform="translate(573.550781 0)"/>
     <use xlink:href="#DejaVuSans-65" transform="translate(612.414062 0)"/>
     <use xlink:href="#DejaVuSans-63" transform="translate(673.9375 0)"/>
     <use xlink:href="#DejaVuSans-65" transform="translate(728.917969 0)"/>
     <use xlink:href="#DejaVuSans-70" transform="translate(790.441406 0)"/>
     <use xlink:href="#DejaVuSans-74" transform="translate(853.917969 0)"/>
     <use xlink:href="#DejaVuSans-6f" transform="translate(893.126953 0)"/>
     <use xlink:href="#DejaVuSans-72" transform="translate(954.308594 0)"/>
     <use xlink:href="#DejaVuSans-20" transform="translate(995.421875 0)"/>
     <use xlink:href="#DejaVuSans-66" transform="translate(1027.208984 0)"/>
     <use xlink:href="#DejaVuSans-69" transform="translate(1062.414062 0)"/>
     <use xlink:href="#DejaVuSans-74" transform="translate(1090.197266 0)"/>
    </g>
   </g>
   <g id="legend_2">
    <g id="line2d_29">
     <path d="M 477.80625 82.458437 
L 487.80625 82.458437 
L 497.80625 82.458437 
" style="fill: none; stroke: #1f77b4; stroke-width: 2; stroke-linecap: square"/>
    </g>
    <g id="text_34">
     <!-- Case 2 model -->
     <g transform="translate(505.80625 85.958437) scale(0.1 -0.1)">
      <use xlink:href="#DejaVuSans-43"/>
      <use xlink:href="#DejaVuSans-61" transform="translate(69.824219 0)"/>
      <use xlink:href="#DejaVuSans-73" transform="translate(131.103516 0)"/>
      <use xlink:href="#DejaVuSans-65" transform="translate(183.203125 0)"/>
      <use xlink:href="#DejaVuSans-20" transform="translate(244.726562 0)"/>
      <use xlink:href="#DejaVuSans-32" transform="translate(276.513672 0)"/>
      <use xlink:href="#DejaVuSans-20" transform="translate(340.136719 0)"/>
      <use xlink:href="#DejaVuSans-6d" transform="translate(371.923828 0)"/>
      <use xlink:href="#DejaVuSans-6f" transform="translate(469.335938 0)"/>
      <use xlink:href="#DejaVuSans-64" transform="translate(530.517578 0)"/>
      <use xlink:href="#DejaVuSans-65" transform="translate(593.994141 0)"/>
      <use xlink:href="#DejaVuSans-6c" transform="translate(655.517578 0)"/>
     </g>
    </g>
    <g id="PathCollection_4">
     <g>
      <use xlink:href="#m0eb7b9d3f2" x="487.80625" y="98.011562" style="fill: #1f77b4; stroke: #1f77b4"/>
     </g>
    </g>
    <g id="text_35">
     <!-- Experimental data -->
     <g transform="translate(505.80625 100.636562) scale(0.1 -0.1)">
      <use xlink:href="#DejaVuSans-45"/>
      <use xlink:href="#DejaVuSans-78" transform="translate(63.183594 0)"/>
      <use xlink:href="#DejaVuSans-70" transform="translate(122.363281 0)"/>
      <use xlink:href="#DejaVuSans-65" transform="translate(185.839844 0)"/>
      <use xlink:href="#DejaVuSans-72" transform="translate(247.363281 0)"/>
      <use xlink:href="#DejaVuSans-69" transform="translate(288.476562 0)"/>
      <use xlink:href="#DejaVuSans-6d" transform="translate(316.259766 0)"/>
      <use xlink:href="#DejaVuSans-65" transform="translate(413.671875 0)"/>
      <use xlink:href="#DejaVuSans-6e" transform="translate(475.195312 0)"/>
      <use xlink:href="#DejaVuSans-74" transform="translate(538.574219 0)"/>
      <use xlink:href="#DejaVuSans-61" transform="translate(577.783203 0)"/>
      <use xlink:href="#DejaVuSans-6c" transform="translate(639.0625 0)"/>
      <use xlink:href="#DejaVuSans-20" transform="translate(666.845703 0)"/>
      <use xlink:href="#DejaVuSans-64" transform="translate(698.632812 0)"/>
      <use xlink:href="#DejaVuSans-61" transform="translate(762.109375 0)"/>
      <use xlink:href="#DejaVuSans-74" transform="translate(823.388672 0)"/>
      <use xlink:href="#DejaVuSans-61" transform="translate(862.597656 0)"/>
     </g>
    </g>
   </g>
  </g>
  <g id="axes_3">
   <g id="patch_8">
    <path d="M 43.78125 566.84 
L 420.242035 566.84 
L 420.242035 347.12 
L 43.78125 347.12 
z
" style="fill: #ffffff"/>
   </g>
   <g id="patch_9">
    <path d="M 60.893104 566.84 
L 132.52412 566.84 
L 132.52412 497.105385 
L 60.893104 497.105385 
z
" clip-path="url(#pf85a6f29b9)" style="fill: #1f77b4"/>
   </g>
   <g id="patch_10">
    <path d="M 259.868149 566.84 
L 331.499165 566.84 
L 331.499165 357.636155 
L 259.868149 357.636155 
z
" clip-path="url(#pf85a6f29b9)" style="fill: #1f77b4"/>
   </g>
   <g id="patch_11">
    <path d="M 132.52412 566.84 
L 204.155136 566.84 
L 204.155136 497.153667 
L 132.52412 497.153667 
z
" clip-path="url(#pf85a6f29b9)" style="fill: #ff7f0e"/>
   </g>
   <g id="patch_12">
    <path d="M 331.499165 566.84 
L 403.130181 566.84 
L 403.130181 357.582857 
L 331.499165 357.582857 
z
" clip-path="url(#pf85a6f29b9)" style="fill: #ff7f0e"/>
   </g>
   <g id="matplotlib.axis_5">
    <g id="xtick_13">
     <g id="line2d_30">
      <g>
       <use xlink:href="#m9ac1134e6b" x="132.52412" y="566.84" style="stroke: #000000; stroke-width: 0.8"/>
      </g>
     </g>
     <g id="text_36">
      <!-- Free KC -->
      <g transform="translate(113.83037 581.438437) scale(0.1 -0.1)">
       <use xlink:href="#DejaVuSans-46"/>
       <use xlink:href="#DejaVuSans-72" transform="translate(50.269531 0)"/>
       <use xlink:href="#DejaVuSans-65" transform="translate(89.132812 0)"/>
       <use xlink:href="#DejaVuSans-65" transform="translate(150.65625 0)"/>
       <use xlink:href="#DejaVuSans-20" transform="translate(212.179688 0)"/>
       <use xlink:href="#DejaVuSans-4b" transform="translate(243.966797 0)"/>
       <use xlink:href="#DejaVuSans-43" transform="translate(304.042969 0)"/>
      </g>
     </g>
    </g>
    <g id="xtick_14">
     <g id="line2d_31">
      <g>
       <use xlink:href="#m9ac1134e6b" x="331.499165" y="566.84" style="stroke: #000000; stroke-width: 0.8"/>
      </g>
     </g>
     <g id="text_37">
      <!-- KLZ-NPs -->
      <g transform="translate(311.020259 581.438437) scale(0.1 -0.1)">
       <use xlink:href="#DejaVuSans-4b"/>
       <use xlink:href="#DejaVuSans-4c" transform="translate(65.576172 0)"/>
       <use xlink:href="#DejaVuSans-5a" transform="translate(121.289062 0)"/>
       <use xlink:href="#DejaVuSans-2d" transform="translate(188.044922 0)"/>
       <use xlink:href="#DejaVuSans-4e" transform="translate(224.128906 0)"/>
       <use xlink:href="#DejaVuSans-50" transform="translate(298.933594 0)"/>
       <use xlink:href="#DejaVuSans-73" transform="translate(357.486328 0)"/>
      </g>
     </g>
    </g>
   </g>
   <g id="matplotlib.axis_6">
    <g id="ytick_14">
     <g id="line2d_32">
      <g>
       <use xlink:href="#m109f5be842" x="43.78125" y="566.84" style="stroke: #000000; stroke-width: 0.8"/>
      </g>
     </g>
     <g id="text_38">
      <!-- 0.0 -->
      <g transform="translate(20.878125 570.639219) scale(0.1 -0.1)">
       <use xlink:href="#DejaVuSans-30"/>
       <use xlink:href="#DejaVuSans-2e" transform="translate(63.623047 0)"/>
       <use xlink:href="#DejaVuSans-30" transform="translate(95.410156 0)"/>
      </g>
     </g>
    </g>
    <g id="ytick_15">
     <g id="line2d_33">
      <g>
       <use xlink:href="#m109f5be842" x="43.78125" y="528.098547" style="stroke: #000000; stroke-width: 0.8"/>
      </g>
     </g>
     <g id="text_39">
      <!-- 0.5 -->
      <g transform="translate(20.878125 531.897766) scale(0.1 -0.1)">
       <use xlink:href="#DejaVuSans-30"/>
       <use xlink:href="#DejaVuSans-2e" transform="translate(63.623047 0)"/>
       <use xlink:href="#DejaVuSans-35" transform="translate(95.410156 0)"/>
      </g>
     </g>
    </g>
    <g id="ytick_16">
     <g id="line2d_34">
      <g>
       <use xlink:href="#m109f5be842" x="43.78125" y="489.357094" style="stroke: #000000; stroke-width: 0.8"/>
      </g>
     </g>
     <g id="text_40">
      <!-- 1.0 -->
      <g transform="translate(20.878125 493.156313) scale(0.1 -0.1)">
       <use xlink:href="#DejaVuSans-31"/>
       <use xlink:href="#DejaVuSans-2e" transform="translate(63.623047 0)"/>
       <use xlink:href="#DejaVuSans-30" transform="translate(95.410156 0)"/>
      </g>
     </g>
    </g>
    <g id="ytick_17">
     <g id="line2d_35">
      <g>
       <use xlink:href="#m109f5be842" x="43.78125" y="450.615642" style="stroke: #000000; stroke-width: 0.8"/>
      </g>
     </g>
     <g id="text_41">
      <!-- 1.5 -->
      <g transform="translate(20.878125 454.41486) scale(0.1 -0.1)">
       <use xlink:href="#DejaVuSans-31"/>
       <use xlink:href="#DejaVuSans-2e" transform="translate(63.623047 0)"/>
       <use xlink:href="#DejaVuSans-35" transform="translate(95.410156 0)"/>
      </g>
     </g>
    </g>
    <g id="ytick_18">
     <g id="line2d_36">
      <g>
       <use xlink:href="#m109f5be842" x="43.78125" y="411.874189" style="stroke: #000000; stroke-width: 0.8"/>
      </g>
     </g>
     <g id="text_42">
      <!-- 2.0 -->
      <g transform="translate(20.878125 415.673408) scale(0.1 -0.1)">
       <use xlink:href="#DejaVuSans-32"/>
       <use xlink:href="#DejaVuSans-2e" transform="translate(63.623047 0)"/>
       <use xlink:href="#DejaVuSans-30" transform="translate(95.410156 0)"/>
      </g>
     </g>
    </g>
    <g id="ytick_19">
     <g id="line2d_37">
      <g>
       <use xlink:href="#m109f5be842" x="43.78125" y="373.132736" style="stroke: #000000; stroke-width: 0.8"/>
      </g>
     </g>
     <g id="text_43">
      <!-- 2.5 -->
      <g transform="translate(20.878125 376.931955) scale(0.1 -0.1)">
       <use xlink:href="#DejaVuSans-32"/>
       <use xlink:href="#DejaVuSans-2e" transform="translate(63.623047 0)"/>
       <use xlink:href="#DejaVuSans-35" transform="translate(95.410156 0)"/>
      </g>
     </g>
    </g>
    <g id="text_44">
     <!-- Ketoconazole amount (µg/cm²) -->
     <g transform="translate(14.798438 534.330781) rotate(-90) scale(0.1 -0.1)">
      <use xlink:href="#DejaVuSans-4b"/>
      <use xlink:href="#DejaVuSans-65" transform="translate(60.576172 0)"/>
      <use xlink:href="#DejaVuSans-74" transform="translate(122.099609 0)"/>
      <use xlink:href="#DejaVuSans-6f" transform="translate(161.308594 0)"/>
      <use xlink:href="#DejaVuSans-63" transform="translate(222.490234 0)"/>
      <use xlink:href="#DejaVuSans-6f" transform="translate(277.470703 0)"/>
      <use xlink:href="#DejaVuSans-6e" transform="translate(338.652344 0)"/>
      <use xlink:href="#DejaVuSans-61" transform="translate(402.03125 0)"/>
      <use xlink:href="#DejaVuSans-7a" transform="translate(463.310547 0)"/>
      <use xlink:href="#DejaVuSans-6f" transform="translate(515.800781 0)"/>
      <use xlink:href="#DejaVuSans-6c" transform="translate(576.982422 0)"/>
      <use xlink:href="#DejaVuSans-65" transform="translate(604.765625 0)"/>
      <use xlink:href="#DejaVuSans-20" transform="translate(666.289062 0)"/>
      <use xlink:href="#DejaVuSans-61" transform="translate(698.076172 0)"/>
      <use xlink:href="#DejaVuSans-6d" transform="translate(759.355469 0)"/>
      <use xlink:href="#DejaVuSans-6f" transform="translate(856.767578 0)"/>
      <use xlink:href="#DejaVuSans-75" transform="translate(917.949219 0)"/>
      <use xlink:href="#DejaVuSans-6e" transform="translate(981.328125 0)"/>
      <use xlink:href="#DejaVuSans-74" transform="translate(1044.707031 0)"/>
      <use xlink:href="#DejaVuSans-20" transform="translate(1083.916016 0)"/>
      <use xlink:href="#DejaVuSans-28" transform="translate(1115.703125 0)"/>
      <use xlink:href="#DejaVuSans-b5" transform="translate(1154.716797 0)"/>
      <use xlink:href="#DejaVuSans-67" transform="translate(1218.339844 0)"/>
      <use xlink:href="#DejaVuSans-2f" transform="translate(1281.816406 0)"/>
      <use xlink:href="#DejaVuSans-63" transform="translate(1315.507812 0)"/>
      <use xlink:href="#DejaVuSans-6d" transform="translate(1370.488281 0)"/>
      <use xlink:href="#DejaVuSans-b2" transform="translate(1467.900391 0)"/>
      <use xlink:href="#DejaVuSans-29" transform="translate(1507.988281 0)"/>
     </g>
    </g>
   </g>
   <g id="patch_13">
    <path d="M 43.78125 566.84 
L 43.78125 347.12 
" style="fill: none; stroke: #000000; stroke-width: 0.8; stroke-linejoin: miter; stroke-linecap: square"/>
   </g>
   <g id="patch_14">
    <path d="M 43.78125 566.84 
L 420.242035 566.84 
" style="fill: none; stroke: #000000; stroke-width: 0.8; stroke-linejoin: miter; stroke-linecap: square"/>
   </g>
   <g id="text_45">
    <!-- C. SC retention at 24 h -->
    <g transform="translate(163.55258 341.12) scale(0.12 -0.12)">
     <defs>
      <path id="DejaVuSans-53" d="M 3425 4513 
L 3425 3897 
Q 3066 4069 2747 4153 
Q 2428 4238 2131 4238 
Q 1616 4238 1336 4038 
Q 1056 3838 1056 3469 
Q 1056 3159 1242 3001 
Q 1428 2844 1947 2747 
L 2328 2669 
Q 3034 2534 3370 2195 
Q 3706 1856 3706 1288 
Q 3706 609 3251 259 
Q 2797 -91 1919 -91 
Q 1588 -91 1214 -16 
Q 841 59 441 206 
L 441 856 
Q 825 641 1194 531 
Q 1563 422 1919 422 
Q 2459 422 2753 634 
Q 3047 847 3047 1241 
Q 3047 1584 2836 1778 
Q 2625 1972 2144 2069 
L 1759 2144 
Q 1053 2284 737 2584 
Q 422 2884 422 3419 
Q 422 4038 858 4394 
Q 1294 4750 2059 4750 
Q 2388 4750 2728 4690 
Q 3069 4631 3425 4513 
z
" transform="scale(0.015625)"/>
      <path id="DejaVuSans-34" d="M 2419 4116 
L 825 1625 
L 2419 1625 
L 2419 4116 
z
M 2253 4666 
L 3047 4666 
L 3047 1625 
L 3713 1625 
L 3713 1100 
L 3047 1100 
L 3047 0 
L 2419 0 
L 2419 1100 
L 313 1100 
L 313 1709 
L 2253 4666 
z
" transform="scale(0.015625)"/>
     </defs>
     <use xlink:href="#DejaVuSans-43"/>
     <use xlink:href="#DejaVuSans-2e" transform="translate(69.824219 0)"/>
     <use xlink:href="#DejaVuSans-20" transform="translate(101.611328 0)"/>
     <use xlink:href="#DejaVuSans-53" transform="translate(133.398438 0)"/>
     <use xlink:href="#DejaVuSans-43" transform="translate(196.875 0)"/>
     <use xlink:href="#DejaVuSans-20" transform="translate(266.699219 0)"/>
     <use xlink:href="#DejaVuSans-72" transform="translate(298.486328 0)"/>
     <use xlink:href="#DejaVuSans-65" transform="translate(337.349609 0)"/>
     <use xlink:href="#DejaVuSans-74" transform="translate(398.873047 0)"/>
     <use xlink:href="#DejaVuSans-65" transform="translate(438.082031 0)"/>
     <use xlink:href="#DejaVuSans-6e" transform="translate(499.605469 0)"/>
     <use xlink:href="#DejaVuSans-74" transform="translate(562.984375 0)"/>
     <use xlink:href="#DejaVuSans-69" transform="translate(602.193359 0)"/>
     <use xlink:href="#DejaVuSans-6f" transform="translate(629.976562 0)"/>
     <use xlink:href="#DejaVuSans-6e" transform="translate(691.158203 0)"/>
     <use xlink:href="#DejaVuSans-20" transform="translate(754.537109 0)"/>
     <use xlink:href="#DejaVuSans-61" transform="translate(786.324219 0)"/>
     <use xlink:href="#DejaVuSans-74" transform="translate(847.603516 0)"/>
     <use xlink:href="#DejaVuSans-20" transform="translate(886.8125 0)"/>
     <use xlink:href="#DejaVuSans-32" transform="translate(918.599609 0)"/>
     <use xlink:href="#DejaVuSans-34" transform="translate(982.222656 0)"/>
     <use xlink:href="#DejaVuSans-20" transform="translate(1045.845703 0)"/>
     <use xlink:href="#DejaVuSans-68" transform="translate(1077.632812 0)"/>
    </g>
   </g>
   <g id="legend_3">
    <g id="patch_15">
     <path d="M 52.78125 363.718437 
L 72.78125 363.718437 
L 72.78125 356.718437 
L 52.78125 356.718437 
z
" style="fill: #1f77b4"/>
    </g>
    <g id="text_46">
     <!-- Experimental -->
     <g transform="translate(80.78125 363.718437) scale(0.1 -0.1)">
      <use xlink:href="#DejaVuSans-45"/>
      <use xlink:href="#DejaVuSans-78" transform="translate(63.183594 0)"/>
      <use xlink:href="#DejaVuSans-70" transform="translate(122.363281 0)"/>
      <use xlink:href="#DejaVuSans-65" transform="translate(185.839844 0)"/>
      <use xlink:href="#DejaVuSans-72" transform="translate(247.363281 0)"/>
      <use xlink:href="#DejaVuSans-69" transform="translate(288.476562 0)"/>
      <use xlink:href="#DejaVuSans-6d" transform="translate(316.259766 0)"/>
      <use xlink:href="#DejaVuSans-65" transform="translate(413.671875 0)"/>
      <use xlink:href="#DejaVuSans-6e" transform="translate(475.195312 0)"/>
      <use xlink:href="#DejaVuSans-74" transform="translate(538.574219 0)"/>
      <use xlink:href="#DejaVuSans-61" transform="translate(577.783203 0)"/>
      <use xlink:href="#DejaVuSans-6c" transform="translate(639.0625 0)"/>
     </g>
    </g>
    <g id="patch_16">
     <path d="M 52.78125 378.396562 
L 72.78125 378.396562 
L 72.78125 371.396562 
L 52.78125 371.396562 
z
" style="fill: #ff7f0e"/>
    </g>
    <g id="text_47">
     <!-- Case 2 model -->
     <g transform="translate(80.78125 378.396562) scale(0.1 -0.1)">
      <use xlink:href="#DejaVuSans-43"/>
      <use xlink:href="#DejaVuSans-61" transform="translate(69.824219 0)"/>
      <use xlink:href="#DejaVuSans-73" transform="translate(131.103516 0)"/>
      <use xlink:href="#DejaVuSans-65" transform="translate(183.203125 0)"/>
      <use xlink:href="#DejaVuSans-20" transform="translate(244.726562 0)"/>
      <use xlink:href="#DejaVuSans-32" transform="translate(276.513672 0)"/>
      <use xlink:href="#DejaVuSans-20" transform="translate(340.136719 0)"/>
      <use xlink:href="#DejaVuSans-6d" transform="translate(371.923828 0)"/>
      <use xlink:href="#DejaVuSans-6f" transform="translate(469.335938 0)"/>
      <use xlink:href="#DejaVuSans-64" transform="translate(530.517578 0)"/>
      <use xlink:href="#DejaVuSans-65" transform="translate(593.994141 0)"/>
      <use xlink:href="#DejaVuSans-6c" transform="translate(655.517578 0)"/>
     </g>
    </g>
   </g>
  </g>
  <g id="axes_4">
   <g id="patch_17">
    <path d="M 468.80625 566.84 
L 845.267035 566.84 
L 845.267035 347.12 
L 468.80625 347.12 
z
" style="fill: #ffffff"/>
   </g>
   <g id="patch_18">
    <path d="M 485.918104 566.84 
L 557.54912 566.84 
L 557.54912 429.043861 
L 485.918104 429.043861 
z
" clip-path="url(#pceed91dcd4)" style="fill: #1f77b4"/>
   </g>
   <g id="patch_19">
    <path d="M 684.893149 566.84 
L 756.524165 566.84 
L 756.524165 357.923273 
L 684.893149 357.923273 
z
" clip-path="url(#pceed91dcd4)" style="fill: #1f77b4"/>
   </g>
   <g id="patch_20">
    <path d="M 557.54912 566.84 
L 629.180136 566.84 
L 629.180136 428.759164 
L 557.54912 428.759164 
z
" clip-path="url(#pceed91dcd4)" style="fill: #ff7f0e"/>
   </g>
   <g id="patch_21">
    <path d="M 756.524165 566.84 
L 828.155181 566.84 
L 828.155181 357.582857 
L 756.524165 357.582857 
z
" clip-path="url(#pceed91dcd4)" style="fill: #ff7f0e"/>
   </g>
   <g id="matplotlib.axis_7">
    <g id="xtick_15">
     <g id="line2d_38">
      <g>
       <use xlink:href="#m9ac1134e6b" x="557.54912" y="566.84" style="stroke: #000000; stroke-width: 0.8"/>
      </g>
     </g>
     <g id="text_48">
      <!-- Free KC -->
      <g transform="translate(538.85537 581.438437) scale(0.1 -0.1)">
       <use xlink:href="#DejaVuSans-46"/>
       <use xlink:href="#DejaVuSans-72" transform="translate(50.269531 0)"/>
       <use xlink:href="#DejaVuSans-65" transform="translate(89.132812 0)"/>
       <use xlink:href="#DejaVuSans-65" transform="translate(150.65625 0)"/>
       <use xlink:href="#DejaVuSans-20" transform="translate(212.179688 0)"/>
       <use xlink:href="#DejaVuSans-4b" transform="translate(243.966797 0)"/>
       <use xlink:href="#DejaVuSans-43" transform="translate(304.042969 0)"/>
      </g>
     </g>
    </g>
    <g id="xtick_16">
     <g id="line2d_39">
      <g>
       <use xlink:href="#m9ac1134e6b" x="756.524165" y="566.84" style="stroke: #000000; stroke-width: 0.8"/>
      </g>
     </g>
     <g id="text_49">
      <!-- KLZ-NPs -->
      <g transform="translate(736.045259 581.438437) scale(0.1 -0.1)">
       <use xlink:href="#DejaVuSans-4b"/>
       <use xlink:href="#DejaVuSans-4c" transform="translate(65.576172 0)"/>
       <use xlink:href="#DejaVuSans-5a" transform="translate(121.289062 0)"/>
       <use xlink:href="#DejaVuSans-2d" transform="translate(188.044922 0)"/>
       <use xlink:href="#DejaVuSans-4e" transform="translate(224.128906 0)"/>
       <use xlink:href="#DejaVuSans-50" transform="translate(298.933594 0)"/>
       <use xlink:href="#DejaVuSans-73" transform="translate(357.486328 0)"/>
      </g>
     </g>
    </g>
   </g>
   <g id="matplotlib.axis_8">
    <g id="ytick_20">
     <g id="line2d_40">
      <g>
       <use xlink:href="#m109f5be842" x="468.80625" y="566.84" style="stroke: #000000; stroke-width: 0.8"/>
      </g>
     </g>
     <g id="text_50">
      <!-- 0 -->
      <g transform="translate(455.44375 570.639219) scale(0.1 -0.1)">
       <use xlink:href="#DejaVuSans-30"/>
      </g>
     </g>
    </g>
    <g id="ytick_21">
     <g id="line2d_41">
      <g>
       <use xlink:href="#m109f5be842" x="468.80625" y="522.389632" style="stroke: #000000; stroke-width: 0.8"/>
      </g>
     </g>
     <g id="text_51">
      <!-- 2 -->
      <g transform="translate(455.44375 526.188851) scale(0.1 -0.1)">
       <use xlink:href="#DejaVuSans-32"/>
      </g>
     </g>
    </g>
    <g id="ytick_22">
     <g id="line2d_42">
      <g>
       <use xlink:href="#m109f5be842" x="468.80625" y="477.939265" style="stroke: #000000; stroke-width: 0.8"/>
      </g>
     </g>
     <g id="text_52">
      <!-- 4 -->
      <g transform="translate(455.44375 481.738484) scale(0.1 -0.1)">
       <use xlink:href="#DejaVuSans-34"/>
      </g>
     </g>
    </g>
    <g id="ytick_23">
     <g id="line2d_43">
      <g>
       <use xlink:href="#m109f5be842" x="468.80625" y="433.488897" style="stroke: #000000; stroke-width: 0.8"/>
      </g>
     </g>
     <g id="text_53">
      <!-- 6 -->
      <g transform="translate(455.44375 437.288116) scale(0.1 -0.1)">
       <defs>
        <path id="DejaVuSans-36" d="M 2113 2584 
Q 1688 2584 1439 2293 
Q 1191 2003 1191 1497 
Q 1191 994 1439 701 
Q 1688 409 2113 409 
Q 2538 409 2786 701 
Q 3034 994 3034 1497 
Q 3034 2003 2786 2293 
Q 2538 2584 2113 2584 
z
M 3366 4563 
L 3366 3988 
Q 3128 4100 2886 4159 
Q 2644 4219 2406 4219 
Q 1781 4219 1451 3797 
Q 1122 3375 1075 2522 
Q 1259 2794 1537 2939 
Q 1816 3084 2150 3084 
Q 2853 3084 3261 2657 
Q 3669 2231 3669 1497 
Q 3669 778 3244 343 
Q 2819 -91 2113 -91 
Q 1303 -91 875 529 
Q 447 1150 447 2328 
Q 447 3434 972 4092 
Q 1497 4750 2381 4750 
Q 2619 4750 2861 4703 
Q 3103 4656 3366 4563 
z
" transform="scale(0.015625)"/>
       </defs>
       <use xlink:href="#DejaVuSans-36"/>
      </g>
     </g>
    </g>
    <g id="ytick_24">
     <g id="line2d_44">
      <g>
       <use xlink:href="#m109f5be842" x="468.80625" y="389.03853" style="stroke: #000000; stroke-width: 0.8"/>
      </g>
     </g>
     <g id="text_54">
      <!-- 8 -->
      <g transform="translate(455.44375 392.837749) scale(0.1 -0.1)">
       <defs>
        <path id="DejaVuSans-38" d="M 2034 2216 
Q 1584 2216 1326 1975 
Q 1069 1734 1069 1313 
Q 1069 891 1326 650 
Q 1584 409 2034 409 
Q 2484 409 2743 651 
Q 3003 894 3003 1313 
Q 3003 1734 2745 1975 
Q 2488 2216 2034 2216 
z
M 1403 2484 
Q 997 2584 770 2862 
Q 544 3141 544 3541 
Q 544 4100 942 4425 
Q 1341 4750 2034 4750 
Q 2731 4750 3128 4425 
Q 3525 4100 3525 3541 
Q 3525 3141 3298 2862 
Q 3072 2584 2669 2484 
Q 3125 2378 3379 2068 
Q 3634 1759 3634 1313 
Q 3634 634 3220 271 
Q 2806 -91 2034 -91 
Q 1263 -91 848 271 
Q 434 634 434 1313 
Q 434 1759 690 2068 
Q 947 2378 1403 2484 
z
M 1172 3481 
Q 1172 3119 1398 2916 
Q 1625 2713 2034 2713 
Q 2441 2713 2670 2916 
Q 2900 3119 2900 3481 
Q 2900 3844 2670 4047 
Q 2441 4250 2034 4250 
Q 1625 4250 1398 4047 
Q 1172 3844 1172 3481 
z
" transform="scale(0.015625)"/>
       </defs>
       <use xlink:href="#DejaVuSans-38"/>
      </g>
     </g>
    </g>
    <g id="text_55">
     <!-- Ketoconazole amount (µg/cm²) -->
     <g transform="translate(449.364062 534.330781) rotate(-90) scale(0.1 -0.1)">
      <use xlink:href="#DejaVuSans-4b"/>
      <use xlink:href="#DejaVuSans-65" transform="translate(60.576172 0)"/>
      <use xlink:href="#DejaVuSans-74" transform="translate(122.099609 0)"/>
      <use xlink:href="#DejaVuSans-6f" transform="translate(161.308594 0)"/>
      <use xlink:href="#DejaVuSans-63" transform="translate(222.490234 0)"/>
      <use xlink:href="#DejaVuSans-6f" transform="translate(277.470703 0)"/>
      <use xlink:href="#DejaVuSans-6e" transform="translate(338.652344 0)"/>
      <use xlink:href="#DejaVuSans-61" transform="translate(402.03125 0)"/>
      <use xlink:href="#DejaVuSans-7a" transform="translate(463.310547 0)"/>
      <use xlink:href="#DejaVuSans-6f" transform="translate(515.800781 0)"/>
      <use xlink:href="#DejaVuSans-6c" transform="translate(576.982422 0)"/>
      <use xlink:href="#DejaVuSans-65" transform="translate(604.765625 0)"/>
      <use xlink:href="#DejaVuSans-20" transform="translate(666.289062 0)"/>
      <use xlink:href="#DejaVuSans-61" transform="translate(698.076172 0)"/>
      <use xlink:href="#DejaVuSans-6d" transform="translate(759.355469 0)"/>
      <use xlink:href="#DejaVuSans-6f" transform="translate(856.767578 0)"/>
      <use xlink:href="#DejaVuSans-75" transform="translate(917.949219 0)"/>
      <use xlink:href="#DejaVuSans-6e" transform="translate(981.328125 0)"/>
      <use xlink:href="#DejaVuSans-74" transform="translate(1044.707031 0)"/>
      <use xlink:href="#DejaVuSans-20" transform="translate(1083.916016 0)"/>
      <use xlink:href="#DejaVuSans-28" transform="translate(1115.703125 0)"/>
      <use xlink:href="#DejaVuSans-b5" transform="translate(1154.716797 0)"/>
      <use xlink:href="#DejaVuSans-67" transform="translate(1218.339844 0)"/>
      <use xlink:href="#DejaVuSans-2f" transform="translate(1281.816406 0)"/>
      <use xlink:href="#DejaVuSans-63" transform="translate(1315.507812 0)"/>
      <use xlink:href="#DejaVuSans-6d" transform="translate(1370.488281 0)"/>
      <use xlink:href="#DejaVuSans-b2" transform="translate(1467.900391 0)"/>
      <use xlink:href="#DejaVuSans-29" transform="translate(1507.988281 0)"/>
     </g>
    </g>
   </g>
   <g id="patch_22">
    <path d="M 468.80625 566.84 
L 468.80625 347.12 
" style="fill: none; stroke: #000000; stroke-width: 0.8; stroke-linejoin: miter; stroke-linecap: square"/>
   </g>
   <g id="patch_23">
    <path d="M 468.80625 566.84 
L 845.267035 566.84 
" style="fill: none; stroke: #000000; stroke-width: 0.8; stroke-linejoin: miter; stroke-linecap: square"/>
   </g>
   <g id="text_56">
    <!-- D. EP/dermis retention at 24 h -->
    <g transform="translate(566.21633 341.12) scale(0.12 -0.12)">
     <defs>
      <path id="DejaVuSans-44" d="M 1259 4147 
L 1259 519 
L 2022 519 
Q 2988 519 3436 956 
Q 3884 1394 3884 2338 
Q 3884 3275 3436 3711 
Q 2988 4147 2022 4147 
L 1259 4147 
z
M 628 4666 
L 1925 4666 
Q 3281 4666 3915 4102 
Q 4550 3538 4550 2338 
Q 4550 1131 3912 565 
Q 3275 0 1925 0 
L 628 0 
L 628 4666 
z
" transform="scale(0.015625)"/>
     </defs>
     <use xlink:href="#DejaVuSans-44"/>
     <use xlink:href="#DejaVuSans-2e" transform="translate(77.001953 0)"/>
     <use xlink:href="#DejaVuSans-20" transform="translate(108.789062 0)"/>
     <use xlink:href="#DejaVuSans-45" transform="translate(140.576172 0)"/>
     <use xlink:href="#DejaVuSans-50" transform="translate(203.759766 0)"/>
     <use xlink:href="#DejaVuSans-2f" transform="translate(264.0625 0)"/>
     <use xlink:href="#DejaVuSans-64" transform="translate(297.753906 0)"/>
     <use xlink:href="#DejaVuSans-65" transform="translate(361.230469 0)"/>
     <use xlink:href="#DejaVuSans-72" transform="translate(422.753906 0)"/>
     <use xlink:href="#DejaVuSans-6d" transform="translate(462.117188 0)"/>
     <use xlink:href="#DejaVuSans-69" transform="translate(559.529297 0)"/>
     <use xlink:href="#DejaVuSans-73" transform="translate(587.3125 0)"/>
     <use xlink:href="#DejaVuSans-20" transform="translate(639.412109 0)"/>
     <use xlink:href="#DejaVuSans-72" transform="translate(671.199219 0)"/>
     <use xlink:href="#DejaVuSans-65" transform="translate(710.0625 0)"/>
     <use xlink:href="#DejaVuSans-74" transform="translate(771.585938 0)"/>
     <use xlink:href="#DejaVuSans-65" transform="translate(810.794922 0)"/>
     <use xlink:href="#DejaVuSans-6e" transform="translate(872.318359 0)"/>
     <use xlink:href="#DejaVuSans-74" transform="translate(935.697266 0)"/>
     <use xlink:href="#DejaVuSans-69" transform="translate(974.90625 0)"/>
     <use xlink:href="#DejaVuSans-6f" transform="translate(1002.689453 0)"/>
     <use xlink:href="#DejaVuSans-6e" transform="translate(1063.871094 0)"/>
     <use xlink:href="#DejaVuSans-20" transform="translate(1127.25 0)"/>
     <use xlink:href="#DejaVuSans-61" transform="translate(1159.037109 0)"/>
     <use xlink:href="#DejaVuSans-74" transform="translate(1220.316406 0)"/>
     <use xlink:href="#DejaVuSans-20" transform="translate(1259.525391 0)"/>
     <use xlink:href="#DejaVuSans-32" transform="translate(1291.3125 0)"/>
     <use xlink:href="#DejaVuSans-34" transform="translate(1354.935547 0)"/>
     <use xlink:href="#DejaVuSans-20" transform="translate(1418.558594 0)"/>
     <use xlink:href="#DejaVuSans-68" transform="translate(1450.345703 0)"/>
    </g>
   </g>
   <g id="legend_4">
    <g id="patch_24">
     <path d="M 477.80625 363.718437 
L 497.80625 363.718437 
L 497.80625 356.718437 
L 477.80625 356.718437 
z
" style="fill: #1f77b4"/>
    </g>
    <g id="text_57">
     <!-- Experimental -->
     <g transform="translate(505.80625 363.718437) scale(0.1 -0.1)">
      <use xlink:href="#DejaVuSans-45"/>
      <use xlink:href="#DejaVuSans-78" transform="translate(63.183594 0)"/>
      <use xlink:href="#DejaVuSans-70" transform="translate(122.363281 0)"/>
      <use xlink:href="#DejaVuSans-65" transform="translate(185.839844 0)"/>
      <use xlink:href="#DejaVuSans-72" transform="translate(247.363281 0)"/>
      <use xlink:href="#DejaVuSans-69" transform="translate(288.476562 0)"/>
      <use xlink:href="#DejaVuSans-6d" transform="translate(316.259766 0)"/>
      <use xlink:href="#DejaVuSans-65" transform="translate(413.671875 0)"/>
      <use xlink:href="#DejaVuSans-6e" transform="translate(475.195312 0)"/>
      <use xlink:href="#DejaVuSans-74" transform="translate(538.574219 0)"/>
      <use xlink:href="#DejaVuSans-61" transform="translate(577.783203 0)"/>
      <use xlink:href="#DejaVuSans-6c" transform="translate(639.0625 0)"/>
     </g>
    </g>
    <g id="patch_25">
     <path d="M 477.80625 378.396562 
L 497.80625 378.396562 
L 497.80625 371.396562 
L 477.80625 371.396562 
z
" style="fill: #ff7f0e"/>
    </g>
    <g id="text_58">
     <!-- Case 2 model -->
     <g transform="translate(505.80625 378.396562) scale(0.1 -0.1)">
      <use xlink:href="#DejaVuSans-43"/>
      <use xlink:href="#DejaVuSans-61" transform="translate(69.824219 0)"/>
      <use xlink:href="#DejaVuSans-73" transform="translate(131.103516 0)"/>
      <use xlink:href="#DejaVuSans-65" transform="translate(183.203125 0)"/>
      <use xlink:href="#DejaVuSans-20" transform="translate(244.726562 0)"/>
      <use xlink:href="#DejaVuSans-32" transform="translate(276.513672 0)"/>
      <use xlink:href="#DejaVuSans-20" transform="translate(340.136719 0)"/>
      <use xlink:href="#DejaVuSans-6d" transform="translate(371.923828 0)"/>
      <use xlink:href="#DejaVuSans-6f" transform="translate(469.335938 0)"/>
      <use xlink:href="#DejaVuSans-64" transform="translate(530.517578 0)"/>
      <use xlink:href="#DejaVuSans-65" transform="translate(593.994141 0)"/>
      <use xlink:href="#DejaVuSans-6c" transform="translate(655.517578 0)"/>
     </g>
    </g>
   </g>
  </g>
  <g id="text_59">
   <!-- Case 2 four-layer FEM fit to receptor permeation and 24 h skin-retention endpoints -->
   <g transform="translate(179.279687 16.318125) scale(0.12 -0.12)">
    <defs>
     <path id="DejaVuSans-79" d="M 2059 -325 
Q 1816 -950 1584 -1140 
Q 1353 -1331 966 -1331 
L 506 -1331 
L 506 -850 
L 844 -850 
Q 1081 -850 1212 -737 
Q 1344 -625 1503 -206 
L 1606 56 
L 191 3500 
L 800 3500 
L 1894 763 
L 2988 3500 
L 3597 3500 
L 2059 -325 
z
" transform="scale(0.015625)"/>
     <path id="DejaVuSans-4d" d="M 628 4666 
L 1569 4666 
L 2759 1491 
L 3956 4666 
L 4897 4666 
L 4897 0 
L 4281 0 
L 4281 4097 
L 3078 897 
L 2444 897 
L 1241 4097 
L 1241 0 
L 628 0 
L 628 4666 
z
" transform="scale(0.015625)"/>
     <path id="DejaVuSans-6b" d="M 581 4863 
L 1159 4863 
L 1159 1991 
L 2875 3500 
L 3609 3500 
L 1753 1863 
L 3688 0 
L 2938 0 
L 1159 1709 
L 1159 0 
L 581 0 
L 581 4863 
z
" transform="scale(0.015625)"/>
    </defs>
    <use xlink:href="#DejaVuSans-43"/>
    <use xlink:href="#DejaVuSans-61" transform="translate(69.824219 0)"/>
    <use xlink:href="#DejaVuSans-73" transform="translate(131.103516 0)"/>
    <use xlink:href="#DejaVuSans-65" transform="translate(183.203125 0)"/>
    <use xlink:href="#DejaVuSans-20" transform="translate(244.726562 0)"/>
    <use xlink:href="#DejaVuSans-32" transform="translate(276.513672 0)"/>
    <use xlink:href="#DejaVuSans-20" transform="translate(340.136719 0)"/>
    <use xlink:href="#DejaVuSans-66" transform="translate(371.923828 0)"/>
    <use xlink:href="#DejaVuSans-6f" transform="translate(407.128906 0)"/>
    <use xlink:href="#DejaVuSans-75" transform="translate(468.310547 0)"/>
    <use xlink:href="#DejaVuSans-72" transform="translate(531.689453 0)"/>
    <use xlink:href="#DejaVuSans-2d" transform="translate(566.427734 0)"/>
    <use xlink:href="#DejaVuSans-6c" transform="translate(602.511719 0)"/>
    <use xlink:href="#DejaVuSans-61" transform="translate(630.294922 0)"/>
    <use xlink:href="#DejaVuSans-79" transform="translate(691.574219 0)"/>
    <use xlink:href="#DejaVuSans-65" transform="translate(750.753906 0)"/>
    <use xlink:href="#DejaVuSans-72" transform="translate(812.277344 0)"/>
    <use xlink:href="#DejaVuSans-20" transform="translate(853.390625 0)"/>
    <use xlink:href="#DejaVuSans-46" transform="translate(885.177734 0)"/>
    <use xlink:href="#DejaVuSans-45" transform="translate(942.697266 0)"/>
    <use xlink:href="#DejaVuSans-4d" transform="translate(1005.880859 0)"/>
    <use xlink:href="#DejaVuSans-20" transform="translate(1092.160156 0)"/>
    <use xlink:href="#DejaVuSans-66" transform="translate(1123.947266 0)"/>
    <use xlink:href="#DejaVuSans-69" transform="translate(1159.152344 0)"/>
    <use xlink:href="#DejaVuSans-74" transform="translate(1186.935547 0)"/>
    <use xlink:href="#DejaVuSans-20" transform="translate(1226.144531 0)"/>
    <use xlink:href="#DejaVuSans-74" transform="translate(1257.931641 0)"/>
    <use xlink:href="#DejaVuSans-6f" transform="translate(1297.140625 0)"/>
    <use xlink:href="#DejaVuSans-20" transform="translate(1358.322266 0)"/>
    <use xlink:href="#DejaVuSans-72" transform="translate(1390.109375 0)"/>
    <use xlink:href="#DejaVuSans-65" transform="translate(1428.972656 0)"/>
    <use xlink:href="#DejaVuSans-63" transform="translate(1490.496094 0)"/>
    <use xlink:href="#DejaVuSans-65" transform="translate(1545.476562 0)"/>
    <use xlink:href="#DejaVuSans-70" transform="translate(1607 0)"/>
    <use xlink:href="#DejaVuSans-74" transform="translate(1670.476562 0)"/>
    <use xlink:href="#DejaVuSans-6f" transform="translate(1709.685547 0)"/>
    <use xlink:href="#DejaVuSans-72" transform="translate(1770.867188 0)"/>
    <use xlink:href="#DejaVuSans-20" transform="translate(1811.980469 0)"/>
    <use xlink:href="#DejaVuSans-70" transform="translate(1843.767578 0)"/>
    <use xlink:href="#DejaVuSans-65" transform="translate(1907.244141 0)"/>
    <use xlink:href="#DejaVuSans-72" transform="translate(1968.767578 0)"/>
    <use xlink:href="#DejaVuSans-6d" transform="translate(2008.130859 0)"/>
    <use xlink:href="#DejaVuSans-65" transform="translate(2105.542969 0)"/>
    <use xlink:href="#DejaVuSans-61" transform="translate(2167.066406 0)"/>
    <use xlink:href="#DejaVuSans-74" transform="translate(2228.345703 0)"/>
    <use xlink:href="#DejaVuSans-69" transform="translate(2267.554688 0)"/>
    <use xlink:href="#DejaVuSans-6f" transform="translate(2295.337891 0)"/>
    <use xlink:href="#DejaVuSans-6e" transform="translate(2356.519531 0)"/>
    <use xlink:href="#DejaVuSans-20" transform="translate(2419.898438 0)"/>
    <use xlink:href="#DejaVuSans-61" transform="translate(2451.685547 0)"/>
    <use xlink:href="#DejaVuSans-6e" transform="translate(2512.964844 0)"/>
    <use xlink:href="#DejaVuSans-64" transform="translate(2576.34375 0)"/>
    <use xlink:href="#DejaVuSans-20" transform="translate(2639.820312 0)"/>
    <use xlink:href="#DejaVuSans-32" transform="translate(2671.607422 0)"/>
    <use xlink:href="#DejaVuSans-34" transform="translate(2735.230469 0)"/>
    <use xlink:href="#DejaVuSans-20" transform="translate(2798.853516 0)"/>
    <use xlink:href="#DejaVuSans-68" transform="translate(2830.640625 0)"/>
    <use xlink:href="#DejaVuSans-20" transform="translate(2894.019531 0)"/>
    <use xlink:href="#DejaVuSans-73" transform="translate(2925.806641 0)"/>
    <use xlink:href="#DejaVuSans-6b" transform="translate(2977.90625 0)"/>
    <use xlink:href="#DejaVuSans-69" transform="translate(3035.816406 0)"/>
    <use xlink:href="#DejaVuSans-6e" transform="translate(3063.599609 0)"/>
    <use xlink:href="#DejaVuSans-2d" transform="translate(3126.978516 0)"/>
    <use xlink:href="#DejaVuSans-72" transform="translate(3163.0625 0)"/>
    <use xlink:href="#DejaVuSans-65" transform="translate(3201.925781 0)"/>
    <use xlink:href="#DejaVuSans-74" transform="translate(3263.449219 0)"/>
    <use xlink:href="#DejaVuSans-65" transform="translate(3302.658203 0)"/>
    <use xlink:href="#DejaVuSans-6e" transform="translate(3364.181641 0)"/>
    <use xlink:href="#DejaVuSans-74" transform="translate(3427.560547 0)"/>
    <use xlink:href="#DejaVuSans-69" transform="translate(3466.769531 0)"/>
    <use xlink:href="#DejaVuSans-6f" transform="translate(3494.552734 0)"/>
    <use xlink:href="#DejaVuSans-6e" transform="translate(3555.734375 0)"/>
    <use xlink:href="#DejaVuSans-20" transform="translate(3619.113281 0)"/>
    <use xlink:href="#DejaVuSans-65" transform="translate(3650.900391 0)"/>
    <use xlink:href="#DejaVuSans-6e" transform="translate(3712.423828 0)"/>
    <use xlink:href="#DejaVuSans-64" transform="translate(3775.802734 0)"/>
    <use xlink:href="#DejaVuSans-70" transform="translate(3839.279297 0)"/>
    <use xlink:href="#DejaVuSans-6f" transform="translate(3902.755859 0)"/>
    <use xlink:href="#DejaVuSans-69" transform="translate(3963.9375 0)"/>
    <use xlink:href="#DejaVuSans-6e" transform="translate(3991.720703 0)"/>
    <use xlink:href="#DejaVuSans-74" transform="translate(4055.099609 0)"/>
    <use xlink:href="#DejaVuSans-73" transform="translate(4094.308594 0)"/>
   </g>
  </g>
 </g>
 <defs>
  <clipPath id="pd7621e0cc4">
   <rect x="43.78125" y="69.36" width="376.460785" height="219.72"/>
  </clipPath>
  <clipPath id="p41691ce246">
   <rect x="468.80625" y="69.36" width="376.460785" height="219.72"/>
  </clipPath>
  <clipPath id="pf85a6f29b9">
   <rect x="43.78125" y="347.12" width="376.460785" height="219.72"/>
  </clipPath>
  <clipPath id="pceed91dcd4">
   <rect x="468.80625" y="347.12" width="376.460785" height="219.72"/>
  </clipPath>
 </defs>
</svg>
