<?xml version="1.0" encoding="utf-8" standalone="no"?>
<!DOCTYPE svg PUBLIC "-//W3C//DTD SVG 1.1//EN"
  "http://www.w3.org/Graphics/SVG/1.1/DTD/svg11.dtd">
<svg xmlns:xlink="http://www.w3.org/1999/xlink" width="855.937503pt" height="315.034375pt" viewBox="0 0 855.937503 315.034375" xmlns="http://www.w3.org/2000/svg" version="1.1">
 <metadata>
  <rdf:RDF xmlns:dc="http://purl.org/dc/elements/1.1/" xmlns:cc="http://creativecommons.org/ns#" xmlns:rdf="http://www.w3.org/1999/02/22-rdf-syntax-ns#">
   <cc:Work>
    <dc:type rdf:resource="http://purl.org/dc/dcmitype/StillImage"/>
    <dc:date>2026-07-15T17:58:44.798815</dc:date>
    <dc:format>image/svg+xml</dc:format>
    <dc:creator>
     <cc:Agent>
      <dc:title>Matplotlib v3.10.8, https://matplotlib.org/</dc:title>
     </cc:Agent>
    </dc:creator>
   </cc:Work>
  </rdf:RDF>
 </metadata>
 <defs>
  <style type="text/css">*{stroke-linejoin: round; stroke-linecap: butt}</style>
 </defs>
 <g id="figure_1">
  <g id="patch_1">
   <path d="M 0 315.034375 
L 855.937503 315.034375 
L 855.937503 0 
L 0 0 
z
" style="fill: #ffffff"/>
  </g>
  <g id="axes_1">
   <g id="patch_2">
    <path d="M 40.603125 277.478125 
L 418.63891 277.478125 
L 418.63891 22.318125 
L 40.603125 22.318125 
z
" style="fill: #ffffff"/>
   </g>
   <g id="PathCollection_1">
    <defs>
     <path id="m0eb8fd15ba" d="M 0 3.535534 
C 0.937635 3.535534 1.836992 3.163008 2.5 2.5 
C 3.163008 1.836992 3.535534 0.937635 3.535534 0 
C 3.535534 -0.937635 3.163008 -1.836992 2.5 -2.5 
C 1.836992 -3.163008 0.937635 -3.535534 0 -3.535534 
C -0.937635 -3.535534 -1.836992 -3.163008 -2.5 -2.5 
C -3.163008 -1.836992 -3.535534 -0.937635 -3.535534 0 
C -3.535534 0.937635 -3.163008 1.836992 -2.5 2.5 
C -1.836992 3.163008 -0.937635 3.535534 0 3.535534 
z
" style="stroke: #1f77b4"/>
    </defs>
    <g clip-path="url(#pf0fef5bc0f)">
     <use xlink:href="#m0eb8fd15ba" x="115.064719" y="259.823451" style="fill: #1f77b4; stroke: #1f77b4"/>
     <use xlink:href="#m0eb8fd15ba" x="143.703794" y="250.306107" style="fill: #1f77b4; stroke: #1f77b4"/>
     <use xlink:href="#m0eb8fd15ba" x="172.342868" y="228.675779" style="fill: #1f77b4; stroke: #1f77b4"/>
     <use xlink:href="#m0eb8fd15ba" x="229.621018" y="175.897779" style="fill: #1f77b4; stroke: #1f77b4"/>
     <use xlink:href="#m0eb8fd15ba" x="401.455465" y="33.916307" style="fill: #1f77b4; stroke: #1f77b4"/>
    </g>
   </g>
   <g id="matplotlib.axis_1">
    <g id="xtick_1">
     <g id="line2d_1">
      <defs>
       <path id="mb82879e90e" d="M 0 0 
L 0 3.5 
" style="stroke: #000000; stroke-width: 0.8"/>
      </defs>
      <g>
       <use xlink:href="#mb82879e90e" x="57.78657" y="277.478125" style="stroke: #000000; stroke-width: 0.8"/>
      </g>
     </g>
     <g id="text_1">
      <!-- 0 -->
      <g transform="translate(54.60532 292.076563) scale(0.1 -0.1)">
       <defs>
        <path id="DejaVuSans-30" d="M 2034 4250 
Q 1547 4250 1301 3770 
Q 1056 3291 1056 2328 
Q 1056 1369 1301 889 
Q 1547 409 2034 409 
Q 2525 409 2770 889 
Q 3016 1369 3016 2328 
Q 3016 3291 2770 3770 
Q 2525 4250 2034 4250 
z
M 2034 4750 
Q 2819 4750 3233 4129 
Q 3647 3509 3647 2328 
Q 3647 1150 3233 529 
Q 2819 -91 2034 -91 
Q 1250 -91 836 529 
Q 422 1150 422 2328 
Q 422 3509 836 4129 
Q 1250 4750 2034 4750 
z
" transform="scale(0.015625)"/>
       </defs>
       <use xlink:href="#DejaVuSans-30"/>
      </g>
     </g>
    </g>
    <g id="xtick_2">
     <g id="line2d_2">
      <g>
       <use xlink:href="#mb82879e90e" x="129.384256" y="277.478125" style="stroke: #000000; stroke-width: 0.8"/>
      </g>
     </g>
     <g id="text_2">
      <!-- 5 -->
      <g transform="translate(126.203006 292.076563) scale(0.1 -0.1)">
       <defs>
        <path id="DejaVuSans-35" d="M 691 4666 
L 3169 4666 
L 3169 4134 
L 1269 4134 
L 1269 2991 
Q 1406 3038 1543 3061 
Q 1681 3084 1819 3084 
Q 2600 3084 3056 2656 
Q 3513 2228 3513 1497 
Q 3513 744 3044 326 
Q 2575 -91 1722 -91 
Q 1428 -91 1123 -41 
Q 819 9 494 109 
L 494 744 
Q 775 591 1075 516 
Q 1375 441 1709 441 
Q 2250 441 2565 725 
Q 2881 1009 2881 1497 
Q 2881 1984 2565 2268 
Q 2250 2553 1709 2553 
Q 1456 2553 1204 2497 
Q 953 2441 691 2322 
L 691 4666 
z
" transform="scale(0.015625)"/>
       </defs>
       <use xlink:href="#DejaVuSans-35"/>
      </g>
     </g>
    </g>
    <g id="xtick_3">
     <g id="line2d_3">
      <g>
       <use xlink:href="#mb82879e90e" x="200.981943" y="277.478125" style="stroke: #000000; stroke-width: 0.8"/>
      </g>
     </g>
     <g id="text_3">
      <!-- 10 -->
      <g transform="translate(194.619443 292.076563) scale(0.1 -0.1)">
       <defs>
        <path id="DejaVuSans-31" d="M 794 531 
L 1825 531 
L 1825 4091 
L 703 3866 
L 703 4441 
L 1819 4666 
L 2450 4666 
L 2450 531 
L 3481 531 
L 3481 0 
L 794 0 
L 794 531 
z
" transform="scale(0.015625)"/>
       </defs>
       <use xlink:href="#DejaVuSans-31"/>
       <use xlink:href="#DejaVuSans-30" transform="translate(63.623047 0)"/>
      </g>
     </g>
    </g>
    <g id="xtick_4">
     <g id="line2d_4">
      <g>
       <use xlink:href="#mb82879e90e" x="272.57963" y="277.478125" style="stroke: #000000; stroke-width: 0.8"/>
      </g>
     </g>
     <g id="text_4">
      <!-- 15 -->
      <g transform="translate(266.21713 292.076563) scale(0.1 -0.1)">
       <use xlink:href="#DejaVuSans-31"/>
       <use xlink:href="#DejaVuSans-35" transform="translate(63.623047 0)"/>
      </g>
     </g>
    </g>
    <g id="xtick_5">
     <g id="line2d_5">
      <g>
       <use xlink:href="#mb82879e90e" x="344.177316" y="277.478125" style="stroke: #000000; stroke-width: 0.8"/>
      </g>
     </g>
     <g id="text_5">
      <!-- 20 -->
      <g transform="translate(337.814816 292.076563) scale(0.1 -0.1)">
       <defs>
        <path id="DejaVuSans-32" d="M 1228 531 
L 3431 531 
L 3431 0 
L 469 0 
L 469 531 
Q 828 903 1448 1529 
Q 2069 2156 2228 2338 
Q 2531 2678 2651 2914 
Q 2772 3150 2772 3378 
Q 2772 3750 2511 3984 
Q 2250 4219 1831 4219 
Q 1534 4219 1204 4116 
Q 875 4013 500 3803 
L 500 4441 
Q 881 4594 1212 4672 
Q 1544 4750 1819 4750 
Q 2544 4750 2975 4387 
Q 3406 4025 3406 3419 
Q 3406 3131 3298 2873 
Q 3191 2616 2906 2266 
Q 2828 2175 2409 1742 
Q 1991 1309 1228 531 
z
" transform="scale(0.015625)"/>
       </defs>
       <use xlink:href="#DejaVuSans-32"/>
       <use xlink:href="#DejaVuSans-30" transform="translate(63.623047 0)"/>
      </g>
     </g>
    </g>
    <g id="xtick_6">
     <g id="line2d_6">
      <g>
       <use xlink:href="#mb82879e90e" x="415.775003" y="277.478125" style="stroke: #000000; stroke-width: 0.8"/>
      </g>
     </g>
     <g id="text_6">
      <!-- 25 -->
      <g transform="translate(409.412503 292.076563) scale(0.1 -0.1)">
       <use xlink:href="#DejaVuSans-32"/>
       <use xlink:href="#DejaVuSans-35" transform="translate(63.623047 0)"/>
      </g>
     </g>
    </g>
    <g id="text_7">
     <!-- Time (h) -->
     <g transform="translate(208.728049 305.754687) scale(0.1 -0.1)">
      <defs>
       <path id="DejaVuSans-54" d="M -19 4666 
L 3928 4666 
L 3928 4134 
L 2272 4134 
L 2272 0 
L 1638 0 
L 1638 4134 
L -19 4134 
L -19 4666 
z
" transform="scale(0.015625)"/>
       <path id="DejaVuSans-69" d="M 603 3500 
L 1178 3500 
L 1178 0 
L 603 0 
L 603 3500 
z
M 603 4863 
L 1178 4863 
L 1178 4134 
L 603 4134 
L 603 4863 
z
" transform="scale(0.015625)"/>
       <path id="DejaVuSans-6d" d="M 3328 2828 
Q 3544 3216 3844 3400 
Q 4144 3584 4550 3584 
Q 5097 3584 5394 3201 
Q 5691 2819 5691 2113 
L 5691 0 
L 5113 0 
L 5113 2094 
Q 5113 2597 4934 2840 
Q 4756 3084 4391 3084 
Q 3944 3084 3684 2787 
Q 3425 2491 3425 1978 
L 3425 0 
L 2847 0 
L 2847 2094 
Q 2847 2600 2669 2842 
Q 2491 3084 2119 3084 
Q 1678 3084 1418 2786 
Q 1159 2488 1159 1978 
L 1159 0 
L 581 0 
L 581 3500 
L 1159 3500 
L 1159 2956 
Q 1356 3278 1631 3431 
Q 1906 3584 2284 3584 
Q 2666 3584 2933 3390 
Q 3200 3197 3328 2828 
z
" transform="scale(0.015625)"/>
       <path id="DejaVuSans-65" d="M 3597 1894 
L 3597 1613 
L 953 1613 
Q 991 1019 1311 708 
Q 1631 397 2203 397 
Q 2534 397 2845 478 
Q 3156 559 3463 722 
L 3463 178 
Q 3153 47 2828 -22 
Q 2503 -91 2169 -91 
Q 1331 -91 842 396 
Q 353 884 353 1716 
Q 353 2575 817 3079 
Q 1281 3584 2069 3584 
Q 2775 3584 3186 3129 
Q 3597 2675 3597 1894 
z
M 3022 2063 
Q 3016 2534 2758 2815 
Q 2500 3097 2075 3097 
Q 1594 3097 1305 2825 
Q 1016 2553 972 2059 
L 3022 2063 
z
" transform="scale(0.015625)"/>
       <path id="DejaVuSans-20" transform="scale(0.015625)"/>
       <path id="DejaVuSans-28" d="M 1984 4856 
Q 1566 4138 1362 3434 
Q 1159 2731 1159 2009 
Q 1159 1288 1364 580 
Q 1569 -128 1984 -844 
L 1484 -844 
Q 1016 -109 783 600 
Q 550 1309 550 2009 
Q 550 2706 781 3412 
Q 1013 4119 1484 4856 
L 1984 4856 
z
" transform="scale(0.015625)"/>
       <path id="DejaVuSans-68" d="M 3513 2113 
L 3513 0 
L 2938 0 
L 2938 2094 
Q 2938 2591 2744 2837 
Q 2550 3084 2163 3084 
Q 1697 3084 1428 2787 
Q 1159 2491 1159 1978 
L 1159 0 
L 581 0 
L 581 4863 
L 1159 4863 
L 1159 2956 
Q 1366 3272 1645 3428 
Q 1925 3584 2291 3584 
Q 2894 3584 3203 3211 
Q 3513 2838 3513 2113 
z
" transform="scale(0.015625)"/>
       <path id="DejaVuSans-29" d="M 513 4856 
L 1013 4856 
Q 1481 4119 1714 3412 
Q 1947 2706 1947 2009 
Q 1947 1309 1714 600 
Q 1481 -109 1013 -844 
L 513 -844 
Q 928 -128 1133 580 
Q 1338 1288 1338 2009 
Q 1338 2731 1133 3434 
Q 928 4138 513 4856 
z
" transform="scale(0.015625)"/>
      </defs>
      <use xlink:href="#DejaVuSans-54"/>
      <use xlink:href="#DejaVuSans-69" transform="translate(57.958984 0)"/>
      <use xlink:href="#DejaVuSans-6d" transform="translate(85.742188 0)"/>
      <use xlink:href="#DejaVuSans-65" transform="translate(183.154297 0)"/>
      <use xlink:href="#DejaVuSans-20" transform="translate(244.677734 0)"/>
      <use xlink:href="#DejaVuSans-28" transform="translate(276.464844 0)"/>
      <use xlink:href="#DejaVuSans-68" transform="translate(315.478516 0)"/>
      <use xlink:href="#DejaVuSans-29" transform="translate(378.857422 0)"/>
     </g>
    </g>
   </g>
   <g id="matplotlib.axis_2">
    <g id="ytick_1">
     <g id="line2d_7">
      <defs>
       <path id="mf3454d3241" d="M 0 0 
L -3.5 0 
" style="stroke: #000000; stroke-width: 0.8"/>
      </defs>
      <g>
       <use xlink:href="#mf3454d3241" x="40.603125" y="265.879943" style="stroke: #000000; stroke-width: 0.8"/>
      </g>
     </g>
     <g id="text_8">
      <!-- 0 -->
      <g transform="translate(27.240625 269.679162) scale(0.1 -0.1)">
       <use xlink:href="#DejaVuSans-30"/>
      </g>
     </g>
    </g>
    <g id="ytick_2">
     <g id="line2d_8">
      <g>
       <use xlink:href="#mf3454d3241" x="40.603125" y="222.619287" style="stroke: #000000; stroke-width: 0.8"/>
      </g>
     </g>
     <g id="text_9">
      <!-- 5 -->
      <g transform="translate(27.240625 226.418506) scale(0.1 -0.1)">
       <use xlink:href="#DejaVuSans-35"/>
      </g>
     </g>
    </g>
    <g id="ytick_3">
     <g id="line2d_9">
      <g>
       <use xlink:href="#mf3454d3241" x="40.603125" y="179.358632" style="stroke: #000000; stroke-width: 0.8"/>
      </g>
     </g>
     <g id="text_10">
      <!-- 10 -->
      <g transform="translate(20.878125 183.15785) scale(0.1 -0.1)">
       <use xlink:href="#DejaVuSans-31"/>
       <use xlink:href="#DejaVuSans-30" transform="translate(63.623047 0)"/>
      </g>
     </g>
    </g>
    <g id="ytick_4">
     <g id="line2d_10">
      <g>
       <use xlink:href="#mf3454d3241" x="40.603125" y="136.097976" style="stroke: #000000; stroke-width: 0.8"/>
      </g>
     </g>
     <g id="text_11">
      <!-- 15 -->
      <g transform="translate(20.878125 139.897195) scale(0.1 -0.1)">
       <use xlink:href="#DejaVuSans-31"/>
       <use xlink:href="#DejaVuSans-35" transform="translate(63.623047 0)"/>
      </g>
     </g>
    </g>
    <g id="ytick_5">
     <g id="line2d_11">
      <g>
       <use xlink:href="#mf3454d3241" x="40.603125" y="92.83732" style="stroke: #000000; stroke-width: 0.8"/>
      </g>
     </g>
     <g id="text_12">
      <!-- 20 -->
      <g transform="translate(20.878125 96.636539) scale(0.1 -0.1)">
       <use xlink:href="#DejaVuSans-32"/>
       <use xlink:href="#DejaVuSans-30" transform="translate(63.623047 0)"/>
      </g>
     </g>
    </g>
    <g id="ytick_6">
     <g id="line2d_12">
      <g>
       <use xlink:href="#mf3454d3241" x="40.603125" y="49.576664" style="stroke: #000000; stroke-width: 0.8"/>
      </g>
     </g>
     <g id="text_13">
      <!-- 25 -->
      <g transform="translate(20.878125 53.375883) scale(0.1 -0.1)">
       <use xlink:href="#DejaVuSans-32"/>
       <use xlink:href="#DejaVuSans-35" transform="translate(63.623047 0)"/>
      </g>
     </g>
    </g>
    <g id="text_14">
     <!-- Ketoconazole amount (µg/cm²) -->
     <g transform="translate(14.798438 227.248906) rotate(-90) scale(0.1 -0.1)">
      <defs>
       <path id="DejaVuSans-4b" d="M 628 4666 
L 1259 4666 
L 1259 2694 
L 3353 4666 
L 4166 4666 
L 1850 2491 
L 4331 0 
L 3500 0 
L 1259 2247 
L 1259 0 
L 628 0 
L 628 4666 
z
" transform="scale(0.015625)"/>
       <path id="DejaVuSans-74" d="M 1172 4494 
L 1172 3500 
L 2356 3500 
L 2356 3053 
L 1172 3053 
L 1172 1153 
Q 1172 725 1289 603 
Q 1406 481 1766 481 
L 2356 481 
L 2356 0 
L 1766 0 
Q 1100 0 847 248 
Q 594 497 594 1153 
L 594 3053 
L 172 3053 
L 172 3500 
L 594 3500 
L 594 4494 
L 1172 4494 
z
" transform="scale(0.015625)"/>
       <path id="DejaVuSans-6f" d="M 1959 3097 
Q 1497 3097 1228 2736 
Q 959 2375 959 1747 
Q 959 1119 1226 758 
Q 1494 397 1959 397 
Q 2419 397 2687 759 
Q 2956 1122 2956 1747 
Q 2956 2369 2687 2733 
Q 2419 3097 1959 3097 
z
M 1959 3584 
Q 2709 3584 3137 3096 
Q 3566 2609 3566 1747 
Q 3566 888 3137 398 
Q 2709 -91 1959 -91 
Q 1206 -91 779 398 
Q 353 888 353 1747 
Q 353 2609 779 3096 
Q 1206 3584 1959 3584 
z
" transform="scale(0.015625)"/>
       <path id="DejaVuSans-63" d="M 3122 3366 
L 3122 2828 
Q 2878 2963 2633 3030 
Q 2388 3097 2138 3097 
Q 1578 3097 1268 2742 
Q 959 2388 959 1747 
Q 959 1106 1268 751 
Q 1578 397 2138 397 
Q 2388 397 2633 464 
Q 2878 531 3122 666 
L 3122 134 
Q 2881 22 2623 -34 
Q 2366 -91 2075 -91 
Q 1284 -91 818 406 
Q 353 903 353 1747 
Q 353 2603 823 3093 
Q 1294 3584 2113 3584 
Q 2378 3584 2631 3529 
Q 2884 3475 3122 3366 
z
" transform="scale(0.015625)"/>
       <path id="DejaVuSans-6e" d="M 3513 2113 
L 3513 0 
L 2938 0 
L 2938 2094 
Q 2938 2591 2744 2837 
Q 2550 3084 2163 3084 
Q 1697 3084 1428 2787 
Q 1159 2491 1159 1978 
L 1159 0 
L 581 0 
L 581 3500 
L 1159 3500 
L 1159 2956 
Q 1366 3272 1645 3428 
Q 1925 3584 2291 3584 
Q 2894 3584 3203 3211 
Q 3513 2838 3513 2113 
z
" transform="scale(0.015625)"/>
       <path id="DejaVuSans-61" d="M 2194 1759 
Q 1497 1759 1228 1600 
Q 959 1441 959 1056 
Q 959 750 1161 570 
Q 1363 391 1709 391 
Q 2188 391 2477 730 
Q 2766 1069 2766 1631 
L 2766 1759 
L 2194 1759 
z
M 3341 1997 
L 3341 0 
L 2766 0 
L 2766 531 
Q 2569 213 2275 61 
Q 1981 -91 1556 -91 
Q 1019 -91 701 211 
Q 384 513 384 1019 
Q 384 1609 779 1909 
Q 1175 2209 1959 2209 
L 2766 2209 
L 2766 2266 
Q 2766 2663 2505 2880 
Q 2244 3097 1772 3097 
Q 1472 3097 1187 3025 
Q 903 2953 641 2809 
L 641 3341 
Q 956 3463 1253 3523 
Q 1550 3584 1831 3584 
Q 2591 3584 2966 3190 
Q 3341 2797 3341 1997 
z
" transform="scale(0.015625)"/>
       <path id="DejaVuSans-7a" d="M 353 3500 
L 3084 3500 
L 3084 2975 
L 922 459 
L 3084 459 
L 3084 0 
L 275 0 
L 275 525 
L 2438 3041 
L 353 3041 
L 353 3500 
z
" transform="scale(0.015625)"/>
       <path id="DejaVuSans-6c" d="M 603 4863 
L 1178 4863 
L 1178 0 
L 603 0 
L 603 4863 
z
" transform="scale(0.015625)"/>
       <path id="DejaVuSans-75" d="M 544 1381 
L 544 3500 
L 1119 3500 
L 1119 1403 
Q 1119 906 1312 657 
Q 1506 409 1894 409 
Q 2359 409 2629 706 
Q 2900 1003 2900 1516 
L 2900 3500 
L 3475 3500 
L 3475 0 
L 2900 0 
L 2900 538 
Q 2691 219 2414 64 
Q 2138 -91 1772 -91 
Q 1169 -91 856 284 
Q 544 659 544 1381 
z
M 1991 3584 
L 1991 3584 
z
" transform="scale(0.015625)"/>
       <path id="DejaVuSans-b5" d="M 544 -1331 
L 544 3500 
L 1119 3500 
L 1119 1325 
Q 1119 872 1334 640 
Q 1550 409 1972 409 
Q 2434 409 2667 671 
Q 2900 934 2900 1459 
L 2900 3500 
L 3475 3500 
L 3475 806 
Q 3475 619 3529 530 
Q 3584 441 3700 441 
Q 3728 441 3778 458 
Q 3828 475 3916 513 
L 3916 50 
Q 3788 -22 3673 -56 
Q 3559 -91 3450 -91 
Q 3234 -91 3106 31 
Q 2978 153 2931 403 
Q 2775 156 2548 32 
Q 2322 -91 2016 -91 
Q 1697 -91 1473 31 
Q 1250 153 1119 397 
L 1119 -1331 
L 544 -1331 
z
" transform="scale(0.015625)"/>
       <path id="DejaVuSans-67" d="M 2906 1791 
Q 2906 2416 2648 2759 
Q 2391 3103 1925 3103 
Q 1463 3103 1205 2759 
Q 947 2416 947 1791 
Q 947 1169 1205 825 
Q 1463 481 1925 481 
Q 2391 481 2648 825 
Q 2906 1169 2906 1791 
z
M 3481 434 
Q 3481 -459 3084 -895 
Q 2688 -1331 1869 -1331 
Q 1566 -1331 1297 -1286 
Q 1028 -1241 775 -1147 
L 775 -588 
Q 1028 -725 1275 -790 
Q 1522 -856 1778 -856 
Q 2344 -856 2625 -561 
Q 2906 -266 2906 331 
L 2906 616 
Q 2728 306 2450 153 
Q 2172 0 1784 0 
Q 1141 0 747 490 
Q 353 981 353 1791 
Q 353 2603 747 3093 
Q 1141 3584 1784 3584 
Q 2172 3584 2450 3431 
Q 2728 3278 2906 2969 
L 2906 3500 
L 3481 3500 
L 3481 434 
z
" transform="scale(0.015625)"/>
       <path id="DejaVuSans-2f" d="M 1625 4666 
L 2156 4666 
L 531 -594 
L 0 -594 
L 1625 4666 
z
" transform="scale(0.015625)"/>
       <path id="DejaVuSans-b2" d="M 838 2444 
L 2163 2444 
L 2163 2088 
L 294 2088 
L 294 2431 
Q 400 2528 597 2703 
Q 1672 3656 1672 3950 
Q 1672 4156 1509 4282 
Q 1347 4409 1081 4409 
Q 919 4409 728 4354 
Q 538 4300 313 4191 
L 313 4575 
Q 553 4663 761 4706 
Q 969 4750 1147 4750 
Q 1600 4750 1872 4544 
Q 2144 4338 2144 4000 
Q 2144 3566 1109 2678 
Q 934 2528 838 2444 
z
" transform="scale(0.015625)"/>
      </defs>
      <use xlink:href="#DejaVuSans-4b"/>
      <use xlink:href="#DejaVuSans-65" transform="translate(60.576172 0)"/>
      <use xlink:href="#DejaVuSans-74" transform="translate(122.099609 0)"/>
      <use xlink:href="#DejaVuSans-6f" transform="translate(161.308594 0)"/>
      <use xlink:href="#DejaVuSans-63" transform="translate(222.490234 0)"/>
      <use xlink:href="#DejaVuSans-6f" transform="translate(277.470703 0)"/>
      <use xlink:href="#DejaVuSans-6e" transform="translate(338.652344 0)"/>
      <use xlink:href="#DejaVuSans-61" transform="translate(402.03125 0)"/>
      <use xlink:href="#DejaVuSans-7a" transform="translate(463.310547 0)"/>
      <use xlink:href="#DejaVuSans-6f" transform="translate(515.800781 0)"/>
      <use xlink:href="#DejaVuSans-6c" transform="translate(576.982422 0)"/>
      <use xlink:href="#DejaVuSans-65" transform="translate(604.765625 0)"/>
      <use xlink:href="#DejaVuSans-20" transform="translate(666.289062 0)"/>
      <use xlink:href="#DejaVuSans-61" transform="translate(698.076172 0)"/>
      <use xlink:href="#DejaVuSans-6d" transform="translate(759.355469 0)"/>
      <use xlink:href="#DejaVuSans-6f" transform="translate(856.767578 0)"/>
      <use xlink:href="#DejaVuSans-75" transform="translate(917.949219 0)"/>
      <use xlink:href="#DejaVuSans-6e" transform="translate(981.328125 0)"/>
      <use xlink:href="#DejaVuSans-74" transform="translate(1044.707031 0)"/>
      <use xlink:href="#DejaVuSans-20" transform="translate(1083.916016 0)"/>
      <use xlink:href="#DejaVuSans-28" transform="translate(1115.703125 0)"/>
      <use xlink:href="#DejaVuSans-b5" transform="translate(1154.716797 0)"/>
      <use xlink:href="#DejaVuSans-67" transform="translate(1218.339844 0)"/>
      <use xlink:href="#DejaVuSans-2f" transform="translate(1281.816406 0)"/>
      <use xlink:href="#DejaVuSans-63" transform="translate(1315.507812 0)"/>
      <use xlink:href="#DejaVuSans-6d" transform="translate(1370.488281 0)"/>
      <use xlink:href="#DejaVuSans-b2" transform="translate(1467.900391 0)"/>
      <use xlink:href="#DejaVuSans-29" transform="translate(1507.988281 0)"/>
     </g>
    </g>
   </g>
   <g id="line2d_13">
    <path d="M 57.78657 265.879943 
L 60.650477 265.879943 
L 63.514385 265.879895 
L 66.378292 265.877146 
L 69.2422 265.85659 
L 72.106107 265.791427 
L 74.970015 265.655884 
L 77.833922 265.431947 
L 80.697829 265.109485 
L 83.561737 264.684243 
L 86.425644 264.155838 
L 89.289552 263.526274 
L 92.153459 262.79895 
L 95.017367 261.978019 
L 97.881274 261.067995 
L 100.745182 260.073506 
L 103.609089 258.999148 
L 106.472997 257.849399 
L 109.336904 256.628569 
L 112.200812 255.340774 
L 115.064719 253.989931 
L 117.928627 252.579748 
L 120.792534 251.113734 
L 123.656441 249.595202 
L 126.520349 248.027278 
L 129.384256 246.41291 
L 132.248164 244.754875 
L 135.112071 243.055791 
L 137.975979 241.318125 
L 140.839886 239.5442 
L 143.703794 237.736204 
L 146.567701 235.896198 
L 149.431609 234.026123 
L 152.295516 232.127808 
L 155.159424 230.202973 
L 158.023331 228.253241 
L 160.887238 226.28014 
L 163.751146 224.285106 
L 166.615053 222.269496 
L 169.478961 220.234584 
L 172.342868 218.181572 
L 175.206776 216.111591 
L 178.070683 214.025706 
L 180.934591 211.924921 
L 183.798498 209.810181 
L 186.662406 207.682376 
L 189.526313 205.542344 
L 192.390221 203.390873 
L 195.254128 201.228708 
L 198.118035 199.056549 
L 200.981943 196.875053 
L 203.84585 194.684843 
L 206.709758 192.486502 
L 209.573665 190.280581 
L 212.437573 188.067599 
L 215.30148 185.848043 
L 218.165388 183.622374 
L 221.029295 181.391024 
L 223.893203 179.154402 
L 226.75711 176.91289 
L 229.621018 174.666851 
L 232.484925 172.416625 
L 235.348832 170.162532 
L 238.21274 167.904874 
L 241.076647 165.643936 
L 243.940555 163.379985 
L 246.804462 161.113273 
L 249.66837 158.844038 
L 252.532277 156.572503 
L 255.396185 154.298879 
L 258.260092 152.023363 
L 261.124 149.746142 
L 263.987907 147.467392 
L 266.851815 145.187278 
L 269.715722 142.905956 
L 272.57963 140.623572 
L 275.443537 138.340265 
L 278.307444 136.056164 
L 281.171352 133.771391 
L 284.035259 131.486063 
L 286.899167 129.200287 
L 289.763074 126.914165 
L 292.626982 124.627794 
L 295.490889 122.341264 
L 298.354797 120.05466 
L 301.218704 117.768062 
L 304.082612 115.481546 
L 306.946519 113.195182 
L 309.810427 110.909038 
L 312.674334 108.623177 
L 315.538241 106.337657 
L 318.402149 104.052534 
L 321.266056 101.76786 
L 324.129964 99.483686 
L 326.993871 97.200057 
L 329.857779 94.917017 
L 332.721686 92.634608 
L 335.585594 90.352867 
L 338.449501 88.071831 
L 341.313409 85.791535 
L 344.177316 83.51201 
L 347.041224 81.233287 
L 349.905131 78.955394 
L 352.769038 76.678359 
L 355.632946 74.402205 
L 358.496853 72.126957 
L 361.360761 69.852637 
L 364.224668 67.579265 
L 367.088576 65.306862 
L 369.952483 63.035446 
L 372.816391 60.765034 
L 375.680298 58.495642 
L 378.544206 56.227287 
L 381.408113 53.959981 
L 384.272021 51.693739 
L 387.135928 49.428573 
L 389.999835 47.164495 
L 392.863743 44.901517 
L 395.72765 42.639648 
L 398.591558 40.378899 
L 401.455465 38.119278 
" clip-path="url(#pf0fef5bc0f)" style="fill: none; stroke: #1f77b4; stroke-width: 2; stroke-linecap: square"/>
   </g>
   <g id="line2d_14">
    <path d="M 57.78657 265.879943 
L 60.650477 265.879943 
L 63.514385 265.879896 
L 66.378292 265.87718 
L 69.2422 265.856827 
L 72.106107 265.792221 
L 74.970015 265.657717 
L 77.833922 265.435361 
L 80.697829 265.115028 
L 83.561737 264.692446 
L 86.425644 264.167201 
L 89.289552 263.541264 
L 92.153459 262.817995 
L 95.017367 262.001515 
L 97.881274 261.096305 
L 100.745182 260.106964 
L 103.609089 259.03806 
L 106.472997 257.894045 
L 109.336904 256.679207 
L 112.200812 255.39764 
L 115.064719 254.05324 
L 117.928627 252.6497 
L 120.792534 251.190509 
L 123.656441 249.678967 
L 126.520349 248.118185 
L 129.384256 246.511096 
L 132.248164 244.860468 
L 135.112071 243.168906 
L 137.975979 241.438866 
L 140.839886 239.672661 
L 143.703794 237.872472 
L 146.567701 236.04035 
L 149.431609 234.178228 
L 152.295516 232.28793 
L 155.159424 230.37117 
L 158.023331 228.429563 
L 160.887238 226.464632 
L 163.751146 224.47781 
L 166.615053 222.470446 
L 169.478961 220.443811 
L 172.342868 218.399104 
L 175.206776 216.337451 
L 178.070683 214.259916 
L 180.934591 212.167497 
L 183.798498 210.061138 
L 186.662406 207.941726 
L 189.526313 205.810095 
L 192.390221 203.667034 
L 195.254128 201.513284 
L 198.118035 199.349543 
L 200.981943 197.176467 
L 203.84585 194.994678 
L 206.709758 192.804756 
L 209.573665 190.607253 
L 212.437573 188.402685 
L 215.30148 186.191538 
L 218.165388 183.974273 
L 221.029295 181.751321 
L 223.893203 179.523089 
L 226.75711 177.289961 
L 229.621018 175.052297 
L 232.484925 172.810436 
L 235.348832 170.5647 
L 238.21274 168.315389 
L 241.076647 166.062788 
L 243.940555 163.807163 
L 246.804462 161.548766 
L 249.66837 159.287835 
L 252.532277 157.024593 
L 255.396185 154.759249 
L 258.260092 152.492002 
L 261.124 150.223038 
L 263.987907 147.952533 
L 266.851815 145.680651 
L 269.715722 143.40755 
L 272.57963 141.133374 
L 275.443537 138.858262 
L 278.307444 136.582344 
L 281.171352 134.305742 
L 284.035259 132.028571 
L 286.899167 129.75094 
L 289.763074 127.472951 
L 292.626982 125.194699 
L 295.490889 122.916277 
L 298.354797 120.637767 
L 301.218704 118.359251 
L 304.082612 116.080805 
L 306.946519 113.802498 
L 309.810427 111.524399 
L 312.674334 109.24657 
L 315.538241 106.969069 
L 318.402149 104.691954 
L 321.266056 102.415276 
L 324.129964 100.139085 
L 326.993871 97.863427 
L 329.857779 95.588345 
L 332.721686 93.313882 
L 335.585594 91.040076 
L 338.449501 88.766962 
L 341.313409 86.494577 
L 344.177316 84.222951 
L 347.041224 81.952114 
L 349.905131 79.682097 
L 352.769038 77.412924 
L 355.632946 75.144622 
L 358.496853 72.877214 
L 361.360761 70.610722 
L 364.224668 68.345167 
L 367.088576 66.08057 
L 369.952483 63.816947 
L 372.816391 61.554318 
L 375.680298 59.292698 
L 378.544206 57.032102 
L 381.408113 54.772544 
L 384.272021 52.51404 
L 387.135928 50.2566 
L 389.999835 48.000238 
L 392.863743 45.744963 
L 395.72765 43.490787 
L 398.591558 41.23772 
L 401.455465 38.985771 
" clip-path="url(#pf0fef5bc0f)" style="fill: none; stroke-dasharray: 7.4,3.2; stroke-dashoffset: 0; stroke: #ff7f0e; stroke-width: 2"/>
   </g>
   <g id="patch_3">
    <path d="M 40.603125 277.478125 
L 40.603125 22.318125 
" style="fill: none; stroke: #000000; stroke-width: 0.8; stroke-linejoin: miter; stroke-linecap: square"/>
   </g>
   <g id="patch_4">
    <path d="M 40.603125 277.478125 
L 418.63891 277.478125 
" style="fill: none; stroke: #000000; stroke-width: 0.8; stroke-linejoin: miter; stroke-linecap: square"/>
   </g>
   <g id="text_15">
    <!-- Free KC receptor fit comparison -->
    <g transform="translate(134.989768 16.318125) scale(0.12 -0.12)">
     <defs>
      <path id="DejaVuSans-46" d="M 628 4666 
L 3309 4666 
L 3309 4134 
L 1259 4134 
L 1259 2759 
L 3109 2759 
L 3109 2228 
L 1259 2228 
L 1259 0 
L 628 0 
L 628 4666 
z
" transform="scale(0.015625)"/>
      <path id="DejaVuSans-72" d="M 2631 2963 
Q 2534 3019 2420 3045 
Q 2306 3072 2169 3072 
Q 1681 3072 1420 2755 
Q 1159 2438 1159 1844 
L 1159 0 
L 581 0 
L 581 3500 
L 1159 3500 
L 1159 2956 
Q 1341 3275 1631 3429 
Q 1922 3584 2338 3584 
Q 2397 3584 2469 3576 
Q 2541 3569 2628 3553 
L 2631 2963 
z
" transform="scale(0.015625)"/>
      <path id="DejaVuSans-43" d="M 4122 4306 
L 4122 3641 
Q 3803 3938 3442 4084 
Q 3081 4231 2675 4231 
Q 1875 4231 1450 3742 
Q 1025 3253 1025 2328 
Q 1025 1406 1450 917 
Q 1875 428 2675 428 
Q 3081 428 3442 575 
Q 3803 722 4122 1019 
L 4122 359 
Q 3791 134 3420 21 
Q 3050 -91 2638 -91 
Q 1578 -91 968 557 
Q 359 1206 359 2328 
Q 359 3453 968 4101 
Q 1578 4750 2638 4750 
Q 3056 4750 3426 4639 
Q 3797 4528 4122 4306 
z
" transform="scale(0.015625)"/>
      <path id="DejaVuSans-70" d="M 1159 525 
L 1159 -1331 
L 581 -1331 
L 581 3500 
L 1159 3500 
L 1159 2969 
Q 1341 3281 1617 3432 
Q 1894 3584 2278 3584 
Q 2916 3584 3314 3078 
Q 3713 2572 3713 1747 
Q 3713 922 3314 415 
Q 2916 -91 2278 -91 
Q 1894 -91 1617 61 
Q 1341 213 1159 525 
z
M 3116 1747 
Q 3116 2381 2855 2742 
Q 2594 3103 2138 3103 
Q 1681 3103 1420 2742 
Q 1159 2381 1159 1747 
Q 1159 1113 1420 752 
Q 1681 391 2138 391 
Q 2594 391 2855 752 
Q 3116 1113 3116 1747 
z
" transform="scale(0.015625)"/>
      <path id="DejaVuSans-66" d="M 2375 4863 
L 2375 4384 
L 1825 4384 
Q 1516 4384 1395 4259 
Q 1275 4134 1275 3809 
L 1275 3500 
L 2222 3500 
L 2222 3053 
L 1275 3053 
L 1275 0 
L 697 0 
L 697 3053 
L 147 3053 
L 147 3500 
L 697 3500 
L 697 3744 
Q 697 4328 969 4595 
Q 1241 4863 1831 4863 
L 2375 4863 
z
" transform="scale(0.015625)"/>
      <path id="DejaVuSans-73" d="M 2834 3397 
L 2834 2853 
Q 2591 2978 2328 3040 
Q 2066 3103 1784 3103 
Q 1356 3103 1142 2972 
Q 928 2841 928 2578 
Q 928 2378 1081 2264 
Q 1234 2150 1697 2047 
L 1894 2003 
Q 2506 1872 2764 1633 
Q 3022 1394 3022 966 
Q 3022 478 2636 193 
Q 2250 -91 1575 -91 
Q 1294 -91 989 -36 
Q 684 19 347 128 
L 347 722 
Q 666 556 975 473 
Q 1284 391 1588 391 
Q 1994 391 2212 530 
Q 2431 669 2431 922 
Q 2431 1156 2273 1281 
Q 2116 1406 1581 1522 
L 1381 1569 
Q 847 1681 609 1914 
Q 372 2147 372 2553 
Q 372 3047 722 3315 
Q 1072 3584 1716 3584 
Q 2034 3584 2315 3537 
Q 2597 3491 2834 3397 
z
" transform="scale(0.015625)"/>
     </defs>
     <use xlink:href="#DejaVuSans-46"/>
     <use xlink:href="#DejaVuSans-72" transform="translate(50.269531 0)"/>
     <use xlink:href="#DejaVuSans-65" transform="translate(89.132812 0)"/>
     <use xlink:href="#DejaVuSans-65" transform="translate(150.65625 0)"/>
     <use xlink:href="#DejaVuSans-20" transform="translate(212.179688 0)"/>
     <use xlink:href="#DejaVuSans-4b" transform="translate(243.966797 0)"/>
     <use xlink:href="#DejaVuSans-43" transform="translate(304.042969 0)"/>
     <use xlink:href="#DejaVuSans-20" transform="translate(373.867188 0)"/>
     <use xlink:href="#DejaVuSans-72" transform="translate(405.654297 0)"/>
     <use xlink:href="#DejaVuSans-65" transform="translate(444.517578 0)"/>
     <use xlink:href="#DejaVuSans-63" transform="translate(506.041016 0)"/>
     <use xlink:href="#DejaVuSans-65" transform="translate(561.021484 0)"/>
     <use xlink:href="#DejaVuSans-70" transform="translate(622.544922 0)"/>
     <use xlink:href="#DejaVuSans-74" transform="translate(686.021484 0)"/>
     <use xlink:href="#DejaVuSans-6f" transform="translate(725.230469 0)"/>
     <use xlink:href="#DejaVuSans-72" transform="translate(786.412109 0)"/>
     <use xlink:href="#DejaVuSans-20" transform="translate(827.525391 0)"/>
     <use xlink:href="#DejaVuSans-66" transform="translate(859.3125 0)"/>
     <use xlink:href="#DejaVuSans-69" transform="translate(894.517578 0)"/>
     <use xlink:href="#DejaVuSans-74" transform="translate(922.300781 0)"/>
     <use xlink:href="#DejaVuSans-20" transform="translate(961.509766 0)"/>
     <use xlink:href="#DejaVuSans-63" transform="translate(993.296875 0)"/>
     <use xlink:href="#DejaVuSans-6f" transform="translate(1048.277344 0)"/>
     <use xlink:href="#DejaVuSans-6d" transform="translate(1109.458984 0)"/>
     <use xlink:href="#DejaVuSans-70" transform="translate(1206.871094 0)"/>
     <use xlink:href="#DejaVuSans-61" transform="translate(1270.347656 0)"/>
     <use xlink:href="#DejaVuSans-72" transform="translate(1331.626953 0)"/>
     <use xlink:href="#DejaVuSans-69" transform="translate(1372.740234 0)"/>
     <use xlink:href="#DejaVuSans-73" transform="translate(1400.523438 0)"/>
     <use xlink:href="#DejaVuSans-6f" transform="translate(1452.623047 0)"/>
     <use xlink:href="#DejaVuSans-6e" transform="translate(1513.804688 0)"/>
    </g>
   </g>
   <g id="legend_1">
    <g id="line2d_15">
     <path d="M 49.603125 35.416562 
L 59.603125 35.416562 
L 69.603125 35.416562 
" style="fill: none; stroke: #1f77b4; stroke-width: 2; stroke-linecap: square"/>
    </g>
    <g id="text_16">
     <!-- Case 1 -->
     <g transform="translate(77.603125 38.916562) scale(0.1 -0.1)">
      <use xlink:href="#DejaVuSans-43"/>
      <use xlink:href="#DejaVuSans-61" transform="translate(69.824219 0)"/>
      <use xlink:href="#DejaVuSans-73" transform="translate(131.103516 0)"/>
      <use xlink:href="#DejaVuSans-65" transform="translate(183.203125 0)"/>
      <use xlink:href="#DejaVuSans-20" transform="translate(244.726562 0)"/>
      <use xlink:href="#DejaVuSans-31" transform="translate(276.513672 0)"/>
     </g>
    </g>
    <g id="line2d_16">
     <path d="M 49.603125 50.094688 
L 59.603125 50.094688 
L 69.603125 50.094688 
" style="fill: none; stroke-dasharray: 7.4,3.2; stroke-dashoffset: 0; stroke: #ff7f0e; stroke-width: 2"/>
    </g>
    <g id="text_17">
     <!-- Case 2 -->
     <g transform="translate(77.603125 53.594688) scale(0.1 -0.1)">
      <use xlink:href="#DejaVuSans-43"/>
      <use xlink:href="#DejaVuSans-61" transform="translate(69.824219 0)"/>
      <use xlink:href="#DejaVuSans-73" transform="translate(131.103516 0)"/>
      <use xlink:href="#DejaVuSans-65" transform="translate(183.203125 0)"/>
      <use xlink:href="#DejaVuSans-20" transform="translate(244.726562 0)"/>
      <use xlink:href="#DejaVuSans-32" transform="translate(276.513672 0)"/>
     </g>
    </g>
    <g id="PathCollection_2">
     <g>
      <use xlink:href="#m0eb8fd15ba" x="59.603125" y="65.647812" style="fill: #1f77b4; stroke: #1f77b4"/>
     </g>
    </g>
    <g id="text_18">
     <!-- Experimental -->
     <g transform="translate(77.603125 68.272812) scale(0.1 -0.1)">
      <defs>
       <path id="DejaVuSans-45" d="M 628 4666 
L 3578 4666 
L 3578 4134 
L 1259 4134 
L 1259 2753 
L 3481 2753 
L 3481 2222 
L 1259 2222 
L 1259 531 
L 3634 531 
L 3634 0 
L 628 0 
L 628 4666 
z
" transform="scale(0.015625)"/>
       <path id="DejaVuSans-78" d="M 3513 3500 
L 2247 1797 
L 3578 0 
L 2900 0 
L 1881 1375 
L 863 0 
L 184 0 
L 1544 1831 
L 300 3500 
L 978 3500 
L 1906 2253 
L 2834 3500 
L 3513 3500 
z
" transform="scale(0.015625)"/>
      </defs>
      <use xlink:href="#DejaVuSans-45"/>
      <use xlink:href="#DejaVuSans-78" transform="translate(63.183594 0)"/>
      <use xlink:href="#DejaVuSans-70" transform="translate(122.363281 0)"/>
      <use xlink:href="#DejaVuSans-65" transform="translate(185.839844 0)"/>
      <use xlink:href="#DejaVuSans-72" transform="translate(247.363281 0)"/>
      <use xlink:href="#DejaVuSans-69" transform="translate(288.476562 0)"/>
      <use xlink:href="#DejaVuSans-6d" transform="translate(316.259766 0)"/>
      <use xlink:href="#DejaVuSans-65" transform="translate(413.671875 0)"/>
      <use xlink:href="#DejaVuSans-6e" transform="translate(475.195312 0)"/>
      <use xlink:href="#DejaVuSans-74" transform="translate(538.574219 0)"/>
      <use xlink:href="#DejaVuSans-61" transform="translate(577.783203 0)"/>
      <use xlink:href="#DejaVuSans-6c" transform="translate(639.0625 0)"/>
     </g>
    </g>
   </g>
  </g>
  <g id="axes_2">
   <g id="patch_5">
    <path d="M 467.203125 277.478125 
L 845.23891 277.478125 
L 845.23891 22.318125 
L 467.203125 22.318125 
z
" style="fill: #ffffff"/>
   </g>
   <g id="PathCollection_3">
    <g clip-path="url(#pd8c8b5e355)">
     <use xlink:href="#m0eb8fd15ba" x="541.664719" y="254.258384" style="fill: #1f77b4; stroke: #1f77b4"/>
     <use xlink:href="#m0eb8fd15ba" x="570.303794" y="239.902339" style="fill: #1f77b4; stroke: #1f77b4"/>
     <use xlink:href="#m0eb8fd15ba" x="598.942868" y="220.077326" style="fill: #1f77b4; stroke: #1f77b4"/>
     <use xlink:href="#m0eb8fd15ba" x="656.221018" y="172.907467" style="fill: #1f77b4; stroke: #1f77b4"/>
     <use xlink:href="#m0eb8fd15ba" x="828.055465" y="38.986083" style="fill: #1f77b4; stroke: #1f77b4"/>
    </g>
   </g>
   <g id="matplotlib.axis_3">
    <g id="xtick_7">
     <g id="line2d_17">
      <g>
       <use xlink:href="#mb82879e90e" x="484.38657" y="277.478125" style="stroke: #000000; stroke-width: 0.8"/>
      </g>
     </g>
     <g id="text_19">
      <!-- 0 -->
      <g transform="translate(481.20532 292.076563) scale(0.1 -0.1)">
       <use xlink:href="#DejaVuSans-30"/>
      </g>
     </g>
    </g>
    <g id="xtick_8">
     <g id="line2d_18">
      <g>
       <use xlink:href="#mb82879e90e" x="555.984256" y="277.478125" style="stroke: #000000; stroke-width: 0.8"/>
      </g>
     </g>
     <g id="text_20">
      <!-- 5 -->
      <g transform="translate(552.803006 292.076563) scale(0.1 -0.1)">
       <use xlink:href="#DejaVuSans-35"/>
      </g>
     </g>
    </g>
    <g id="xtick_9">
     <g id="line2d_19">
      <g>
       <use xlink:href="#mb82879e90e" x="627.581943" y="277.478125" style="stroke: #000000; stroke-width: 0.8"/>
      </g>
     </g>
     <g id="text_21">
      <!-- 10 -->
      <g transform="translate(621.219443 292.076563) scale(0.1 -0.1)">
       <use xlink:href="#DejaVuSans-31"/>
       <use xlink:href="#DejaVuSans-30" transform="translate(63.623047 0)"/>
      </g>
     </g>
    </g>
    <g id="xtick_10">
     <g id="line2d_20">
      <g>
       <use xlink:href="#mb82879e90e" x="699.17963" y="277.478125" style="stroke: #000000; stroke-width: 0.8"/>
      </g>
     </g>
     <g id="text_22">
      <!-- 15 -->
      <g transform="translate(692.81713 292.076563) scale(0.1 -0.1)">
       <use xlink:href="#DejaVuSans-31"/>
       <use xlink:href="#DejaVuSans-35" transform="translate(63.623047 0)"/>
      </g>
     </g>
    </g>
    <g id="xtick_11">
     <g id="line2d_21">
      <g>
       <use xlink:href="#mb82879e90e" x="770.777316" y="277.478125" style="stroke: #000000; stroke-width: 0.8"/>
      </g>
     </g>
     <g id="text_23">
      <!-- 20 -->
      <g transform="translate(764.414816 292.076563) scale(0.1 -0.1)">
       <use xlink:href="#DejaVuSans-32"/>
       <use xlink:href="#DejaVuSans-30" transform="translate(63.623047 0)"/>
      </g>
     </g>
    </g>
    <g id="xtick_12">
     <g id="line2d_22">
      <g>
       <use xlink:href="#mb82879e90e" x="842.375003" y="277.478125" style="stroke: #000000; stroke-width: 0.8"/>
      </g>
     </g>
     <g id="text_24">
      <!-- 25 -->
      <g transform="translate(836.012503 292.076563) scale(0.1 -0.1)">
       <use xlink:href="#DejaVuSans-32"/>
       <use xlink:href="#DejaVuSans-35" transform="translate(63.623047 0)"/>
      </g>
     </g>
    </g>
    <g id="text_25">
     <!-- Time (h) -->
     <g transform="translate(635.328049 305.754687) scale(0.1 -0.1)">
      <use xlink:href="#DejaVuSans-54"/>
      <use xlink:href="#DejaVuSans-69" transform="translate(57.958984 0)"/>
      <use xlink:href="#DejaVuSans-6d" transform="translate(85.742188 0)"/>
      <use xlink:href="#DejaVuSans-65" transform="translate(183.154297 0)"/>
      <use xlink:href="#DejaVuSans-20" transform="translate(244.677734 0)"/>
      <use xlink:href="#DejaVuSans-28" transform="translate(276.464844 0)"/>
      <use xlink:href="#DejaVuSans-68" transform="translate(315.478516 0)"/>
      <use xlink:href="#DejaVuSans-29" transform="translate(378.857422 0)"/>
     </g>
    </g>
   </g>
   <g id="matplotlib.axis_4">
    <g id="ytick_7">
     <g id="line2d_23">
      <g>
       <use xlink:href="#mf3454d3241" x="467.203125" y="265.879943" style="stroke: #000000; stroke-width: 0.8"/>
      </g>
     </g>
     <g id="text_26">
      <!-- 0 -->
      <g transform="translate(453.840625 269.679162) scale(0.1 -0.1)">
       <use xlink:href="#DejaVuSans-30"/>
      </g>
     </g>
    </g>
    <g id="ytick_8">
     <g id="line2d_24">
      <g>
       <use xlink:href="#mf3454d3241" x="467.203125" y="231.698886" style="stroke: #000000; stroke-width: 0.8"/>
      </g>
     </g>
     <g id="text_27">
      <!-- 5 -->
      <g transform="translate(453.840625 235.498104) scale(0.1 -0.1)">
       <use xlink:href="#DejaVuSans-35"/>
      </g>
     </g>
    </g>
    <g id="ytick_9">
     <g id="line2d_25">
      <g>
       <use xlink:href="#mf3454d3241" x="467.203125" y="197.517828" style="stroke: #000000; stroke-width: 0.8"/>
      </g>
     </g>
     <g id="text_28">
      <!-- 10 -->
      <g transform="translate(447.478125 201.317047) scale(0.1 -0.1)">
       <use xlink:href="#DejaVuSans-31"/>
       <use xlink:href="#DejaVuSans-30" transform="translate(63.623047 0)"/>
      </g>
     </g>
    </g>
    <g id="ytick_10">
     <g id="line2d_26">
      <g>
       <use xlink:href="#mf3454d3241" x="467.203125" y="163.33677" style="stroke: #000000; stroke-width: 0.8"/>
      </g>
     </g>
     <g id="text_29">
      <!-- 15 -->
      <g transform="translate(447.478125 167.135989) scale(0.1 -0.1)">
       <use xlink:href="#DejaVuSans-31"/>
       <use xlink:href="#DejaVuSans-35" transform="translate(63.623047 0)"/>
      </g>
     </g>
    </g>
    <g id="ytick_11">
     <g id="line2d_27">
      <g>
       <use xlink:href="#mf3454d3241" x="467.203125" y="129.155713" style="stroke: #000000; stroke-width: 0.8"/>
      </g>
     </g>
     <g id="text_30">
      <!-- 20 -->
      <g transform="translate(447.478125 132.954932) scale(0.1 -0.1)">
       <use xlink:href="#DejaVuSans-32"/>
       <use xlink:href="#DejaVuSans-30" transform="translate(63.623047 0)"/>
      </g>
     </g>
    </g>
    <g id="ytick_12">
     <g id="line2d_28">
      <g>
       <use xlink:href="#mf3454d3241" x="467.203125" y="94.974655" style="stroke: #000000; stroke-width: 0.8"/>
      </g>
     </g>
     <g id="text_31">
      <!-- 25 -->
      <g transform="translate(447.478125 98.773874) scale(0.1 -0.1)">
       <use xlink:href="#DejaVuSans-32"/>
       <use xlink:href="#DejaVuSans-35" transform="translate(63.623047 0)"/>
      </g>
     </g>
    </g>
    <g id="ytick_13">
     <g id="line2d_29">
      <g>
       <use xlink:href="#mf3454d3241" x="467.203125" y="60.793598" style="stroke: #000000; stroke-width: 0.8"/>
      </g>
     </g>
     <g id="text_32">
      <!-- 30 -->
      <g transform="translate(447.478125 64.592816) scale(0.1 -0.1)">
       <defs>
        <path id="DejaVuSans-33" d="M 2597 2516 
Q 3050 2419 3304 2112 
Q 3559 1806 3559 1356 
Q 3559 666 3084 287 
Q 2609 -91 1734 -91 
Q 1441 -91 1130 -33 
Q 819 25 488 141 
L 488 750 
Q 750 597 1062 519 
Q 1375 441 1716 441 
Q 2309 441 2620 675 
Q 2931 909 2931 1356 
Q 2931 1769 2642 2001 
Q 2353 2234 1838 2234 
L 1294 2234 
L 1294 2753 
L 1863 2753 
Q 2328 2753 2575 2939 
Q 2822 3125 2822 3475 
Q 2822 3834 2567 4026 
Q 2313 4219 1838 4219 
Q 1578 4219 1281 4162 
Q 984 4106 628 3988 
L 628 4550 
Q 988 4650 1302 4700 
Q 1616 4750 1894 4750 
Q 2613 4750 3031 4423 
Q 3450 4097 3450 3541 
Q 3450 3153 3228 2886 
Q 3006 2619 2597 2516 
z
" transform="scale(0.015625)"/>
       </defs>
       <use xlink:href="#DejaVuSans-33"/>
       <use xlink:href="#DejaVuSans-30" transform="translate(63.623047 0)"/>
      </g>
     </g>
    </g>
    <g id="ytick_14">
     <g id="line2d_30">
      <g>
       <use xlink:href="#mf3454d3241" x="467.203125" y="26.61254" style="stroke: #000000; stroke-width: 0.8"/>
      </g>
     </g>
     <g id="text_33">
      <!-- 35 -->
      <g transform="translate(447.478125 30.411759) scale(0.1 -0.1)">
       <use xlink:href="#DejaVuSans-33"/>
       <use xlink:href="#DejaVuSans-35" transform="translate(63.623047 0)"/>
      </g>
     </g>
    </g>
    <g id="text_34">
     <!-- Ketoconazole amount (µg/cm²) -->
     <g transform="translate(441.398438 227.248906) rotate(-90) scale(0.1 -0.1)">
      <use xlink:href="#DejaVuSans-4b"/>
      <use xlink:href="#DejaVuSans-65" transform="translate(60.576172 0)"/>
      <use xlink:href="#DejaVuSans-74" transform="translate(122.099609 0)"/>
      <use xlink:href="#DejaVuSans-6f" transform="translate(161.308594 0)"/>
      <use xlink:href="#DejaVuSans-63" transform="translate(222.490234 0)"/>
      <use xlink:href="#DejaVuSans-6f" transform="translate(277.470703 0)"/>
      <use xlink:href="#DejaVuSans-6e" transform="translate(338.652344 0)"/>
      <use xlink:href="#DejaVuSans-61" transform="translate(402.03125 0)"/>
      <use xlink:href="#DejaVuSans-7a" transform="translate(463.310547 0)"/>
      <use xlink:href="#DejaVuSans-6f" transform="translate(515.800781 0)"/>
      <use xlink:href="#DejaVuSans-6c" transform="translate(576.982422 0)"/>
      <use xlink:href="#DejaVuSans-65" transform="translate(604.765625 0)"/>
      <use xlink:href="#DejaVuSans-20" transform="translate(666.289062 0)"/>
      <use xlink:href="#DejaVuSans-61" transform="translate(698.076172 0)"/>
      <use xlink:href="#DejaVuSans-6d" transform="translate(759.355469 0)"/>
      <use xlink:href="#DejaVuSans-6f" transform="translate(856.767578 0)"/>
      <use xlink:href="#DejaVuSans-75" transform="translate(917.949219 0)"/>
      <use xlink:href="#DejaVuSans-6e" transform="translate(981.328125 0)"/>
      <use xlink:href="#DejaVuSans-74" transform="translate(1044.707031 0)"/>
      <use xlink:href="#DejaVuSans-20" transform="translate(1083.916016 0)"/>
      <use xlink:href="#DejaVuSans-28" transform="translate(1115.703125 0)"/>
      <use xlink:href="#DejaVuSans-b5" transform="translate(1154.716797 0)"/>
      <use xlink:href="#DejaVuSans-67" transform="translate(1218.339844 0)"/>
      <use xlink:href="#DejaVuSans-2f" transform="translate(1281.816406 0)"/>
      <use xlink:href="#DejaVuSans-63" transform="translate(1315.507812 0)"/>
      <use xlink:href="#DejaVuSans-6d" transform="translate(1370.488281 0)"/>
      <use xlink:href="#DejaVuSans-b2" transform="translate(1467.900391 0)"/>
      <use xlink:href="#DejaVuSans-29" transform="translate(1507.988281 0)"/>
     </g>
    </g>
   </g>
   <g id="line2d_31">
    <path d="M 484.38657 265.879943 
L 487.250477 265.879943 
L 490.114385 265.879943 
L 492.978292 265.879768 
L 495.8422 265.876753 
L 498.706107 265.860923 
L 501.570015 265.815209 
L 504.433922 265.720592 
L 507.297829 265.560519 
L 510.161737 265.322749 
L 513.025644 264.999413 
L 515.889552 264.586283 
L 518.753459 264.08187 
L 521.617367 263.486609 
L 524.481274 262.802226 
L 527.345182 262.031264 
L 530.209089 261.17676 
L 533.072997 260.242014 
L 535.936904 259.230442 
L 538.800812 258.145479 
L 541.664719 256.990512 
L 544.528627 255.768848 
L 547.392534 254.48368 
L 550.256441 253.138086 
L 553.120349 251.735013 
L 555.984256 250.277283 
L 558.848164 248.767587 
L 561.712071 247.208493 
L 564.575979 245.60245 
L 567.439886 243.951786 
L 570.303794 242.258722 
L 573.167701 240.525368 
L 576.031609 238.753734 
L 578.895516 236.945733 
L 581.759424 235.103182 
L 584.623331 233.227813 
L 587.487238 231.321272 
L 590.351146 229.385124 
L 593.215053 227.42086 
L 596.078961 225.429897 
L 598.942868 223.413581 
L 601.806776 221.373197 
L 604.670683 219.309962 
L 607.534591 217.225037 
L 610.398498 215.119525 
L 613.262406 212.994477 
L 616.126313 210.850889 
L 618.990221 208.689712 
L 621.854128 206.51185 
L 624.718035 204.318161 
L 627.581943 202.109464 
L 630.44585 199.886534 
L 633.309758 197.650112 
L 636.173665 195.400901 
L 639.037573 193.13957 
L 641.90148 190.866755 
L 644.765388 188.583062 
L 647.629295 186.289066 
L 650.493203 183.985315 
L 653.35711 181.67233 
L 656.221018 179.350606 
L 659.084925 177.020615 
L 661.948832 174.682805 
L 664.81274 172.337602 
L 667.676647 169.985412 
L 670.540555 167.626621 
L 673.404462 165.261595 
L 676.26837 162.890684 
L 679.132277 160.514219 
L 681.996185 158.132516 
L 684.860092 155.745876 
L 687.724 153.354584 
L 690.587907 150.958912 
L 693.451815 148.559119 
L 696.315722 146.155449 
L 699.17963 143.748138 
L 702.043537 141.337407 
L 704.907444 138.923468 
L 707.771352 136.506523 
L 710.635259 134.086761 
L 713.499167 131.664366 
L 716.363074 129.23951 
L 719.226982 126.812359 
L 722.090889 124.383068 
L 724.954797 121.951787 
L 727.818704 119.518657 
L 730.682612 117.083813 
L 733.546519 114.647383 
L 736.410427 112.209489 
L 739.274334 109.770247 
L 742.138241 107.329767 
L 745.002149 104.888154 
L 747.866056 102.445508 
L 750.729964 100.001923 
L 753.593871 97.55749 
L 756.457779 95.112294 
L 759.321686 92.666418 
L 762.185594 90.219938 
L 765.049501 87.772928 
L 767.913409 85.325459 
L 770.777316 82.877597 
L 773.641224 80.429406 
L 776.505131 77.980945 
L 779.369038 75.532273 
L 782.232946 73.083444 
L 785.096853 70.634509 
L 787.960761 68.185519 
L 790.824668 65.73652 
L 793.688576 63.287556 
L 796.552483 60.83867 
L 799.416391 58.389903 
L 802.280298 55.941292 
L 805.144206 53.492875 
L 808.008113 51.044685 
L 810.872021 48.596756 
L 813.735928 46.149119 
L 816.599835 43.701803 
L 819.463743 41.254838 
L 822.32765 38.80825 
L 825.191558 36.362065 
L 828.055465 33.916307 
" clip-path="url(#pd8c8b5e355)" style="fill: none; stroke: #1f77b4; stroke-width: 2; stroke-linecap: square"/>
   </g>
   <g id="line2d_32">
    <path d="M 484.38657 265.879943 
L 487.250477 265.879943 
L 490.114385 265.879933 
L 492.978292 265.878902 
L 495.8422 265.868154 
L 498.706107 265.826355 
L 501.570015 265.726987 
L 504.433922 265.547115 
L 507.297829 265.270789 
L 510.161737 264.888828 
L 513.025644 264.397345 
L 515.889552 263.796193 
L 518.753459 263.087697 
L 521.617367 262.275731 
L 524.481274 261.365072 
L 527.345182 260.36096 
L 530.209089 259.26881 
L 533.072997 258.094029 
L 535.936904 256.841894 
L 538.800812 255.517484 
L 541.664719 254.125636 
L 544.528627 252.67093 
L 547.392534 251.157677 
L 550.256441 249.589927 
L 553.120349 247.97147 
L 555.984256 246.305851 
L 558.848164 244.596377 
L 561.712071 242.846137 
L 564.575979 241.058009 
L 567.439886 239.234673 
L 570.303794 237.378628 
L 573.167701 235.492201 
L 576.031609 233.577557 
L 578.895516 231.636714 
L 581.759424 229.671549 
L 584.623331 227.68381 
L 587.487238 225.675124 
L 590.351146 223.647004 
L 593.215053 221.600861 
L 596.078961 219.538005 
L 598.942868 217.459658 
L 601.806776 215.366957 
L 604.670683 213.260959 
L 607.534591 211.142648 
L 610.398498 209.012941 
L 613.262406 206.87269 
L 616.126313 204.722688 
L 618.990221 202.563675 
L 621.854128 200.396337 
L 624.718035 198.221314 
L 627.581943 196.039202 
L 630.44585 193.850554 
L 633.309758 191.655887 
L 636.173665 189.45568 
L 639.037573 187.25038 
L 641.90148 185.040402 
L 644.765388 182.826134 
L 647.629295 180.607935 
L 650.493203 178.386141 
L 653.35711 176.161063 
L 656.221018 173.932991 
L 659.084925 171.702196 
L 661.948832 169.468929 
L 664.81274 167.233424 
L 667.676647 164.995898 
L 670.540555 162.756555 
L 673.404462 160.515581 
L 676.26837 158.273154 
L 679.132277 156.029436 
L 681.996185 153.784579 
L 684.860092 151.538724 
L 687.724 149.292004 
L 690.587907 147.044539 
L 693.451815 144.796446 
L 696.315722 142.547828 
L 699.17963 140.298785 
L 702.043537 138.049409 
L 704.907444 135.799785 
L 707.771352 133.549993 
L 710.635259 131.300106 
L 713.499167 129.050192 
L 716.363074 126.800317 
L 719.226982 124.55054 
L 722.090889 122.300915 
L 724.954797 120.051495 
L 727.818704 117.802327 
L 730.682612 115.553456 
L 733.546519 113.304924 
L 736.410427 111.056769 
L 739.274334 108.809026 
L 742.138241 106.56173 
L 745.002149 104.314911 
L 747.866056 102.068597 
L 750.729964 99.822817 
L 753.593871 97.577595 
L 756.457779 95.332953 
L 759.321686 93.088914 
L 762.185594 90.845498 
L 765.049501 88.602723 
L 767.913409 86.360607 
L 770.777316 84.119165 
L 773.641224 81.878412 
L 776.505131 79.638363 
L 779.369038 77.399031 
L 782.232946 75.160426 
L 785.096853 72.922562 
L 787.960761 70.685446 
L 790.824668 68.449091 
L 793.688576 66.213503 
L 796.552483 63.978692 
L 799.416391 61.744666 
L 802.280298 59.51143 
L 805.144206 57.278992 
L 808.008113 55.047359 
L 810.872021 52.816535 
L 813.735928 50.586526 
L 816.599835 48.357337 
L 819.463743 46.128972 
L 822.32765 43.901436 
L 825.191558 41.674731 
L 828.055465 39.448863 
" clip-path="url(#pd8c8b5e355)" style="fill: none; stroke-dasharray: 7.4,3.2; stroke-dashoffset: 0; stroke: #ff7f0e; stroke-width: 2"/>
   </g>
   <g id="patch_6">
    <path d="M 467.203125 277.478125 
L 467.203125 22.318125 
" style="fill: none; stroke: #000000; stroke-width: 0.8; stroke-linejoin: miter; stroke-linecap: square"/>
   </g>
   <g id="patch_7">
    <path d="M 467.203125 277.478125 
L 845.23891 277.478125 
" style="fill: none; stroke: #000000; stroke-width: 0.8; stroke-linejoin: miter; stroke-linecap: square"/>
   </g>
   <g id="text_35">
    <!-- KLZ-NPs receptor fit comparison -->
    <g transform="translate(559.44758 16.318125) scale(0.12 -0.12)">
     <defs>
      <path id="DejaVuSans-4c" d="M 628 4666 
L 1259 4666 
L 1259 531 
L 3531 531 
L 3531 0 
L 628 0 
L 628 4666 
z
" transform="scale(0.015625)"/>
      <path id="DejaVuSans-5a" d="M 359 4666 
L 4025 4666 
L 4025 4184 
L 1075 531 
L 4097 531 
L 4097 0 
L 288 0 
L 288 481 
L 3238 4134 
L 359 4134 
L 359 4666 
z
" transform="scale(0.015625)"/>
      <path id="DejaVuSans-2d" d="M 313 2009 
L 1997 2009 
L 1997 1497 
L 313 1497 
L 313 2009 
z
" transform="scale(0.015625)"/>
      <path id="DejaVuSans-4e" d="M 628 4666 
L 1478 4666 
L 3547 763 
L 3547 4666 
L 4159 4666 
L 4159 0 
L 3309 0 
L 1241 3903 
L 1241 0 
L 628 0 
L 628 4666 
z
" transform="scale(0.015625)"/>
      <path id="DejaVuSans-50" d="M 1259 4147 
L 1259 2394 
L 2053 2394 
Q 2494 2394 2734 2622 
Q 2975 2850 2975 3272 
Q 2975 3691 2734 3919 
Q 2494 4147 2053 4147 
L 1259 4147 
z
M 628 4666 
L 2053 4666 
Q 2838 4666 3239 4311 
Q 3641 3956 3641 3272 
Q 3641 2581 3239 2228 
Q 2838 1875 2053 1875 
L 1259 1875 
L 1259 0 
L 628 0 
L 628 4666 
z
" transform="scale(0.015625)"/>
     </defs>
     <use xlink:href="#DejaVuSans-4b"/>
     <use xlink:href="#DejaVuSans-4c" transform="translate(65.576172 0)"/>
     <use xlink:href="#DejaVuSans-5a" transform="translate(121.289062 0)"/>
     <use xlink:href="#DejaVuSans-2d" transform="translate(188.044922 0)"/>
     <use xlink:href="#DejaVuSans-4e" transform="translate(224.128906 0)"/>
     <use xlink:href="#DejaVuSans-50" transform="translate(298.933594 0)"/>
     <use xlink:href="#DejaVuSans-73" transform="translate(357.486328 0)"/>
     <use xlink:href="#DejaVuSans-20" transform="translate(409.585938 0)"/>
     <use xlink:href="#DejaVuSans-72" transform="translate(441.373047 0)"/>
     <use xlink:href="#DejaVuSans-65" transform="translate(480.236328 0)"/>
     <use xlink:href="#DejaVuSans-63" transform="translate(541.759766 0)"/>
     <use xlink:href="#DejaVuSans-65" transform="translate(596.740234 0)"/>
     <use xlink:href="#DejaVuSans-70" transform="translate(658.263672 0)"/>
     <use xlink:href="#DejaVuSans-74" transform="translate(721.740234 0)"/>
     <use xlink:href="#DejaVuSans-6f" transform="translate(760.949219 0)"/>
     <use xlink:href="#DejaVuSans-72" transform="translate(822.130859 0)"/>
     <use xlink:href="#DejaVuSans-20" transform="translate(863.244141 0)"/>
     <use xlink:href="#DejaVuSans-66" transform="translate(895.03125 0)"/>
     <use xlink:href="#DejaVuSans-69" transform="translate(930.236328 0)"/>
     <use xlink:href="#DejaVuSans-74" transform="translate(958.019531 0)"/>
     <use xlink:href="#DejaVuSans-20" transform="translate(997.228516 0)"/>
     <use xlink:href="#DejaVuSans-63" transform="translate(1029.015625 0)"/>
     <use xlink:href="#DejaVuSans-6f" transform="translate(1083.996094 0)"/>
     <use xlink:href="#DejaVuSans-6d" transform="translate(1145.177734 0)"/>
     <use xlink:href="#DejaVuSans-70" transform="translate(1242.589844 0)"/>
     <use xlink:href="#DejaVuSans-61" transform="translate(1306.066406 0)"/>
     <use xlink:href="#DejaVuSans-72" transform="translate(1367.345703 0)"/>
     <use xlink:href="#DejaVuSans-69" transform="translate(1408.458984 0)"/>
     <use xlink:href="#DejaVuSans-73" transform="translate(1436.242188 0)"/>
     <use xlink:href="#DejaVuSans-6f" transform="translate(1488.341797 0)"/>
     <use xlink:href="#DejaVuSans-6e" transform="translate(1549.523438 0)"/>
    </g>
   </g>
   <g id="legend_2">
    <g id="line2d_33">
     <path d="M 476.203125 35.416562 
L 486.203125 35.416562 
L 496.203125 35.416562 
" style="fill: none; stroke: #1f77b4; stroke-width: 2; stroke-linecap: square"/>
    </g>
    <g id="text_36">
     <!-- Case 1 -->
     <g transform="translate(504.203125 38.916562) scale(0.1 -0.1)">
      <use xlink:href="#DejaVuSans-43"/>
      <use xlink:href="#DejaVuSans-61" transform="translate(69.824219 0)"/>
      <use xlink:href="#DejaVuSans-73" transform="translate(131.103516 0)"/>
      <use xlink:href="#DejaVuSans-65" transform="translate(183.203125 0)"/>
      <use xlink:href="#DejaVuSans-20" transform="translate(244.726562 0)"/>
      <use xlink:href="#DejaVuSans-31" transform="translate(276.513672 0)"/>
     </g>
    </g>
    <g id="line2d_34">
     <path d="M 476.203125 50.094688 
L 486.203125 50.094688 
L 496.203125 50.094688 
" style="fill: none; stroke-dasharray: 7.4,3.2; stroke-dashoffset: 0; stroke: #ff7f0e; stroke-width: 2"/>
    </g>
    <g id="text_37">
     <!-- Case 2 -->
     <g transform="translate(504.203125 53.594688) scale(0.1 -0.1)">
      <use xlink:href="#DejaVuSans-43"/>
      <use xlink:href="#DejaVuSans-61" transform="translate(69.824219 0)"/>
      <use xlink:href="#DejaVuSans-73" transform="translate(131.103516 0)"/>
      <use xlink:href="#DejaVuSans-65" transform="translate(183.203125 0)"/>
      <use xlink:href="#DejaVuSans-20" transform="translate(244.726562 0)"/>
      <use xlink:href="#DejaVuSans-32" transform="translate(276.513672 0)"/>
     </g>
    </g>
    <g id="PathCollection_4">
     <g>
      <use xlink:href="#m0eb8fd15ba" x="486.203125" y="65.647812" style="fill: #1f77b4; stroke: #1f77b4"/>
     </g>
    </g>
    <g id="text_38">
     <!-- Experimental -->
     <g transform="translate(504.203125 68.272812) scale(0.1 -0.1)">
      <use xlink:href="#DejaVuSans-45"/>
      <use xlink:href="#DejaVuSans-78" transform="translate(63.183594 0)"/>
      <use xlink:href="#DejaVuSans-70" transform="translate(122.363281 0)"/>
      <use xlink:href="#DejaVuSans-65" transform="translate(185.839844 0)"/>
      <use xlink:href="#DejaVuSans-72" transform="translate(247.363281 0)"/>
      <use xlink:href="#DejaVuSans-69" transform="translate(288.476562 0)"/>
      <use xlink:href="#DejaVuSans-6d" transform="translate(316.259766 0)"/>
      <use xlink:href="#DejaVuSans-65" transform="translate(413.671875 0)"/>
      <use xlink:href="#DejaVuSans-6e" transform="translate(475.195312 0)"/>
      <use xlink:href="#DejaVuSans-74" transform="translate(538.574219 0)"/>
      <use xlink:href="#DejaVuSans-61" transform="translate(577.783203 0)"/>
      <use xlink:href="#DejaVuSans-6c" transform="translate(639.0625 0)"/>
     </g>
    </g>
   </g>
  </g>
 </g>
 <defs>
  <clipPath id="pf0fef5bc0f">
   <rect x="40.603125" y="22.318125" width="378.035785" height="255.16"/>
  </clipPath>
  <clipPath id="pd8c8b5e355">
   <rect x="467.203125" y="22.318125" width="378.035785" height="255.16"/>
  </clipPath>
 </defs>
</svg>
