<?xml version="1.0" encoding="utf-8" standalone="no"?>
<!DOCTYPE svg PUBLIC "-//W3C//DTD SVG 1.1//EN"
  "http://www.w3.org/Graphics/SVG/1.1/DTD/svg11.dtd">
<svg xmlns:xlink="http://www.w3.org/1999/xlink" width="856.558125pt" height="359.276372pt" viewBox="0 0 856.558125 359.276372" xmlns="http://www.w3.org/2000/svg" version="1.1">
 <metadata>
  <rdf:RDF xmlns:dc="http://purl.org/dc/elements/1.1/" xmlns:cc="http://creativecommons.org/ns#" xmlns:rdf="http://www.w3.org/1999/02/22-rdf-syntax-ns#">
   <cc:Work>
    <dc:type rdf:resource="http://purl.org/dc/dcmitype/StillImage"/>
    <dc:date>2026-07-15T18:00:23.421269</dc:date>
    <dc:format>image/svg+xml</dc:format>
    <dc:creator>
     <cc:Agent>
      <dc:title>Matplotlib v3.10.8, https://matplotlib.org/</dc:title>
     </cc:Agent>
    </dc:creator>
   </cc:Work>
  </rdf:RDF>
 </metadata>
 <defs>
  <style type="text/css">*{stroke-linejoin: round; stroke-linecap: butt}</style>
 </defs>
 <g id="figure_1">
  <g id="patch_1">
   <path d="M -0 359.276372 
L 856.558125 359.276372 
L 856.558125 0 
L -0 0 
z
" style="fill: #ffffff"/>
  </g>
  <g id="axes_1">
   <g id="patch_2">
    <path d="M 53.328125 311.753464 
L 422.758125 311.753464 
L 422.758125 68.208 
L 53.328125 68.208 
z
" style="fill: #ffffff"/>
   </g>
   <g id="patch_3">
    <path d="M 70.120398 311.753464 
L 140.824704 311.753464 
L 140.824704 79.805403 
L 70.120398 79.805403 
z
" clip-path="url(#p8f82e85633)" style="fill: #1f77b4"/>
   </g>
   <g id="patch_4">
    <path d="M 158.500781 311.753464 
L 229.205087 311.753464 
L 229.205087 206.542348 
L 158.500781 206.542348 
z
" clip-path="url(#p8f82e85633)" style="fill: #1f77b4"/>
   </g>
   <g id="patch_5">
    <path d="M 246.881163 311.753464 
L 317.585469 311.753464 
L 317.585469 295.25806 
L 246.881163 295.25806 
z
" clip-path="url(#p8f82e85633)" style="fill: #1f77b4"/>
   </g>
   <g id="patch_6">
    <path d="M 335.261546 311.753464 
L 405.965852 311.753464 
L 405.965852 309.675455 
L 335.261546 309.675455 
z
" clip-path="url(#p8f82e85633)" style="fill: #1f77b4"/>
   </g>
   <g id="matplotlib.axis_1">
    <g id="xtick_1">
     <g id="line2d_1">
      <defs>
       <path id="m89b8f01d3a" d="M 0 0 
L 0 3.5 
" style="stroke: #000000; stroke-width: 0.8"/>
      </defs>
      <g>
       <use xlink:href="#m89b8f01d3a" x="105.472551" y="311.753464" style="stroke: #000000; stroke-width: 0.8"/>
      </g>
     </g>
     <g id="text_1">
      <!-- Donor -->
      <g transform="translate(78.117713 340.526873) rotate(-30) scale(0.1 -0.1)">
       <defs>
        <path id="DejaVuSans-44" d="M 1259 4147 
L 1259 519 
L 2022 519 
Q 2988 519 3436 956 
Q 3884 1394 3884 2338 
Q 3884 3275 3436 3711 
Q 2988 4147 2022 4147 
L 1259 4147 
z
M 628 4666 
L 1925 4666 
Q 3281 4666 3915 4102 
Q 4550 3538 4550 2338 
Q 4550 1131 3912 565 
Q 3275 0 1925 0 
L 628 0 
L 628 4666 
z
" transform="scale(0.015625)"/>
        <path id="DejaVuSans-6f" d="M 1959 3097 
Q 1497 3097 1228 2736 
Q 959 2375 959 1747 
Q 959 1119 1226 758 
Q 1494 397 1959 397 
Q 2419 397 2687 759 
Q 2956 1122 2956 1747 
Q 2956 2369 2687 2733 
Q 2419 3097 1959 3097 
z
M 1959 3584 
Q 2709 3584 3137 3096 
Q 3566 2609 3566 1747 
Q 3566 888 3137 398 
Q 2709 -91 1959 -91 
Q 1206 -91 779 398 
Q 353 888 353 1747 
Q 353 2609 779 3096 
Q 1206 3584 1959 3584 
z
" transform="scale(0.015625)"/>
        <path id="DejaVuSans-6e" d="M 3513 2113 
L 3513 0 
L 2938 0 
L 2938 2094 
Q 2938 2591 2744 2837 
Q 2550 3084 2163 3084 
Q 1697 3084 1428 2787 
Q 1159 2491 1159 1978 
L 1159 0 
L 581 0 
L 581 3500 
L 1159 3500 
L 1159 2956 
Q 1366 3272 1645 3428 
Q 1925 3584 2291 3584 
Q 2894 3584 3203 3211 
Q 3513 2838 3513 2113 
z
" transform="scale(0.015625)"/>
        <path id="DejaVuSans-72" d="M 2631 2963 
Q 2534 3019 2420 3045 
Q 2306 3072 2169 3072 
Q 1681 3072 1420 2755 
Q 1159 2438 1159 1844 
L 1159 0 
L 581 0 
L 581 3500 
L 1159 3500 
L 1159 2956 
Q 1341 3275 1631 3429 
Q 1922 3584 2338 3584 
Q 2397 3584 2469 3576 
Q 2541 3569 2628 3553 
L 2631 2963 
z
" transform="scale(0.015625)"/>
       </defs>
       <use xlink:href="#DejaVuSans-44"/>
       <use xlink:href="#DejaVuSans-6f" transform="translate(77.001953 0)"/>
       <use xlink:href="#DejaVuSans-6e" transform="translate(138.183594 0)"/>
       <use xlink:href="#DejaVuSans-6f" transform="translate(201.5625 0)"/>
       <use xlink:href="#DejaVuSans-72" transform="translate(262.744141 0)"/>
      </g>
     </g>
    </g>
    <g id="xtick_2">
     <g id="line2d_2">
      <g>
       <use xlink:href="#m89b8f01d3a" x="193.852934" y="311.753464" style="stroke: #000000; stroke-width: 0.8"/>
      </g>
     </g>
     <g id="text_2">
      <!-- SC -->
      <g transform="translate(181.267889 331.999529) rotate(-30) scale(0.1 -0.1)">
       <defs>
        <path id="DejaVuSans-53" d="M 3425 4513 
L 3425 3897 
Q 3066 4069 2747 4153 
Q 2428 4238 2131 4238 
Q 1616 4238 1336 4038 
Q 1056 3838 1056 3469 
Q 1056 3159 1242 3001 
Q 1428 2844 1947 2747 
L 2328 2669 
Q 3034 2534 3370 2195 
Q 3706 1856 3706 1288 
Q 3706 609 3251 259 
Q 2797 -91 1919 -91 
Q 1588 -91 1214 -16 
Q 841 59 441 206 
L 441 856 
Q 825 641 1194 531 
Q 1563 422 1919 422 
Q 2459 422 2753 634 
Q 3047 847 3047 1241 
Q 3047 1584 2836 1778 
Q 2625 1972 2144 2069 
L 1759 2144 
Q 1053 2284 737 2584 
Q 422 2884 422 3419 
Q 422 4038 858 4394 
Q 1294 4750 2059 4750 
Q 2388 4750 2728 4690 
Q 3069 4631 3425 4513 
z
" transform="scale(0.015625)"/>
        <path id="DejaVuSans-43" d="M 4122 4306 
L 4122 3641 
Q 3803 3938 3442 4084 
Q 3081 4231 2675 4231 
Q 1875 4231 1450 3742 
Q 1025 3253 1025 2328 
Q 1025 1406 1450 917 
Q 1875 428 2675 428 
Q 3081 428 3442 575 
Q 3803 722 4122 1019 
L 4122 359 
Q 3791 134 3420 21 
Q 3050 -91 2638 -91 
Q 1578 -91 968 557 
Q 359 1206 359 2328 
Q 359 3453 968 4101 
Q 1578 4750 2638 4750 
Q 3056 4750 3426 4639 
Q 3797 4528 4122 4306 
z
" transform="scale(0.015625)"/>
       </defs>
       <use xlink:href="#DejaVuSans-53"/>
       <use xlink:href="#DejaVuSans-43" transform="translate(63.476562 0)"/>
      </g>
     </g>
    </g>
    <g id="xtick_3">
     <g id="line2d_3">
      <g>
       <use xlink:href="#m89b8f01d3a" x="282.233316" y="311.753464" style="stroke: #000000; stroke-width: 0.8"/>
      </g>
     </g>
     <g id="text_3">
      <!-- EP/dermis -->
      <g transform="translate(237.99369 350.27531) rotate(-30) scale(0.1 -0.1)">
       <defs>
        <path id="DejaVuSans-45" d="M 628 4666 
L 3578 4666 
L 3578 4134 
L 1259 4134 
L 1259 2753 
L 3481 2753 
L 3481 2222 
L 1259 2222 
L 1259 531 
L 3634 531 
L 3634 0 
L 628 0 
L 628 4666 
z
" transform="scale(0.015625)"/>
        <path id="DejaVuSans-50" d="M 1259 4147 
L 1259 2394 
L 2053 2394 
Q 2494 2394 2734 2622 
Q 2975 2850 2975 3272 
Q 2975 3691 2734 3919 
Q 2494 4147 2053 4147 
L 1259 4147 
z
M 628 4666 
L 2053 4666 
Q 2838 4666 3239 4311 
Q 3641 3956 3641 3272 
Q 3641 2581 3239 2228 
Q 2838 1875 2053 1875 
L 1259 1875 
L 1259 0 
L 628 0 
L 628 4666 
z
" transform="scale(0.015625)"/>
        <path id="DejaVuSans-2f" d="M 1625 4666 
L 2156 4666 
L 531 -594 
L 0 -594 
L 1625 4666 
z
" transform="scale(0.015625)"/>
        <path id="DejaVuSans-64" d="M 2906 2969 
L 2906 4863 
L 3481 4863 
L 3481 0 
L 2906 0 
L 2906 525 
Q 2725 213 2448 61 
Q 2172 -91 1784 -91 
Q 1150 -91 751 415 
Q 353 922 353 1747 
Q 353 2572 751 3078 
Q 1150 3584 1784 3584 
Q 2172 3584 2448 3432 
Q 2725 3281 2906 2969 
z
M 947 1747 
Q 947 1113 1208 752 
Q 1469 391 1925 391 
Q 2381 391 2643 752 
Q 2906 1113 2906 1747 
Q 2906 2381 2643 2742 
Q 2381 3103 1925 3103 
Q 1469 3103 1208 2742 
Q 947 2381 947 1747 
z
" transform="scale(0.015625)"/>
        <path id="DejaVuSans-65" d="M 3597 1894 
L 3597 1613 
L 953 1613 
Q 991 1019 1311 708 
Q 1631 397 2203 397 
Q 2534 397 2845 478 
Q 3156 559 3463 722 
L 3463 178 
Q 3153 47 2828 -22 
Q 2503 -91 2169 -91 
Q 1331 -91 842 396 
Q 353 884 353 1716 
Q 353 2575 817 3079 
Q 1281 3584 2069 3584 
Q 2775 3584 3186 3129 
Q 3597 2675 3597 1894 
z
M 3022 2063 
Q 3016 2534 2758 2815 
Q 2500 3097 2075 3097 
Q 1594 3097 1305 2825 
Q 1016 2553 972 2059 
L 3022 2063 
z
" transform="scale(0.015625)"/>
        <path id="DejaVuSans-6d" d="M 3328 2828 
Q 3544 3216 3844 3400 
Q 4144 3584 4550 3584 
Q 5097 3584 5394 3201 
Q 5691 2819 5691 2113 
L 5691 0 
L 5113 0 
L 5113 2094 
Q 5113 2597 4934 2840 
Q 4756 3084 4391 3084 
Q 3944 3084 3684 2787 
Q 3425 2491 3425 1978 
L 3425 0 
L 2847 0 
L 2847 2094 
Q 2847 2600 2669 2842 
Q 2491 3084 2119 3084 
Q 1678 3084 1418 2786 
Q 1159 2488 1159 1978 
L 1159 0 
L 581 0 
L 581 3500 
L 1159 3500 
L 1159 2956 
Q 1356 3278 1631 3431 
Q 1906 3584 2284 3584 
Q 2666 3584 2933 3390 
Q 3200 3197 3328 2828 
z
" transform="scale(0.015625)"/>
        <path id="DejaVuSans-69" d="M 603 3500 
L 1178 3500 
L 1178 0 
L 603 0 
L 603 3500 
z
M 603 4863 
L 1178 4863 
L 1178 4134 
L 603 4134 
L 603 4863 
z
" transform="scale(0.015625)"/>
        <path id="DejaVuSans-73" d="M 2834 3397 
L 2834 2853 
Q 2591 2978 2328 3040 
Q 2066 3103 1784 3103 
Q 1356 3103 1142 2972 
Q 928 2841 928 2578 
Q 928 2378 1081 2264 
Q 1234 2150 1697 2047 
L 1894 2003 
Q 2506 1872 2764 1633 
Q 3022 1394 3022 966 
Q 3022 478 2636 193 
Q 2250 -91 1575 -91 
Q 1294 -91 989 -36 
Q 684 19 347 128 
L 347 722 
Q 666 556 975 473 
Q 1284 391 1588 391 
Q 1994 391 2212 530 
Q 2431 669 2431 922 
Q 2431 1156 2273 1281 
Q 2116 1406 1581 1522 
L 1381 1569 
Q 847 1681 609 1914 
Q 372 2147 372 2553 
Q 372 3047 722 3315 
Q 1072 3584 1716 3584 
Q 2034 3584 2315 3537 
Q 2597 3491 2834 3397 
z
" transform="scale(0.015625)"/>
       </defs>
       <use xlink:href="#DejaVuSans-45"/>
       <use xlink:href="#DejaVuSans-50" transform="translate(63.183594 0)"/>
       <use xlink:href="#DejaVuSans-2f" transform="translate(123.486328 0)"/>
       <use xlink:href="#DejaVuSans-64" transform="translate(157.177734 0)"/>
       <use xlink:href="#DejaVuSans-65" transform="translate(220.654297 0)"/>
       <use xlink:href="#DejaVuSans-72" transform="translate(282.177734 0)"/>
       <use xlink:href="#DejaVuSans-6d" transform="translate(321.541016 0)"/>
       <use xlink:href="#DejaVuSans-69" transform="translate(418.953125 0)"/>
       <use xlink:href="#DejaVuSans-73" transform="translate(446.736328 0)"/>
      </g>
     </g>
    </g>
    <g id="xtick_4">
     <g id="line2d_4">
      <g>
       <use xlink:href="#m89b8f01d3a" x="370.613699" y="311.753464" style="stroke: #000000; stroke-width: 0.8"/>
      </g>
     </g>
     <g id="text_4">
      <!-- Receptor -->
      <g transform="translate(330.774564 347.734685) rotate(-30) scale(0.1 -0.1)">
       <defs>
        <path id="DejaVuSans-52" d="M 2841 2188 
Q 3044 2119 3236 1894 
Q 3428 1669 3622 1275 
L 4263 0 
L 3584 0 
L 2988 1197 
Q 2756 1666 2539 1819 
Q 2322 1972 1947 1972 
L 1259 1972 
L 1259 0 
L 628 0 
L 628 4666 
L 2053 4666 
Q 2853 4666 3247 4331 
Q 3641 3997 3641 3322 
Q 3641 2881 3436 2590 
Q 3231 2300 2841 2188 
z
M 1259 4147 
L 1259 2491 
L 2053 2491 
Q 2509 2491 2742 2702 
Q 2975 2913 2975 3322 
Q 2975 3731 2742 3939 
Q 2509 4147 2053 4147 
L 1259 4147 
z
" transform="scale(0.015625)"/>
        <path id="DejaVuSans-63" d="M 3122 3366 
L 3122 2828 
Q 2878 2963 2633 3030 
Q 2388 3097 2138 3097 
Q 1578 3097 1268 2742 
Q 959 2388 959 1747 
Q 959 1106 1268 751 
Q 1578 397 2138 397 
Q 2388 397 2633 464 
Q 2878 531 3122 666 
L 3122 134 
Q 2881 22 2623 -34 
Q 2366 -91 2075 -91 
Q 1284 -91 818 406 
Q 353 903 353 1747 
Q 353 2603 823 3093 
Q 1294 3584 2113 3584 
Q 2378 3584 2631 3529 
Q 2884 3475 3122 3366 
z
" transform="scale(0.015625)"/>
        <path id="DejaVuSans-70" d="M 1159 525 
L 1159 -1331 
L 581 -1331 
L 581 3500 
L 1159 3500 
L 1159 2969 
Q 1341 3281 1617 3432 
Q 1894 3584 2278 3584 
Q 2916 3584 3314 3078 
Q 3713 2572 3713 1747 
Q 3713 922 3314 415 
Q 2916 -91 2278 -91 
Q 1894 -91 1617 61 
Q 1341 213 1159 525 
z
M 3116 1747 
Q 3116 2381 2855 2742 
Q 2594 3103 2138 3103 
Q 1681 3103 1420 2742 
Q 1159 2381 1159 1747 
Q 1159 1113 1420 752 
Q 1681 391 2138 391 
Q 2594 391 2855 752 
Q 3116 1113 3116 1747 
z
" transform="scale(0.015625)"/>
        <path id="DejaVuSans-74" d="M 1172 4494 
L 1172 3500 
L 2356 3500 
L 2356 3053 
L 1172 3053 
L 1172 1153 
Q 1172 725 1289 603 
Q 1406 481 1766 481 
L 2356 481 
L 2356 0 
L 1766 0 
Q 1100 0 847 248 
Q 594 497 594 1153 
L 594 3053 
L 172 3053 
L 172 3500 
L 594 3500 
L 594 4494 
L 1172 4494 
z
" transform="scale(0.015625)"/>
       </defs>
       <use xlink:href="#DejaVuSans-52"/>
       <use xlink:href="#DejaVuSans-65" transform="translate(64.982422 0)"/>
       <use xlink:href="#DejaVuSans-63" transform="translate(126.505859 0)"/>
       <use xlink:href="#DejaVuSans-65" transform="translate(181.486328 0)"/>
       <use xlink:href="#DejaVuSans-70" transform="translate(243.009766 0)"/>
       <use xlink:href="#DejaVuSans-74" transform="translate(306.486328 0)"/>
       <use xlink:href="#DejaVuSans-6f" transform="translate(345.695312 0)"/>
       <use xlink:href="#DejaVuSans-72" transform="translate(406.876953 0)"/>
      </g>
     </g>
    </g>
   </g>
   <g id="matplotlib.axis_2">
    <g id="ytick_1">
     <g id="line2d_5">
      <defs>
       <path id="med5753785c" d="M 0 0 
L -3.5 0 
" style="stroke: #000000; stroke-width: 0.8"/>
      </defs>
      <g>
       <use xlink:href="#med5753785c" x="53.328125" y="311.753464" style="stroke: #000000; stroke-width: 0.8"/>
      </g>
     </g>
     <g id="text_5">
      <!-- 0 -->
      <g transform="translate(39.965625 315.552683) scale(0.1 -0.1)">
       <defs>
        <path id="DejaVuSans-30" d="M 2034 4250 
Q 1547 4250 1301 3770 
Q 1056 3291 1056 2328 
Q 1056 1369 1301 889 
Q 1547 409 2034 409 
Q 2525 409 2770 889 
Q 3016 1369 3016 2328 
Q 3016 3291 2770 3770 
Q 2525 4250 2034 4250 
z
M 2034 4750 
Q 2819 4750 3233 4129 
Q 3647 3509 3647 2328 
Q 3647 1150 3233 529 
Q 2819 -91 2034 -91 
Q 1250 -91 836 529 
Q 422 1150 422 2328 
Q 422 3509 836 4129 
Q 1250 4750 2034 4750 
z
" transform="scale(0.015625)"/>
       </defs>
       <use xlink:href="#DejaVuSans-30"/>
      </g>
     </g>
    </g>
    <g id="ytick_2">
     <g id="line2d_6">
      <g>
       <use xlink:href="#med5753785c" x="53.328125" y="265.107672" style="stroke: #000000; stroke-width: 0.8"/>
      </g>
     </g>
     <g id="text_6">
      <!-- 200 -->
      <g transform="translate(27.240625 268.906891) scale(0.1 -0.1)">
       <defs>
        <path id="DejaVuSans-32" d="M 1228 531 
L 3431 531 
L 3431 0 
L 469 0 
L 469 531 
Q 828 903 1448 1529 
Q 2069 2156 2228 2338 
Q 2531 2678 2651 2914 
Q 2772 3150 2772 3378 
Q 2772 3750 2511 3984 
Q 2250 4219 1831 4219 
Q 1534 4219 1204 4116 
Q 875 4013 500 3803 
L 500 4441 
Q 881 4594 1212 4672 
Q 1544 4750 1819 4750 
Q 2544 4750 2975 4387 
Q 3406 4025 3406 3419 
Q 3406 3131 3298 2873 
Q 3191 2616 2906 2266 
Q 2828 2175 2409 1742 
Q 1991 1309 1228 531 
z
" transform="scale(0.015625)"/>
       </defs>
       <use xlink:href="#DejaVuSans-32"/>
       <use xlink:href="#DejaVuSans-30" transform="translate(63.623047 0)"/>
       <use xlink:href="#DejaVuSans-30" transform="translate(127.246094 0)"/>
      </g>
     </g>
    </g>
    <g id="ytick_3">
     <g id="line2d_7">
      <g>
       <use xlink:href="#med5753785c" x="53.328125" y="218.461881" style="stroke: #000000; stroke-width: 0.8"/>
      </g>
     </g>
     <g id="text_7">
      <!-- 400 -->
      <g transform="translate(27.240625 222.261099) scale(0.1 -0.1)">
       <defs>
        <path id="DejaVuSans-34" d="M 2419 4116 
L 825 1625 
L 2419 1625 
L 2419 4116 
z
M 2253 4666 
L 3047 4666 
L 3047 1625 
L 3713 1625 
L 3713 1100 
L 3047 1100 
L 3047 0 
L 2419 0 
L 2419 1100 
L 313 1100 
L 313 1709 
L 2253 4666 
z
" transform="scale(0.015625)"/>
       </defs>
       <use xlink:href="#DejaVuSans-34"/>
       <use xlink:href="#DejaVuSans-30" transform="translate(63.623047 0)"/>
       <use xlink:href="#DejaVuSans-30" transform="translate(127.246094 0)"/>
      </g>
     </g>
    </g>
    <g id="ytick_4">
     <g id="line2d_8">
      <g>
       <use xlink:href="#med5753785c" x="53.328125" y="171.816089" style="stroke: #000000; stroke-width: 0.8"/>
      </g>
     </g>
     <g id="text_8">
      <!-- 600 -->
      <g transform="translate(27.240625 175.615308) scale(0.1 -0.1)">
       <defs>
        <path id="DejaVuSans-36" d="M 2113 2584 
Q 1688 2584 1439 2293 
Q 1191 2003 1191 1497 
Q 1191 994 1439 701 
Q 1688 409 2113 409 
Q 2538 409 2786 701 
Q 3034 994 3034 1497 
Q 3034 2003 2786 2293 
Q 2538 2584 2113 2584 
z
M 3366 4563 
L 3366 3988 
Q 3128 4100 2886 4159 
Q 2644 4219 2406 4219 
Q 1781 4219 1451 3797 
Q 1122 3375 1075 2522 
Q 1259 2794 1537 2939 
Q 1816 3084 2150 3084 
Q 2853 3084 3261 2657 
Q 3669 2231 3669 1497 
Q 3669 778 3244 343 
Q 2819 -91 2113 -91 
Q 1303 -91 875 529 
Q 447 1150 447 2328 
Q 447 3434 972 4092 
Q 1497 4750 2381 4750 
Q 2619 4750 2861 4703 
Q 3103 4656 3366 4563 
z
" transform="scale(0.015625)"/>
       </defs>
       <use xlink:href="#DejaVuSans-36"/>
       <use xlink:href="#DejaVuSans-30" transform="translate(63.623047 0)"/>
       <use xlink:href="#DejaVuSans-30" transform="translate(127.246094 0)"/>
      </g>
     </g>
    </g>
    <g id="ytick_5">
     <g id="line2d_9">
      <g>
       <use xlink:href="#med5753785c" x="53.328125" y="125.170297" style="stroke: #000000; stroke-width: 0.8"/>
      </g>
     </g>
     <g id="text_9">
      <!-- 800 -->
      <g transform="translate(27.240625 128.969516) scale(0.1 -0.1)">
       <defs>
        <path id="DejaVuSans-38" d="M 2034 2216 
Q 1584 2216 1326 1975 
Q 1069 1734 1069 1313 
Q 1069 891 1326 650 
Q 1584 409 2034 409 
Q 2484 409 2743 651 
Q 3003 894 3003 1313 
Q 3003 1734 2745 1975 
Q 2488 2216 2034 2216 
z
M 1403 2484 
Q 997 2584 770 2862 
Q 544 3141 544 3541 
Q 544 4100 942 4425 
Q 1341 4750 2034 4750 
Q 2731 4750 3128 4425 
Q 3525 4100 3525 3541 
Q 3525 3141 3298 2862 
Q 3072 2584 2669 2484 
Q 3125 2378 3379 2068 
Q 3634 1759 3634 1313 
Q 3634 634 3220 271 
Q 2806 -91 2034 -91 
Q 1263 -91 848 271 
Q 434 634 434 1313 
Q 434 1759 690 2068 
Q 947 2378 1403 2484 
z
M 1172 3481 
Q 1172 3119 1398 2916 
Q 1625 2713 2034 2713 
Q 2441 2713 2670 2916 
Q 2900 3119 2900 3481 
Q 2900 3844 2670 4047 
Q 2441 4250 2034 4250 
Q 1625 4250 1398 4047 
Q 1172 3844 1172 3481 
z
" transform="scale(0.015625)"/>
       </defs>
       <use xlink:href="#DejaVuSans-38"/>
       <use xlink:href="#DejaVuSans-30" transform="translate(63.623047 0)"/>
       <use xlink:href="#DejaVuSans-30" transform="translate(127.246094 0)"/>
      </g>
     </g>
    </g>
    <g id="ytick_6">
     <g id="line2d_10">
      <g>
       <use xlink:href="#med5753785c" x="53.328125" y="78.524505" style="stroke: #000000; stroke-width: 0.8"/>
      </g>
     </g>
     <g id="text_10">
      <!-- 1000 -->
      <g transform="translate(20.878125 82.323724) scale(0.1 -0.1)">
       <defs>
        <path id="DejaVuSans-31" d="M 794 531 
L 1825 531 
L 1825 4091 
L 703 3866 
L 703 4441 
L 1819 4666 
L 2450 4666 
L 2450 531 
L 3481 531 
L 3481 0 
L 794 0 
L 794 531 
z
" transform="scale(0.015625)"/>
       </defs>
       <use xlink:href="#DejaVuSans-31"/>
       <use xlink:href="#DejaVuSans-30" transform="translate(63.623047 0)"/>
       <use xlink:href="#DejaVuSans-30" transform="translate(127.246094 0)"/>
       <use xlink:href="#DejaVuSans-30" transform="translate(190.869141 0)"/>
      </g>
     </g>
    </g>
    <g id="text_11">
     <!-- Average concentration (µg/cm³) -->
     <g transform="translate(14.798437 269.886201) rotate(-90) scale(0.1 -0.1)">
      <defs>
       <path id="DejaVuSans-41" d="M 2188 4044 
L 1331 1722 
L 3047 1722 
L 2188 4044 
z
M 1831 4666 
L 2547 4666 
L 4325 0 
L 3669 0 
L 3244 1197 
L 1141 1197 
L 716 0 
L 50 0 
L 1831 4666 
z
" transform="scale(0.015625)"/>
       <path id="DejaVuSans-76" d="M 191 3500 
L 800 3500 
L 1894 563 
L 2988 3500 
L 3597 3500 
L 2284 0 
L 1503 0 
L 191 3500 
z
" transform="scale(0.015625)"/>
       <path id="DejaVuSans-61" d="M 2194 1759 
Q 1497 1759 1228 1600 
Q 959 1441 959 1056 
Q 959 750 1161 570 
Q 1363 391 1709 391 
Q 2188 391 2477 730 
Q 2766 1069 2766 1631 
L 2766 1759 
L 2194 1759 
z
M 3341 1997 
L 3341 0 
L 2766 0 
L 2766 531 
Q 2569 213 2275 61 
Q 1981 -91 1556 -91 
Q 1019 -91 701 211 
Q 384 513 384 1019 
Q 384 1609 779 1909 
Q 1175 2209 1959 2209 
L 2766 2209 
L 2766 2266 
Q 2766 2663 2505 2880 
Q 2244 3097 1772 3097 
Q 1472 3097 1187 3025 
Q 903 2953 641 2809 
L 641 3341 
Q 956 3463 1253 3523 
Q 1550 3584 1831 3584 
Q 2591 3584 2966 3190 
Q 3341 2797 3341 1997 
z
" transform="scale(0.015625)"/>
       <path id="DejaVuSans-67" d="M 2906 1791 
Q 2906 2416 2648 2759 
Q 2391 3103 1925 3103 
Q 1463 3103 1205 2759 
Q 947 2416 947 1791 
Q 947 1169 1205 825 
Q 1463 481 1925 481 
Q 2391 481 2648 825 
Q 2906 1169 2906 1791 
z
M 3481 434 
Q 3481 -459 3084 -895 
Q 2688 -1331 1869 -1331 
Q 1566 -1331 1297 -1286 
Q 1028 -1241 775 -1147 
L 775 -588 
Q 1028 -725 1275 -790 
Q 1522 -856 1778 -856 
Q 2344 -856 2625 -561 
Q 2906 -266 2906 331 
L 2906 616 
Q 2728 306 2450 153 
Q 2172 0 1784 0 
Q 1141 0 747 490 
Q 353 981 353 1791 
Q 353 2603 747 3093 
Q 1141 3584 1784 3584 
Q 2172 3584 2450 3431 
Q 2728 3278 2906 2969 
L 2906 3500 
L 3481 3500 
L 3481 434 
z
" transform="scale(0.015625)"/>
       <path id="DejaVuSans-20" transform="scale(0.015625)"/>
       <path id="DejaVuSans-28" d="M 1984 4856 
Q 1566 4138 1362 3434 
Q 1159 2731 1159 2009 
Q 1159 1288 1364 580 
Q 1569 -128 1984 -844 
L 1484 -844 
Q 1016 -109 783 600 
Q 550 1309 550 2009 
Q 550 2706 781 3412 
Q 1013 4119 1484 4856 
L 1984 4856 
z
" transform="scale(0.015625)"/>
       <path id="DejaVuSans-b5" d="M 544 -1331 
L 544 3500 
L 1119 3500 
L 1119 1325 
Q 1119 872 1334 640 
Q 1550 409 1972 409 
Q 2434 409 2667 671 
Q 2900 934 2900 1459 
L 2900 3500 
L 3475 3500 
L 3475 806 
Q 3475 619 3529 530 
Q 3584 441 3700 441 
Q 3728 441 3778 458 
Q 3828 475 3916 513 
L 3916 50 
Q 3788 -22 3673 -56 
Q 3559 -91 3450 -91 
Q 3234 -91 3106 31 
Q 2978 153 2931 403 
Q 2775 156 2548 32 
Q 2322 -91 2016 -91 
Q 1697 -91 1473 31 
Q 1250 153 1119 397 
L 1119 -1331 
L 544 -1331 
z
" transform="scale(0.015625)"/>
       <path id="DejaVuSans-b3" d="M 1638 3500 
Q 1925 3444 2083 3273 
Q 2241 3103 2241 2847 
Q 2241 2459 1944 2250 
Q 1647 2041 1094 2041 
Q 916 2041 720 2073 
Q 525 2106 306 2169 
L 306 2547 
Q 469 2463 655 2422 
Q 841 2381 1050 2381 
Q 1391 2381 1578 2504 
Q 1766 2628 1766 2847 
Q 1766 3078 1592 3197 
Q 1419 3316 1081 3316 
L 813 3316 
L 813 3653 
L 1106 3653 
Q 1400 3653 1551 3751 
Q 1703 3850 1703 4038 
Q 1703 4219 1547 4314 
Q 1391 4409 1094 4409 
Q 969 4409 809 4381 
Q 650 4353 397 4281 
L 397 4641 
Q 625 4694 825 4722 
Q 1025 4750 1197 4750 
Q 1647 4750 1911 4565 
Q 2175 4381 2175 4072 
Q 2175 3856 2034 3706 
Q 1894 3556 1638 3500 
z
" transform="scale(0.015625)"/>
       <path id="DejaVuSans-29" d="M 513 4856 
L 1013 4856 
Q 1481 4119 1714 3412 
Q 1947 2706 1947 2009 
Q 1947 1309 1714 600 
Q 1481 -109 1013 -844 
L 513 -844 
Q 928 -128 1133 580 
Q 1338 1288 1338 2009 
Q 1338 2731 1133 3434 
Q 928 4138 513 4856 
z
" transform="scale(0.015625)"/>
      </defs>
      <use xlink:href="#DejaVuSans-41"/>
      <use xlink:href="#DejaVuSans-76" transform="translate(62.533203 0)"/>
      <use xlink:href="#DejaVuSans-65" transform="translate(121.712891 0)"/>
      <use xlink:href="#DejaVuSans-72" transform="translate(183.236328 0)"/>
      <use xlink:href="#DejaVuSans-61" transform="translate(224.349609 0)"/>
      <use xlink:href="#DejaVuSans-67" transform="translate(285.628906 0)"/>
      <use xlink:href="#DejaVuSans-65" transform="translate(349.105469 0)"/>
      <use xlink:href="#DejaVuSans-20" transform="translate(410.628906 0)"/>
      <use xlink:href="#DejaVuSans-63" transform="translate(442.416016 0)"/>
      <use xlink:href="#DejaVuSans-6f" transform="translate(497.396484 0)"/>
      <use xlink:href="#DejaVuSans-6e" transform="translate(558.578125 0)"/>
      <use xlink:href="#DejaVuSans-63" transform="translate(621.957031 0)"/>
      <use xlink:href="#DejaVuSans-65" transform="translate(676.9375 0)"/>
      <use xlink:href="#DejaVuSans-6e" transform="translate(738.460938 0)"/>
      <use xlink:href="#DejaVuSans-74" transform="translate(801.839844 0)"/>
      <use xlink:href="#DejaVuSans-72" transform="translate(841.048828 0)"/>
      <use xlink:href="#DejaVuSans-61" transform="translate(882.162109 0)"/>
      <use xlink:href="#DejaVuSans-74" transform="translate(943.441406 0)"/>
      <use xlink:href="#DejaVuSans-69" transform="translate(982.650391 0)"/>
      <use xlink:href="#DejaVuSans-6f" transform="translate(1010.433594 0)"/>
      <use xlink:href="#DejaVuSans-6e" transform="translate(1071.615234 0)"/>
      <use xlink:href="#DejaVuSans-20" transform="translate(1134.994141 0)"/>
      <use xlink:href="#DejaVuSans-28" transform="translate(1166.78125 0)"/>
      <use xlink:href="#DejaVuSans-b5" transform="translate(1205.794922 0)"/>
      <use xlink:href="#DejaVuSans-67" transform="translate(1269.417969 0)"/>
      <use xlink:href="#DejaVuSans-2f" transform="translate(1332.894531 0)"/>
      <use xlink:href="#DejaVuSans-63" transform="translate(1366.585938 0)"/>
      <use xlink:href="#DejaVuSans-6d" transform="translate(1421.566406 0)"/>
      <use xlink:href="#DejaVuSans-b3" transform="translate(1518.978516 0)"/>
      <use xlink:href="#DejaVuSans-29" transform="translate(1559.066406 0)"/>
     </g>
    </g>
   </g>
   <g id="patch_7">
    <path d="M 53.328125 311.753464 
L 53.328125 68.208 
" style="fill: none; stroke: #000000; stroke-width: 0.8; stroke-linejoin: miter; stroke-linecap: square"/>
   </g>
   <g id="patch_8">
    <path d="M 53.328125 311.753464 
L 422.758125 311.753464 
" style="fill: none; stroke: #000000; stroke-width: 0.8; stroke-linejoin: miter; stroke-linecap: square"/>
   </g>
   <g id="text_12">
    <!-- Free KC: average concentration at 24 h -->
    <g transform="translate(120.469375 62.208) scale(0.12 -0.12)">
     <defs>
      <path id="DejaVuSans-46" d="M 628 4666 
L 3309 4666 
L 3309 4134 
L 1259 4134 
L 1259 2759 
L 3109 2759 
L 3109 2228 
L 1259 2228 
L 1259 0 
L 628 0 
L 628 4666 
z
" transform="scale(0.015625)"/>
      <path id="DejaVuSans-4b" d="M 628 4666 
L 1259 4666 
L 1259 2694 
L 3353 4666 
L 4166 4666 
L 1850 2491 
L 4331 0 
L 3500 0 
L 1259 2247 
L 1259 0 
L 628 0 
L 628 4666 
z
" transform="scale(0.015625)"/>
      <path id="DejaVuSans-3a" d="M 750 794 
L 1409 794 
L 1409 0 
L 750 0 
L 750 794 
z
M 750 3309 
L 1409 3309 
L 1409 2516 
L 750 2516 
L 750 3309 
z
" transform="scale(0.015625)"/>
      <path id="DejaVuSans-68" d="M 3513 2113 
L 3513 0 
L 2938 0 
L 2938 2094 
Q 2938 2591 2744 2837 
Q 2550 3084 2163 3084 
Q 1697 3084 1428 2787 
Q 1159 2491 1159 1978 
L 1159 0 
L 581 0 
L 581 4863 
L 1159 4863 
L 1159 2956 
Q 1366 3272 1645 3428 
Q 1925 3584 2291 3584 
Q 2894 3584 3203 3211 
Q 3513 2838 3513 2113 
z
" transform="scale(0.015625)"/>
     </defs>
     <use xlink:href="#DejaVuSans-46"/>
     <use xlink:href="#DejaVuSans-72" transform="translate(50.269531 0)"/>
     <use xlink:href="#DejaVuSans-65" transform="translate(89.132812 0)"/>
     <use xlink:href="#DejaVuSans-65" transform="translate(150.65625 0)"/>
     <use xlink:href="#DejaVuSans-20" transform="translate(212.179688 0)"/>
     <use xlink:href="#DejaVuSans-4b" transform="translate(243.966797 0)"/>
     <use xlink:href="#DejaVuSans-43" transform="translate(304.042969 0)"/>
     <use xlink:href="#DejaVuSans-3a" transform="translate(373.867188 0)"/>
     <use xlink:href="#DejaVuSans-20" transform="translate(407.558594 0)"/>
     <use xlink:href="#DejaVuSans-61" transform="translate(439.345703 0)"/>
     <use xlink:href="#DejaVuSans-76" transform="translate(500.625 0)"/>
     <use xlink:href="#DejaVuSans-65" transform="translate(559.804688 0)"/>
     <use xlink:href="#DejaVuSans-72" transform="translate(621.328125 0)"/>
     <use xlink:href="#DejaVuSans-61" transform="translate(662.441406 0)"/>
     <use xlink:href="#DejaVuSans-67" transform="translate(723.720703 0)"/>
     <use xlink:href="#DejaVuSans-65" transform="translate(787.197266 0)"/>
     <use xlink:href="#DejaVuSans-20" transform="translate(848.720703 0)"/>
     <use xlink:href="#DejaVuSans-63" transform="translate(880.507812 0)"/>
     <use xlink:href="#DejaVuSans-6f" transform="translate(935.488281 0)"/>
     <use xlink:href="#DejaVuSans-6e" transform="translate(996.669922 0)"/>
     <use xlink:href="#DejaVuSans-63" transform="translate(1060.048828 0)"/>
     <use xlink:href="#DejaVuSans-65" transform="translate(1115.029297 0)"/>
     <use xlink:href="#DejaVuSans-6e" transform="translate(1176.552734 0)"/>
     <use xlink:href="#DejaVuSans-74" transform="translate(1239.931641 0)"/>
     <use xlink:href="#DejaVuSans-72" transform="translate(1279.140625 0)"/>
     <use xlink:href="#DejaVuSans-61" transform="translate(1320.253906 0)"/>
     <use xlink:href="#DejaVuSans-74" transform="translate(1381.533203 0)"/>
     <use xlink:href="#DejaVuSans-69" transform="translate(1420.742188 0)"/>
     <use xlink:href="#DejaVuSans-6f" transform="translate(1448.525391 0)"/>
     <use xlink:href="#DejaVuSans-6e" transform="translate(1509.707031 0)"/>
     <use xlink:href="#DejaVuSans-20" transform="translate(1573.085938 0)"/>
     <use xlink:href="#DejaVuSans-61" transform="translate(1604.873047 0)"/>
     <use xlink:href="#DejaVuSans-74" transform="translate(1666.152344 0)"/>
     <use xlink:href="#DejaVuSans-20" transform="translate(1705.361328 0)"/>
     <use xlink:href="#DejaVuSans-32" transform="translate(1737.148438 0)"/>
     <use xlink:href="#DejaVuSans-34" transform="translate(1800.771484 0)"/>
     <use xlink:href="#DejaVuSans-20" transform="translate(1864.394531 0)"/>
     <use xlink:href="#DejaVuSans-68" transform="translate(1896.181641 0)"/>
    </g>
   </g>
  </g>
  <g id="axes_2">
   <g id="patch_9">
    <path d="M 479.928125 311.753464 
L 849.358125 311.753464 
L 849.358125 68.208 
L 479.928125 68.208 
z
" style="fill: #ffffff"/>
   </g>
   <g id="patch_10">
    <path d="M 496.720398 311.753464 
L 567.424704 311.753464 
L 567.424704 79.805403 
L 496.720398 79.805403 
z
" clip-path="url(#pdb0b0b6d7a)" style="fill: #1f77b4"/>
   </g>
   <g id="patch_11">
    <path d="M 585.100781 311.753464 
L 655.805087 311.753464 
L 655.805087 137.833726 
L 585.100781 137.833726 
z
" clip-path="url(#pdb0b0b6d7a)" style="fill: #1f77b4"/>
   </g>
   <g id="patch_12">
    <path d="M 673.481163 311.753464 
L 744.185469 311.753464 
L 744.185469 297.973225 
L 673.481163 297.973225 
z
" clip-path="url(#pdb0b0b6d7a)" style="fill: #1f77b4"/>
   </g>
   <g id="patch_13">
    <path d="M 761.861546 311.753464 
L 832.565852 311.753464 
L 832.565852 310.309573 
L 761.861546 310.309573 
z
" clip-path="url(#pdb0b0b6d7a)" style="fill: #1f77b4"/>
   </g>
   <g id="matplotlib.axis_3">
    <g id="xtick_5">
     <g id="line2d_11">
      <g>
       <use xlink:href="#m89b8f01d3a" x="532.072551" y="311.753464" style="stroke: #000000; stroke-width: 0.8"/>
      </g>
     </g>
     <g id="text_13">
      <!-- Donor -->
      <g transform="translate(504.717713 340.526873) rotate(-30) scale(0.1 -0.1)">
       <use xlink:href="#DejaVuSans-44"/>
       <use xlink:href="#DejaVuSans-6f" transform="translate(77.001953 0)"/>
       <use xlink:href="#DejaVuSans-6e" transform="translate(138.183594 0)"/>
       <use xlink:href="#DejaVuSans-6f" transform="translate(201.5625 0)"/>
       <use xlink:href="#DejaVuSans-72" transform="translate(262.744141 0)"/>
      </g>
     </g>
    </g>
    <g id="xtick_6">
     <g id="line2d_12">
      <g>
       <use xlink:href="#m89b8f01d3a" x="620.452934" y="311.753464" style="stroke: #000000; stroke-width: 0.8"/>
      </g>
     </g>
     <g id="text_14">
      <!-- SC -->
      <g transform="translate(607.867889 331.999529) rotate(-30) scale(0.1 -0.1)">
       <use xlink:href="#DejaVuSans-53"/>
       <use xlink:href="#DejaVuSans-43" transform="translate(63.476562 0)"/>
      </g>
     </g>
    </g>
    <g id="xtick_7">
     <g id="line2d_13">
      <g>
       <use xlink:href="#m89b8f01d3a" x="708.833316" y="311.753464" style="stroke: #000000; stroke-width: 0.8"/>
      </g>
     </g>
     <g id="text_15">
      <!-- EP/dermis -->
      <g transform="translate(664.59369 350.27531) rotate(-30) scale(0.1 -0.1)">
       <use xlink:href="#DejaVuSans-45"/>
       <use xlink:href="#DejaVuSans-50" transform="translate(63.183594 0)"/>
       <use xlink:href="#DejaVuSans-2f" transform="translate(123.486328 0)"/>
       <use xlink:href="#DejaVuSans-64" transform="translate(157.177734 0)"/>
       <use xlink:href="#DejaVuSans-65" transform="translate(220.654297 0)"/>
       <use xlink:href="#DejaVuSans-72" transform="translate(282.177734 0)"/>
       <use xlink:href="#DejaVuSans-6d" transform="translate(321.541016 0)"/>
       <use xlink:href="#DejaVuSans-69" transform="translate(418.953125 0)"/>
       <use xlink:href="#DejaVuSans-73" transform="translate(446.736328 0)"/>
      </g>
     </g>
    </g>
    <g id="xtick_8">
     <g id="line2d_14">
      <g>
       <use xlink:href="#m89b8f01d3a" x="797.213699" y="311.753464" style="stroke: #000000; stroke-width: 0.8"/>
      </g>
     </g>
     <g id="text_16">
      <!-- Receptor -->
      <g transform="translate(757.374564 347.734685) rotate(-30) scale(0.1 -0.1)">
       <use xlink:href="#DejaVuSans-52"/>
       <use xlink:href="#DejaVuSans-65" transform="translate(64.982422 0)"/>
       <use xlink:href="#DejaVuSans-63" transform="translate(126.505859 0)"/>
       <use xlink:href="#DejaVuSans-65" transform="translate(181.486328 0)"/>
       <use xlink:href="#DejaVuSans-70" transform="translate(243.009766 0)"/>
       <use xlink:href="#DejaVuSans-74" transform="translate(306.486328 0)"/>
       <use xlink:href="#DejaVuSans-6f" transform="translate(345.695312 0)"/>
       <use xlink:href="#DejaVuSans-72" transform="translate(406.876953 0)"/>
      </g>
     </g>
    </g>
   </g>
   <g id="matplotlib.axis_4">
    <g id="ytick_7">
     <g id="line2d_15">
      <g>
       <use xlink:href="#med5753785c" x="479.928125" y="311.753464" style="stroke: #000000; stroke-width: 0.8"/>
      </g>
     </g>
     <g id="text_17">
      <!-- 0 -->
      <g transform="translate(466.565625 315.552683) scale(0.1 -0.1)">
       <use xlink:href="#DejaVuSans-30"/>
      </g>
     </g>
    </g>
    <g id="ytick_8">
     <g id="line2d_16">
      <g>
       <use xlink:href="#med5753785c" x="479.928125" y="279.554308" style="stroke: #000000; stroke-width: 0.8"/>
      </g>
     </g>
     <g id="text_18">
      <!-- 250 -->
      <g transform="translate(453.840625 283.353527) scale(0.1 -0.1)">
       <defs>
        <path id="DejaVuSans-35" d="M 691 4666 
L 3169 4666 
L 3169 4134 
L 1269 4134 
L 1269 2991 
Q 1406 3038 1543 3061 
Q 1681 3084 1819 3084 
Q 2600 3084 3056 2656 
Q 3513 2228 3513 1497 
Q 3513 744 3044 326 
Q 2575 -91 1722 -91 
Q 1428 -91 1123 -41 
Q 819 9 494 109 
L 494 744 
Q 775 591 1075 516 
Q 1375 441 1709 441 
Q 2250 441 2565 725 
Q 2881 1009 2881 1497 
Q 2881 1984 2565 2268 
Q 2250 2553 1709 2553 
Q 1456 2553 1204 2497 
Q 953 2441 691 2322 
L 691 4666 
z
" transform="scale(0.015625)"/>
       </defs>
       <use xlink:href="#DejaVuSans-32"/>
       <use xlink:href="#DejaVuSans-35" transform="translate(63.623047 0)"/>
       <use xlink:href="#DejaVuSans-30" transform="translate(127.246094 0)"/>
      </g>
     </g>
    </g>
    <g id="ytick_9">
     <g id="line2d_17">
      <g>
       <use xlink:href="#med5753785c" x="479.928125" y="247.355153" style="stroke: #000000; stroke-width: 0.8"/>
      </g>
     </g>
     <g id="text_19">
      <!-- 500 -->
      <g transform="translate(453.840625 251.154371) scale(0.1 -0.1)">
       <use xlink:href="#DejaVuSans-35"/>
       <use xlink:href="#DejaVuSans-30" transform="translate(63.623047 0)"/>
       <use xlink:href="#DejaVuSans-30" transform="translate(127.246094 0)"/>
      </g>
     </g>
    </g>
    <g id="ytick_10">
     <g id="line2d_18">
      <g>
       <use xlink:href="#med5753785c" x="479.928125" y="215.155997" style="stroke: #000000; stroke-width: 0.8"/>
      </g>
     </g>
     <g id="text_20">
      <!-- 750 -->
      <g transform="translate(453.840625 218.955216) scale(0.1 -0.1)">
       <defs>
        <path id="DejaVuSans-37" d="M 525 4666 
L 3525 4666 
L 3525 4397 
L 1831 0 
L 1172 0 
L 2766 4134 
L 525 4134 
L 525 4666 
z
" transform="scale(0.015625)"/>
       </defs>
       <use xlink:href="#DejaVuSans-37"/>
       <use xlink:href="#DejaVuSans-35" transform="translate(63.623047 0)"/>
       <use xlink:href="#DejaVuSans-30" transform="translate(127.246094 0)"/>
      </g>
     </g>
    </g>
    <g id="ytick_11">
     <g id="line2d_19">
      <g>
       <use xlink:href="#med5753785c" x="479.928125" y="182.956842" style="stroke: #000000; stroke-width: 0.8"/>
      </g>
     </g>
     <g id="text_21">
      <!-- 1000 -->
      <g transform="translate(447.478125 186.75606) scale(0.1 -0.1)">
       <use xlink:href="#DejaVuSans-31"/>
       <use xlink:href="#DejaVuSans-30" transform="translate(63.623047 0)"/>
       <use xlink:href="#DejaVuSans-30" transform="translate(127.246094 0)"/>
       <use xlink:href="#DejaVuSans-30" transform="translate(190.869141 0)"/>
      </g>
     </g>
    </g>
    <g id="ytick_12">
     <g id="line2d_20">
      <g>
       <use xlink:href="#med5753785c" x="479.928125" y="150.757686" style="stroke: #000000; stroke-width: 0.8"/>
      </g>
     </g>
     <g id="text_22">
      <!-- 1250 -->
      <g transform="translate(447.478125 154.556905) scale(0.1 -0.1)">
       <use xlink:href="#DejaVuSans-31"/>
       <use xlink:href="#DejaVuSans-32" transform="translate(63.623047 0)"/>
       <use xlink:href="#DejaVuSans-35" transform="translate(127.246094 0)"/>
       <use xlink:href="#DejaVuSans-30" transform="translate(190.869141 0)"/>
      </g>
     </g>
    </g>
    <g id="ytick_13">
     <g id="line2d_21">
      <g>
       <use xlink:href="#med5753785c" x="479.928125" y="118.55853" style="stroke: #000000; stroke-width: 0.8"/>
      </g>
     </g>
     <g id="text_23">
      <!-- 1500 -->
      <g transform="translate(447.478125 122.357749) scale(0.1 -0.1)">
       <use xlink:href="#DejaVuSans-31"/>
       <use xlink:href="#DejaVuSans-35" transform="translate(63.623047 0)"/>
       <use xlink:href="#DejaVuSans-30" transform="translate(127.246094 0)"/>
       <use xlink:href="#DejaVuSans-30" transform="translate(190.869141 0)"/>
      </g>
     </g>
    </g>
    <g id="ytick_14">
     <g id="line2d_22">
      <g>
       <use xlink:href="#med5753785c" x="479.928125" y="86.359375" style="stroke: #000000; stroke-width: 0.8"/>
      </g>
     </g>
     <g id="text_24">
      <!-- 1750 -->
      <g transform="translate(447.478125 90.158593) scale(0.1 -0.1)">
       <use xlink:href="#DejaVuSans-31"/>
       <use xlink:href="#DejaVuSans-37" transform="translate(63.623047 0)"/>
       <use xlink:href="#DejaVuSans-35" transform="translate(127.246094 0)"/>
       <use xlink:href="#DejaVuSans-30" transform="translate(190.869141 0)"/>
      </g>
     </g>
    </g>
    <g id="text_25">
     <!-- Average concentration (µg/cm³) -->
     <g transform="translate(441.398438 269.886201) rotate(-90) scale(0.1 -0.1)">
      <use xlink:href="#DejaVuSans-41"/>
      <use xlink:href="#DejaVuSans-76" transform="translate(62.533203 0)"/>
      <use xlink:href="#DejaVuSans-65" transform="translate(121.712891 0)"/>
      <use xlink:href="#DejaVuSans-72" transform="translate(183.236328 0)"/>
      <use xlink:href="#DejaVuSans-61" transform="translate(224.349609 0)"/>
      <use xlink:href="#DejaVuSans-67" transform="translate(285.628906 0)"/>
      <use xlink:href="#DejaVuSans-65" transform="translate(349.105469 0)"/>
      <use xlink:href="#DejaVuSans-20" transform="translate(410.628906 0)"/>
      <use xlink:href="#DejaVuSans-63" transform="translate(442.416016 0)"/>
      <use xlink:href="#DejaVuSans-6f" transform="translate(497.396484 0)"/>
      <use xlink:href="#DejaVuSans-6e" transform="translate(558.578125 0)"/>
      <use xlink:href="#DejaVuSans-63" transform="translate(621.957031 0)"/>
      <use xlink:href="#DejaVuSans-65" transform="translate(676.9375 0)"/>
      <use xlink:href="#DejaVuSans-6e" transform="translate(738.460938 0)"/>
      <use xlink:href="#DejaVuSans-74" transform="translate(801.839844 0)"/>
      <use xlink:href="#DejaVuSans-72" transform="translate(841.048828 0)"/>
      <use xlink:href="#DejaVuSans-61" transform="translate(882.162109 0)"/>
      <use xlink:href="#DejaVuSans-74" transform="translate(943.441406 0)"/>
      <use xlink:href="#DejaVuSans-69" transform="translate(982.650391 0)"/>
      <use xlink:href="#DejaVuSans-6f" transform="translate(1010.433594 0)"/>
      <use xlink:href="#DejaVuSans-6e" transform="translate(1071.615234 0)"/>
      <use xlink:href="#DejaVuSans-20" transform="translate(1134.994141 0)"/>
      <use xlink:href="#DejaVuSans-28" transform="translate(1166.78125 0)"/>
      <use xlink:href="#DejaVuSans-b5" transform="translate(1205.794922 0)"/>
      <use xlink:href="#DejaVuSans-67" transform="translate(1269.417969 0)"/>
      <use xlink:href="#DejaVuSans-2f" transform="translate(1332.894531 0)"/>
      <use xlink:href="#DejaVuSans-63" transform="translate(1366.585938 0)"/>
      <use xlink:href="#DejaVuSans-6d" transform="translate(1421.566406 0)"/>
      <use xlink:href="#DejaVuSans-b3" transform="translate(1518.978516 0)"/>
      <use xlink:href="#DejaVuSans-29" transform="translate(1559.066406 0)"/>
     </g>
    </g>
   </g>
   <g id="patch_14">
    <path d="M 479.928125 311.753464 
L 479.928125 68.208 
" style="fill: none; stroke: #000000; stroke-width: 0.8; stroke-linejoin: miter; stroke-linecap: square"/>
   </g>
   <g id="patch_15">
    <path d="M 479.928125 311.753464 
L 849.358125 311.753464 
" style="fill: none; stroke: #000000; stroke-width: 0.8; stroke-linejoin: miter; stroke-linecap: square"/>
   </g>
   <g id="text_26">
    <!-- KLZ-NPs: average concentration at 24 h -->
    <g transform="translate(544.927187 62.208) scale(0.12 -0.12)">
     <defs>
      <path id="DejaVuSans-4c" d="M 628 4666 
L 1259 4666 
L 1259 531 
L 3531 531 
L 3531 0 
L 628 0 
L 628 4666 
z
" transform="scale(0.015625)"/>
      <path id="DejaVuSans-5a" d="M 359 4666 
L 4025 4666 
L 4025 4184 
L 1075 531 
L 4097 531 
L 4097 0 
L 288 0 
L 288 481 
L 3238 4134 
L 359 4134 
L 359 4666 
z
" transform="scale(0.015625)"/>
      <path id="DejaVuSans-2d" d="M 313 2009 
L 1997 2009 
L 1997 1497 
L 313 1497 
L 313 2009 
z
" transform="scale(0.015625)"/>
      <path id="DejaVuSans-4e" d="M 628 4666 
L 1478 4666 
L 3547 763 
L 3547 4666 
L 4159 4666 
L 4159 0 
L 3309 0 
L 1241 3903 
L 1241 0 
L 628 0 
L 628 4666 
z
" transform="scale(0.015625)"/>
     </defs>
     <use xlink:href="#DejaVuSans-4b"/>
     <use xlink:href="#DejaVuSans-4c" transform="translate(65.576172 0)"/>
     <use xlink:href="#DejaVuSans-5a" transform="translate(121.289062 0)"/>
     <use xlink:href="#DejaVuSans-2d" transform="translate(188.044922 0)"/>
     <use xlink:href="#DejaVuSans-4e" transform="translate(224.128906 0)"/>
     <use xlink:href="#DejaVuSans-50" transform="translate(298.933594 0)"/>
     <use xlink:href="#DejaVuSans-73" transform="translate(357.486328 0)"/>
     <use xlink:href="#DejaVuSans-3a" transform="translate(409.585938 0)"/>
     <use xlink:href="#DejaVuSans-20" transform="translate(443.277344 0)"/>
     <use xlink:href="#DejaVuSans-61" transform="translate(475.064453 0)"/>
     <use xlink:href="#DejaVuSans-76" transform="translate(536.34375 0)"/>
     <use xlink:href="#DejaVuSans-65" transform="translate(595.523438 0)"/>
     <use xlink:href="#DejaVuSans-72" transform="translate(657.046875 0)"/>
     <use xlink:href="#DejaVuSans-61" transform="translate(698.160156 0)"/>
     <use xlink:href="#DejaVuSans-67" transform="translate(759.439453 0)"/>
     <use xlink:href="#DejaVuSans-65" transform="translate(822.916016 0)"/>
     <use xlink:href="#DejaVuSans-20" transform="translate(884.439453 0)"/>
     <use xlink:href="#DejaVuSans-63" transform="translate(916.226562 0)"/>
     <use xlink:href="#DejaVuSans-6f" transform="translate(971.207031 0)"/>
     <use xlink:href="#DejaVuSans-6e" transform="translate(1032.388672 0)"/>
     <use xlink:href="#DejaVuSans-63" transform="translate(1095.767578 0)"/>
     <use xlink:href="#DejaVuSans-65" transform="translate(1150.748047 0)"/>
     <use xlink:href="#DejaVuSans-6e" transform="translate(1212.271484 0)"/>
     <use xlink:href="#DejaVuSans-74" transform="translate(1275.650391 0)"/>
     <use xlink:href="#DejaVuSans-72" transform="translate(1314.859375 0)"/>
     <use xlink:href="#DejaVuSans-61" transform="translate(1355.972656 0)"/>
     <use xlink:href="#DejaVuSans-74" transform="translate(1417.251953 0)"/>
     <use xlink:href="#DejaVuSans-69" transform="translate(1456.460938 0)"/>
     <use xlink:href="#DejaVuSans-6f" transform="translate(1484.244141 0)"/>
     <use xlink:href="#DejaVuSans-6e" transform="translate(1545.425781 0)"/>
     <use xlink:href="#DejaVuSans-20" transform="translate(1608.804688 0)"/>
     <use xlink:href="#DejaVuSans-61" transform="translate(1640.591797 0)"/>
     <use xlink:href="#DejaVuSans-74" transform="translate(1701.871094 0)"/>
     <use xlink:href="#DejaVuSans-20" transform="translate(1741.080078 0)"/>
     <use xlink:href="#DejaVuSans-32" transform="translate(1772.867188 0)"/>
     <use xlink:href="#DejaVuSans-34" transform="translate(1836.490234 0)"/>
     <use xlink:href="#DejaVuSans-20" transform="translate(1900.113281 0)"/>
     <use xlink:href="#DejaVuSans-68" transform="translate(1931.900391 0)"/>
    </g>
   </g>
  </g>
  <g id="text_27">
   <!-- Model-predicted 24 h average concentration by compartment -->
   <g transform="translate(242.348437 16.318125) scale(0.12 -0.12)">
    <defs>
     <path id="DejaVuSans-4d" d="M 628 4666 
L 1569 4666 
L 2759 1491 
L 3956 4666 
L 4897 4666 
L 4897 0 
L 4281 0 
L 4281 4097 
L 3078 897 
L 2444 897 
L 1241 4097 
L 1241 0 
L 628 0 
L 628 4666 
z
" transform="scale(0.015625)"/>
     <path id="DejaVuSans-6c" d="M 603 4863 
L 1178 4863 
L 1178 0 
L 603 0 
L 603 4863 
z
" transform="scale(0.015625)"/>
     <path id="DejaVuSans-62" d="M 3116 1747 
Q 3116 2381 2855 2742 
Q 2594 3103 2138 3103 
Q 1681 3103 1420 2742 
Q 1159 2381 1159 1747 
Q 1159 1113 1420 752 
Q 1681 391 2138 391 
Q 2594 391 2855 752 
Q 3116 1113 3116 1747 
z
M 1159 2969 
Q 1341 3281 1617 3432 
Q 1894 3584 2278 3584 
Q 2916 3584 3314 3078 
Q 3713 2572 3713 1747 
Q 3713 922 3314 415 
Q 2916 -91 2278 -91 
Q 1894 -91 1617 61 
Q 1341 213 1159 525 
L 1159 0 
L 581 0 
L 581 4863 
L 1159 4863 
L 1159 2969 
z
" transform="scale(0.015625)"/>
     <path id="DejaVuSans-79" d="M 2059 -325 
Q 1816 -950 1584 -1140 
Q 1353 -1331 966 -1331 
L 506 -1331 
L 506 -850 
L 844 -850 
Q 1081 -850 1212 -737 
Q 1344 -625 1503 -206 
L 1606 56 
L 191 3500 
L 800 3500 
L 1894 763 
L 2988 3500 
L 3597 3500 
L 2059 -325 
z
" transform="scale(0.015625)"/>
    </defs>
    <use xlink:href="#DejaVuSans-4d"/>
    <use xlink:href="#DejaVuSans-6f" transform="translate(86.279297 0)"/>
    <use xlink:href="#DejaVuSans-64" transform="translate(147.460938 0)"/>
    <use xlink:href="#DejaVuSans-65" transform="translate(210.9375 0)"/>
    <use xlink:href="#DejaVuSans-6c" transform="translate(272.460938 0)"/>
    <use xlink:href="#DejaVuSans-2d" transform="translate(300.244141 0)"/>
    <use xlink:href="#DejaVuSans-70" transform="translate(336.328125 0)"/>
    <use xlink:href="#DejaVuSans-72" transform="translate(399.804688 0)"/>
    <use xlink:href="#DejaVuSans-65" transform="translate(438.667969 0)"/>
    <use xlink:href="#DejaVuSans-64" transform="translate(500.191406 0)"/>
    <use xlink:href="#DejaVuSans-69" transform="translate(563.667969 0)"/>
    <use xlink:href="#DejaVuSans-63" transform="translate(591.451172 0)"/>
    <use xlink:href="#DejaVuSans-74" transform="translate(646.431641 0)"/>
    <use xlink:href="#DejaVuSans-65" transform="translate(685.640625 0)"/>
    <use xlink:href="#DejaVuSans-64" transform="translate(747.164062 0)"/>
    <use xlink:href="#DejaVuSans-20" transform="translate(810.640625 0)"/>
    <use xlink:href="#DejaVuSans-32" transform="translate(842.427734 0)"/>
    <use xlink:href="#DejaVuSans-34" transform="translate(906.050781 0)"/>
    <use xlink:href="#DejaVuSans-20" transform="translate(969.673828 0)"/>
    <use xlink:href="#DejaVuSans-68" transform="translate(1001.460938 0)"/>
    <use xlink:href="#DejaVuSans-20" transform="translate(1064.839844 0)"/>
    <use xlink:href="#DejaVuSans-61" transform="translate(1096.626953 0)"/>
    <use xlink:href="#DejaVuSans-76" transform="translate(1157.90625 0)"/>
    <use xlink:href="#DejaVuSans-65" transform="translate(1217.085938 0)"/>
    <use xlink:href="#DejaVuSans-72" transform="translate(1278.609375 0)"/>
    <use xlink:href="#DejaVuSans-61" transform="translate(1319.722656 0)"/>
    <use xlink:href="#DejaVuSans-67" transform="translate(1381.001953 0)"/>
    <use xlink:href="#DejaVuSans-65" transform="translate(1444.478516 0)"/>
    <use xlink:href="#DejaVuSans-20" transform="translate(1506.001953 0)"/>
    <use xlink:href="#DejaVuSans-63" transform="translate(1537.789062 0)"/>
    <use xlink:href="#DejaVuSans-6f" transform="translate(1592.769531 0)"/>
    <use xlink:href="#DejaVuSans-6e" transform="translate(1653.951172 0)"/>
    <use xlink:href="#DejaVuSans-63" transform="translate(1717.330078 0)"/>
    <use xlink:href="#DejaVuSans-65" transform="translate(1772.310547 0)"/>
    <use xlink:href="#DejaVuSans-6e" transform="translate(1833.833984 0)"/>
    <use xlink:href="#DejaVuSans-74" transform="translate(1897.212891 0)"/>
    <use xlink:href="#DejaVuSans-72" transform="translate(1936.421875 0)"/>
    <use xlink:href="#DejaVuSans-61" transform="translate(1977.535156 0)"/>
    <use xlink:href="#DejaVuSans-74" transform="translate(2038.814453 0)"/>
    <use xlink:href="#DejaVuSans-69" transform="translate(2078.023438 0)"/>
    <use xlink:href="#DejaVuSans-6f" transform="translate(2105.806641 0)"/>
    <use xlink:href="#DejaVuSans-6e" transform="translate(2166.988281 0)"/>
    <use xlink:href="#DejaVuSans-20" transform="translate(2230.367188 0)"/>
    <use xlink:href="#DejaVuSans-62" transform="translate(2262.154297 0)"/>
    <use xlink:href="#DejaVuSans-79" transform="translate(2325.630859 0)"/>
    <use xlink:href="#DejaVuSans-20" transform="translate(2384.810547 0)"/>
    <use xlink:href="#DejaVuSans-63" transform="translate(2416.597656 0)"/>
    <use xlink:href="#DejaVuSans-6f" transform="translate(2471.578125 0)"/>
    <use xlink:href="#DejaVuSans-6d" transform="translate(2532.759766 0)"/>
    <use xlink:href="#DejaVuSans-70" transform="translate(2630.171875 0)"/>
    <use xlink:href="#DejaVuSans-61" transform="translate(2693.648438 0)"/>
    <use xlink:href="#DejaVuSans-72" transform="translate(2754.927734 0)"/>
    <use xlink:href="#DejaVuSans-74" transform="translate(2796.041016 0)"/>
    <use xlink:href="#DejaVuSans-6d" transform="translate(2835.25 0)"/>
    <use xlink:href="#DejaVuSans-65" transform="translate(2932.662109 0)"/>
    <use xlink:href="#DejaVuSans-6e" transform="translate(2994.185547 0)"/>
    <use xlink:href="#DejaVuSans-74" transform="translate(3057.564453 0)"/>
   </g>
  </g>
 </g>
 <defs>
  <clipPath id="p8f82e85633">
   <rect x="53.328125" y="68.208" width="369.43" height="243.545464"/>
  </clipPath>
  <clipPath id="pdb0b0b6d7a">
   <rect x="479.928125" y="68.208" width="369.43" height="243.545464"/>
  </clipPath>
 </defs>
</svg>
