<?xml version="1.0" encoding="utf-8" standalone="no"?>
<!DOCTYPE svg PUBLIC "-//W3C//DTD SVG 1.1//EN"
  "http://www.w3.org/Graphics/SVG/1.1/DTD/svg11.dtd">
<svg xmlns:xlink="http://www.w3.org/1999/xlink" width="856.8pt" height="181.432557pt" viewBox="0 0 856.8 181.432557" xmlns="http://www.w3.org/2000/svg" version="1.1">
 <metadata>
  <rdf:RDF xmlns:dc="http://purl.org/dc/elements/1.1/" xmlns:cc="http://creativecommons.org/ns#" xmlns:rdf="http://www.w3.org/1999/02/22-rdf-syntax-ns#">
   <cc:Work>
    <dc:type rdf:resource="http://purl.org/dc/dcmitype/StillImage"/>
    <dc:date>2026-07-15T17:58:08.525310</dc:date>
    <dc:format>image/svg+xml</dc:format>
    <dc:creator>
     <cc:Agent>
      <dc:title>Matplotlib v3.10.8, https://matplotlib.org/</dc:title>
     </cc:Agent>
    </dc:creator>
   </cc:Work>
  </rdf:RDF>
 </metadata>
 <defs>
  <style type="text/css">*{stroke-linejoin: round; stroke-linecap: butt}</style>
 </defs>
 <g id="figure_1">
  <g id="patch_1">
   <path d="M 0 181.432557 
L 856.8 181.432557 
L 856.8 0 
L 0 0 
z
" style="fill: #ffffff"/>
  </g>
  <g id="axes_1">
   <g id="patch_2">
    <path d="M 7.2 143.876307 
L 849.6 143.876307 
L 849.6 40.396307 
L 7.2 40.396307 
z
" style="fill: #ffffff"/>
   </g>
   <g id="matplotlib.axis_1">
    <g id="xtick_1">
     <g id="line2d_1">
      <defs>
       <path id="mcf58ab19de" d="M 0 0 
L 0 3.5 
" style="stroke: #000000; stroke-width: 0.8"/>
      </defs>
      <g>
       <use xlink:href="#mcf58ab19de" x="45.490909" y="143.876307" style="stroke: #000000; stroke-width: 0.8"/>
      </g>
     </g>
     <g id="text_1">
      <!-- 0.0 -->
      <g transform="translate(37.539347 158.474744) scale(0.1 -0.1)">
       <defs>
        <path id="DejaVuSans-30" d="M 2034 4250 
Q 1547 4250 1301 3770 
Q 1056 3291 1056 2328 
Q 1056 1369 1301 889 
Q 1547 409 2034 409 
Q 2525 409 2770 889 
Q 3016 1369 3016 2328 
Q 3016 3291 2770 3770 
Q 2525 4250 2034 4250 
z
M 2034 4750 
Q 2819 4750 3233 4129 
Q 3647 3509 3647 2328 
Q 3647 1150 3233 529 
Q 2819 -91 2034 -91 
Q 1250 -91 836 529 
Q 422 1150 422 2328 
Q 422 3509 836 4129 
Q 1250 4750 2034 4750 
z
" transform="scale(0.015625)"/>
        <path id="DejaVuSans-2e" d="M 684 794 
L 1344 794 
L 1344 0 
L 684 0 
L 684 794 
z
" transform="scale(0.015625)"/>
       </defs>
       <use xlink:href="#DejaVuSans-30"/>
       <use xlink:href="#DejaVuSans-2e" transform="translate(63.623047 0)"/>
       <use xlink:href="#DejaVuSans-30" transform="translate(95.410156 0)"/>
      </g>
     </g>
    </g>
    <g id="xtick_2">
     <g id="line2d_2">
      <g>
       <use xlink:href="#mcf58ab19de" x="154.92193" y="143.876307" style="stroke: #000000; stroke-width: 0.8"/>
      </g>
     </g>
     <g id="text_2">
      <!-- 0.5 -->
      <g transform="translate(146.970368 158.474744) scale(0.1 -0.1)">
       <defs>
        <path id="DejaVuSans-35" d="M 691 4666 
L 3169 4666 
L 3169 4134 
L 1269 4134 
L 1269 2991 
Q 1406 3038 1543 3061 
Q 1681 3084 1819 3084 
Q 2600 3084 3056 2656 
Q 3513 2228 3513 1497 
Q 3513 744 3044 326 
Q 2575 -91 1722 -91 
Q 1428 -91 1123 -41 
Q 819 9 494 109 
L 494 744 
Q 775 591 1075 516 
Q 1375 441 1709 441 
Q 2250 441 2565 725 
Q 2881 1009 2881 1497 
Q 2881 1984 2565 2268 
Q 2250 2553 1709 2553 
Q 1456 2553 1204 2497 
Q 953 2441 691 2322 
L 691 4666 
z
" transform="scale(0.015625)"/>
       </defs>
       <use xlink:href="#DejaVuSans-30"/>
       <use xlink:href="#DejaVuSans-2e" transform="translate(63.623047 0)"/>
       <use xlink:href="#DejaVuSans-35" transform="translate(95.410156 0)"/>
      </g>
     </g>
    </g>
    <g id="xtick_3">
     <g id="line2d_3">
      <g>
       <use xlink:href="#mcf58ab19de" x="264.352951" y="143.876307" style="stroke: #000000; stroke-width: 0.8"/>
      </g>
     </g>
     <g id="text_3">
      <!-- 1.0 -->
      <g transform="translate(256.401389 158.474744) scale(0.1 -0.1)">
       <defs>
        <path id="DejaVuSans-31" d="M 794 531 
L 1825 531 
L 1825 4091 
L 703 3866 
L 703 4441 
L 1819 4666 
L 2450 4666 
L 2450 531 
L 3481 531 
L 3481 0 
L 794 0 
L 794 531 
z
" transform="scale(0.015625)"/>
       </defs>
       <use xlink:href="#DejaVuSans-31"/>
       <use xlink:href="#DejaVuSans-2e" transform="translate(63.623047 0)"/>
       <use xlink:href="#DejaVuSans-30" transform="translate(95.410156 0)"/>
      </g>
     </g>
    </g>
    <g id="xtick_4">
     <g id="line2d_4">
      <g>
       <use xlink:href="#mcf58ab19de" x="373.783972" y="143.876307" style="stroke: #000000; stroke-width: 0.8"/>
      </g>
     </g>
     <g id="text_4">
      <!-- 1.5 -->
      <g transform="translate(365.83241 158.474744) scale(0.1 -0.1)">
       <use xlink:href="#DejaVuSans-31"/>
       <use xlink:href="#DejaVuSans-2e" transform="translate(63.623047 0)"/>
       <use xlink:href="#DejaVuSans-35" transform="translate(95.410156 0)"/>
      </g>
     </g>
    </g>
    <g id="xtick_5">
     <g id="line2d_5">
      <g>
       <use xlink:href="#mcf58ab19de" x="483.214993" y="143.876307" style="stroke: #000000; stroke-width: 0.8"/>
      </g>
     </g>
     <g id="text_5">
      <!-- 2.0 -->
      <g transform="translate(475.263431 158.474744) scale(0.1 -0.1)">
       <defs>
        <path id="DejaVuSans-32" d="M 1228 531 
L 3431 531 
L 3431 0 
L 469 0 
L 469 531 
Q 828 903 1448 1529 
Q 2069 2156 2228 2338 
Q 2531 2678 2651 2914 
Q 2772 3150 2772 3378 
Q 2772 3750 2511 3984 
Q 2250 4219 1831 4219 
Q 1534 4219 1204 4116 
Q 875 4013 500 3803 
L 500 4441 
Q 881 4594 1212 4672 
Q 1544 4750 1819 4750 
Q 2544 4750 2975 4387 
Q 3406 4025 3406 3419 
Q 3406 3131 3298 2873 
Q 3191 2616 2906 2266 
Q 2828 2175 2409 1742 
Q 1991 1309 1228 531 
z
" transform="scale(0.015625)"/>
       </defs>
       <use xlink:href="#DejaVuSans-32"/>
       <use xlink:href="#DejaVuSans-2e" transform="translate(63.623047 0)"/>
       <use xlink:href="#DejaVuSans-30" transform="translate(95.410156 0)"/>
      </g>
     </g>
    </g>
    <g id="xtick_6">
     <g id="line2d_6">
      <g>
       <use xlink:href="#mcf58ab19de" x="592.646014" y="143.876307" style="stroke: #000000; stroke-width: 0.8"/>
      </g>
     </g>
     <g id="text_6">
      <!-- 2.5 -->
      <g transform="translate(584.694452 158.474744) scale(0.1 -0.1)">
       <use xlink:href="#DejaVuSans-32"/>
       <use xlink:href="#DejaVuSans-2e" transform="translate(63.623047 0)"/>
       <use xlink:href="#DejaVuSans-35" transform="translate(95.410156 0)"/>
      </g>
     </g>
    </g>
    <g id="xtick_7">
     <g id="line2d_7">
      <g>
       <use xlink:href="#mcf58ab19de" x="702.077035" y="143.876307" style="stroke: #000000; stroke-width: 0.8"/>
      </g>
     </g>
     <g id="text_7">
      <!-- 3.0 -->
      <g transform="translate(694.125473 158.474744) scale(0.1 -0.1)">
       <defs>
        <path id="DejaVuSans-33" d="M 2597 2516 
Q 3050 2419 3304 2112 
Q 3559 1806 3559 1356 
Q 3559 666 3084 287 
Q 2609 -91 1734 -91 
Q 1441 -91 1130 -33 
Q 819 25 488 141 
L 488 750 
Q 750 597 1062 519 
Q 1375 441 1716 441 
Q 2309 441 2620 675 
Q 2931 909 2931 1356 
Q 2931 1769 2642 2001 
Q 2353 2234 1838 2234 
L 1294 2234 
L 1294 2753 
L 1863 2753 
Q 2328 2753 2575 2939 
Q 2822 3125 2822 3475 
Q 2822 3834 2567 4026 
Q 2313 4219 1838 4219 
Q 1578 4219 1281 4162 
Q 984 4106 628 3988 
L 628 4550 
Q 988 4650 1302 4700 
Q 1616 4750 1894 4750 
Q 2613 4750 3031 4423 
Q 3450 4097 3450 3541 
Q 3450 3153 3228 2886 
Q 3006 2619 2597 2516 
z
" transform="scale(0.015625)"/>
       </defs>
       <use xlink:href="#DejaVuSans-33"/>
       <use xlink:href="#DejaVuSans-2e" transform="translate(63.623047 0)"/>
       <use xlink:href="#DejaVuSans-30" transform="translate(95.410156 0)"/>
      </g>
     </g>
    </g>
    <g id="xtick_8">
     <g id="line2d_8">
      <g>
       <use xlink:href="#mcf58ab19de" x="811.508056" y="143.876307" style="stroke: #000000; stroke-width: 0.8"/>
      </g>
     </g>
     <g id="text_8">
      <!-- 3.5 -->
      <g transform="translate(803.556494 158.474744) scale(0.1 -0.1)">
       <use xlink:href="#DejaVuSans-33"/>
       <use xlink:href="#DejaVuSans-2e" transform="translate(63.623047 0)"/>
       <use xlink:href="#DejaVuSans-35" transform="translate(95.410156 0)"/>
      </g>
     </g>
    </g>
    <g id="text_9">
     <!-- Position across computational domain (cm) -->
     <g transform="translate(320.23125 172.152869) scale(0.1 -0.1)">
      <defs>
       <path id="DejaVuSans-50" d="M 1259 4147 
L 1259 2394 
L 2053 2394 
Q 2494 2394 2734 2622 
Q 2975 2850 2975 3272 
Q 2975 3691 2734 3919 
Q 2494 4147 2053 4147 
L 1259 4147 
z
M 628 4666 
L 2053 4666 
Q 2838 4666 3239 4311 
Q 3641 3956 3641 3272 
Q 3641 2581 3239 2228 
Q 2838 1875 2053 1875 
L 1259 1875 
L 1259 0 
L 628 0 
L 628 4666 
z
" transform="scale(0.015625)"/>
       <path id="DejaVuSans-6f" d="M 1959 3097 
Q 1497 3097 1228 2736 
Q 959 2375 959 1747 
Q 959 1119 1226 758 
Q 1494 397 1959 397 
Q 2419 397 2687 759 
Q 2956 1122 2956 1747 
Q 2956 2369 2687 2733 
Q 2419 3097 1959 3097 
z
M 1959 3584 
Q 2709 3584 3137 3096 
Q 3566 2609 3566 1747 
Q 3566 888 3137 398 
Q 2709 -91 1959 -91 
Q 1206 -91 779 398 
Q 353 888 353 1747 
Q 353 2609 779 3096 
Q 1206 3584 1959 3584 
z
" transform="scale(0.015625)"/>
       <path id="DejaVuSans-73" d="M 2834 3397 
L 2834 2853 
Q 2591 2978 2328 3040 
Q 2066 3103 1784 3103 
Q 1356 3103 1142 2972 
Q 928 2841 928 2578 
Q 928 2378 1081 2264 
Q 1234 2150 1697 2047 
L 1894 2003 
Q 2506 1872 2764 1633 
Q 3022 1394 3022 966 
Q 3022 478 2636 193 
Q 2250 -91 1575 -91 
Q 1294 -91 989 -36 
Q 684 19 347 128 
L 347 722 
Q 666 556 975 473 
Q 1284 391 1588 391 
Q 1994 391 2212 530 
Q 2431 669 2431 922 
Q 2431 1156 2273 1281 
Q 2116 1406 1581 1522 
L 1381 1569 
Q 847 1681 609 1914 
Q 372 2147 372 2553 
Q 372 3047 722 3315 
Q 1072 3584 1716 3584 
Q 2034 3584 2315 3537 
Q 2597 3491 2834 3397 
z
" transform="scale(0.015625)"/>
       <path id="DejaVuSans-69" d="M 603 3500 
L 1178 3500 
L 1178 0 
L 603 0 
L 603 3500 
z
M 603 4863 
L 1178 4863 
L 1178 4134 
L 603 4134 
L 603 4863 
z
" transform="scale(0.015625)"/>
       <path id="DejaVuSans-74" d="M 1172 4494 
L 1172 3500 
L 2356 3500 
L 2356 3053 
L 1172 3053 
L 1172 1153 
Q 1172 725 1289 603 
Q 1406 481 1766 481 
L 2356 481 
L 2356 0 
L 1766 0 
Q 1100 0 847 248 
Q 594 497 594 1153 
L 594 3053 
L 172 3053 
L 172 3500 
L 594 3500 
L 594 4494 
L 1172 4494 
z
" transform="scale(0.015625)"/>
       <path id="DejaVuSans-6e" d="M 3513 2113 
L 3513 0 
L 2938 0 
L 2938 2094 
Q 2938 2591 2744 2837 
Q 2550 3084 2163 3084 
Q 1697 3084 1428 2787 
Q 1159 2491 1159 1978 
L 1159 0 
L 581 0 
L 581 3500 
L 1159 3500 
L 1159 2956 
Q 1366 3272 1645 3428 
Q 1925 3584 2291 3584 
Q 2894 3584 3203 3211 
Q 3513 2838 3513 2113 
z
" transform="scale(0.015625)"/>
       <path id="DejaVuSans-20" transform="scale(0.015625)"/>
       <path id="DejaVuSans-61" d="M 2194 1759 
Q 1497 1759 1228 1600 
Q 959 1441 959 1056 
Q 959 750 1161 570 
Q 1363 391 1709 391 
Q 2188 391 2477 730 
Q 2766 1069 2766 1631 
L 2766 1759 
L 2194 1759 
z
M 3341 1997 
L 3341 0 
L 2766 0 
L 2766 531 
Q 2569 213 2275 61 
Q 1981 -91 1556 -91 
Q 1019 -91 701 211 
Q 384 513 384 1019 
Q 384 1609 779 1909 
Q 1175 2209 1959 2209 
L 2766 2209 
L 2766 2266 
Q 2766 2663 2505 2880 
Q 2244 3097 1772 3097 
Q 1472 3097 1187 3025 
Q 903 2953 641 2809 
L 641 3341 
Q 956 3463 1253 3523 
Q 1550 3584 1831 3584 
Q 2591 3584 2966 3190 
Q 3341 2797 3341 1997 
z
" transform="scale(0.015625)"/>
       <path id="DejaVuSans-63" d="M 3122 3366 
L 3122 2828 
Q 2878 2963 2633 3030 
Q 2388 3097 2138 3097 
Q 1578 3097 1268 2742 
Q 959 2388 959 1747 
Q 959 1106 1268 751 
Q 1578 397 2138 397 
Q 2388 397 2633 464 
Q 2878 531 3122 666 
L 3122 134 
Q 2881 22 2623 -34 
Q 2366 -91 2075 -91 
Q 1284 -91 818 406 
Q 353 903 353 1747 
Q 353 2603 823 3093 
Q 1294 3584 2113 3584 
Q 2378 3584 2631 3529 
Q 2884 3475 3122 3366 
z
" transform="scale(0.015625)"/>
       <path id="DejaVuSans-72" d="M 2631 2963 
Q 2534 3019 2420 3045 
Q 2306 3072 2169 3072 
Q 1681 3072 1420 2755 
Q 1159 2438 1159 1844 
L 1159 0 
L 581 0 
L 581 3500 
L 1159 3500 
L 1159 2956 
Q 1341 3275 1631 3429 
Q 1922 3584 2338 3584 
Q 2397 3584 2469 3576 
Q 2541 3569 2628 3553 
L 2631 2963 
z
" transform="scale(0.015625)"/>
       <path id="DejaVuSans-6d" d="M 3328 2828 
Q 3544 3216 3844 3400 
Q 4144 3584 4550 3584 
Q 5097 3584 5394 3201 
Q 5691 2819 5691 2113 
L 5691 0 
L 5113 0 
L 5113 2094 
Q 5113 2597 4934 2840 
Q 4756 3084 4391 3084 
Q 3944 3084 3684 2787 
Q 3425 2491 3425 1978 
L 3425 0 
L 2847 0 
L 2847 2094 
Q 2847 2600 2669 2842 
Q 2491 3084 2119 3084 
Q 1678 3084 1418 2786 
Q 1159 2488 1159 1978 
L 1159 0 
L 581 0 
L 581 3500 
L 1159 3500 
L 1159 2956 
Q 1356 3278 1631 3431 
Q 1906 3584 2284 3584 
Q 2666 3584 2933 3390 
Q 3200 3197 3328 2828 
z
" transform="scale(0.015625)"/>
       <path id="DejaVuSans-70" d="M 1159 525 
L 1159 -1331 
L 581 -1331 
L 581 3500 
L 1159 3500 
L 1159 2969 
Q 1341 3281 1617 3432 
Q 1894 3584 2278 3584 
Q 2916 3584 3314 3078 
Q 3713 2572 3713 1747 
Q 3713 922 3314 415 
Q 2916 -91 2278 -91 
Q 1894 -91 1617 61 
Q 1341 213 1159 525 
z
M 3116 1747 
Q 3116 2381 2855 2742 
Q 2594 3103 2138 3103 
Q 1681 3103 1420 2742 
Q 1159 2381 1159 1747 
Q 1159 1113 1420 752 
Q 1681 391 2138 391 
Q 2594 391 2855 752 
Q 3116 1113 3116 1747 
z
" transform="scale(0.015625)"/>
       <path id="DejaVuSans-75" d="M 544 1381 
L 544 3500 
L 1119 3500 
L 1119 1403 
Q 1119 906 1312 657 
Q 1506 409 1894 409 
Q 2359 409 2629 706 
Q 2900 1003 2900 1516 
L 2900 3500 
L 3475 3500 
L 3475 0 
L 2900 0 
L 2900 538 
Q 2691 219 2414 64 
Q 2138 -91 1772 -91 
Q 1169 -91 856 284 
Q 544 659 544 1381 
z
M 1991 3584 
L 1991 3584 
z
" transform="scale(0.015625)"/>
       <path id="DejaVuSans-6c" d="M 603 4863 
L 1178 4863 
L 1178 0 
L 603 0 
L 603 4863 
z
" transform="scale(0.015625)"/>
       <path id="DejaVuSans-64" d="M 2906 2969 
L 2906 4863 
L 3481 4863 
L 3481 0 
L 2906 0 
L 2906 525 
Q 2725 213 2448 61 
Q 2172 -91 1784 -91 
Q 1150 -91 751 415 
Q 353 922 353 1747 
Q 353 2572 751 3078 
Q 1150 3584 1784 3584 
Q 2172 3584 2448 3432 
Q 2725 3281 2906 2969 
z
M 947 1747 
Q 947 1113 1208 752 
Q 1469 391 1925 391 
Q 2381 391 2643 752 
Q 2906 1113 2906 1747 
Q 2906 2381 2643 2742 
Q 2381 3103 1925 3103 
Q 1469 3103 1208 2742 
Q 947 2381 947 1747 
z
" transform="scale(0.015625)"/>
       <path id="DejaVuSans-28" d="M 1984 4856 
Q 1566 4138 1362 3434 
Q 1159 2731 1159 2009 
Q 1159 1288 1364 580 
Q 1569 -128 1984 -844 
L 1484 -844 
Q 1016 -109 783 600 
Q 550 1309 550 2009 
Q 550 2706 781 3412 
Q 1013 4119 1484 4856 
L 1984 4856 
z
" transform="scale(0.015625)"/>
       <path id="DejaVuSans-29" d="M 513 4856 
L 1013 4856 
Q 1481 4119 1714 3412 
Q 1947 2706 1947 2009 
Q 1947 1309 1714 600 
Q 1481 -109 1013 -844 
L 513 -844 
Q 928 -128 1133 580 
Q 1338 1288 1338 2009 
Q 1338 2731 1133 3434 
Q 928 4138 513 4856 
z
" transform="scale(0.015625)"/>
      </defs>
      <use xlink:href="#DejaVuSans-50"/>
      <use xlink:href="#DejaVuSans-6f" transform="translate(56.677734 0)"/>
      <use xlink:href="#DejaVuSans-73" transform="translate(117.859375 0)"/>
      <use xlink:href="#DejaVuSans-69" transform="translate(169.958984 0)"/>
      <use xlink:href="#DejaVuSans-74" transform="translate(197.742188 0)"/>
      <use xlink:href="#DejaVuSans-69" transform="translate(236.951172 0)"/>
      <use xlink:href="#DejaVuSans-6f" transform="translate(264.734375 0)"/>
      <use xlink:href="#DejaVuSans-6e" transform="translate(325.916016 0)"/>
      <use xlink:href="#DejaVuSans-20" transform="translate(389.294922 0)"/>
      <use xlink:href="#DejaVuSans-61" transform="translate(421.082031 0)"/>
      <use xlink:href="#DejaVuSans-63" transform="translate(482.361328 0)"/>
      <use xlink:href="#DejaVuSans-72" transform="translate(537.341797 0)"/>
      <use xlink:href="#DejaVuSans-6f" transform="translate(576.205078 0)"/>
      <use xlink:href="#DejaVuSans-73" transform="translate(637.386719 0)"/>
      <use xlink:href="#DejaVuSans-73" transform="translate(689.486328 0)"/>
      <use xlink:href="#DejaVuSans-20" transform="translate(741.585938 0)"/>
      <use xlink:href="#DejaVuSans-63" transform="translate(773.373047 0)"/>
      <use xlink:href="#DejaVuSans-6f" transform="translate(828.353516 0)"/>
      <use xlink:href="#DejaVuSans-6d" transform="translate(889.535156 0)"/>
      <use xlink:href="#DejaVuSans-70" transform="translate(986.947266 0)"/>
      <use xlink:href="#DejaVuSans-75" transform="translate(1050.423828 0)"/>
      <use xlink:href="#DejaVuSans-74" transform="translate(1113.802734 0)"/>
      <use xlink:href="#DejaVuSans-61" transform="translate(1153.011719 0)"/>
      <use xlink:href="#DejaVuSans-74" transform="translate(1214.291016 0)"/>
      <use xlink:href="#DejaVuSans-69" transform="translate(1253.5 0)"/>
      <use xlink:href="#DejaVuSans-6f" transform="translate(1281.283203 0)"/>
      <use xlink:href="#DejaVuSans-6e" transform="translate(1342.464844 0)"/>
      <use xlink:href="#DejaVuSans-61" transform="translate(1405.84375 0)"/>
      <use xlink:href="#DejaVuSans-6c" transform="translate(1467.123047 0)"/>
      <use xlink:href="#DejaVuSans-20" transform="translate(1494.90625 0)"/>
      <use xlink:href="#DejaVuSans-64" transform="translate(1526.693359 0)"/>
      <use xlink:href="#DejaVuSans-6f" transform="translate(1590.169922 0)"/>
      <use xlink:href="#DejaVuSans-6d" transform="translate(1651.351562 0)"/>
      <use xlink:href="#DejaVuSans-61" transform="translate(1748.763672 0)"/>
      <use xlink:href="#DejaVuSans-69" transform="translate(1810.042969 0)"/>
      <use xlink:href="#DejaVuSans-6e" transform="translate(1837.826172 0)"/>
      <use xlink:href="#DejaVuSans-20" transform="translate(1901.205078 0)"/>
      <use xlink:href="#DejaVuSans-28" transform="translate(1932.992188 0)"/>
      <use xlink:href="#DejaVuSans-63" transform="translate(1972.005859 0)"/>
      <use xlink:href="#DejaVuSans-6d" transform="translate(2026.986328 0)"/>
      <use xlink:href="#DejaVuSans-29" transform="translate(2124.398438 0)"/>
     </g>
    </g>
   </g>
   <g id="matplotlib.axis_2"/>
   <g id="line2d_9">
    <defs>
     <path id="m9f98c4d0d7" d="M 0 1.5 
C 0.397805 1.5 0.77937 1.341951 1.06066 1.06066 
C 1.341951 0.77937 1.5 0.397805 1.5 0 
C 1.5 -0.397805 1.341951 -0.77937 1.06066 -1.06066 
C 0.77937 -1.341951 0.397805 -1.5 0 -1.5 
C -0.397805 -1.5 -0.77937 -1.341951 -1.06066 -1.06066 
C -1.341951 -0.77937 -1.5 -0.397805 -1.5 0 
C -1.5 0.397805 -1.341951 0.77937 -1.06066 1.06066 
C -0.77937 1.341951 -0.397805 1.5 0 1.5 
z
" style="stroke: #1f77b4"/>
    </defs>
    <g clip-path="url(#p85f7b2387b)">
     <use xlink:href="#m9f98c4d0d7" x="45.490909" y="92.136307" style="fill: #1f77b4; stroke: #1f77b4"/>
     <use xlink:href="#m9f98c4d0d7" x="50.465046" y="92.136307" style="fill: #1f77b4; stroke: #1f77b4"/>
     <use xlink:href="#m9f98c4d0d7" x="55.439184" y="92.136307" style="fill: #1f77b4; stroke: #1f77b4"/>
     <use xlink:href="#m9f98c4d0d7" x="60.413321" y="92.136307" style="fill: #1f77b4; stroke: #1f77b4"/>
     <use xlink:href="#m9f98c4d0d7" x="65.387458" y="92.136307" style="fill: #1f77b4; stroke: #1f77b4"/>
     <use xlink:href="#m9f98c4d0d7" x="70.361596" y="92.136307" style="fill: #1f77b4; stroke: #1f77b4"/>
     <use xlink:href="#m9f98c4d0d7" x="75.335733" y="92.136307" style="fill: #1f77b4; stroke: #1f77b4"/>
     <use xlink:href="#m9f98c4d0d7" x="80.30987" y="92.136307" style="fill: #1f77b4; stroke: #1f77b4"/>
     <use xlink:href="#m9f98c4d0d7" x="85.284008" y="92.136307" style="fill: #1f77b4; stroke: #1f77b4"/>
     <use xlink:href="#m9f98c4d0d7" x="90.258145" y="92.136307" style="fill: #1f77b4; stroke: #1f77b4"/>
     <use xlink:href="#m9f98c4d0d7" x="95.232282" y="92.136307" style="fill: #1f77b4; stroke: #1f77b4"/>
     <use xlink:href="#m9f98c4d0d7" x="100.20642" y="92.136307" style="fill: #1f77b4; stroke: #1f77b4"/>
     <use xlink:href="#m9f98c4d0d7" x="105.180557" y="92.136307" style="fill: #1f77b4; stroke: #1f77b4"/>
     <use xlink:href="#m9f98c4d0d7" x="110.154694" y="92.136307" style="fill: #1f77b4; stroke: #1f77b4"/>
     <use xlink:href="#m9f98c4d0d7" x="115.128832" y="92.136307" style="fill: #1f77b4; stroke: #1f77b4"/>
     <use xlink:href="#m9f98c4d0d7" x="120.102969" y="92.136307" style="fill: #1f77b4; stroke: #1f77b4"/>
     <use xlink:href="#m9f98c4d0d7" x="125.077106" y="92.136307" style="fill: #1f77b4; stroke: #1f77b4"/>
     <use xlink:href="#m9f98c4d0d7" x="130.051244" y="92.136307" style="fill: #1f77b4; stroke: #1f77b4"/>
     <use xlink:href="#m9f98c4d0d7" x="135.025381" y="92.136307" style="fill: #1f77b4; stroke: #1f77b4"/>
     <use xlink:href="#m9f98c4d0d7" x="139.999518" y="92.136307" style="fill: #1f77b4; stroke: #1f77b4"/>
     <use xlink:href="#m9f98c4d0d7" x="144.973655" y="92.136307" style="fill: #1f77b4; stroke: #1f77b4"/>
     <use xlink:href="#m9f98c4d0d7" x="144.973655" y="92.136307" style="fill: #1f77b4; stroke: #1f77b4"/>
     <use xlink:href="#m9f98c4d0d7" x="145.017428" y="92.136307" style="fill: #1f77b4; stroke: #1f77b4"/>
     <use xlink:href="#m9f98c4d0d7" x="145.0612" y="92.136307" style="fill: #1f77b4; stroke: #1f77b4"/>
     <use xlink:href="#m9f98c4d0d7" x="145.104973" y="92.136307" style="fill: #1f77b4; stroke: #1f77b4"/>
     <use xlink:href="#m9f98c4d0d7" x="145.148745" y="92.136307" style="fill: #1f77b4; stroke: #1f77b4"/>
     <use xlink:href="#m9f98c4d0d7" x="145.192518" y="92.136307" style="fill: #1f77b4; stroke: #1f77b4"/>
     <use xlink:href="#m9f98c4d0d7" x="145.23629" y="92.136307" style="fill: #1f77b4; stroke: #1f77b4"/>
     <use xlink:href="#m9f98c4d0d7" x="145.280062" y="92.136307" style="fill: #1f77b4; stroke: #1f77b4"/>
     <use xlink:href="#m9f98c4d0d7" x="145.323835" y="92.136307" style="fill: #1f77b4; stroke: #1f77b4"/>
     <use xlink:href="#m9f98c4d0d7" x="145.367607" y="92.136307" style="fill: #1f77b4; stroke: #1f77b4"/>
     <use xlink:href="#m9f98c4d0d7" x="145.41138" y="92.136307" style="fill: #1f77b4; stroke: #1f77b4"/>
     <use xlink:href="#m9f98c4d0d7" x="145.41138" y="92.136307" style="fill: #1f77b4; stroke: #1f77b4"/>
     <use xlink:href="#m9f98c4d0d7" x="145.603978" y="92.136307" style="fill: #1f77b4; stroke: #1f77b4"/>
     <use xlink:href="#m9f98c4d0d7" x="145.796577" y="92.136307" style="fill: #1f77b4; stroke: #1f77b4"/>
     <use xlink:href="#m9f98c4d0d7" x="145.989175" y="92.136307" style="fill: #1f77b4; stroke: #1f77b4"/>
     <use xlink:href="#m9f98c4d0d7" x="146.181774" y="92.136307" style="fill: #1f77b4; stroke: #1f77b4"/>
     <use xlink:href="#m9f98c4d0d7" x="146.374373" y="92.136307" style="fill: #1f77b4; stroke: #1f77b4"/>
     <use xlink:href="#m9f98c4d0d7" x="146.566971" y="92.136307" style="fill: #1f77b4; stroke: #1f77b4"/>
     <use xlink:href="#m9f98c4d0d7" x="146.75957" y="92.136307" style="fill: #1f77b4; stroke: #1f77b4"/>
     <use xlink:href="#m9f98c4d0d7" x="146.952168" y="92.136307" style="fill: #1f77b4; stroke: #1f77b4"/>
     <use xlink:href="#m9f98c4d0d7" x="147.144767" y="92.136307" style="fill: #1f77b4; stroke: #1f77b4"/>
     <use xlink:href="#m9f98c4d0d7" x="147.337366" y="92.136307" style="fill: #1f77b4; stroke: #1f77b4"/>
     <use xlink:href="#m9f98c4d0d7" x="147.529964" y="92.136307" style="fill: #1f77b4; stroke: #1f77b4"/>
     <use xlink:href="#m9f98c4d0d7" x="147.722563" y="92.136307" style="fill: #1f77b4; stroke: #1f77b4"/>
     <use xlink:href="#m9f98c4d0d7" x="147.915161" y="92.136307" style="fill: #1f77b4; stroke: #1f77b4"/>
     <use xlink:href="#m9f98c4d0d7" x="148.10776" y="92.136307" style="fill: #1f77b4; stroke: #1f77b4"/>
     <use xlink:href="#m9f98c4d0d7" x="148.300359" y="92.136307" style="fill: #1f77b4; stroke: #1f77b4"/>
     <use xlink:href="#m9f98c4d0d7" x="148.492957" y="92.136307" style="fill: #1f77b4; stroke: #1f77b4"/>
     <use xlink:href="#m9f98c4d0d7" x="148.685556" y="92.136307" style="fill: #1f77b4; stroke: #1f77b4"/>
     <use xlink:href="#m9f98c4d0d7" x="148.878154" y="92.136307" style="fill: #1f77b4; stroke: #1f77b4"/>
     <use xlink:href="#m9f98c4d0d7" x="149.070753" y="92.136307" style="fill: #1f77b4; stroke: #1f77b4"/>
     <use xlink:href="#m9f98c4d0d7" x="149.263352" y="92.136307" style="fill: #1f77b4; stroke: #1f77b4"/>
     <use xlink:href="#m9f98c4d0d7" x="149.45595" y="92.136307" style="fill: #1f77b4; stroke: #1f77b4"/>
     <use xlink:href="#m9f98c4d0d7" x="149.648549" y="92.136307" style="fill: #1f77b4; stroke: #1f77b4"/>
     <use xlink:href="#m9f98c4d0d7" x="149.841147" y="92.136307" style="fill: #1f77b4; stroke: #1f77b4"/>
     <use xlink:href="#m9f98c4d0d7" x="150.033746" y="92.136307" style="fill: #1f77b4; stroke: #1f77b4"/>
     <use xlink:href="#m9f98c4d0d7" x="150.226345" y="92.136307" style="fill: #1f77b4; stroke: #1f77b4"/>
     <use xlink:href="#m9f98c4d0d7" x="150.418943" y="92.136307" style="fill: #1f77b4; stroke: #1f77b4"/>
     <use xlink:href="#m9f98c4d0d7" x="150.611542" y="92.136307" style="fill: #1f77b4; stroke: #1f77b4"/>
     <use xlink:href="#m9f98c4d0d7" x="150.80414" y="92.136307" style="fill: #1f77b4; stroke: #1f77b4"/>
     <use xlink:href="#m9f98c4d0d7" x="150.996739" y="92.136307" style="fill: #1f77b4; stroke: #1f77b4"/>
     <use xlink:href="#m9f98c4d0d7" x="151.189337" y="92.136307" style="fill: #1f77b4; stroke: #1f77b4"/>
     <use xlink:href="#m9f98c4d0d7" x="151.381936" y="92.136307" style="fill: #1f77b4; stroke: #1f77b4"/>
     <use xlink:href="#m9f98c4d0d7" x="151.574535" y="92.136307" style="fill: #1f77b4; stroke: #1f77b4"/>
     <use xlink:href="#m9f98c4d0d7" x="151.767133" y="92.136307" style="fill: #1f77b4; stroke: #1f77b4"/>
     <use xlink:href="#m9f98c4d0d7" x="151.959732" y="92.136307" style="fill: #1f77b4; stroke: #1f77b4"/>
     <use xlink:href="#m9f98c4d0d7" x="152.15233" y="92.136307" style="fill: #1f77b4; stroke: #1f77b4"/>
     <use xlink:href="#m9f98c4d0d7" x="152.344929" y="92.136307" style="fill: #1f77b4; stroke: #1f77b4"/>
     <use xlink:href="#m9f98c4d0d7" x="152.537528" y="92.136307" style="fill: #1f77b4; stroke: #1f77b4"/>
     <use xlink:href="#m9f98c4d0d7" x="152.730126" y="92.136307" style="fill: #1f77b4; stroke: #1f77b4"/>
     <use xlink:href="#m9f98c4d0d7" x="152.922725" y="92.136307" style="fill: #1f77b4; stroke: #1f77b4"/>
     <use xlink:href="#m9f98c4d0d7" x="153.115323" y="92.136307" style="fill: #1f77b4; stroke: #1f77b4"/>
     <use xlink:href="#m9f98c4d0d7" x="153.307922" y="92.136307" style="fill: #1f77b4; stroke: #1f77b4"/>
     <use xlink:href="#m9f98c4d0d7" x="153.500521" y="92.136307" style="fill: #1f77b4; stroke: #1f77b4"/>
     <use xlink:href="#m9f98c4d0d7" x="153.693119" y="92.136307" style="fill: #1f77b4; stroke: #1f77b4"/>
     <use xlink:href="#m9f98c4d0d7" x="153.885718" y="92.136307" style="fill: #1f77b4; stroke: #1f77b4"/>
     <use xlink:href="#m9f98c4d0d7" x="154.078316" y="92.136307" style="fill: #1f77b4; stroke: #1f77b4"/>
     <use xlink:href="#m9f98c4d0d7" x="154.270915" y="92.136307" style="fill: #1f77b4; stroke: #1f77b4"/>
     <use xlink:href="#m9f98c4d0d7" x="154.463514" y="92.136307" style="fill: #1f77b4; stroke: #1f77b4"/>
     <use xlink:href="#m9f98c4d0d7" x="154.656112" y="92.136307" style="fill: #1f77b4; stroke: #1f77b4"/>
     <use xlink:href="#m9f98c4d0d7" x="154.848711" y="92.136307" style="fill: #1f77b4; stroke: #1f77b4"/>
     <use xlink:href="#m9f98c4d0d7" x="155.041309" y="92.136307" style="fill: #1f77b4; stroke: #1f77b4"/>
     <use xlink:href="#m9f98c4d0d7" x="155.233908" y="92.136307" style="fill: #1f77b4; stroke: #1f77b4"/>
     <use xlink:href="#m9f98c4d0d7" x="155.426507" y="92.136307" style="fill: #1f77b4; stroke: #1f77b4"/>
     <use xlink:href="#m9f98c4d0d7" x="155.619105" y="92.136307" style="fill: #1f77b4; stroke: #1f77b4"/>
     <use xlink:href="#m9f98c4d0d7" x="155.811704" y="92.136307" style="fill: #1f77b4; stroke: #1f77b4"/>
     <use xlink:href="#m9f98c4d0d7" x="156.004302" y="92.136307" style="fill: #1f77b4; stroke: #1f77b4"/>
     <use xlink:href="#m9f98c4d0d7" x="156.196901" y="92.136307" style="fill: #1f77b4; stroke: #1f77b4"/>
     <use xlink:href="#m9f98c4d0d7" x="156.3895" y="92.136307" style="fill: #1f77b4; stroke: #1f77b4"/>
     <use xlink:href="#m9f98c4d0d7" x="156.582098" y="92.136307" style="fill: #1f77b4; stroke: #1f77b4"/>
     <use xlink:href="#m9f98c4d0d7" x="156.774697" y="92.136307" style="fill: #1f77b4; stroke: #1f77b4"/>
     <use xlink:href="#m9f98c4d0d7" x="156.967295" y="92.136307" style="fill: #1f77b4; stroke: #1f77b4"/>
     <use xlink:href="#m9f98c4d0d7" x="157.159894" y="92.136307" style="fill: #1f77b4; stroke: #1f77b4"/>
     <use xlink:href="#m9f98c4d0d7" x="157.352493" y="92.136307" style="fill: #1f77b4; stroke: #1f77b4"/>
     <use xlink:href="#m9f98c4d0d7" x="157.545091" y="92.136307" style="fill: #1f77b4; stroke: #1f77b4"/>
     <use xlink:href="#m9f98c4d0d7" x="157.73769" y="92.136307" style="fill: #1f77b4; stroke: #1f77b4"/>
     <use xlink:href="#m9f98c4d0d7" x="157.930288" y="92.136307" style="fill: #1f77b4; stroke: #1f77b4"/>
     <use xlink:href="#m9f98c4d0d7" x="158.122887" y="92.136307" style="fill: #1f77b4; stroke: #1f77b4"/>
     <use xlink:href="#m9f98c4d0d7" x="158.315486" y="92.136307" style="fill: #1f77b4; stroke: #1f77b4"/>
     <use xlink:href="#m9f98c4d0d7" x="158.508084" y="92.136307" style="fill: #1f77b4; stroke: #1f77b4"/>
     <use xlink:href="#m9f98c4d0d7" x="158.700683" y="92.136307" style="fill: #1f77b4; stroke: #1f77b4"/>
     <use xlink:href="#m9f98c4d0d7" x="158.893281" y="92.136307" style="fill: #1f77b4; stroke: #1f77b4"/>
     <use xlink:href="#m9f98c4d0d7" x="159.08588" y="92.136307" style="fill: #1f77b4; stroke: #1f77b4"/>
     <use xlink:href="#m9f98c4d0d7" x="159.278479" y="92.136307" style="fill: #1f77b4; stroke: #1f77b4"/>
     <use xlink:href="#m9f98c4d0d7" x="159.471077" y="92.136307" style="fill: #1f77b4; stroke: #1f77b4"/>
     <use xlink:href="#m9f98c4d0d7" x="159.663676" y="92.136307" style="fill: #1f77b4; stroke: #1f77b4"/>
     <use xlink:href="#m9f98c4d0d7" x="159.856274" y="92.136307" style="fill: #1f77b4; stroke: #1f77b4"/>
     <use xlink:href="#m9f98c4d0d7" x="160.048873" y="92.136307" style="fill: #1f77b4; stroke: #1f77b4"/>
     <use xlink:href="#m9f98c4d0d7" x="160.241472" y="92.136307" style="fill: #1f77b4; stroke: #1f77b4"/>
     <use xlink:href="#m9f98c4d0d7" x="160.43407" y="92.136307" style="fill: #1f77b4; stroke: #1f77b4"/>
     <use xlink:href="#m9f98c4d0d7" x="160.626669" y="92.136307" style="fill: #1f77b4; stroke: #1f77b4"/>
     <use xlink:href="#m9f98c4d0d7" x="160.819267" y="92.136307" style="fill: #1f77b4; stroke: #1f77b4"/>
     <use xlink:href="#m9f98c4d0d7" x="161.011866" y="92.136307" style="fill: #1f77b4; stroke: #1f77b4"/>
     <use xlink:href="#m9f98c4d0d7" x="161.204465" y="92.136307" style="fill: #1f77b4; stroke: #1f77b4"/>
     <use xlink:href="#m9f98c4d0d7" x="161.397063" y="92.136307" style="fill: #1f77b4; stroke: #1f77b4"/>
     <use xlink:href="#m9f98c4d0d7" x="161.589662" y="92.136307" style="fill: #1f77b4; stroke: #1f77b4"/>
     <use xlink:href="#m9f98c4d0d7" x="161.78226" y="92.136307" style="fill: #1f77b4; stroke: #1f77b4"/>
     <use xlink:href="#m9f98c4d0d7" x="161.974859" y="92.136307" style="fill: #1f77b4; stroke: #1f77b4"/>
     <use xlink:href="#m9f98c4d0d7" x="162.167458" y="92.136307" style="fill: #1f77b4; stroke: #1f77b4"/>
     <use xlink:href="#m9f98c4d0d7" x="162.360056" y="92.136307" style="fill: #1f77b4; stroke: #1f77b4"/>
     <use xlink:href="#m9f98c4d0d7" x="162.552655" y="92.136307" style="fill: #1f77b4; stroke: #1f77b4"/>
     <use xlink:href="#m9f98c4d0d7" x="162.745253" y="92.136307" style="fill: #1f77b4; stroke: #1f77b4"/>
     <use xlink:href="#m9f98c4d0d7" x="162.937852" y="92.136307" style="fill: #1f77b4; stroke: #1f77b4"/>
     <use xlink:href="#m9f98c4d0d7" x="163.130451" y="92.136307" style="fill: #1f77b4; stroke: #1f77b4"/>
     <use xlink:href="#m9f98c4d0d7" x="163.323049" y="92.136307" style="fill: #1f77b4; stroke: #1f77b4"/>
     <use xlink:href="#m9f98c4d0d7" x="163.515648" y="92.136307" style="fill: #1f77b4; stroke: #1f77b4"/>
     <use xlink:href="#m9f98c4d0d7" x="163.708246" y="92.136307" style="fill: #1f77b4; stroke: #1f77b4"/>
     <use xlink:href="#m9f98c4d0d7" x="163.900845" y="92.136307" style="fill: #1f77b4; stroke: #1f77b4"/>
     <use xlink:href="#m9f98c4d0d7" x="164.093443" y="92.136307" style="fill: #1f77b4; stroke: #1f77b4"/>
     <use xlink:href="#m9f98c4d0d7" x="164.286042" y="92.136307" style="fill: #1f77b4; stroke: #1f77b4"/>
     <use xlink:href="#m9f98c4d0d7" x="164.478641" y="92.136307" style="fill: #1f77b4; stroke: #1f77b4"/>
     <use xlink:href="#m9f98c4d0d7" x="164.671239" y="92.136307" style="fill: #1f77b4; stroke: #1f77b4"/>
     <use xlink:href="#m9f98c4d0d7" x="164.671239" y="92.136307" style="fill: #1f77b4; stroke: #1f77b4"/>
     <use xlink:href="#m9f98c4d0d7" x="186.225834" y="92.136307" style="fill: #1f77b4; stroke: #1f77b4"/>
     <use xlink:href="#m9f98c4d0d7" x="207.780429" y="92.136307" style="fill: #1f77b4; stroke: #1f77b4"/>
     <use xlink:href="#m9f98c4d0d7" x="229.335024" y="92.136307" style="fill: #1f77b4; stroke: #1f77b4"/>
     <use xlink:href="#m9f98c4d0d7" x="250.889619" y="92.136307" style="fill: #1f77b4; stroke: #1f77b4"/>
     <use xlink:href="#m9f98c4d0d7" x="272.444215" y="92.136307" style="fill: #1f77b4; stroke: #1f77b4"/>
     <use xlink:href="#m9f98c4d0d7" x="293.99881" y="92.136307" style="fill: #1f77b4; stroke: #1f77b4"/>
     <use xlink:href="#m9f98c4d0d7" x="315.553405" y="92.136307" style="fill: #1f77b4; stroke: #1f77b4"/>
     <use xlink:href="#m9f98c4d0d7" x="337.108" y="92.136307" style="fill: #1f77b4; stroke: #1f77b4"/>
     <use xlink:href="#m9f98c4d0d7" x="358.662595" y="92.136307" style="fill: #1f77b4; stroke: #1f77b4"/>
     <use xlink:href="#m9f98c4d0d7" x="380.21719" y="92.136307" style="fill: #1f77b4; stroke: #1f77b4"/>
     <use xlink:href="#m9f98c4d0d7" x="401.771785" y="92.136307" style="fill: #1f77b4; stroke: #1f77b4"/>
     <use xlink:href="#m9f98c4d0d7" x="423.32638" y="92.136307" style="fill: #1f77b4; stroke: #1f77b4"/>
     <use xlink:href="#m9f98c4d0d7" x="444.880975" y="92.136307" style="fill: #1f77b4; stroke: #1f77b4"/>
     <use xlink:href="#m9f98c4d0d7" x="466.43557" y="92.136307" style="fill: #1f77b4; stroke: #1f77b4"/>
     <use xlink:href="#m9f98c4d0d7" x="487.990165" y="92.136307" style="fill: #1f77b4; stroke: #1f77b4"/>
     <use xlink:href="#m9f98c4d0d7" x="509.54476" y="92.136307" style="fill: #1f77b4; stroke: #1f77b4"/>
     <use xlink:href="#m9f98c4d0d7" x="531.099355" y="92.136307" style="fill: #1f77b4; stroke: #1f77b4"/>
     <use xlink:href="#m9f98c4d0d7" x="552.65395" y="92.136307" style="fill: #1f77b4; stroke: #1f77b4"/>
     <use xlink:href="#m9f98c4d0d7" x="574.208545" y="92.136307" style="fill: #1f77b4; stroke: #1f77b4"/>
     <use xlink:href="#m9f98c4d0d7" x="595.76314" y="92.136307" style="fill: #1f77b4; stroke: #1f77b4"/>
     <use xlink:href="#m9f98c4d0d7" x="617.317735" y="92.136307" style="fill: #1f77b4; stroke: #1f77b4"/>
     <use xlink:href="#m9f98c4d0d7" x="638.87233" y="92.136307" style="fill: #1f77b4; stroke: #1f77b4"/>
     <use xlink:href="#m9f98c4d0d7" x="660.426926" y="92.136307" style="fill: #1f77b4; stroke: #1f77b4"/>
     <use xlink:href="#m9f98c4d0d7" x="681.981521" y="92.136307" style="fill: #1f77b4; stroke: #1f77b4"/>
     <use xlink:href="#m9f98c4d0d7" x="703.536116" y="92.136307" style="fill: #1f77b4; stroke: #1f77b4"/>
     <use xlink:href="#m9f98c4d0d7" x="725.090711" y="92.136307" style="fill: #1f77b4; stroke: #1f77b4"/>
     <use xlink:href="#m9f98c4d0d7" x="746.645306" y="92.136307" style="fill: #1f77b4; stroke: #1f77b4"/>
     <use xlink:href="#m9f98c4d0d7" x="768.199901" y="92.136307" style="fill: #1f77b4; stroke: #1f77b4"/>
     <use xlink:href="#m9f98c4d0d7" x="789.754496" y="92.136307" style="fill: #1f77b4; stroke: #1f77b4"/>
     <use xlink:href="#m9f98c4d0d7" x="811.309091" y="92.136307" style="fill: #1f77b4; stroke: #1f77b4"/>
    </g>
   </g>
   <g id="line2d_10">
    <path d="M 45.490909 143.876307 
L 45.490909 40.396307 
" clip-path="url(#p85f7b2387b)" style="fill: none; stroke-dasharray: 3.7,1.6; stroke-dashoffset: 0; stroke: #1f77b4"/>
   </g>
   <g id="line2d_11">
    <path d="M 144.973655 143.876307 
L 144.973655 40.396307 
" clip-path="url(#p85f7b2387b)" style="fill: none; stroke-dasharray: 3.7,1.6; stroke-dashoffset: 0; stroke: #1f77b4"/>
   </g>
   <g id="line2d_12">
    <path d="M 144.973655 143.876307 
L 144.973655 40.396307 
" clip-path="url(#p85f7b2387b)" style="fill: none; stroke-dasharray: 3.7,1.6; stroke-dashoffset: 0; stroke: #1f77b4"/>
   </g>
   <g id="line2d_13">
    <path d="M 145.41138 143.876307 
L 145.41138 40.396307 
" clip-path="url(#p85f7b2387b)" style="fill: none; stroke-dasharray: 3.7,1.6; stroke-dashoffset: 0; stroke: #1f77b4"/>
   </g>
   <g id="line2d_14">
    <path d="M 145.41138 143.876307 
L 145.41138 40.396307 
" clip-path="url(#p85f7b2387b)" style="fill: none; stroke-dasharray: 3.7,1.6; stroke-dashoffset: 0; stroke: #1f77b4"/>
   </g>
   <g id="line2d_15">
    <path d="M 164.671239 143.876307 
L 164.671239 40.396307 
" clip-path="url(#p85f7b2387b)" style="fill: none; stroke-dasharray: 3.7,1.6; stroke-dashoffset: 0; stroke: #1f77b4"/>
   </g>
   <g id="line2d_16">
    <path d="M 164.671239 143.876307 
L 164.671239 40.396307 
" clip-path="url(#p85f7b2387b)" style="fill: none; stroke-dasharray: 3.7,1.6; stroke-dashoffset: 0; stroke: #1f77b4"/>
   </g>
   <g id="line2d_17">
    <path d="M 811.309091 143.876307 
L 811.309091 40.396307 
" clip-path="url(#p85f7b2387b)" style="fill: none; stroke-dasharray: 3.7,1.6; stroke-dashoffset: 0; stroke: #1f77b4"/>
   </g>
   <g id="patch_3">
    <path d="M 7.2 143.876307 
L 849.6 143.876307 
" style="fill: none; stroke: #000000; stroke-width: 0.8; stroke-linejoin: miter; stroke-linecap: square"/>
   </g>
   <g id="text_10">
    <!-- Donor -->
    <g transform="translate(80.039314 14.798437) scale(0.1 -0.1)">
     <defs>
      <path id="DejaVuSans-44" d="M 1259 4147 
L 1259 519 
L 2022 519 
Q 2988 519 3436 956 
Q 3884 1394 3884 2338 
Q 3884 3275 3436 3711 
Q 2988 4147 2022 4147 
L 1259 4147 
z
M 628 4666 
L 1925 4666 
Q 3281 4666 3915 4102 
Q 4550 3538 4550 2338 
Q 4550 1131 3912 565 
Q 3275 0 1925 0 
L 628 0 
L 628 4666 
z
" transform="scale(0.015625)"/>
     </defs>
     <use xlink:href="#DejaVuSans-44"/>
     <use xlink:href="#DejaVuSans-6f" transform="translate(77.001953 0)"/>
     <use xlink:href="#DejaVuSans-6e" transform="translate(138.183594 0)"/>
     <use xlink:href="#DejaVuSans-6f" transform="translate(201.5625 0)"/>
     <use xlink:href="#DejaVuSans-72" transform="translate(262.744141 0)"/>
    </g>
   </g>
   <g id="text_11">
    <!-- SC -->
    <g transform="translate(138.526893 14.798437) scale(0.1 -0.1)">
     <defs>
      <path id="DejaVuSans-53" d="M 3425 4513 
L 3425 3897 
Q 3066 4069 2747 4153 
Q 2428 4238 2131 4238 
Q 1616 4238 1336 4038 
Q 1056 3838 1056 3469 
Q 1056 3159 1242 3001 
Q 1428 2844 1947 2747 
L 2328 2669 
Q 3034 2534 3370 2195 
Q 3706 1856 3706 1288 
Q 3706 609 3251 259 
Q 2797 -91 1919 -91 
Q 1588 -91 1214 -16 
Q 841 59 441 206 
L 441 856 
Q 825 641 1194 531 
Q 1563 422 1919 422 
Q 2459 422 2753 634 
Q 3047 847 3047 1241 
Q 3047 1584 2836 1778 
Q 2625 1972 2144 2069 
L 1759 2144 
Q 1053 2284 737 2584 
Q 422 2884 422 3419 
Q 422 4038 858 4394 
Q 1294 4750 2059 4750 
Q 2388 4750 2728 4690 
Q 3069 4631 3425 4513 
z
" transform="scale(0.015625)"/>
      <path id="DejaVuSans-43" d="M 4122 4306 
L 4122 3641 
Q 3803 3938 3442 4084 
Q 3081 4231 2675 4231 
Q 1875 4231 1450 3742 
Q 1025 3253 1025 2328 
Q 1025 1406 1450 917 
Q 1875 428 2675 428 
Q 3081 428 3442 575 
Q 3803 722 4122 1019 
L 4122 359 
Q 3791 134 3420 21 
Q 3050 -91 2638 -91 
Q 1578 -91 968 557 
Q 359 1206 359 2328 
Q 359 3453 968 4101 
Q 1578 4750 2638 4750 
Q 3056 4750 3426 4639 
Q 3797 4528 4122 4306 
z
" transform="scale(0.015625)"/>
     </defs>
     <use xlink:href="#DejaVuSans-53"/>
     <use xlink:href="#DejaVuSans-43" transform="translate(63.476562 0)"/>
    </g>
   </g>
   <g id="text_12">
    <!-- EP/dermis -->
    <g transform="translate(130.099903 14.798437) scale(0.1 -0.1)">
     <defs>
      <path id="DejaVuSans-45" d="M 628 4666 
L 3578 4666 
L 3578 4134 
L 1259 4134 
L 1259 2753 
L 3481 2753 
L 3481 2222 
L 1259 2222 
L 1259 531 
L 3634 531 
L 3634 0 
L 628 0 
L 628 4666 
z
" transform="scale(0.015625)"/>
      <path id="DejaVuSans-2f" d="M 1625 4666 
L 2156 4666 
L 531 -594 
L 0 -594 
L 1625 4666 
z
" transform="scale(0.015625)"/>
      <path id="DejaVuSans-65" d="M 3597 1894 
L 3597 1613 
L 953 1613 
Q 991 1019 1311 708 
Q 1631 397 2203 397 
Q 2534 397 2845 478 
Q 3156 559 3463 722 
L 3463 178 
Q 3153 47 2828 -22 
Q 2503 -91 2169 -91 
Q 1331 -91 842 396 
Q 353 884 353 1716 
Q 353 2575 817 3079 
Q 1281 3584 2069 3584 
Q 2775 3584 3186 3129 
Q 3597 2675 3597 1894 
z
M 3022 2063 
Q 3016 2534 2758 2815 
Q 2500 3097 2075 3097 
Q 1594 3097 1305 2825 
Q 1016 2553 972 2059 
L 3022 2063 
z
" transform="scale(0.015625)"/>
     </defs>
     <use xlink:href="#DejaVuSans-45"/>
     <use xlink:href="#DejaVuSans-50" transform="translate(63.183594 0)"/>
     <use xlink:href="#DejaVuSans-2f" transform="translate(123.486328 0)"/>
     <use xlink:href="#DejaVuSans-64" transform="translate(157.177734 0)"/>
     <use xlink:href="#DejaVuSans-65" transform="translate(220.654297 0)"/>
     <use xlink:href="#DejaVuSans-72" transform="translate(282.177734 0)"/>
     <use xlink:href="#DejaVuSans-6d" transform="translate(321.541016 0)"/>
     <use xlink:href="#DejaVuSans-69" transform="translate(418.953125 0)"/>
     <use xlink:href="#DejaVuSans-73" transform="translate(446.736328 0)"/>
    </g>
   </g>
   <g id="text_13">
    <!-- Receptor -->
    <g transform="translate(465.589384 14.798437) scale(0.1 -0.1)">
     <defs>
      <path id="DejaVuSans-52" d="M 2841 2188 
Q 3044 2119 3236 1894 
Q 3428 1669 3622 1275 
L 4263 0 
L 3584 0 
L 2988 1197 
Q 2756 1666 2539 1819 
Q 2322 1972 1947 1972 
L 1259 1972 
L 1259 0 
L 628 0 
L 628 4666 
L 2053 4666 
Q 2853 4666 3247 4331 
Q 3641 3997 3641 3322 
Q 3641 2881 3436 2590 
Q 3231 2300 2841 2188 
z
M 1259 4147 
L 1259 2491 
L 2053 2491 
Q 2509 2491 2742 2702 
Q 2975 2913 2975 3322 
Q 2975 3731 2742 3939 
Q 2509 4147 2053 4147 
L 1259 4147 
z
" transform="scale(0.015625)"/>
     </defs>
     <use xlink:href="#DejaVuSans-52"/>
     <use xlink:href="#DejaVuSans-65" transform="translate(64.982422 0)"/>
     <use xlink:href="#DejaVuSans-63" transform="translate(126.505859 0)"/>
     <use xlink:href="#DejaVuSans-65" transform="translate(181.486328 0)"/>
     <use xlink:href="#DejaVuSans-70" transform="translate(243.009766 0)"/>
     <use xlink:href="#DejaVuSans-74" transform="translate(306.486328 0)"/>
     <use xlink:href="#DejaVuSans-6f" transform="translate(345.695312 0)"/>
     <use xlink:href="#DejaVuSans-72" transform="translate(406.876953 0)"/>
    </g>
   </g>
   <g id="text_14">
    <!-- Four-layer computational FEM geometry -->
    <g transform="translate(307.880625 34.396307) scale(0.12 -0.12)">
     <defs>
      <path id="DejaVuSans-46" d="M 628 4666 
L 3309 4666 
L 3309 4134 
L 1259 4134 
L 1259 2759 
L 3109 2759 
L 3109 2228 
L 1259 2228 
L 1259 0 
L 628 0 
L 628 4666 
z
" transform="scale(0.015625)"/>
      <path id="DejaVuSans-2d" d="M 313 2009 
L 1997 2009 
L 1997 1497 
L 313 1497 
L 313 2009 
z
" transform="scale(0.015625)"/>
      <path id="DejaVuSans-79" d="M 2059 -325 
Q 1816 -950 1584 -1140 
Q 1353 -1331 966 -1331 
L 506 -1331 
L 506 -850 
L 844 -850 
Q 1081 -850 1212 -737 
Q 1344 -625 1503 -206 
L 1606 56 
L 191 3500 
L 800 3500 
L 1894 763 
L 2988 3500 
L 3597 3500 
L 2059 -325 
z
" transform="scale(0.015625)"/>
      <path id="DejaVuSans-4d" d="M 628 4666 
L 1569 4666 
L 2759 1491 
L 3956 4666 
L 4897 4666 
L 4897 0 
L 4281 0 
L 4281 4097 
L 3078 897 
L 2444 897 
L 1241 4097 
L 1241 0 
L 628 0 
L 628 4666 
z
" transform="scale(0.015625)"/>
      <path id="DejaVuSans-67" d="M 2906 1791 
Q 2906 2416 2648 2759 
Q 2391 3103 1925 3103 
Q 1463 3103 1205 2759 
Q 947 2416 947 1791 
Q 947 1169 1205 825 
Q 1463 481 1925 481 
Q 2391 481 2648 825 
Q 2906 1169 2906 1791 
z
M 3481 434 
Q 3481 -459 3084 -895 
Q 2688 -1331 1869 -1331 
Q 1566 -1331 1297 -1286 
Q 1028 -1241 775 -1147 
L 775 -588 
Q 1028 -725 1275 -790 
Q 1522 -856 1778 -856 
Q 2344 -856 2625 -561 
Q 2906 -266 2906 331 
L 2906 616 
Q 2728 306 2450 153 
Q 2172 0 1784 0 
Q 1141 0 747 490 
Q 353 981 353 1791 
Q 353 2603 747 3093 
Q 1141 3584 1784 3584 
Q 2172 3584 2450 3431 
Q 2728 3278 2906 2969 
L 2906 3500 
L 3481 3500 
L 3481 434 
z
" transform="scale(0.015625)"/>
     </defs>
     <use xlink:href="#DejaVuSans-46"/>
     <use xlink:href="#DejaVuSans-6f" transform="translate(53.894531 0)"/>
     <use xlink:href="#DejaVuSans-75" transform="translate(115.076172 0)"/>
     <use xlink:href="#DejaVuSans-72" transform="translate(178.455078 0)"/>
     <use xlink:href="#DejaVuSans-2d" transform="translate(213.193359 0)"/>
     <use xlink:href="#DejaVuSans-6c" transform="translate(249.277344 0)"/>
     <use xlink:href="#DejaVuSans-61" transform="translate(277.060547 0)"/>
     <use xlink:href="#DejaVuSans-79" transform="translate(338.339844 0)"/>
     <use xlink:href="#DejaVuSans-65" transform="translate(397.519531 0)"/>
     <use xlink:href="#DejaVuSans-72" transform="translate(459.042969 0)"/>
     <use xlink:href="#DejaVuSans-20" transform="translate(500.15625 0)"/>
     <use xlink:href="#DejaVuSans-63" transform="translate(531.943359 0)"/>
     <use xlink:href="#DejaVuSans-6f" transform="translate(586.923828 0)"/>
     <use xlink:href="#DejaVuSans-6d" transform="translate(648.105469 0)"/>
     <use xlink:href="#DejaVuSans-70" transform="translate(745.517578 0)"/>
     <use xlink:href="#DejaVuSans-75" transform="translate(808.994141 0)"/>
     <use xlink:href="#DejaVuSans-74" transform="translate(872.373047 0)"/>
     <use xlink:href="#DejaVuSans-61" transform="translate(911.582031 0)"/>
     <use xlink:href="#DejaVuSans-74" transform="translate(972.861328 0)"/>
     <use xlink:href="#DejaVuSans-69" transform="translate(1012.070312 0)"/>
     <use xlink:href="#DejaVuSans-6f" transform="translate(1039.853516 0)"/>
     <use xlink:href="#DejaVuSans-6e" transform="translate(1101.035156 0)"/>
     <use xlink:href="#DejaVuSans-61" transform="translate(1164.414062 0)"/>
     <use xlink:href="#DejaVuSans-6c" transform="translate(1225.693359 0)"/>
     <use xlink:href="#DejaVuSans-20" transform="translate(1253.476562 0)"/>
     <use xlink:href="#DejaVuSans-46" transform="translate(1285.263672 0)"/>
     <use xlink:href="#DejaVuSans-45" transform="translate(1342.783203 0)"/>
     <use xlink:href="#DejaVuSans-4d" transform="translate(1405.966797 0)"/>
     <use xlink:href="#DejaVuSans-20" transform="translate(1492.246094 0)"/>
     <use xlink:href="#DejaVuSans-67" transform="translate(1524.033203 0)"/>
     <use xlink:href="#DejaVuSans-65" transform="translate(1587.509766 0)"/>
     <use xlink:href="#DejaVuSans-6f" transform="translate(1649.033203 0)"/>
     <use xlink:href="#DejaVuSans-6d" transform="translate(1710.214844 0)"/>
     <use xlink:href="#DejaVuSans-65" transform="translate(1807.626953 0)"/>
     <use xlink:href="#DejaVuSans-74" transform="translate(1869.150391 0)"/>
     <use xlink:href="#DejaVuSans-72" transform="translate(1908.359375 0)"/>
     <use xlink:href="#DejaVuSans-79" transform="translate(1949.472656 0)"/>
    </g>
   </g>
  </g>
 </g>
 <defs>
  <clipPath id="p85f7b2387b">
   <rect x="7.2" y="40.396307" width="842.4" height="103.48"/>
  </clipPath>
 </defs>
</svg>
