<?xml version="1.0" encoding="utf-8" standalone="no"?>
<!DOCTYPE svg PUBLIC "-//W3C//DTD SVG 1.1//EN"
  "http://www.w3.org/Graphics/SVG/1.1/DTD/svg11.dtd">
<svg xmlns:xlink="http://www.w3.org/1999/xlink" width="928.495625pt" height="373.59625pt" viewBox="0 0 928.495625 373.59625" xmlns="http://www.w3.org/2000/svg" version="1.1">
 <metadata>
  <rdf:RDF xmlns:dc="http://purl.org/dc/elements/1.1/" xmlns:cc="http://creativecommons.org/ns#" xmlns:rdf="http://www.w3.org/1999/02/22-rdf-syntax-ns#">
   <cc:Work>
    <dc:type rdf:resource="http://purl.org/dc/dcmitype/StillImage"/>
    <dc:date>2026-07-15T17:58:52.688530</dc:date>
    <dc:format>image/svg+xml</dc:format>
    <dc:creator>
     <cc:Agent>
      <dc:title>Matplotlib v3.10.8, https://matplotlib.org/</dc:title>
     </cc:Agent>
    </dc:creator>
   </cc:Work>
  </rdf:RDF>
 </metadata>
 <defs>
  <style type="text/css">*{stroke-linejoin: round; stroke-linecap: butt}</style>
 </defs>
 <g id="figure_1">
  <g id="patch_1">
   <path d="M 0 373.59625 
L 928.495625 373.59625 
L 928.495625 0 
L 0 0 
z
" style="fill: #ffffff"/>
  </g>
  <g id="axes_1">
   <g id="patch_2">
    <path d="M 46.965625 336.04 
L 455.545625 336.04 
L 455.545625 68.64 
L 46.965625 68.64 
z
" style="fill: #ffffff"/>
   </g>
   <g id="matplotlib.axis_1">
    <g id="xtick_1">
     <g id="line2d_1">
      <defs>
       <path id="mf84d50a43a" d="M 0 0 
L 0 3.5 
" style="stroke: #000000; stroke-width: 0.8"/>
      </defs>
      <g>
       <use xlink:href="#mf84d50a43a" x="65.537443" y="336.04" style="stroke: #000000; stroke-width: 0.8"/>
      </g>
     </g>
     <g id="text_1">
      <!-- 0 -->
      <g transform="translate(62.356193 350.638437) scale(0.1 -0.1)">
       <defs>
        <path id="DejaVuSans-30" d="M 2034 4250 
Q 1547 4250 1301 3770 
Q 1056 3291 1056 2328 
Q 1056 1369 1301 889 
Q 1547 409 2034 409 
Q 2525 409 2770 889 
Q 3016 1369 3016 2328 
Q 3016 3291 2770 3770 
Q 2525 4250 2034 4250 
z
M 2034 4750 
Q 2819 4750 3233 4129 
Q 3647 3509 3647 2328 
Q 3647 1150 3233 529 
Q 2819 -91 2034 -91 
Q 1250 -91 836 529 
Q 422 1150 422 2328 
Q 422 3509 836 4129 
Q 1250 4750 2034 4750 
z
" transform="scale(0.015625)"/>
       </defs>
       <use xlink:href="#DejaVuSans-30"/>
      </g>
     </g>
    </g>
    <g id="xtick_2">
     <g id="line2d_2">
      <g>
       <use xlink:href="#mf84d50a43a" x="148.078857" y="336.04" style="stroke: #000000; stroke-width: 0.8"/>
      </g>
     </g>
     <g id="text_2">
      <!-- 200 -->
      <g transform="translate(138.535107 350.638437) scale(0.1 -0.1)">
       <defs>
        <path id="DejaVuSans-32" d="M 1228 531 
L 3431 531 
L 3431 0 
L 469 0 
L 469 531 
Q 828 903 1448 1529 
Q 2069 2156 2228 2338 
Q 2531 2678 2651 2914 
Q 2772 3150 2772 3378 
Q 2772 3750 2511 3984 
Q 2250 4219 1831 4219 
Q 1534 4219 1204 4116 
Q 875 4013 500 3803 
L 500 4441 
Q 881 4594 1212 4672 
Q 1544 4750 1819 4750 
Q 2544 4750 2975 4387 
Q 3406 4025 3406 3419 
Q 3406 3131 3298 2873 
Q 3191 2616 2906 2266 
Q 2828 2175 2409 1742 
Q 1991 1309 1228 531 
z
" transform="scale(0.015625)"/>
       </defs>
       <use xlink:href="#DejaVuSans-32"/>
       <use xlink:href="#DejaVuSans-30" transform="translate(63.623047 0)"/>
       <use xlink:href="#DejaVuSans-30" transform="translate(127.246094 0)"/>
      </g>
     </g>
    </g>
    <g id="xtick_3">
     <g id="line2d_3">
      <g>
       <use xlink:href="#mf84d50a43a" x="230.620271" y="336.04" style="stroke: #000000; stroke-width: 0.8"/>
      </g>
     </g>
     <g id="text_3">
      <!-- 400 -->
      <g transform="translate(221.076521 350.638437) scale(0.1 -0.1)">
       <defs>
        <path id="DejaVuSans-34" d="M 2419 4116 
L 825 1625 
L 2419 1625 
L 2419 4116 
z
M 2253 4666 
L 3047 4666 
L 3047 1625 
L 3713 1625 
L 3713 1100 
L 3047 1100 
L 3047 0 
L 2419 0 
L 2419 1100 
L 313 1100 
L 313 1709 
L 2253 4666 
z
" transform="scale(0.015625)"/>
       </defs>
       <use xlink:href="#DejaVuSans-34"/>
       <use xlink:href="#DejaVuSans-30" transform="translate(63.623047 0)"/>
       <use xlink:href="#DejaVuSans-30" transform="translate(127.246094 0)"/>
      </g>
     </g>
    </g>
    <g id="xtick_4">
     <g id="line2d_4">
      <g>
       <use xlink:href="#mf84d50a43a" x="313.161686" y="336.04" style="stroke: #000000; stroke-width: 0.8"/>
      </g>
     </g>
     <g id="text_4">
      <!-- 600 -->
      <g transform="translate(303.617936 350.638437) scale(0.1 -0.1)">
       <defs>
        <path id="DejaVuSans-36" d="M 2113 2584 
Q 1688 2584 1439 2293 
Q 1191 2003 1191 1497 
Q 1191 994 1439 701 
Q 1688 409 2113 409 
Q 2538 409 2786 701 
Q 3034 994 3034 1497 
Q 3034 2003 2786 2293 
Q 2538 2584 2113 2584 
z
M 3366 4563 
L 3366 3988 
Q 3128 4100 2886 4159 
Q 2644 4219 2406 4219 
Q 1781 4219 1451 3797 
Q 1122 3375 1075 2522 
Q 1259 2794 1537 2939 
Q 1816 3084 2150 3084 
Q 2853 3084 3261 2657 
Q 3669 2231 3669 1497 
Q 3669 778 3244 343 
Q 2819 -91 2113 -91 
Q 1303 -91 875 529 
Q 447 1150 447 2328 
Q 447 3434 972 4092 
Q 1497 4750 2381 4750 
Q 2619 4750 2861 4703 
Q 3103 4656 3366 4563 
z
" transform="scale(0.015625)"/>
       </defs>
       <use xlink:href="#DejaVuSans-36"/>
       <use xlink:href="#DejaVuSans-30" transform="translate(63.623047 0)"/>
       <use xlink:href="#DejaVuSans-30" transform="translate(127.246094 0)"/>
      </g>
     </g>
    </g>
    <g id="xtick_5">
     <g id="line2d_5">
      <g>
       <use xlink:href="#mf84d50a43a" x="395.7031" y="336.04" style="stroke: #000000; stroke-width: 0.8"/>
      </g>
     </g>
     <g id="text_5">
      <!-- 800 -->
      <g transform="translate(386.15935 350.638437) scale(0.1 -0.1)">
       <defs>
        <path id="DejaVuSans-38" d="M 2034 2216 
Q 1584 2216 1326 1975 
Q 1069 1734 1069 1313 
Q 1069 891 1326 650 
Q 1584 409 2034 409 
Q 2484 409 2743 651 
Q 3003 894 3003 1313 
Q 3003 1734 2745 1975 
Q 2488 2216 2034 2216 
z
M 1403 2484 
Q 997 2584 770 2862 
Q 544 3141 544 3541 
Q 544 4100 942 4425 
Q 1341 4750 2034 4750 
Q 2731 4750 3128 4425 
Q 3525 4100 3525 3541 
Q 3525 3141 3298 2862 
Q 3072 2584 2669 2484 
Q 3125 2378 3379 2068 
Q 3634 1759 3634 1313 
Q 3634 634 3220 271 
Q 2806 -91 2034 -91 
Q 1263 -91 848 271 
Q 434 634 434 1313 
Q 434 1759 690 2068 
Q 947 2378 1403 2484 
z
M 1172 3481 
Q 1172 3119 1398 2916 
Q 1625 2713 2034 2713 
Q 2441 2713 2670 2916 
Q 2900 3119 2900 3481 
Q 2900 3844 2670 4047 
Q 2441 4250 2034 4250 
Q 1625 4250 1398 4047 
Q 1172 3844 1172 3481 
z
" transform="scale(0.015625)"/>
       </defs>
       <use xlink:href="#DejaVuSans-38"/>
       <use xlink:href="#DejaVuSans-30" transform="translate(63.623047 0)"/>
       <use xlink:href="#DejaVuSans-30" transform="translate(127.246094 0)"/>
      </g>
     </g>
    </g>
    <g id="text_6">
     <!-- Position across skin domain (µm) -->
     <g transform="translate(168.673594 364.316562) scale(0.1 -0.1)">
      <defs>
       <path id="DejaVuSans-50" d="M 1259 4147 
L 1259 2394 
L 2053 2394 
Q 2494 2394 2734 2622 
Q 2975 2850 2975 3272 
Q 2975 3691 2734 3919 
Q 2494 4147 2053 4147 
L 1259 4147 
z
M 628 4666 
L 2053 4666 
Q 2838 4666 3239 4311 
Q 3641 3956 3641 3272 
Q 3641 2581 3239 2228 
Q 2838 1875 2053 1875 
L 1259 1875 
L 1259 0 
L 628 0 
L 628 4666 
z
" transform="scale(0.015625)"/>
       <path id="DejaVuSans-6f" d="M 1959 3097 
Q 1497 3097 1228 2736 
Q 959 2375 959 1747 
Q 959 1119 1226 758 
Q 1494 397 1959 397 
Q 2419 397 2687 759 
Q 2956 1122 2956 1747 
Q 2956 2369 2687 2733 
Q 2419 3097 1959 3097 
z
M 1959 3584 
Q 2709 3584 3137 3096 
Q 3566 2609 3566 1747 
Q 3566 888 3137 398 
Q 2709 -91 1959 -91 
Q 1206 -91 779 398 
Q 353 888 353 1747 
Q 353 2609 779 3096 
Q 1206 3584 1959 3584 
z
" transform="scale(0.015625)"/>
       <path id="DejaVuSans-73" d="M 2834 3397 
L 2834 2853 
Q 2591 2978 2328 3040 
Q 2066 3103 1784 3103 
Q 1356 3103 1142 2972 
Q 928 2841 928 2578 
Q 928 2378 1081 2264 
Q 1234 2150 1697 2047 
L 1894 2003 
Q 2506 1872 2764 1633 
Q 3022 1394 3022 966 
Q 3022 478 2636 193 
Q 2250 -91 1575 -91 
Q 1294 -91 989 -36 
Q 684 19 347 128 
L 347 722 
Q 666 556 975 473 
Q 1284 391 1588 391 
Q 1994 391 2212 530 
Q 2431 669 2431 922 
Q 2431 1156 2273 1281 
Q 2116 1406 1581 1522 
L 1381 1569 
Q 847 1681 609 1914 
Q 372 2147 372 2553 
Q 372 3047 722 3315 
Q 1072 3584 1716 3584 
Q 2034 3584 2315 3537 
Q 2597 3491 2834 3397 
z
" transform="scale(0.015625)"/>
       <path id="DejaVuSans-69" d="M 603 3500 
L 1178 3500 
L 1178 0 
L 603 0 
L 603 3500 
z
M 603 4863 
L 1178 4863 
L 1178 4134 
L 603 4134 
L 603 4863 
z
" transform="scale(0.015625)"/>
       <path id="DejaVuSans-74" d="M 1172 4494 
L 1172 3500 
L 2356 3500 
L 2356 3053 
L 1172 3053 
L 1172 1153 
Q 1172 725 1289 603 
Q 1406 481 1766 481 
L 2356 481 
L 2356 0 
L 1766 0 
Q 1100 0 847 248 
Q 594 497 594 1153 
L 594 3053 
L 172 3053 
L 172 3500 
L 594 3500 
L 594 4494 
L 1172 4494 
z
" transform="scale(0.015625)"/>
       <path id="DejaVuSans-6e" d="M 3513 2113 
L 3513 0 
L 2938 0 
L 2938 2094 
Q 2938 2591 2744 2837 
Q 2550 3084 2163 3084 
Q 1697 3084 1428 2787 
Q 1159 2491 1159 1978 
L 1159 0 
L 581 0 
L 581 3500 
L 1159 3500 
L 1159 2956 
Q 1366 3272 1645 3428 
Q 1925 3584 2291 3584 
Q 2894 3584 3203 3211 
Q 3513 2838 3513 2113 
z
" transform="scale(0.015625)"/>
       <path id="DejaVuSans-20" transform="scale(0.015625)"/>
       <path id="DejaVuSans-61" d="M 2194 1759 
Q 1497 1759 1228 1600 
Q 959 1441 959 1056 
Q 959 750 1161 570 
Q 1363 391 1709 391 
Q 2188 391 2477 730 
Q 2766 1069 2766 1631 
L 2766 1759 
L 2194 1759 
z
M 3341 1997 
L 3341 0 
L 2766 0 
L 2766 531 
Q 2569 213 2275 61 
Q 1981 -91 1556 -91 
Q 1019 -91 701 211 
Q 384 513 384 1019 
Q 384 1609 779 1909 
Q 1175 2209 1959 2209 
L 2766 2209 
L 2766 2266 
Q 2766 2663 2505 2880 
Q 2244 3097 1772 3097 
Q 1472 3097 1187 3025 
Q 903 2953 641 2809 
L 641 3341 
Q 956 3463 1253 3523 
Q 1550 3584 1831 3584 
Q 2591 3584 2966 3190 
Q 3341 2797 3341 1997 
z
" transform="scale(0.015625)"/>
       <path id="DejaVuSans-63" d="M 3122 3366 
L 3122 2828 
Q 2878 2963 2633 3030 
Q 2388 3097 2138 3097 
Q 1578 3097 1268 2742 
Q 959 2388 959 1747 
Q 959 1106 1268 751 
Q 1578 397 2138 397 
Q 2388 397 2633 464 
Q 2878 531 3122 666 
L 3122 134 
Q 2881 22 2623 -34 
Q 2366 -91 2075 -91 
Q 1284 -91 818 406 
Q 353 903 353 1747 
Q 353 2603 823 3093 
Q 1294 3584 2113 3584 
Q 2378 3584 2631 3529 
Q 2884 3475 3122 3366 
z
" transform="scale(0.015625)"/>
       <path id="DejaVuSans-72" d="M 2631 2963 
Q 2534 3019 2420 3045 
Q 2306 3072 2169 3072 
Q 1681 3072 1420 2755 
Q 1159 2438 1159 1844 
L 1159 0 
L 581 0 
L 581 3500 
L 1159 3500 
L 1159 2956 
Q 1341 3275 1631 3429 
Q 1922 3584 2338 3584 
Q 2397 3584 2469 3576 
Q 2541 3569 2628 3553 
L 2631 2963 
z
" transform="scale(0.015625)"/>
       <path id="DejaVuSans-6b" d="M 581 4863 
L 1159 4863 
L 1159 1991 
L 2875 3500 
L 3609 3500 
L 1753 1863 
L 3688 0 
L 2938 0 
L 1159 1709 
L 1159 0 
L 581 0 
L 581 4863 
z
" transform="scale(0.015625)"/>
       <path id="DejaVuSans-64" d="M 2906 2969 
L 2906 4863 
L 3481 4863 
L 3481 0 
L 2906 0 
L 2906 525 
Q 2725 213 2448 61 
Q 2172 -91 1784 -91 
Q 1150 -91 751 415 
Q 353 922 353 1747 
Q 353 2572 751 3078 
Q 1150 3584 1784 3584 
Q 2172 3584 2448 3432 
Q 2725 3281 2906 2969 
z
M 947 1747 
Q 947 1113 1208 752 
Q 1469 391 1925 391 
Q 2381 391 2643 752 
Q 2906 1113 2906 1747 
Q 2906 2381 2643 2742 
Q 2381 3103 1925 3103 
Q 1469 3103 1208 2742 
Q 947 2381 947 1747 
z
" transform="scale(0.015625)"/>
       <path id="DejaVuSans-6d" d="M 3328 2828 
Q 3544 3216 3844 3400 
Q 4144 3584 4550 3584 
Q 5097 3584 5394 3201 
Q 5691 2819 5691 2113 
L 5691 0 
L 5113 0 
L 5113 2094 
Q 5113 2597 4934 2840 
Q 4756 3084 4391 3084 
Q 3944 3084 3684 2787 
Q 3425 2491 3425 1978 
L 3425 0 
L 2847 0 
L 2847 2094 
Q 2847 2600 2669 2842 
Q 2491 3084 2119 3084 
Q 1678 3084 1418 2786 
Q 1159 2488 1159 1978 
L 1159 0 
L 581 0 
L 581 3500 
L 1159 3500 
L 1159 2956 
Q 1356 3278 1631 3431 
Q 1906 3584 2284 3584 
Q 2666 3584 2933 3390 
Q 3200 3197 3328 2828 
z
" transform="scale(0.015625)"/>
       <path id="DejaVuSans-28" d="M 1984 4856 
Q 1566 4138 1362 3434 
Q 1159 2731 1159 2009 
Q 1159 1288 1364 580 
Q 1569 -128 1984 -844 
L 1484 -844 
Q 1016 -109 783 600 
Q 550 1309 550 2009 
Q 550 2706 781 3412 
Q 1013 4119 1484 4856 
L 1984 4856 
z
" transform="scale(0.015625)"/>
       <path id="DejaVuSans-b5" d="M 544 -1331 
L 544 3500 
L 1119 3500 
L 1119 1325 
Q 1119 872 1334 640 
Q 1550 409 1972 409 
Q 2434 409 2667 671 
Q 2900 934 2900 1459 
L 2900 3500 
L 3475 3500 
L 3475 806 
Q 3475 619 3529 530 
Q 3584 441 3700 441 
Q 3728 441 3778 458 
Q 3828 475 3916 513 
L 3916 50 
Q 3788 -22 3673 -56 
Q 3559 -91 3450 -91 
Q 3234 -91 3106 31 
Q 2978 153 2931 403 
Q 2775 156 2548 32 
Q 2322 -91 2016 -91 
Q 1697 -91 1473 31 
Q 1250 153 1119 397 
L 1119 -1331 
L 544 -1331 
z
" transform="scale(0.015625)"/>
       <path id="DejaVuSans-29" d="M 513 4856 
L 1013 4856 
Q 1481 4119 1714 3412 
Q 1947 2706 1947 2009 
Q 1947 1309 1714 600 
Q 1481 -109 1013 -844 
L 513 -844 
Q 928 -128 1133 580 
Q 1338 1288 1338 2009 
Q 1338 2731 1133 3434 
Q 928 4138 513 4856 
z
" transform="scale(0.015625)"/>
      </defs>
      <use xlink:href="#DejaVuSans-50"/>
      <use xlink:href="#DejaVuSans-6f" transform="translate(56.677734 0)"/>
      <use xlink:href="#DejaVuSans-73" transform="translate(117.859375 0)"/>
      <use xlink:href="#DejaVuSans-69" transform="translate(169.958984 0)"/>
      <use xlink:href="#DejaVuSans-74" transform="translate(197.742188 0)"/>
      <use xlink:href="#DejaVuSans-69" transform="translate(236.951172 0)"/>
      <use xlink:href="#DejaVuSans-6f" transform="translate(264.734375 0)"/>
      <use xlink:href="#DejaVuSans-6e" transform="translate(325.916016 0)"/>
      <use xlink:href="#DejaVuSans-20" transform="translate(389.294922 0)"/>
      <use xlink:href="#DejaVuSans-61" transform="translate(421.082031 0)"/>
      <use xlink:href="#DejaVuSans-63" transform="translate(482.361328 0)"/>
      <use xlink:href="#DejaVuSans-72" transform="translate(537.341797 0)"/>
      <use xlink:href="#DejaVuSans-6f" transform="translate(576.205078 0)"/>
      <use xlink:href="#DejaVuSans-73" transform="translate(637.386719 0)"/>
      <use xlink:href="#DejaVuSans-73" transform="translate(689.486328 0)"/>
      <use xlink:href="#DejaVuSans-20" transform="translate(741.585938 0)"/>
      <use xlink:href="#DejaVuSans-73" transform="translate(773.373047 0)"/>
      <use xlink:href="#DejaVuSans-6b" transform="translate(825.472656 0)"/>
      <use xlink:href="#DejaVuSans-69" transform="translate(883.382812 0)"/>
      <use xlink:href="#DejaVuSans-6e" transform="translate(911.166016 0)"/>
      <use xlink:href="#DejaVuSans-20" transform="translate(974.544922 0)"/>
      <use xlink:href="#DejaVuSans-64" transform="translate(1006.332031 0)"/>
      <use xlink:href="#DejaVuSans-6f" transform="translate(1069.808594 0)"/>
      <use xlink:href="#DejaVuSans-6d" transform="translate(1130.990234 0)"/>
      <use xlink:href="#DejaVuSans-61" transform="translate(1228.402344 0)"/>
      <use xlink:href="#DejaVuSans-69" transform="translate(1289.681641 0)"/>
      <use xlink:href="#DejaVuSans-6e" transform="translate(1317.464844 0)"/>
      <use xlink:href="#DejaVuSans-20" transform="translate(1380.84375 0)"/>
      <use xlink:href="#DejaVuSans-28" transform="translate(1412.630859 0)"/>
      <use xlink:href="#DejaVuSans-b5" transform="translate(1451.644531 0)"/>
      <use xlink:href="#DejaVuSans-6d" transform="translate(1515.267578 0)"/>
      <use xlink:href="#DejaVuSans-29" transform="translate(1612.679688 0)"/>
     </g>
    </g>
   </g>
   <g id="matplotlib.axis_2">
    <g id="ytick_1">
     <g id="line2d_6">
      <defs>
       <path id="ma7d95e8acc" d="M 0 0 
L -3.5 0 
" style="stroke: #000000; stroke-width: 0.8"/>
      </defs>
      <g>
       <use xlink:href="#ma7d95e8acc" x="46.965625" y="323.885521" style="stroke: #000000; stroke-width: 0.8"/>
      </g>
     </g>
     <g id="text_7">
      <!-- 0 -->
      <g transform="translate(33.603125 327.68474) scale(0.1 -0.1)">
       <use xlink:href="#DejaVuSans-30"/>
      </g>
     </g>
    </g>
    <g id="ytick_2">
     <g id="line2d_7">
      <g>
       <use xlink:href="#ma7d95e8acc" x="46.965625" y="294.002728" style="stroke: #000000; stroke-width: 0.8"/>
      </g>
     </g>
     <g id="text_8">
      <!-- 100 -->
      <g transform="translate(20.878125 297.801947) scale(0.1 -0.1)">
       <defs>
        <path id="DejaVuSans-31" d="M 794 531 
L 1825 531 
L 1825 4091 
L 703 3866 
L 703 4441 
L 1819 4666 
L 2450 4666 
L 2450 531 
L 3481 531 
L 3481 0 
L 794 0 
L 794 531 
z
" transform="scale(0.015625)"/>
       </defs>
       <use xlink:href="#DejaVuSans-31"/>
       <use xlink:href="#DejaVuSans-30" transform="translate(63.623047 0)"/>
       <use xlink:href="#DejaVuSans-30" transform="translate(127.246094 0)"/>
      </g>
     </g>
    </g>
    <g id="ytick_3">
     <g id="line2d_8">
      <g>
       <use xlink:href="#ma7d95e8acc" x="46.965625" y="264.119935" style="stroke: #000000; stroke-width: 0.8"/>
      </g>
     </g>
     <g id="text_9">
      <!-- 200 -->
      <g transform="translate(20.878125 267.919154) scale(0.1 -0.1)">
       <use xlink:href="#DejaVuSans-32"/>
       <use xlink:href="#DejaVuSans-30" transform="translate(63.623047 0)"/>
       <use xlink:href="#DejaVuSans-30" transform="translate(127.246094 0)"/>
      </g>
     </g>
    </g>
    <g id="ytick_4">
     <g id="line2d_9">
      <g>
       <use xlink:href="#ma7d95e8acc" x="46.965625" y="234.237142" style="stroke: #000000; stroke-width: 0.8"/>
      </g>
     </g>
     <g id="text_10">
      <!-- 300 -->
      <g transform="translate(20.878125 238.036361) scale(0.1 -0.1)">
       <defs>
        <path id="DejaVuSans-33" d="M 2597 2516 
Q 3050 2419 3304 2112 
Q 3559 1806 3559 1356 
Q 3559 666 3084 287 
Q 2609 -91 1734 -91 
Q 1441 -91 1130 -33 
Q 819 25 488 141 
L 488 750 
Q 750 597 1062 519 
Q 1375 441 1716 441 
Q 2309 441 2620 675 
Q 2931 909 2931 1356 
Q 2931 1769 2642 2001 
Q 2353 2234 1838 2234 
L 1294 2234 
L 1294 2753 
L 1863 2753 
Q 2328 2753 2575 2939 
Q 2822 3125 2822 3475 
Q 2822 3834 2567 4026 
Q 2313 4219 1838 4219 
Q 1578 4219 1281 4162 
Q 984 4106 628 3988 
L 628 4550 
Q 988 4650 1302 4700 
Q 1616 4750 1894 4750 
Q 2613 4750 3031 4423 
Q 3450 4097 3450 3541 
Q 3450 3153 3228 2886 
Q 3006 2619 2597 2516 
z
" transform="scale(0.015625)"/>
       </defs>
       <use xlink:href="#DejaVuSans-33"/>
       <use xlink:href="#DejaVuSans-30" transform="translate(63.623047 0)"/>
       <use xlink:href="#DejaVuSans-30" transform="translate(127.246094 0)"/>
      </g>
     </g>
    </g>
    <g id="ytick_5">
     <g id="line2d_10">
      <g>
       <use xlink:href="#ma7d95e8acc" x="46.965625" y="204.35435" style="stroke: #000000; stroke-width: 0.8"/>
      </g>
     </g>
     <g id="text_11">
      <!-- 400 -->
      <g transform="translate(20.878125 208.153568) scale(0.1 -0.1)">
       <use xlink:href="#DejaVuSans-34"/>
       <use xlink:href="#DejaVuSans-30" transform="translate(63.623047 0)"/>
       <use xlink:href="#DejaVuSans-30" transform="translate(127.246094 0)"/>
      </g>
     </g>
    </g>
    <g id="ytick_6">
     <g id="line2d_11">
      <g>
       <use xlink:href="#ma7d95e8acc" x="46.965625" y="174.471557" style="stroke: #000000; stroke-width: 0.8"/>
      </g>
     </g>
     <g id="text_12">
      <!-- 500 -->
      <g transform="translate(20.878125 178.270776) scale(0.1 -0.1)">
       <defs>
        <path id="DejaVuSans-35" d="M 691 4666 
L 3169 4666 
L 3169 4134 
L 1269 4134 
L 1269 2991 
Q 1406 3038 1543 3061 
Q 1681 3084 1819 3084 
Q 2600 3084 3056 2656 
Q 3513 2228 3513 1497 
Q 3513 744 3044 326 
Q 2575 -91 1722 -91 
Q 1428 -91 1123 -41 
Q 819 9 494 109 
L 494 744 
Q 775 591 1075 516 
Q 1375 441 1709 441 
Q 2250 441 2565 725 
Q 2881 1009 2881 1497 
Q 2881 1984 2565 2268 
Q 2250 2553 1709 2553 
Q 1456 2553 1204 2497 
Q 953 2441 691 2322 
L 691 4666 
z
" transform="scale(0.015625)"/>
       </defs>
       <use xlink:href="#DejaVuSans-35"/>
       <use xlink:href="#DejaVuSans-30" transform="translate(63.623047 0)"/>
       <use xlink:href="#DejaVuSans-30" transform="translate(127.246094 0)"/>
      </g>
     </g>
    </g>
    <g id="ytick_7">
     <g id="line2d_12">
      <g>
       <use xlink:href="#ma7d95e8acc" x="46.965625" y="144.588764" style="stroke: #000000; stroke-width: 0.8"/>
      </g>
     </g>
     <g id="text_13">
      <!-- 600 -->
      <g transform="translate(20.878125 148.387983) scale(0.1 -0.1)">
       <use xlink:href="#DejaVuSans-36"/>
       <use xlink:href="#DejaVuSans-30" transform="translate(63.623047 0)"/>
       <use xlink:href="#DejaVuSans-30" transform="translate(127.246094 0)"/>
      </g>
     </g>
    </g>
    <g id="ytick_8">
     <g id="line2d_13">
      <g>
       <use xlink:href="#ma7d95e8acc" x="46.965625" y="114.705971" style="stroke: #000000; stroke-width: 0.8"/>
      </g>
     </g>
     <g id="text_14">
      <!-- 700 -->
      <g transform="translate(20.878125 118.50519) scale(0.1 -0.1)">
       <defs>
        <path id="DejaVuSans-37" d="M 525 4666 
L 3525 4666 
L 3525 4397 
L 1831 0 
L 1172 0 
L 2766 4134 
L 525 4134 
L 525 4666 
z
" transform="scale(0.015625)"/>
       </defs>
       <use xlink:href="#DejaVuSans-37"/>
       <use xlink:href="#DejaVuSans-30" transform="translate(63.623047 0)"/>
       <use xlink:href="#DejaVuSans-30" transform="translate(127.246094 0)"/>
      </g>
     </g>
    </g>
    <g id="ytick_9">
     <g id="line2d_14">
      <g>
       <use xlink:href="#ma7d95e8acc" x="46.965625" y="84.823178" style="stroke: #000000; stroke-width: 0.8"/>
      </g>
     </g>
     <g id="text_15">
      <!-- 800 -->
      <g transform="translate(20.878125 88.622397) scale(0.1 -0.1)">
       <use xlink:href="#DejaVuSans-38"/>
       <use xlink:href="#DejaVuSans-30" transform="translate(63.623047 0)"/>
       <use xlink:href="#DejaVuSans-30" transform="translate(127.246094 0)"/>
      </g>
     </g>
    </g>
    <g id="text_16">
     <!-- Ketoconazole concentration (µg/cm³) -->
     <g transform="translate(14.798438 295.028281) rotate(-90) scale(0.1 -0.1)">
      <defs>
       <path id="DejaVuSans-4b" d="M 628 4666 
L 1259 4666 
L 1259 2694 
L 3353 4666 
L 4166 4666 
L 1850 2491 
L 4331 0 
L 3500 0 
L 1259 2247 
L 1259 0 
L 628 0 
L 628 4666 
z
" transform="scale(0.015625)"/>
       <path id="DejaVuSans-65" d="M 3597 1894 
L 3597 1613 
L 953 1613 
Q 991 1019 1311 708 
Q 1631 397 2203 397 
Q 2534 397 2845 478 
Q 3156 559 3463 722 
L 3463 178 
Q 3153 47 2828 -22 
Q 2503 -91 2169 -91 
Q 1331 -91 842 396 
Q 353 884 353 1716 
Q 353 2575 817 3079 
Q 1281 3584 2069 3584 
Q 2775 3584 3186 3129 
Q 3597 2675 3597 1894 
z
M 3022 2063 
Q 3016 2534 2758 2815 
Q 2500 3097 2075 3097 
Q 1594 3097 1305 2825 
Q 1016 2553 972 2059 
L 3022 2063 
z
" transform="scale(0.015625)"/>
       <path id="DejaVuSans-7a" d="M 353 3500 
L 3084 3500 
L 3084 2975 
L 922 459 
L 3084 459 
L 3084 0 
L 275 0 
L 275 525 
L 2438 3041 
L 353 3041 
L 353 3500 
z
" transform="scale(0.015625)"/>
       <path id="DejaVuSans-6c" d="M 603 4863 
L 1178 4863 
L 1178 0 
L 603 0 
L 603 4863 
z
" transform="scale(0.015625)"/>
       <path id="DejaVuSans-67" d="M 2906 1791 
Q 2906 2416 2648 2759 
Q 2391 3103 1925 3103 
Q 1463 3103 1205 2759 
Q 947 2416 947 1791 
Q 947 1169 1205 825 
Q 1463 481 1925 481 
Q 2391 481 2648 825 
Q 2906 1169 2906 1791 
z
M 3481 434 
Q 3481 -459 3084 -895 
Q 2688 -1331 1869 -1331 
Q 1566 -1331 1297 -1286 
Q 1028 -1241 775 -1147 
L 775 -588 
Q 1028 -725 1275 -790 
Q 1522 -856 1778 -856 
Q 2344 -856 2625 -561 
Q 2906 -266 2906 331 
L 2906 616 
Q 2728 306 2450 153 
Q 2172 0 1784 0 
Q 1141 0 747 490 
Q 353 981 353 1791 
Q 353 2603 747 3093 
Q 1141 3584 1784 3584 
Q 2172 3584 2450 3431 
Q 2728 3278 2906 2969 
L 2906 3500 
L 3481 3500 
L 3481 434 
z
" transform="scale(0.015625)"/>
       <path id="DejaVuSans-2f" d="M 1625 4666 
L 2156 4666 
L 531 -594 
L 0 -594 
L 1625 4666 
z
" transform="scale(0.015625)"/>
       <path id="DejaVuSans-b3" d="M 1638 3500 
Q 1925 3444 2083 3273 
Q 2241 3103 2241 2847 
Q 2241 2459 1944 2250 
Q 1647 2041 1094 2041 
Q 916 2041 720 2073 
Q 525 2106 306 2169 
L 306 2547 
Q 469 2463 655 2422 
Q 841 2381 1050 2381 
Q 1391 2381 1578 2504 
Q 1766 2628 1766 2847 
Q 1766 3078 1592 3197 
Q 1419 3316 1081 3316 
L 813 3316 
L 813 3653 
L 1106 3653 
Q 1400 3653 1551 3751 
Q 1703 3850 1703 4038 
Q 1703 4219 1547 4314 
Q 1391 4409 1094 4409 
Q 969 4409 809 4381 
Q 650 4353 397 4281 
L 397 4641 
Q 625 4694 825 4722 
Q 1025 4750 1197 4750 
Q 1647 4750 1911 4565 
Q 2175 4381 2175 4072 
Q 2175 3856 2034 3706 
Q 1894 3556 1638 3500 
z
" transform="scale(0.015625)"/>
      </defs>
      <use xlink:href="#DejaVuSans-4b"/>
      <use xlink:href="#DejaVuSans-65" transform="translate(60.576172 0)"/>
      <use xlink:href="#DejaVuSans-74" transform="translate(122.099609 0)"/>
      <use xlink:href="#DejaVuSans-6f" transform="translate(161.308594 0)"/>
      <use xlink:href="#DejaVuSans-63" transform="translate(222.490234 0)"/>
      <use xlink:href="#DejaVuSans-6f" transform="translate(277.470703 0)"/>
      <use xlink:href="#DejaVuSans-6e" transform="translate(338.652344 0)"/>
      <use xlink:href="#DejaVuSans-61" transform="translate(402.03125 0)"/>
      <use xlink:href="#DejaVuSans-7a" transform="translate(463.310547 0)"/>
      <use xlink:href="#DejaVuSans-6f" transform="translate(515.800781 0)"/>
      <use xlink:href="#DejaVuSans-6c" transform="translate(576.982422 0)"/>
      <use xlink:href="#DejaVuSans-65" transform="translate(604.765625 0)"/>
      <use xlink:href="#DejaVuSans-20" transform="translate(666.289062 0)"/>
      <use xlink:href="#DejaVuSans-63" transform="translate(698.076172 0)"/>
      <use xlink:href="#DejaVuSans-6f" transform="translate(753.056641 0)"/>
      <use xlink:href="#DejaVuSans-6e" transform="translate(814.238281 0)"/>
      <use xlink:href="#DejaVuSans-63" transform="translate(877.617188 0)"/>
      <use xlink:href="#DejaVuSans-65" transform="translate(932.597656 0)"/>
      <use xlink:href="#DejaVuSans-6e" transform="translate(994.121094 0)"/>
      <use xlink:href="#DejaVuSans-74" transform="translate(1057.5 0)"/>
      <use xlink:href="#DejaVuSans-72" transform="translate(1096.708984 0)"/>
      <use xlink:href="#DejaVuSans-61" transform="translate(1137.822266 0)"/>
      <use xlink:href="#DejaVuSans-74" transform="translate(1199.101562 0)"/>
      <use xlink:href="#DejaVuSans-69" transform="translate(1238.310547 0)"/>
      <use xlink:href="#DejaVuSans-6f" transform="translate(1266.09375 0)"/>
      <use xlink:href="#DejaVuSans-6e" transform="translate(1327.275391 0)"/>
      <use xlink:href="#DejaVuSans-20" transform="translate(1390.654297 0)"/>
      <use xlink:href="#DejaVuSans-28" transform="translate(1422.441406 0)"/>
      <use xlink:href="#DejaVuSans-b5" transform="translate(1461.455078 0)"/>
      <use xlink:href="#DejaVuSans-67" transform="translate(1525.078125 0)"/>
      <use xlink:href="#DejaVuSans-2f" transform="translate(1588.554688 0)"/>
      <use xlink:href="#DejaVuSans-63" transform="translate(1622.246094 0)"/>
      <use xlink:href="#DejaVuSans-6d" transform="translate(1677.226562 0)"/>
      <use xlink:href="#DejaVuSans-b3" transform="translate(1774.638672 0)"/>
      <use xlink:href="#DejaVuSans-29" transform="translate(1814.726562 0)"/>
     </g>
    </g>
   </g>
   <g id="line2d_15">
    <path d="M 65.537443 80.794545 
L 66.362857 103.559131 
L 67.188271 126.319676 
L 68.013686 149.06459 
L 68.8391 171.782486 
L 69.664514 194.462286 
L 70.489928 217.093302 
L 71.315342 239.665312 
L 72.140756 262.168625 
L 72.96617 284.594122 
L 73.791585 306.933288 
L 73.791585 306.937923 
L 77.423407 307.436258 
L 81.055229 307.925214 
L 84.687051 308.404785 
L 88.318873 308.874969 
L 91.950696 309.33577 
L 95.582518 309.7872 
L 99.21434 310.229274 
L 102.846162 310.662016 
L 106.477985 311.085455 
L 110.109807 311.499624 
L 113.741629 311.904565 
L 117.373451 312.300322 
L 121.005273 312.686948 
L 124.637096 313.064499 
L 128.268918 313.433037 
L 131.90074 313.79263 
L 135.532562 314.143351 
L 139.164385 314.485275 
L 142.796207 314.818486 
L 146.428029 315.143069 
L 150.059851 315.459116 
L 153.691673 315.766721 
L 157.323496 316.065983 
L 160.955318 316.357007 
L 164.58714 316.639897 
L 168.218962 316.914765 
L 171.850785 317.181723 
L 175.482607 317.440888 
L 179.114429 317.692379 
L 182.746251 317.936319 
L 186.378073 318.172832 
L 190.009896 318.402045 
L 193.641718 318.624087 
L 197.27354 318.839088 
L 200.905362 319.047182 
L 204.537185 319.248503 
L 208.169007 319.443185 
L 211.800829 319.631366 
L 215.432651 319.813183 
L 219.064473 319.988775 
L 222.696296 320.158281 
L 226.328118 320.321839 
L 229.95994 320.479591 
L 233.591762 320.631674 
L 237.223585 320.77823 
L 240.855407 320.919397 
L 244.487229 321.055316 
L 248.119051 321.186123 
L 251.750873 321.311957 
L 255.382696 321.432956 
L 259.014518 321.549255 
L 262.64634 321.66099 
L 266.278162 321.768295 
L 269.909985 321.871302 
L 273.541807 321.970143 
L 277.173629 322.064947 
L 280.805451 322.155844 
L 284.437273 322.24296 
L 288.069096 322.326421 
L 291.700918 322.406349 
L 295.33274 322.482865 
L 298.964562 322.556091 
L 302.596385 322.626143 
L 306.228207 322.693138 
L 309.860029 322.757189 
L 313.491851 322.818408 
L 317.123673 322.876905 
L 320.755496 322.932787 
L 324.387318 322.98616 
L 328.01914 323.037129 
L 331.650962 323.085794 
L 335.282785 323.132255 
L 338.914607 323.176609 
L 342.546429 323.218952 
L 346.178251 323.259378 
L 349.810073 323.297978 
L 353.441896 323.334842 
L 357.073718 323.370057 
L 360.70554 323.403709 
L 364.337362 323.435884 
L 367.969185 323.466662 
L 371.601007 323.496125 
L 375.232829 323.524352 
L 378.864651 323.55142 
L 382.496473 323.577406 
L 386.128296 323.602385 
L 389.760118 323.626429 
L 393.39194 323.649612 
L 397.023762 323.672003 
L 400.655585 323.693673 
L 404.287407 323.71469 
L 407.919229 323.735123 
L 411.551051 323.755038 
L 415.182873 323.774502 
L 418.814696 323.793581 
L 422.446518 323.812339 
L 426.07834 323.830841 
L 429.710162 323.849152 
L 433.341985 323.867335 
L 436.973807 323.885455 
" clip-path="url(#p99fbe2be64)" style="fill: none; stroke: #1f77b4; stroke-width: 2; stroke-linecap: square"/>
   </g>
   <g id="line2d_16">
    <path d="M 65.537443 83.060719 
L 66.362857 103.82281 
L 67.188271 124.587943 
L 68.013686 145.352184 
L 68.8391 166.111614 
L 69.664514 186.862346 
L 70.489928 207.600528 
L 71.315342 228.322357 
L 72.140756 249.024086 
L 72.96617 269.702036 
L 73.791585 290.352602 
L 73.791585 290.356892 
L 77.423407 290.820974 
L 81.055229 291.281978 
L 84.687051 291.739898 
L 88.318873 292.19473 
L 91.950696 292.646468 
L 95.582518 293.095109 
L 99.21434 293.540651 
L 102.846162 293.98309 
L 106.477985 294.422427 
L 110.109807 294.858662 
L 113.741629 295.291795 
L 117.373451 295.721828 
L 121.005273 296.148764 
L 124.637096 296.572607 
L 128.268918 296.993362 
L 131.90074 297.411034 
L 135.532562 297.825629 
L 139.164385 298.237155 
L 142.796207 298.645621 
L 146.428029 299.051035 
L 150.059851 299.453407 
L 153.691673 299.852749 
L 157.323496 300.249072 
L 160.955318 300.642389 
L 164.58714 301.032715 
L 168.218962 301.420062 
L 171.850785 301.804448 
L 175.482607 302.185888 
L 179.114429 302.564399 
L 182.746251 302.939999 
L 186.378073 303.312708 
L 190.009896 303.682545 
L 193.641718 304.049531 
L 197.27354 304.413687 
L 200.905362 304.775035 
L 204.537185 305.133599 
L 208.169007 305.489403 
L 211.800829 305.84247 
L 215.432651 306.192828 
L 219.064473 306.540501 
L 222.696296 306.885518 
L 226.328118 307.227906 
L 229.95994 307.567694 
L 233.591762 307.904911 
L 237.223585 308.239588 
L 240.855407 308.571755 
L 244.487229 308.901444 
L 248.119051 309.228687 
L 251.750873 309.553519 
L 255.382696 309.875971 
L 259.014518 310.19608 
L 262.64634 310.51388 
L 266.278162 310.829407 
L 269.909985 311.142698 
L 273.541807 311.45379 
L 277.173629 311.76272 
L 280.805451 312.069528 
L 284.437273 312.374252 
L 288.069096 312.676932 
L 291.700918 312.977608 
L 295.33274 313.276322 
L 298.964562 313.573114 
L 302.596385 313.868027 
L 306.228207 314.161104 
L 309.860029 314.452387 
L 313.491851 314.74192 
L 317.123673 315.029747 
L 320.755496 315.315913 
L 324.387318 315.600463 
L 328.01914 315.883443 
L 331.650962 316.164899 
L 335.282785 316.444876 
L 338.914607 316.723423 
L 342.546429 317.000586 
L 346.178251 317.276414 
L 349.810073 317.550954 
L 353.441896 317.824254 
L 357.073718 318.096365 
L 360.70554 318.367334 
L 364.337362 318.637212 
L 367.969185 318.906048 
L 371.601007 319.173893 
L 375.232829 319.440797 
L 378.864651 319.706811 
L 382.496473 319.971986 
L 386.128296 320.236372 
L 389.760118 320.500022 
L 393.39194 320.762987 
L 397.023762 321.025319 
L 400.655585 321.287071 
L 404.287407 321.548293 
L 407.919229 321.80904 
L 411.551051 322.069362 
L 415.182873 322.329314 
L 418.814696 322.588947 
L 422.446518 322.848315 
L 426.07834 323.10747 
L 429.710162 323.366465 
L 433.341985 323.625354 
L 436.973807 323.88419 
" clip-path="url(#p99fbe2be64)" style="fill: none; stroke: #ff7f0e; stroke-width: 2; stroke-linecap: square"/>
   </g>
   <g id="line2d_17">
    <path d="M 65.537443 85.881712 
L 66.362857 105.596649 
L 67.188271 125.316665 
L 68.013686 145.040206 
L 68.8391 164.765721 
L 69.664514 184.491672 
L 70.489928 204.216528 
L 71.315342 223.938776 
L 72.140756 243.656916 
L 72.96617 263.369471 
L 73.791585 283.074985 
L 73.791585 283.079081 
L 77.423407 283.523199 
L 81.055229 283.966472 
L 84.687051 284.408898 
L 88.318873 284.850474 
L 91.950696 285.291198 
L 95.582518 285.731068 
L 99.21434 286.170083 
L 102.846162 286.608241 
L 106.477985 287.045541 
L 110.109807 287.481982 
L 113.741629 287.917563 
L 117.373451 288.352285 
L 121.005273 288.786148 
L 124.637096 289.219151 
L 128.268918 289.651295 
L 131.90074 290.082581 
L 135.532562 290.513011 
L 139.164385 290.942584 
L 142.796207 291.371304 
L 146.428029 291.799173 
L 150.059851 292.226191 
L 153.691673 292.652362 
L 157.323496 293.077689 
L 160.955318 293.502174 
L 164.58714 293.925821 
L 168.218962 294.348633 
L 171.850785 294.770614 
L 175.482607 295.191769 
L 179.114429 295.612101 
L 182.746251 296.031615 
L 186.378073 296.450316 
L 190.009896 296.868209 
L 193.641718 297.285299 
L 197.27354 297.701593 
L 200.905362 298.117095 
L 204.537185 298.531812 
L 208.169007 298.945751 
L 211.800829 299.358917 
L 215.432651 299.771319 
L 219.064473 300.182962 
L 222.696296 300.593854 
L 226.328118 301.004003 
L 229.95994 301.413417 
L 233.591762 301.822103 
L 237.223585 302.23007 
L 240.855407 302.637326 
L 244.487229 303.043881 
L 248.119051 303.449742 
L 251.750873 303.854919 
L 255.382696 304.259421 
L 259.014518 304.663258 
L 262.64634 305.066441 
L 266.278162 305.468977 
L 269.909985 305.870879 
L 273.541807 306.272155 
L 277.173629 306.672818 
L 280.805451 307.072877 
L 284.437273 307.472343 
L 288.069096 307.871228 
L 291.700918 308.269542 
L 295.33274 308.667298 
L 298.964562 309.064508 
L 302.596385 309.461181 
L 306.228207 309.857332 
L 309.860029 310.252972 
L 313.491851 310.648113 
L 317.123673 311.042767 
L 320.755496 311.436948 
L 324.387318 311.830668 
L 328.01914 312.22394 
L 331.650962 312.616778 
L 335.282785 313.009193 
L 338.914607 313.4012 
L 342.546429 313.792812 
L 346.178251 314.184043 
L 349.810073 314.574905 
L 353.441896 314.965414 
L 357.073718 315.355583 
L 360.70554 315.745426 
L 364.337362 316.134956 
L 367.969185 316.524189 
L 371.601007 316.913139 
L 375.232829 317.301819 
L 378.864651 317.690245 
L 382.496473 318.078431 
L 386.128296 318.466391 
L 389.760118 318.854141 
L 393.39194 319.241694 
L 397.023762 319.629067 
L 400.655585 320.016273 
L 404.287407 320.403327 
L 407.919229 320.790246 
L 411.551051 321.177042 
L 415.182873 321.563733 
L 418.814696 321.950332 
L 422.446518 322.336855 
L 426.07834 322.723317 
L 429.710162 323.109733 
L 433.341985 323.496118 
L 436.973807 323.882487 
" clip-path="url(#p99fbe2be64)" style="fill: none; stroke: #2ca02c; stroke-width: 2; stroke-linecap: square"/>
   </g>
   <g id="line2d_18">
    <path d="M 65.537443 88.60478 
L 66.362857 107.851708 
L 67.188271 127.104279 
L 68.013686 146.361662 
L 68.8391 165.623024 
L 69.664514 184.887537 
L 70.489928 204.154375 
L 71.315342 223.422715 
L 72.140756 242.691743 
L 72.96617 261.960646 
L 73.791585 281.228622 
L 73.791585 281.232628 
L 77.423407 281.667282 
L 81.055229 282.101764 
L 84.687051 282.53607 
L 88.318873 282.9702 
L 91.950696 283.404153 
L 95.582518 283.837926 
L 99.21434 284.271519 
L 102.846162 284.70493 
L 106.477985 285.138158 
L 110.109807 285.571203 
L 113.741629 286.004062 
L 117.373451 286.436736 
L 121.005273 286.869223 
L 124.637096 287.301523 
L 128.268918 287.733634 
L 131.90074 288.165558 
L 135.532562 288.597292 
L 139.164385 289.028836 
L 142.796207 289.460191 
L 146.428029 289.891356 
L 150.059851 290.322331 
L 153.691673 290.753115 
L 157.323496 291.183709 
L 160.955318 291.614113 
L 164.58714 292.044327 
L 168.218962 292.474351 
L 171.850785 292.904186 
L 175.482607 293.333832 
L 179.114429 293.763289 
L 182.746251 294.192558 
L 186.378073 294.621639 
L 190.009896 295.050534 
L 193.641718 295.479243 
L 197.27354 295.907768 
L 200.905362 296.336108 
L 204.537185 296.764265 
L 208.169007 297.19224 
L 211.800829 297.620034 
L 215.432651 298.047649 
L 219.064473 298.475085 
L 222.696296 298.902345 
L 226.328118 299.329429 
L 229.95994 299.756339 
L 233.591762 300.183077 
L 237.223585 300.609644 
L 240.855407 301.036043 
L 244.487229 301.462274 
L 248.119051 301.88834 
L 251.750873 302.314243 
L 255.382696 302.739984 
L 259.014518 303.165567 
L 262.64634 303.590991 
L 266.278162 304.016261 
L 269.909985 304.441379 
L 273.541807 304.866345 
L 277.173629 305.291164 
L 280.805451 305.715837 
L 284.437273 306.140367 
L 288.069096 306.564756 
L 291.700918 306.989007 
L 295.33274 307.413122 
L 298.964562 307.837105 
L 302.596385 308.260957 
L 306.228207 308.684682 
L 309.860029 309.108283 
L 313.491851 309.531763 
L 317.123673 309.955123 
L 320.755496 310.378368 
L 324.387318 310.801501 
L 328.01914 311.224523 
L 331.650962 311.64744 
L 335.282785 312.070253 
L 338.914607 312.492965 
L 342.546429 312.915581 
L 346.178251 313.338104 
L 349.810073 313.760535 
L 353.441896 314.18288 
L 357.073718 314.605141 
L 360.70554 315.027322 
L 364.337362 315.449426 
L 367.969185 315.871457 
L 371.601007 316.293417 
L 375.232829 316.715311 
L 378.864651 317.137143 
L 382.496473 317.558915 
L 386.128296 317.980631 
L 389.760118 318.402295 
L 393.39194 318.82391 
L 397.023762 319.245481 
L 400.655585 319.66701 
L 404.287407 320.088502 
L 407.919229 320.509959 
L 411.551051 320.931387 
L 415.182873 321.352788 
L 418.814696 321.774166 
L 422.446518 322.195525 
L 426.07834 322.616869 
L 429.710162 323.038201 
L 433.341985 323.459525 
L 436.973807 323.880845 
" clip-path="url(#p99fbe2be64)" style="fill: none; stroke: #d62728; stroke-width: 2; stroke-linecap: square"/>
   </g>
   <g id="line2d_19">
    <path d="M 65.537443 96.517602 
L 66.362857 115.017044 
L 67.188271 133.522197 
L 68.013686 152.032546 
L 68.8391 170.547575 
L 69.664514 189.066769 
L 70.489928 207.589613 
L 71.315342 226.11559 
L 72.140756 244.644185 
L 72.96617 263.174884 
L 73.791585 281.70717 
L 73.791585 281.711023 
L 77.423407 282.129247 
L 81.055229 282.547576 
L 84.687051 282.966009 
L 88.318873 283.384545 
L 91.950696 283.803183 
L 95.582518 284.221922 
L 99.21434 284.64076 
L 102.846162 285.059697 
L 106.477985 285.478731 
L 110.109807 285.897862 
L 113.741629 286.317087 
L 117.373451 286.736406 
L 121.005273 287.155818 
L 124.637096 287.575322 
L 128.268918 287.994916 
L 131.90074 288.414599 
L 135.532562 288.834371 
L 139.164385 289.25423 
L 142.796207 289.674175 
L 146.428029 290.094205 
L 150.059851 290.514318 
L 153.691673 290.934515 
L 157.323496 291.354793 
L 160.955318 291.775151 
L 164.58714 292.195589 
L 168.218962 292.616105 
L 171.850785 293.036698 
L 175.482607 293.457367 
L 179.114429 293.878111 
L 182.746251 294.298929 
L 186.378073 294.719819 
L 190.009896 295.140782 
L 193.641718 295.561815 
L 197.27354 295.982917 
L 200.905362 296.404088 
L 204.537185 296.825326 
L 208.169007 297.24663 
L 211.800829 297.667999 
L 215.432651 298.089433 
L 219.064473 298.510929 
L 222.696296 298.932488 
L 226.328118 299.354107 
L 229.95994 299.775786 
L 233.591762 300.197523 
L 237.223585 300.619319 
L 240.855407 301.04117 
L 244.487229 301.463078 
L 248.119051 301.885039 
L 251.750873 302.307054 
L 255.382696 302.729121 
L 259.014518 303.15124 
L 262.64634 303.573409 
L 266.278162 303.995626 
L 269.909985 304.417892 
L 273.541807 304.840205 
L 277.173629 305.262564 
L 280.805451 305.684967 
L 284.437273 306.107415 
L 288.069096 306.529905 
L 291.700918 306.952437 
L 295.33274 307.37501 
L 298.964562 307.797623 
L 302.596385 308.220274 
L 306.228207 308.642962 
L 309.860029 309.065687 
L 313.491851 309.488448 
L 317.123673 309.911243 
L 320.755496 310.334072 
L 324.387318 310.756933 
L 328.01914 311.179825 
L 331.650962 311.602747 
L 335.282785 312.025699 
L 338.914607 312.448679 
L 342.546429 312.871687 
L 346.178251 313.29472 
L 349.810073 313.717779 
L 353.441896 314.140862 
L 357.073718 314.563968 
L 360.70554 314.987096 
L 364.337362 315.410245 
L 367.969185 315.833414 
L 371.601007 316.256602 
L 375.232829 316.679808 
L 378.864651 317.103031 
L 382.496473 317.52627 
L 386.128296 317.949524 
L 389.760118 318.372792 
L 393.39194 318.796072 
L 397.023762 319.219365 
L 400.655585 319.642668 
L 404.287407 320.065981 
L 407.919229 320.489303 
L 411.551051 320.912633 
L 415.182873 321.335969 
L 418.814696 321.759312 
L 422.446518 322.182659 
L 426.07834 322.606009 
L 429.710162 323.029362 
L 433.341985 323.452717 
L 436.973807 323.876073 
" clip-path="url(#p99fbe2be64)" style="fill: none; stroke: #9467bd; stroke-width: 2; stroke-linecap: square"/>
   </g>
   <g id="line2d_20">
    <path d="M 73.791585 336.04 
L 73.791585 68.64 
" clip-path="url(#p99fbe2be64)" style="fill: none; stroke-dasharray: 3.7,1.6; stroke-dashoffset: 0; stroke: #1f77b4"/>
   </g>
   <g id="patch_3">
    <path d="M 46.965625 336.04 
L 46.965625 68.64 
" style="fill: none; stroke: #000000; stroke-width: 0.8; stroke-linejoin: miter; stroke-linecap: square"/>
   </g>
   <g id="patch_4">
    <path d="M 46.965625 336.04 
L 455.545625 336.04 
" style="fill: none; stroke: #000000; stroke-width: 0.8; stroke-linejoin: miter; stroke-linecap: square"/>
   </g>
   <g id="text_17">
    <!-- SC -->
    <g transform="translate(62.998889 96.658079) scale(0.1 -0.1)">
     <defs>
      <path id="DejaVuSans-53" d="M 3425 4513 
L 3425 3897 
Q 3066 4069 2747 4153 
Q 2428 4238 2131 4238 
Q 1616 4238 1336 4038 
Q 1056 3838 1056 3469 
Q 1056 3159 1242 3001 
Q 1428 2844 1947 2747 
L 2328 2669 
Q 3034 2534 3370 2195 
Q 3706 1856 3706 1288 
Q 3706 609 3251 259 
Q 2797 -91 1919 -91 
Q 1588 -91 1214 -16 
Q 841 59 441 206 
L 441 856 
Q 825 641 1194 531 
Q 1563 422 1919 422 
Q 2459 422 2753 634 
Q 3047 847 3047 1241 
Q 3047 1584 2836 1778 
Q 2625 1972 2144 2069 
L 1759 2144 
Q 1053 2284 737 2584 
Q 422 2884 422 3419 
Q 422 4038 858 4394 
Q 1294 4750 2059 4750 
Q 2388 4750 2728 4690 
Q 3069 4631 3425 4513 
z
" transform="scale(0.015625)"/>
      <path id="DejaVuSans-43" d="M 4122 4306 
L 4122 3641 
Q 3803 3938 3442 4084 
Q 3081 4231 2675 4231 
Q 1875 4231 1450 3742 
Q 1025 3253 1025 2328 
Q 1025 1406 1450 917 
Q 1875 428 2675 428 
Q 3081 428 3442 575 
Q 3803 722 4122 1019 
L 4122 359 
Q 3791 134 3420 21 
Q 3050 -91 2638 -91 
Q 1578 -91 968 557 
Q 359 1206 359 2328 
Q 359 3453 968 4101 
Q 1578 4750 2638 4750 
Q 3056 4750 3426 4639 
Q 3797 4528 4122 4306 
z
" transform="scale(0.015625)"/>
     </defs>
     <use xlink:href="#DejaVuSans-53"/>
     <use xlink:href="#DejaVuSans-43" transform="translate(63.476562 0)"/>
    </g>
   </g>
   <g id="text_18">
    <!-- EP/dermis -->
    <g transform="translate(230.441289 96.658079) scale(0.1 -0.1)">
     <defs>
      <path id="DejaVuSans-45" d="M 628 4666 
L 3578 4666 
L 3578 4134 
L 1259 4134 
L 1259 2753 
L 3481 2753 
L 3481 2222 
L 1259 2222 
L 1259 531 
L 3634 531 
L 3634 0 
L 628 0 
L 628 4666 
z
" transform="scale(0.015625)"/>
     </defs>
     <use xlink:href="#DejaVuSans-45"/>
     <use xlink:href="#DejaVuSans-50" transform="translate(63.183594 0)"/>
     <use xlink:href="#DejaVuSans-2f" transform="translate(123.486328 0)"/>
     <use xlink:href="#DejaVuSans-64" transform="translate(157.177734 0)"/>
     <use xlink:href="#DejaVuSans-65" transform="translate(220.654297 0)"/>
     <use xlink:href="#DejaVuSans-72" transform="translate(282.177734 0)"/>
     <use xlink:href="#DejaVuSans-6d" transform="translate(321.541016 0)"/>
     <use xlink:href="#DejaVuSans-69" transform="translate(418.953125 0)"/>
     <use xlink:href="#DejaVuSans-73" transform="translate(446.736328 0)"/>
    </g>
   </g>
   <g id="text_19">
    <!-- Free KC skin concentration profiles -->
    <g transform="translate(147.403125 62.64) scale(0.12 -0.12)">
     <defs>
      <path id="DejaVuSans-46" d="M 628 4666 
L 3309 4666 
L 3309 4134 
L 1259 4134 
L 1259 2759 
L 3109 2759 
L 3109 2228 
L 1259 2228 
L 1259 0 
L 628 0 
L 628 4666 
z
" transform="scale(0.015625)"/>
      <path id="DejaVuSans-70" d="M 1159 525 
L 1159 -1331 
L 581 -1331 
L 581 3500 
L 1159 3500 
L 1159 2969 
Q 1341 3281 1617 3432 
Q 1894 3584 2278 3584 
Q 2916 3584 3314 3078 
Q 3713 2572 3713 1747 
Q 3713 922 3314 415 
Q 2916 -91 2278 -91 
Q 1894 -91 1617 61 
Q 1341 213 1159 525 
z
M 3116 1747 
Q 3116 2381 2855 2742 
Q 2594 3103 2138 3103 
Q 1681 3103 1420 2742 
Q 1159 2381 1159 1747 
Q 1159 1113 1420 752 
Q 1681 391 2138 391 
Q 2594 391 2855 752 
Q 3116 1113 3116 1747 
z
" transform="scale(0.015625)"/>
      <path id="DejaVuSans-66" d="M 2375 4863 
L 2375 4384 
L 1825 4384 
Q 1516 4384 1395 4259 
Q 1275 4134 1275 3809 
L 1275 3500 
L 2222 3500 
L 2222 3053 
L 1275 3053 
L 1275 0 
L 697 0 
L 697 3053 
L 147 3053 
L 147 3500 
L 697 3500 
L 697 3744 
Q 697 4328 969 4595 
Q 1241 4863 1831 4863 
L 2375 4863 
z
" transform="scale(0.015625)"/>
     </defs>
     <use xlink:href="#DejaVuSans-46"/>
     <use xlink:href="#DejaVuSans-72" transform="translate(50.269531 0)"/>
     <use xlink:href="#DejaVuSans-65" transform="translate(89.132812 0)"/>
     <use xlink:href="#DejaVuSans-65" transform="translate(150.65625 0)"/>
     <use xlink:href="#DejaVuSans-20" transform="translate(212.179688 0)"/>
     <use xlink:href="#DejaVuSans-4b" transform="translate(243.966797 0)"/>
     <use xlink:href="#DejaVuSans-43" transform="translate(304.042969 0)"/>
     <use xlink:href="#DejaVuSans-20" transform="translate(373.867188 0)"/>
     <use xlink:href="#DejaVuSans-73" transform="translate(405.654297 0)"/>
     <use xlink:href="#DejaVuSans-6b" transform="translate(457.753906 0)"/>
     <use xlink:href="#DejaVuSans-69" transform="translate(515.664062 0)"/>
     <use xlink:href="#DejaVuSans-6e" transform="translate(543.447266 0)"/>
     <use xlink:href="#DejaVuSans-20" transform="translate(606.826172 0)"/>
     <use xlink:href="#DejaVuSans-63" transform="translate(638.613281 0)"/>
     <use xlink:href="#DejaVuSans-6f" transform="translate(693.59375 0)"/>
     <use xlink:href="#DejaVuSans-6e" transform="translate(754.775391 0)"/>
     <use xlink:href="#DejaVuSans-63" transform="translate(818.154297 0)"/>
     <use xlink:href="#DejaVuSans-65" transform="translate(873.134766 0)"/>
     <use xlink:href="#DejaVuSans-6e" transform="translate(934.658203 0)"/>
     <use xlink:href="#DejaVuSans-74" transform="translate(998.037109 0)"/>
     <use xlink:href="#DejaVuSans-72" transform="translate(1037.246094 0)"/>
     <use xlink:href="#DejaVuSans-61" transform="translate(1078.359375 0)"/>
     <use xlink:href="#DejaVuSans-74" transform="translate(1139.638672 0)"/>
     <use xlink:href="#DejaVuSans-69" transform="translate(1178.847656 0)"/>
     <use xlink:href="#DejaVuSans-6f" transform="translate(1206.630859 0)"/>
     <use xlink:href="#DejaVuSans-6e" transform="translate(1267.8125 0)"/>
     <use xlink:href="#DejaVuSans-20" transform="translate(1331.191406 0)"/>
     <use xlink:href="#DejaVuSans-70" transform="translate(1362.978516 0)"/>
     <use xlink:href="#DejaVuSans-72" transform="translate(1426.455078 0)"/>
     <use xlink:href="#DejaVuSans-6f" transform="translate(1465.318359 0)"/>
     <use xlink:href="#DejaVuSans-66" transform="translate(1526.5 0)"/>
     <use xlink:href="#DejaVuSans-69" transform="translate(1561.705078 0)"/>
     <use xlink:href="#DejaVuSans-6c" transform="translate(1589.488281 0)"/>
     <use xlink:href="#DejaVuSans-65" transform="translate(1617.271484 0)"/>
     <use xlink:href="#DejaVuSans-73" transform="translate(1678.794922 0)"/>
    </g>
   </g>
   <g id="legend_1">
    <g id="text_20">
     <!-- Time -->
     <g transform="translate(409.191719 85.238437) scale(0.1 -0.1)">
      <defs>
       <path id="DejaVuSans-54" d="M -19 4666 
L 3928 4666 
L 3928 4134 
L 2272 4134 
L 2272 0 
L 1638 0 
L 1638 4134 
L -19 4134 
L -19 4666 
z
" transform="scale(0.015625)"/>
      </defs>
      <use xlink:href="#DejaVuSans-54"/>
      <use xlink:href="#DejaVuSans-69" transform="translate(57.958984 0)"/>
      <use xlink:href="#DejaVuSans-6d" transform="translate(85.742188 0)"/>
      <use xlink:href="#DejaVuSans-65" transform="translate(183.154297 0)"/>
     </g>
    </g>
    <g id="line2d_21">
     <path d="M 396.305 96.416562 
L 406.305 96.416562 
L 416.305 96.416562 
" style="fill: none; stroke: #1f77b4; stroke-width: 2; stroke-linecap: square"/>
    </g>
    <g id="text_21">
     <!-- 1 h -->
     <g transform="translate(424.305 99.916562) scale(0.1 -0.1)">
      <defs>
       <path id="DejaVuSans-68" d="M 3513 2113 
L 3513 0 
L 2938 0 
L 2938 2094 
Q 2938 2591 2744 2837 
Q 2550 3084 2163 3084 
Q 1697 3084 1428 2787 
Q 1159 2491 1159 1978 
L 1159 0 
L 581 0 
L 581 4863 
L 1159 4863 
L 1159 2956 
Q 1366 3272 1645 3428 
Q 1925 3584 2291 3584 
Q 2894 3584 3203 3211 
Q 3513 2838 3513 2113 
z
" transform="scale(0.015625)"/>
      </defs>
      <use xlink:href="#DejaVuSans-31"/>
      <use xlink:href="#DejaVuSans-20" transform="translate(63.623047 0)"/>
      <use xlink:href="#DejaVuSans-68" transform="translate(95.410156 0)"/>
     </g>
    </g>
    <g id="line2d_22">
     <path d="M 396.305 111.094688 
L 406.305 111.094688 
L 416.305 111.094688 
" style="fill: none; stroke: #ff7f0e; stroke-width: 2; stroke-linecap: square"/>
    </g>
    <g id="text_22">
     <!-- 4 h -->
     <g transform="translate(424.305 114.594688) scale(0.1 -0.1)">
      <use xlink:href="#DejaVuSans-34"/>
      <use xlink:href="#DejaVuSans-20" transform="translate(63.623047 0)"/>
      <use xlink:href="#DejaVuSans-68" transform="translate(95.410156 0)"/>
     </g>
    </g>
    <g id="line2d_23">
     <path d="M 396.305 125.772812 
L 406.305 125.772812 
L 416.305 125.772812 
" style="fill: none; stroke: #2ca02c; stroke-width: 2; stroke-linecap: square"/>
    </g>
    <g id="text_23">
     <!-- 8 h -->
     <g transform="translate(424.305 129.272812) scale(0.1 -0.1)">
      <use xlink:href="#DejaVuSans-38"/>
      <use xlink:href="#DejaVuSans-20" transform="translate(63.623047 0)"/>
      <use xlink:href="#DejaVuSans-68" transform="translate(95.410156 0)"/>
     </g>
    </g>
    <g id="line2d_24">
     <path d="M 396.305 140.450938 
L 406.305 140.450938 
L 416.305 140.450938 
" style="fill: none; stroke: #d62728; stroke-width: 2; stroke-linecap: square"/>
    </g>
    <g id="text_24">
     <!-- 12 h -->
     <g transform="translate(424.305 143.950938) scale(0.1 -0.1)">
      <use xlink:href="#DejaVuSans-31"/>
      <use xlink:href="#DejaVuSans-32" transform="translate(63.623047 0)"/>
      <use xlink:href="#DejaVuSans-20" transform="translate(127.246094 0)"/>
      <use xlink:href="#DejaVuSans-68" transform="translate(159.033203 0)"/>
     </g>
    </g>
    <g id="line2d_25">
     <path d="M 396.305 155.129063 
L 406.305 155.129063 
L 416.305 155.129063 
" style="fill: none; stroke: #9467bd; stroke-width: 2; stroke-linecap: square"/>
    </g>
    <g id="text_25">
     <!-- 24 h -->
     <g transform="translate(424.305 158.629063) scale(0.1 -0.1)">
      <use xlink:href="#DejaVuSans-32"/>
      <use xlink:href="#DejaVuSans-34" transform="translate(63.623047 0)"/>
      <use xlink:href="#DejaVuSans-20" transform="translate(127.246094 0)"/>
      <use xlink:href="#DejaVuSans-68" transform="translate(159.033203 0)"/>
     </g>
    </g>
   </g>
  </g>
  <g id="axes_2">
   <g id="patch_5">
    <path d="M 512.715625 336.04 
L 921.295625 336.04 
L 921.295625 68.64 
L 512.715625 68.64 
z
" style="fill: #ffffff"/>
   </g>
   <g id="matplotlib.axis_3">
    <g id="xtick_6">
     <g id="line2d_26">
      <g>
       <use xlink:href="#mf84d50a43a" x="531.287443" y="336.04" style="stroke: #000000; stroke-width: 0.8"/>
      </g>
     </g>
     <g id="text_26">
      <!-- 0 -->
      <g transform="translate(528.106193 350.638437) scale(0.1 -0.1)">
       <use xlink:href="#DejaVuSans-30"/>
      </g>
     </g>
    </g>
    <g id="xtick_7">
     <g id="line2d_27">
      <g>
       <use xlink:href="#mf84d50a43a" x="613.828857" y="336.04" style="stroke: #000000; stroke-width: 0.8"/>
      </g>
     </g>
     <g id="text_27">
      <!-- 200 -->
      <g transform="translate(604.285107 350.638437) scale(0.1 -0.1)">
       <use xlink:href="#DejaVuSans-32"/>
       <use xlink:href="#DejaVuSans-30" transform="translate(63.623047 0)"/>
       <use xlink:href="#DejaVuSans-30" transform="translate(127.246094 0)"/>
      </g>
     </g>
    </g>
    <g id="xtick_8">
     <g id="line2d_28">
      <g>
       <use xlink:href="#mf84d50a43a" x="696.370271" y="336.04" style="stroke: #000000; stroke-width: 0.8"/>
      </g>
     </g>
     <g id="text_28">
      <!-- 400 -->
      <g transform="translate(686.826521 350.638437) scale(0.1 -0.1)">
       <use xlink:href="#DejaVuSans-34"/>
       <use xlink:href="#DejaVuSans-30" transform="translate(63.623047 0)"/>
       <use xlink:href="#DejaVuSans-30" transform="translate(127.246094 0)"/>
      </g>
     </g>
    </g>
    <g id="xtick_9">
     <g id="line2d_29">
      <g>
       <use xlink:href="#mf84d50a43a" x="778.911686" y="336.04" style="stroke: #000000; stroke-width: 0.8"/>
      </g>
     </g>
     <g id="text_29">
      <!-- 600 -->
      <g transform="translate(769.367936 350.638437) scale(0.1 -0.1)">
       <use xlink:href="#DejaVuSans-36"/>
       <use xlink:href="#DejaVuSans-30" transform="translate(63.623047 0)"/>
       <use xlink:href="#DejaVuSans-30" transform="translate(127.246094 0)"/>
      </g>
     </g>
    </g>
    <g id="xtick_10">
     <g id="line2d_30">
      <g>
       <use xlink:href="#mf84d50a43a" x="861.4531" y="336.04" style="stroke: #000000; stroke-width: 0.8"/>
      </g>
     </g>
     <g id="text_30">
      <!-- 800 -->
      <g transform="translate(851.90935 350.638437) scale(0.1 -0.1)">
       <use xlink:href="#DejaVuSans-38"/>
       <use xlink:href="#DejaVuSans-30" transform="translate(63.623047 0)"/>
       <use xlink:href="#DejaVuSans-30" transform="translate(127.246094 0)"/>
      </g>
     </g>
    </g>
    <g id="text_31">
     <!-- Position across skin domain (µm) -->
     <g transform="translate(634.423594 364.316562) scale(0.1 -0.1)">
      <use xlink:href="#DejaVuSans-50"/>
      <use xlink:href="#DejaVuSans-6f" transform="translate(56.677734 0)"/>
      <use xlink:href="#DejaVuSans-73" transform="translate(117.859375 0)"/>
      <use xlink:href="#DejaVuSans-69" transform="translate(169.958984 0)"/>
      <use xlink:href="#DejaVuSans-74" transform="translate(197.742188 0)"/>
      <use xlink:href="#DejaVuSans-69" transform="translate(236.951172 0)"/>
      <use xlink:href="#DejaVuSans-6f" transform="translate(264.734375 0)"/>
      <use xlink:href="#DejaVuSans-6e" transform="translate(325.916016 0)"/>
      <use xlink:href="#DejaVuSans-20" transform="translate(389.294922 0)"/>
      <use xlink:href="#DejaVuSans-61" transform="translate(421.082031 0)"/>
      <use xlink:href="#DejaVuSans-63" transform="translate(482.361328 0)"/>
      <use xlink:href="#DejaVuSans-72" transform="translate(537.341797 0)"/>
      <use xlink:href="#DejaVuSans-6f" transform="translate(576.205078 0)"/>
      <use xlink:href="#DejaVuSans-73" transform="translate(637.386719 0)"/>
      <use xlink:href="#DejaVuSans-73" transform="translate(689.486328 0)"/>
      <use xlink:href="#DejaVuSans-20" transform="translate(741.585938 0)"/>
      <use xlink:href="#DejaVuSans-73" transform="translate(773.373047 0)"/>
      <use xlink:href="#DejaVuSans-6b" transform="translate(825.472656 0)"/>
      <use xlink:href="#DejaVuSans-69" transform="translate(883.382812 0)"/>
      <use xlink:href="#DejaVuSans-6e" transform="translate(911.166016 0)"/>
      <use xlink:href="#DejaVuSans-20" transform="translate(974.544922 0)"/>
      <use xlink:href="#DejaVuSans-64" transform="translate(1006.332031 0)"/>
      <use xlink:href="#DejaVuSans-6f" transform="translate(1069.808594 0)"/>
      <use xlink:href="#DejaVuSans-6d" transform="translate(1130.990234 0)"/>
      <use xlink:href="#DejaVuSans-61" transform="translate(1228.402344 0)"/>
      <use xlink:href="#DejaVuSans-69" transform="translate(1289.681641 0)"/>
      <use xlink:href="#DejaVuSans-6e" transform="translate(1317.464844 0)"/>
      <use xlink:href="#DejaVuSans-20" transform="translate(1380.84375 0)"/>
      <use xlink:href="#DejaVuSans-28" transform="translate(1412.630859 0)"/>
      <use xlink:href="#DejaVuSans-b5" transform="translate(1451.644531 0)"/>
      <use xlink:href="#DejaVuSans-6d" transform="translate(1515.267578 0)"/>
      <use xlink:href="#DejaVuSans-29" transform="translate(1612.679688 0)"/>
     </g>
    </g>
   </g>
   <g id="matplotlib.axis_4">
    <g id="ytick_10">
     <g id="line2d_31">
      <g>
       <use xlink:href="#ma7d95e8acc" x="512.715625" y="323.885523" style="stroke: #000000; stroke-width: 0.8"/>
      </g>
     </g>
     <g id="text_32">
      <!-- 0 -->
      <g transform="translate(499.353125 327.684742) scale(0.1 -0.1)">
       <use xlink:href="#DejaVuSans-30"/>
      </g>
     </g>
    </g>
    <g id="ytick_11">
     <g id="line2d_32">
      <g>
       <use xlink:href="#ma7d95e8acc" x="512.715625" y="290.91897" style="stroke: #000000; stroke-width: 0.8"/>
      </g>
     </g>
     <g id="text_33">
      <!-- 250 -->
      <g transform="translate(486.628125 294.718189) scale(0.1 -0.1)">
       <use xlink:href="#DejaVuSans-32"/>
       <use xlink:href="#DejaVuSans-35" transform="translate(63.623047 0)"/>
       <use xlink:href="#DejaVuSans-30" transform="translate(127.246094 0)"/>
      </g>
     </g>
    </g>
    <g id="ytick_12">
     <g id="line2d_33">
      <g>
       <use xlink:href="#ma7d95e8acc" x="512.715625" y="257.952417" style="stroke: #000000; stroke-width: 0.8"/>
      </g>
     </g>
     <g id="text_34">
      <!-- 500 -->
      <g transform="translate(486.628125 261.751635) scale(0.1 -0.1)">
       <use xlink:href="#DejaVuSans-35"/>
       <use xlink:href="#DejaVuSans-30" transform="translate(63.623047 0)"/>
       <use xlink:href="#DejaVuSans-30" transform="translate(127.246094 0)"/>
      </g>
     </g>
    </g>
    <g id="ytick_13">
     <g id="line2d_34">
      <g>
       <use xlink:href="#ma7d95e8acc" x="512.715625" y="224.985864" style="stroke: #000000; stroke-width: 0.8"/>
      </g>
     </g>
     <g id="text_35">
      <!-- 750 -->
      <g transform="translate(486.628125 228.785082) scale(0.1 -0.1)">
       <use xlink:href="#DejaVuSans-37"/>
       <use xlink:href="#DejaVuSans-35" transform="translate(63.623047 0)"/>
       <use xlink:href="#DejaVuSans-30" transform="translate(127.246094 0)"/>
      </g>
     </g>
    </g>
    <g id="ytick_14">
     <g id="line2d_35">
      <g>
       <use xlink:href="#ma7d95e8acc" x="512.715625" y="192.01931" style="stroke: #000000; stroke-width: 0.8"/>
      </g>
     </g>
     <g id="text_36">
      <!-- 1000 -->
      <g transform="translate(480.265625 195.818529) scale(0.1 -0.1)">
       <use xlink:href="#DejaVuSans-31"/>
       <use xlink:href="#DejaVuSans-30" transform="translate(63.623047 0)"/>
       <use xlink:href="#DejaVuSans-30" transform="translate(127.246094 0)"/>
       <use xlink:href="#DejaVuSans-30" transform="translate(190.869141 0)"/>
      </g>
     </g>
    </g>
    <g id="ytick_15">
     <g id="line2d_36">
      <g>
       <use xlink:href="#ma7d95e8acc" x="512.715625" y="159.052757" style="stroke: #000000; stroke-width: 0.8"/>
      </g>
     </g>
     <g id="text_37">
      <!-- 1250 -->
      <g transform="translate(480.265625 162.851976) scale(0.1 -0.1)">
       <use xlink:href="#DejaVuSans-31"/>
       <use xlink:href="#DejaVuSans-32" transform="translate(63.623047 0)"/>
       <use xlink:href="#DejaVuSans-35" transform="translate(127.246094 0)"/>
       <use xlink:href="#DejaVuSans-30" transform="translate(190.869141 0)"/>
      </g>
     </g>
    </g>
    <g id="ytick_16">
     <g id="line2d_37">
      <g>
       <use xlink:href="#ma7d95e8acc" x="512.715625" y="126.086204" style="stroke: #000000; stroke-width: 0.8"/>
      </g>
     </g>
     <g id="text_38">
      <!-- 1500 -->
      <g transform="translate(480.265625 129.885423) scale(0.1 -0.1)">
       <use xlink:href="#DejaVuSans-31"/>
       <use xlink:href="#DejaVuSans-35" transform="translate(63.623047 0)"/>
       <use xlink:href="#DejaVuSans-30" transform="translate(127.246094 0)"/>
       <use xlink:href="#DejaVuSans-30" transform="translate(190.869141 0)"/>
      </g>
     </g>
    </g>
    <g id="ytick_17">
     <g id="line2d_38">
      <g>
       <use xlink:href="#ma7d95e8acc" x="512.715625" y="93.119651" style="stroke: #000000; stroke-width: 0.8"/>
      </g>
     </g>
     <g id="text_39">
      <!-- 1750 -->
      <g transform="translate(480.265625 96.91887) scale(0.1 -0.1)">
       <use xlink:href="#DejaVuSans-31"/>
       <use xlink:href="#DejaVuSans-37" transform="translate(63.623047 0)"/>
       <use xlink:href="#DejaVuSans-35" transform="translate(127.246094 0)"/>
       <use xlink:href="#DejaVuSans-30" transform="translate(190.869141 0)"/>
      </g>
     </g>
    </g>
    <g id="text_40">
     <!-- Ketoconazole concentration (µg/cm³) -->
     <g transform="translate(474.185938 295.028281) rotate(-90) scale(0.1 -0.1)">
      <use xlink:href="#DejaVuSans-4b"/>
      <use xlink:href="#DejaVuSans-65" transform="translate(60.576172 0)"/>
      <use xlink:href="#DejaVuSans-74" transform="translate(122.099609 0)"/>
      <use xlink:href="#DejaVuSans-6f" transform="translate(161.308594 0)"/>
      <use xlink:href="#DejaVuSans-63" transform="translate(222.490234 0)"/>
      <use xlink:href="#DejaVuSans-6f" transform="translate(277.470703 0)"/>
      <use xlink:href="#DejaVuSans-6e" transform="translate(338.652344 0)"/>
      <use xlink:href="#DejaVuSans-61" transform="translate(402.03125 0)"/>
      <use xlink:href="#DejaVuSans-7a" transform="translate(463.310547 0)"/>
      <use xlink:href="#DejaVuSans-6f" transform="translate(515.800781 0)"/>
      <use xlink:href="#DejaVuSans-6c" transform="translate(576.982422 0)"/>
      <use xlink:href="#DejaVuSans-65" transform="translate(604.765625 0)"/>
      <use xlink:href="#DejaVuSans-20" transform="translate(666.289062 0)"/>
      <use xlink:href="#DejaVuSans-63" transform="translate(698.076172 0)"/>
      <use xlink:href="#DejaVuSans-6f" transform="translate(753.056641 0)"/>
      <use xlink:href="#DejaVuSans-6e" transform="translate(814.238281 0)"/>
      <use xlink:href="#DejaVuSans-63" transform="translate(877.617188 0)"/>
      <use xlink:href="#DejaVuSans-65" transform="translate(932.597656 0)"/>
      <use xlink:href="#DejaVuSans-6e" transform="translate(994.121094 0)"/>
      <use xlink:href="#DejaVuSans-74" transform="translate(1057.5 0)"/>
      <use xlink:href="#DejaVuSans-72" transform="translate(1096.708984 0)"/>
      <use xlink:href="#DejaVuSans-61" transform="translate(1137.822266 0)"/>
      <use xlink:href="#DejaVuSans-74" transform="translate(1199.101562 0)"/>
      <use xlink:href="#DejaVuSans-69" transform="translate(1238.310547 0)"/>
      <use xlink:href="#DejaVuSans-6f" transform="translate(1266.09375 0)"/>
      <use xlink:href="#DejaVuSans-6e" transform="translate(1327.275391 0)"/>
      <use xlink:href="#DejaVuSans-20" transform="translate(1390.654297 0)"/>
      <use xlink:href="#DejaVuSans-28" transform="translate(1422.441406 0)"/>
      <use xlink:href="#DejaVuSans-b5" transform="translate(1461.455078 0)"/>
      <use xlink:href="#DejaVuSans-67" transform="translate(1525.078125 0)"/>
      <use xlink:href="#DejaVuSans-2f" transform="translate(1588.554688 0)"/>
      <use xlink:href="#DejaVuSans-63" transform="translate(1622.246094 0)"/>
      <use xlink:href="#DejaVuSans-6d" transform="translate(1677.226562 0)"/>
      <use xlink:href="#DejaVuSans-b3" transform="translate(1774.638672 0)"/>
      <use xlink:href="#DejaVuSans-29" transform="translate(1814.726562 0)"/>
     </g>
    </g>
   </g>
   <g id="line2d_39">
    <path d="M 531.287443 80.794545 
L 532.112857 99.592932 
L 532.938271 118.358988 
L 533.763686 137.0528 
L 534.5891 155.635373 
L 535.414514 174.069071 
L 536.239928 192.318018 
L 537.065342 210.348449 
L 537.890756 228.129014 
L 538.71617 245.631018 
L 539.541585 262.828594 
L 539.541585 310.091274 
L 543.173407 310.530281 
L 546.805229 310.960749 
L 550.437051 311.382627 
L 554.068873 311.795873 
L 557.700696 312.200456 
L 561.332518 312.596351 
L 564.96434 312.983542 
L 568.596162 313.362024 
L 572.227985 313.731798 
L 575.859807 314.092875 
L 579.491629 314.445274 
L 583.123451 314.789019 
L 586.755273 315.124148 
L 590.387096 315.4507 
L 594.018918 315.768727 
L 597.65074 316.078284 
L 601.282562 316.379436 
L 604.914385 316.672254 
L 608.546207 316.956814 
L 612.178029 317.2332 
L 615.809851 317.501501 
L 619.441673 317.761813 
L 623.073496 318.014235 
L 626.705318 318.258875 
L 630.33714 318.495841 
L 633.968962 318.72525 
L 637.600785 318.947221 
L 641.232607 319.161876 
L 644.864429 319.369343 
L 648.496251 319.569753 
L 652.128073 319.763237 
L 655.759896 319.949933 
L 659.391718 320.129979 
L 663.02354 320.303516 
L 666.655362 320.470686 
L 670.287185 320.631633 
L 673.919007 320.786504 
L 677.550829 320.935444 
L 681.182651 321.078601 
L 684.814473 321.216122 
L 688.446296 321.348157 
L 692.078118 321.474853 
L 695.70994 321.596359 
L 699.341762 321.712821 
L 702.973585 321.824387 
L 706.605407 321.931204 
L 710.237229 322.033416 
L 713.869051 322.131168 
L 717.500873 322.224602 
L 721.132696 322.313859 
L 724.764518 322.399079 
L 728.39634 322.4804 
L 732.028162 322.557957 
L 735.659985 322.631883 
L 739.291807 322.702311 
L 742.923629 322.769369 
L 746.555451 322.833184 
L 750.187273 322.893881 
L 753.819096 322.95158 
L 757.450918 323.006402 
L 761.08274 323.058463 
L 764.714562 323.107876 
L 768.346385 323.154753 
L 771.978207 323.199203 
L 775.610029 323.24133 
L 779.241851 323.281237 
L 782.873673 323.319026 
L 786.505496 323.354792 
L 790.137318 323.388631 
L 793.76914 323.420634 
L 797.400962 323.45089 
L 801.032785 323.479487 
L 804.664607 323.506507 
L 808.296429 323.532032 
L 811.928251 323.55614 
L 815.560073 323.578909 
L 819.191896 323.600411 
L 822.823718 323.620718 
L 826.45554 323.6399 
L 830.087362 323.658023 
L 833.719185 323.675151 
L 837.351007 323.691349 
L 840.982829 323.706677 
L 844.614651 323.721193 
L 848.246473 323.734955 
L 851.878296 323.748019 
L 855.510118 323.760438 
L 859.14194 323.772264 
L 862.773762 323.783549 
L 866.405585 323.794343 
L 870.037407 323.804694 
L 873.669229 323.814648 
L 877.301051 323.824254 
L 880.932873 323.833555 
L 884.564696 323.842598 
L 888.196518 323.851426 
L 891.82834 323.860083 
L 895.460162 323.868611 
L 899.091985 323.877054 
L 902.723807 323.885455 
" clip-path="url(#pb601aa3353)" style="fill: none; stroke: #1f77b4; stroke-width: 2; stroke-linecap: square"/>
   </g>
   <g id="line2d_40">
    <path d="M 531.287443 82.769009 
L 532.112857 96.253399 
L 532.938271 109.734765 
L 533.763686 123.204331 
L 534.5891 136.653381 
L 535.414514 150.073289 
L 536.239928 163.455549 
L 537.065342 176.791811 
L 537.890756 190.073904 
L 538.71617 203.293868 
L 539.541585 216.443984 
L 539.541585 299.608518 
L 543.173407 299.948662 
L 546.805229 300.286783 
L 550.437051 300.622862 
L 554.068873 300.956878 
L 557.700696 301.288814 
L 561.332518 301.61865 
L 564.96434 301.946371 
L 568.596162 302.27196 
L 572.227985 302.595402 
L 575.859807 302.916683 
L 579.491629 303.23579 
L 583.123451 303.552711 
L 586.755273 303.867434 
L 590.387096 304.179949 
L 594.018918 304.490247 
L 597.65074 304.798319 
L 601.282562 305.104157 
L 604.914385 305.407755 
L 608.546207 305.709108 
L 612.178029 306.008211 
L 615.809851 306.30506 
L 619.441673 306.599652 
L 623.073496 306.891986 
L 626.705318 307.182061 
L 630.33714 307.469877 
L 633.968962 307.755435 
L 637.600785 308.038737 
L 641.232607 308.319787 
L 644.864429 308.598589 
L 648.496251 308.875147 
L 652.128073 309.149467 
L 655.759896 309.421557 
L 659.391718 309.691424 
L 663.02354 309.959077 
L 666.655362 310.224525 
L 670.287185 310.48778 
L 673.919007 310.748852 
L 677.550829 311.007755 
L 681.182651 311.264502 
L 684.814473 311.519106 
L 688.446296 311.771584 
L 692.078118 312.021951 
L 695.70994 312.270225 
L 699.341762 312.516423 
L 702.973585 312.760564 
L 706.605407 313.002667 
L 710.237229 313.242754 
L 713.869051 313.480845 
L 717.500873 313.716962 
L 721.132696 313.95113 
L 724.764518 314.18337 
L 728.39634 314.413709 
L 732.028162 314.64217 
L 735.659985 314.868782 
L 739.291807 315.093569 
L 742.923629 315.316561 
L 746.555451 315.537785 
L 750.187273 315.757271 
L 753.819096 315.975049 
L 757.450918 316.191149 
L 761.08274 316.405603 
L 764.714562 316.618442 
L 768.346385 316.829699 
L 771.978207 317.039408 
L 775.610029 317.247603 
L 779.241851 317.454317 
L 782.873673 317.659587 
L 786.505496 317.863448 
L 790.137318 318.065936 
L 793.76914 318.267089 
L 797.400962 318.466943 
L 801.032785 318.665538 
L 804.664607 318.86291 
L 808.296429 319.059101 
L 811.928251 319.254148 
L 815.560073 319.448092 
L 819.191896 319.640974 
L 822.823718 319.832833 
L 826.45554 320.023713 
L 830.087362 320.213654 
L 833.719185 320.402698 
L 837.351007 320.590888 
L 840.982829 320.778267 
L 844.614651 320.964878 
L 848.246473 321.150764 
L 851.878296 321.335969 
L 855.510118 321.520537 
L 859.14194 321.704512 
L 862.773762 321.887939 
L 866.405585 322.070863 
L 870.037407 322.253329 
L 873.669229 322.435381 
L 877.301051 322.617065 
L 880.932873 322.798427 
L 884.564696 322.979512 
L 888.196518 323.160366 
L 891.82834 323.341034 
L 895.460162 323.521563 
L 899.091985 323.701999 
L 902.723807 323.882386 
" clip-path="url(#pb601aa3353)" style="fill: none; stroke: #ff7f0e; stroke-width: 2; stroke-linecap: square"/>
   </g>
   <g id="line2d_41">
    <path d="M 531.287443 84.864024 
L 532.112857 96.460321 
L 532.938271 108.059337 
L 533.763686 119.658822 
L 534.5891 131.256542 
L 535.414514 142.850282 
L 536.239928 154.437857 
L 537.065342 166.017117 
L 537.890756 177.585954 
L 538.71617 189.142308 
L 539.541585 200.684178 
L 539.541585 296.04681 
L 543.173407 296.346671 
L 546.805229 296.646102 
L 550.437051 296.945097 
L 554.068873 297.24365 
L 557.700696 297.541758 
L 561.332518 297.839414 
L 564.96434 298.136614 
L 568.596162 298.433355 
L 572.227985 298.729631 
L 575.859807 299.02544 
L 579.491629 299.320777 
L 583.123451 299.615639 
L 586.755273 299.910023 
L 590.387096 300.203925 
L 594.018918 300.497344 
L 597.65074 300.790276 
L 601.282562 301.082719 
L 604.914385 301.374671 
L 608.546207 301.66613 
L 612.178029 301.957094 
L 615.809851 302.247562 
L 619.441673 302.537533 
L 623.073496 302.827006 
L 626.705318 303.11598 
L 630.33714 303.404454 
L 633.968962 303.692429 
L 637.600785 303.979904 
L 641.232607 304.266879 
L 644.864429 304.553354 
L 648.496251 304.839331 
L 652.128073 305.12481 
L 655.759896 305.409792 
L 659.391718 305.694279 
L 663.02354 305.978272 
L 666.655362 306.261772 
L 670.287185 306.544782 
L 673.919007 306.827304 
L 677.550829 307.10934 
L 681.182651 307.390893 
L 684.814473 307.671966 
L 688.446296 307.952561 
L 692.078118 308.232682 
L 695.70994 308.512333 
L 699.341762 308.791517 
L 702.973585 309.070238 
L 706.605407 309.3485 
L 710.237229 309.626307 
L 713.869051 309.903664 
L 717.500873 310.180576 
L 721.132696 310.457048 
L 724.764518 310.733084 
L 728.39634 311.00869 
L 732.028162 311.283871 
L 735.659985 311.558633 
L 739.291807 311.832982 
L 742.923629 312.106925 
L 746.555451 312.380466 
L 750.187273 312.653613 
L 753.819096 312.926372 
L 757.450918 313.19875 
L 761.08274 313.470754 
L 764.714562 313.742391 
L 768.346385 314.013667 
L 771.978207 314.284592 
L 775.610029 314.555171 
L 779.241851 314.825413 
L 782.873673 315.095326 
L 786.505496 315.364918 
L 790.137318 315.634196 
L 793.76914 315.903169 
L 797.400962 316.171846 
L 801.032785 316.440235 
L 804.664607 316.708344 
L 808.296429 316.976183 
L 811.928251 317.243761 
L 815.560073 317.511086 
L 819.191896 317.778167 
L 822.823718 318.045015 
L 826.45554 318.311637 
L 830.087362 318.578044 
L 833.719185 318.844246 
L 837.351007 319.110251 
L 840.982829 319.37607 
L 844.614651 319.641712 
L 848.246473 319.907187 
L 851.878296 320.172505 
L 855.510118 320.437677 
L 859.14194 320.702712 
L 862.773762 320.96762 
L 866.405585 321.232412 
L 870.037407 321.497097 
L 873.669229 321.761687 
L 877.301051 322.026192 
L 880.932873 322.290621 
L 884.564696 322.554985 
L 888.196518 322.819295 
L 891.82834 323.083561 
L 895.460162 323.347794 
L 899.091985 323.612004 
L 902.723807 323.876202 
" clip-path="url(#pb601aa3353)" style="fill: none; stroke: #2ca02c; stroke-width: 2; stroke-linecap: square"/>
   </g>
   <g id="line2d_42">
    <path d="M 531.287443 86.782435 
L 532.112857 97.863323 
L 532.938271 108.948261 
L 533.763686 120.036544 
L 534.5891 131.127475 
L 535.414514 142.220359 
L 536.239928 153.314507 
L 537.065342 164.40924 
L 537.890756 175.50389 
L 538.71617 186.597797 
L 539.541585 197.690319 
L 539.541585 295.370171 
L 543.173407 295.658711 
L 546.805229 295.947197 
L 550.437051 296.235627 
L 554.068873 296.524 
L 557.700696 296.812313 
L 561.332518 297.100566 
L 564.96434 297.388756 
L 568.596162 297.676882 
L 572.227985 297.964943 
L 575.859807 298.252937 
L 579.491629 298.540862 
L 583.123451 298.828718 
L 586.755273 299.116503 
L 590.387096 299.404216 
L 594.018918 299.691856 
L 597.65074 299.979421 
L 601.282562 300.266911 
L 604.914385 300.554325 
L 608.546207 300.841661 
L 612.178029 301.128919 
L 615.809851 301.416097 
L 619.441673 301.703196 
L 623.073496 301.990214 
L 626.705318 302.277151 
L 630.33714 302.564006 
L 633.968962 302.850779 
L 637.600785 303.137468 
L 641.232607 303.424074 
L 644.864429 303.710596 
L 648.496251 303.997034 
L 652.128073 304.283387 
L 655.759896 304.569655 
L 659.391718 304.855838 
L 663.02354 305.141936 
L 666.655362 305.427949 
L 670.287185 305.713877 
L 673.919007 305.999719 
L 677.550829 306.285476 
L 681.182651 306.571148 
L 684.814473 306.856735 
L 688.446296 307.142237 
L 692.078118 307.427655 
L 695.70994 307.712988 
L 699.341762 307.998238 
L 702.973585 308.283404 
L 706.605407 308.568488 
L 710.237229 308.853489 
L 713.869051 309.138409 
L 717.500873 309.423247 
L 721.132696 309.708005 
L 724.764518 309.992683 
L 728.39634 310.277282 
L 732.028162 310.561803 
L 735.659985 310.846246 
L 739.291807 311.130613 
L 742.923629 311.414904 
L 746.555451 311.699121 
L 750.187273 311.983264 
L 753.819096 312.267334 
L 757.450918 312.551333 
L 761.08274 312.835262 
L 764.714562 313.119122 
L 768.346385 313.402913 
L 771.978207 313.686639 
L 775.610029 313.970298 
L 779.241851 314.253894 
L 782.873673 314.537427 
L 786.505496 314.820899 
L 790.137318 315.104311 
L 793.76914 315.387664 
L 797.400962 315.670961 
L 801.032785 315.954202 
L 804.664607 316.23739 
L 808.296429 316.520525 
L 811.928251 316.80361 
L 815.560073 317.086646 
L 819.191896 317.369635 
L 822.823718 317.652578 
L 826.45554 317.935477 
L 830.087362 318.218334 
L 833.719185 318.501151 
L 837.351007 318.783929 
L 840.982829 319.06667 
L 844.614651 319.349377 
L 848.246473 319.63205 
L 851.878296 319.914692 
L 855.510118 320.197305 
L 859.14194 320.47989 
L 862.773762 320.76245 
L 866.405585 321.044986 
L 870.037407 321.3275 
L 873.669229 321.609995 
L 877.301051 321.892472 
L 880.932873 322.174933 
L 884.564696 322.45738 
L 888.196518 322.739815 
L 891.82834 323.02224 
L 895.460162 323.304658 
L 899.091985 323.587069 
L 902.723807 323.869476 
" clip-path="url(#pb601aa3353)" style="fill: none; stroke: #d62728; stroke-width: 2; stroke-linecap: square"/>
   </g>
   <g id="line2d_43">
    <path d="M 531.287443 92.313278 
L 532.112857 103.003539 
L 532.938271 113.698165 
L 533.763686 124.396932 
L 534.5891 135.09962 
L 535.414514 145.806007 
L 536.239928 156.51587 
L 537.065342 167.228988 
L 537.890756 177.945139 
L 538.71617 188.664102 
L 539.541585 199.385654 
L 539.541585 295.753209 
L 543.173407 296.03221 
L 546.805229 296.311272 
L 550.437051 296.590393 
L 554.068873 296.869574 
L 557.700696 297.148814 
L 561.332518 297.428111 
L 564.96434 297.707466 
L 568.596162 297.986878 
L 572.227985 298.266345 
L 575.859807 298.545868 
L 579.491629 298.825446 
L 583.123451 299.105077 
L 586.755273 299.384762 
L 590.387096 299.6645 
L 594.018918 299.94429 
L 597.65074 300.224131 
L 601.282562 300.504023 
L 604.914385 300.783965 
L 608.546207 301.063957 
L 612.178029 301.343997 
L 615.809851 301.624086 
L 619.441673 301.904222 
L 623.073496 302.184406 
L 626.705318 302.464635 
L 630.33714 302.74491 
L 633.968962 303.02523 
L 637.600785 303.305594 
L 641.232607 303.586002 
L 644.864429 303.866453 
L 648.496251 304.146947 
L 652.128073 304.427482 
L 655.759896 304.708058 
L 659.391718 304.988675 
L 663.02354 305.269331 
L 666.655362 305.550027 
L 670.287185 305.830761 
L 673.919007 306.111534 
L 677.550829 306.392343 
L 681.182651 306.673189 
L 684.814473 306.954071 
L 688.446296 307.234989 
L 692.078118 307.515941 
L 695.70994 307.796927 
L 699.341762 308.077947 
L 702.973585 308.358999 
L 706.605407 308.640084 
L 710.237229 308.9212 
L 713.869051 309.202348 
L 717.500873 309.483525 
L 721.132696 309.764733 
L 724.764518 310.045969 
L 728.39634 310.327233 
L 732.028162 310.608526 
L 735.659985 310.889845 
L 739.291807 311.171192 
L 742.923629 311.452564 
L 746.555451 311.733961 
L 750.187273 312.015383 
L 753.819096 312.296829 
L 757.450918 312.578298 
L 761.08274 312.85979 
L 764.714562 313.141305 
L 768.346385 313.42284 
L 771.978207 313.704397 
L 775.610029 313.985974 
L 779.241851 314.267571 
L 782.873673 314.549186 
L 786.505496 314.83082 
L 790.137318 315.112472 
L 793.76914 315.394141 
L 797.400962 315.675827 
L 801.032785 315.957528 
L 804.664607 316.239245 
L 808.296429 316.520976 
L 811.928251 316.802722 
L 815.560073 317.084481 
L 819.191896 317.366253 
L 822.823718 317.648037 
L 826.45554 317.929832 
L 830.087362 318.211639 
L 833.719185 318.493456 
L 837.351007 318.775283 
L 840.982829 319.057119 
L 844.614651 319.338963 
L 848.246473 319.620815 
L 851.878296 319.902675 
L 855.510118 320.184541 
L 859.14194 320.466413 
L 862.773762 320.748291 
L 866.405585 321.030173 
L 870.037407 321.31206 
L 873.669229 321.59395 
L 877.301051 321.875844 
L 880.932873 322.157739 
L 884.564696 322.439637 
L 888.196518 322.721535 
L 891.82834 323.003434 
L 895.460162 323.285333 
L 899.091985 323.567231 
L 902.723807 323.849128 
" clip-path="url(#pb601aa3353)" style="fill: none; stroke: #9467bd; stroke-width: 2; stroke-linecap: square"/>
   </g>
   <g id="line2d_44">
    <path d="M 539.541585 336.04 
L 539.541585 68.64 
" clip-path="url(#pb601aa3353)" style="fill: none; stroke-dasharray: 3.7,1.6; stroke-dashoffset: 0; stroke: #1f77b4"/>
   </g>
   <g id="patch_6">
    <path d="M 512.715625 336.04 
L 512.715625 68.64 
" style="fill: none; stroke: #000000; stroke-width: 0.8; stroke-linejoin: miter; stroke-linecap: square"/>
   </g>
   <g id="patch_7">
    <path d="M 512.715625 336.04 
L 921.295625 336.04 
" style="fill: none; stroke: #000000; stroke-width: 0.8; stroke-linejoin: miter; stroke-linecap: square"/>
   </g>
   <g id="text_41">
    <!-- SC -->
    <g transform="translate(528.748889 96.658079) scale(0.1 -0.1)">
     <use xlink:href="#DejaVuSans-53"/>
     <use xlink:href="#DejaVuSans-43" transform="translate(63.476562 0)"/>
    </g>
   </g>
   <g id="text_42">
    <!-- EP/dermis -->
    <g transform="translate(696.191289 96.658079) scale(0.1 -0.1)">
     <use xlink:href="#DejaVuSans-45"/>
     <use xlink:href="#DejaVuSans-50" transform="translate(63.183594 0)"/>
     <use xlink:href="#DejaVuSans-2f" transform="translate(123.486328 0)"/>
     <use xlink:href="#DejaVuSans-64" transform="translate(157.177734 0)"/>
     <use xlink:href="#DejaVuSans-65" transform="translate(220.654297 0)"/>
     <use xlink:href="#DejaVuSans-72" transform="translate(282.177734 0)"/>
     <use xlink:href="#DejaVuSans-6d" transform="translate(321.541016 0)"/>
     <use xlink:href="#DejaVuSans-69" transform="translate(418.953125 0)"/>
     <use xlink:href="#DejaVuSans-73" transform="translate(446.736328 0)"/>
    </g>
   </g>
   <g id="text_43">
    <!-- KLZ-NPs skin concentration profiles -->
    <g transform="translate(611.010937 62.64) scale(0.12 -0.12)">
     <defs>
      <path id="DejaVuSans-4c" d="M 628 4666 
L 1259 4666 
L 1259 531 
L 3531 531 
L 3531 0 
L 628 0 
L 628 4666 
z
" transform="scale(0.015625)"/>
      <path id="DejaVuSans-5a" d="M 359 4666 
L 4025 4666 
L 4025 4184 
L 1075 531 
L 4097 531 
L 4097 0 
L 288 0 
L 288 481 
L 3238 4134 
L 359 4134 
L 359 4666 
z
" transform="scale(0.015625)"/>
      <path id="DejaVuSans-2d" d="M 313 2009 
L 1997 2009 
L 1997 1497 
L 313 1497 
L 313 2009 
z
" transform="scale(0.015625)"/>
      <path id="DejaVuSans-4e" d="M 628 4666 
L 1478 4666 
L 3547 763 
L 3547 4666 
L 4159 4666 
L 4159 0 
L 3309 0 
L 1241 3903 
L 1241 0 
L 628 0 
L 628 4666 
z
" transform="scale(0.015625)"/>
     </defs>
     <use xlink:href="#DejaVuSans-4b"/>
     <use xlink:href="#DejaVuSans-4c" transform="translate(65.576172 0)"/>
     <use xlink:href="#DejaVuSans-5a" transform="translate(121.289062 0)"/>
     <use xlink:href="#DejaVuSans-2d" transform="translate(188.044922 0)"/>
     <use xlink:href="#DejaVuSans-4e" transform="translate(224.128906 0)"/>
     <use xlink:href="#DejaVuSans-50" transform="translate(298.933594 0)"/>
     <use xlink:href="#DejaVuSans-73" transform="translate(357.486328 0)"/>
     <use xlink:href="#DejaVuSans-20" transform="translate(409.585938 0)"/>
     <use xlink:href="#DejaVuSans-73" transform="translate(441.373047 0)"/>
     <use xlink:href="#DejaVuSans-6b" transform="translate(493.472656 0)"/>
     <use xlink:href="#DejaVuSans-69" transform="translate(551.382812 0)"/>
     <use xlink:href="#DejaVuSans-6e" transform="translate(579.166016 0)"/>
     <use xlink:href="#DejaVuSans-20" transform="translate(642.544922 0)"/>
     <use xlink:href="#DejaVuSans-63" transform="translate(674.332031 0)"/>
     <use xlink:href="#DejaVuSans-6f" transform="translate(729.3125 0)"/>
     <use xlink:href="#DejaVuSans-6e" transform="translate(790.494141 0)"/>
     <use xlink:href="#DejaVuSans-63" transform="translate(853.873047 0)"/>
     <use xlink:href="#DejaVuSans-65" transform="translate(908.853516 0)"/>
     <use xlink:href="#DejaVuSans-6e" transform="translate(970.376953 0)"/>
     <use xlink:href="#DejaVuSans-74" transform="translate(1033.755859 0)"/>
     <use xlink:href="#DejaVuSans-72" transform="translate(1072.964844 0)"/>
     <use xlink:href="#DejaVuSans-61" transform="translate(1114.078125 0)"/>
     <use xlink:href="#DejaVuSans-74" transform="translate(1175.357422 0)"/>
     <use xlink:href="#DejaVuSans-69" transform="translate(1214.566406 0)"/>
     <use xlink:href="#DejaVuSans-6f" transform="translate(1242.349609 0)"/>
     <use xlink:href="#DejaVuSans-6e" transform="translate(1303.53125 0)"/>
     <use xlink:href="#DejaVuSans-20" transform="translate(1366.910156 0)"/>
     <use xlink:href="#DejaVuSans-70" transform="translate(1398.697266 0)"/>
     <use xlink:href="#DejaVuSans-72" transform="translate(1462.173828 0)"/>
     <use xlink:href="#DejaVuSans-6f" transform="translate(1501.037109 0)"/>
     <use xlink:href="#DejaVuSans-66" transform="translate(1562.21875 0)"/>
     <use xlink:href="#DejaVuSans-69" transform="translate(1597.423828 0)"/>
     <use xlink:href="#DejaVuSans-6c" transform="translate(1625.207031 0)"/>
     <use xlink:href="#DejaVuSans-65" transform="translate(1652.990234 0)"/>
     <use xlink:href="#DejaVuSans-73" transform="translate(1714.513672 0)"/>
    </g>
   </g>
   <g id="legend_2">
    <g id="text_44">
     <!-- Time -->
     <g transform="translate(874.941719 85.238437) scale(0.1 -0.1)">
      <use xlink:href="#DejaVuSans-54"/>
      <use xlink:href="#DejaVuSans-69" transform="translate(57.958984 0)"/>
      <use xlink:href="#DejaVuSans-6d" transform="translate(85.742188 0)"/>
      <use xlink:href="#DejaVuSans-65" transform="translate(183.154297 0)"/>
     </g>
    </g>
    <g id="line2d_45">
     <path d="M 862.055 96.416562 
L 872.055 96.416562 
L 882.055 96.416562 
" style="fill: none; stroke: #1f77b4; stroke-width: 2; stroke-linecap: square"/>
    </g>
    <g id="text_45">
     <!-- 1 h -->
     <g transform="translate(890.055 99.916562) scale(0.1 -0.1)">
      <use xlink:href="#DejaVuSans-31"/>
      <use xlink:href="#DejaVuSans-20" transform="translate(63.623047 0)"/>
      <use xlink:href="#DejaVuSans-68" transform="translate(95.410156 0)"/>
     </g>
    </g>
    <g id="line2d_46">
     <path d="M 862.055 111.094688 
L 872.055 111.094688 
L 882.055 111.094688 
" style="fill: none; stroke: #ff7f0e; stroke-width: 2; stroke-linecap: square"/>
    </g>
    <g id="text_46">
     <!-- 4 h -->
     <g transform="translate(890.055 114.594688) scale(0.1 -0.1)">
      <use xlink:href="#DejaVuSans-34"/>
      <use xlink:href="#DejaVuSans-20" transform="translate(63.623047 0)"/>
      <use xlink:href="#DejaVuSans-68" transform="translate(95.410156 0)"/>
     </g>
    </g>
    <g id="line2d_47">
     <path d="M 862.055 125.772812 
L 872.055 125.772812 
L 882.055 125.772812 
" style="fill: none; stroke: #2ca02c; stroke-width: 2; stroke-linecap: square"/>
    </g>
    <g id="text_47">
     <!-- 8 h -->
     <g transform="translate(890.055 129.272812) scale(0.1 -0.1)">
      <use xlink:href="#DejaVuSans-38"/>
      <use xlink:href="#DejaVuSans-20" transform="translate(63.623047 0)"/>
      <use xlink:href="#DejaVuSans-68" transform="translate(95.410156 0)"/>
     </g>
    </g>
    <g id="line2d_48">
     <path d="M 862.055 140.450938 
L 872.055 140.450938 
L 882.055 140.450938 
" style="fill: none; stroke: #d62728; stroke-width: 2; stroke-linecap: square"/>
    </g>
    <g id="text_48">
     <!-- 12 h -->
     <g transform="translate(890.055 143.950938) scale(0.1 -0.1)">
      <use xlink:href="#DejaVuSans-31"/>
      <use xlink:href="#DejaVuSans-32" transform="translate(63.623047 0)"/>
      <use xlink:href="#DejaVuSans-20" transform="translate(127.246094 0)"/>
      <use xlink:href="#DejaVuSans-68" transform="translate(159.033203 0)"/>
     </g>
    </g>
    <g id="line2d_49">
     <path d="M 862.055 155.129063 
L 872.055 155.129063 
L 882.055 155.129063 
" style="fill: none; stroke: #9467bd; stroke-width: 2; stroke-linecap: square"/>
    </g>
    <g id="text_49">
     <!-- 24 h -->
     <g transform="translate(890.055 158.629063) scale(0.1 -0.1)">
      <use xlink:href="#DejaVuSans-32"/>
      <use xlink:href="#DejaVuSans-34" transform="translate(63.623047 0)"/>
      <use xlink:href="#DejaVuSans-20" transform="translate(127.246094 0)"/>
      <use xlink:href="#DejaVuSans-68" transform="translate(159.033203 0)"/>
     </g>
    </g>
   </g>
  </g>
  <g id="text_50">
   <!-- Model-predicted ketoconazole concentration profiles across SC and EP/dermis -->
   <g transform="translate(230.428438 16.318125) scale(0.12 -0.12)">
    <defs>
     <path id="DejaVuSans-4d" d="M 628 4666 
L 1569 4666 
L 2759 1491 
L 3956 4666 
L 4897 4666 
L 4897 0 
L 4281 0 
L 4281 4097 
L 3078 897 
L 2444 897 
L 1241 4097 
L 1241 0 
L 628 0 
L 628 4666 
z
" transform="scale(0.015625)"/>
    </defs>
    <use xlink:href="#DejaVuSans-4d"/>
    <use xlink:href="#DejaVuSans-6f" transform="translate(86.279297 0)"/>
    <use xlink:href="#DejaVuSans-64" transform="translate(147.460938 0)"/>
    <use xlink:href="#DejaVuSans-65" transform="translate(210.9375 0)"/>
    <use xlink:href="#DejaVuSans-6c" transform="translate(272.460938 0)"/>
    <use xlink:href="#DejaVuSans-2d" transform="translate(300.244141 0)"/>
    <use xlink:href="#DejaVuSans-70" transform="translate(336.328125 0)"/>
    <use xlink:href="#DejaVuSans-72" transform="translate(399.804688 0)"/>
    <use xlink:href="#DejaVuSans-65" transform="translate(438.667969 0)"/>
    <use xlink:href="#DejaVuSans-64" transform="translate(500.191406 0)"/>
    <use xlink:href="#DejaVuSans-69" transform="translate(563.667969 0)"/>
    <use xlink:href="#DejaVuSans-63" transform="translate(591.451172 0)"/>
    <use xlink:href="#DejaVuSans-74" transform="translate(646.431641 0)"/>
    <use xlink:href="#DejaVuSans-65" transform="translate(685.640625 0)"/>
    <use xlink:href="#DejaVuSans-64" transform="translate(747.164062 0)"/>
    <use xlink:href="#DejaVuSans-20" transform="translate(810.640625 0)"/>
    <use xlink:href="#DejaVuSans-6b" transform="translate(842.427734 0)"/>
    <use xlink:href="#DejaVuSans-65" transform="translate(896.712891 0)"/>
    <use xlink:href="#DejaVuSans-74" transform="translate(958.236328 0)"/>
    <use xlink:href="#DejaVuSans-6f" transform="translate(997.445312 0)"/>
    <use xlink:href="#DejaVuSans-63" transform="translate(1058.626953 0)"/>
    <use xlink:href="#DejaVuSans-6f" transform="translate(1113.607422 0)"/>
    <use xlink:href="#DejaVuSans-6e" transform="translate(1174.789062 0)"/>
    <use xlink:href="#DejaVuSans-61" transform="translate(1238.167969 0)"/>
    <use xlink:href="#DejaVuSans-7a" transform="translate(1299.447266 0)"/>
    <use xlink:href="#DejaVuSans-6f" transform="translate(1351.9375 0)"/>
    <use xlink:href="#DejaVuSans-6c" transform="translate(1413.119141 0)"/>
    <use xlink:href="#DejaVuSans-65" transform="translate(1440.902344 0)"/>
    <use xlink:href="#DejaVuSans-20" transform="translate(1502.425781 0)"/>
    <use xlink:href="#DejaVuSans-63" transform="translate(1534.212891 0)"/>
    <use xlink:href="#DejaVuSans-6f" transform="translate(1589.193359 0)"/>
    <use xlink:href="#DejaVuSans-6e" transform="translate(1650.375 0)"/>
    <use xlink:href="#DejaVuSans-63" transform="translate(1713.753906 0)"/>
    <use xlink:href="#DejaVuSans-65" transform="translate(1768.734375 0)"/>
    <use xlink:href="#DejaVuSans-6e" transform="translate(1830.257812 0)"/>
    <use xlink:href="#DejaVuSans-74" transform="translate(1893.636719 0)"/>
    <use xlink:href="#DejaVuSans-72" transform="translate(1932.845703 0)"/>
    <use xlink:href="#DejaVuSans-61" transform="translate(1973.958984 0)"/>
    <use xlink:href="#DejaVuSans-74" transform="translate(2035.238281 0)"/>
    <use xlink:href="#DejaVuSans-69" transform="translate(2074.447266 0)"/>
    <use xlink:href="#DejaVuSans-6f" transform="translate(2102.230469 0)"/>
    <use xlink:href="#DejaVuSans-6e" transform="translate(2163.412109 0)"/>
    <use xlink:href="#DejaVuSans-20" transform="translate(2226.791016 0)"/>
    <use xlink:href="#DejaVuSans-70" transform="translate(2258.578125 0)"/>
    <use xlink:href="#DejaVuSans-72" transform="translate(2322.054688 0)"/>
    <use xlink:href="#DejaVuSans-6f" transform="translate(2360.917969 0)"/>
    <use xlink:href="#DejaVuSans-66" transform="translate(2422.099609 0)"/>
    <use xlink:href="#DejaVuSans-69" transform="translate(2457.304688 0)"/>
    <use xlink:href="#DejaVuSans-6c" transform="translate(2485.087891 0)"/>
    <use xlink:href="#DejaVuSans-65" transform="translate(2512.871094 0)"/>
    <use xlink:href="#DejaVuSans-73" transform="translate(2574.394531 0)"/>
    <use xlink:href="#DejaVuSans-20" transform="translate(2626.494141 0)"/>
    <use xlink:href="#DejaVuSans-61" transform="translate(2658.28125 0)"/>
    <use xlink:href="#DejaVuSans-63" transform="translate(2719.560547 0)"/>
    <use xlink:href="#DejaVuSans-72" transform="translate(2774.541016 0)"/>
    <use xlink:href="#DejaVuSans-6f" transform="translate(2813.404297 0)"/>
    <use xlink:href="#DejaVuSans-73" transform="translate(2874.585938 0)"/>
    <use xlink:href="#DejaVuSans-73" transform="translate(2926.685547 0)"/>
    <use xlink:href="#DejaVuSans-20" transform="translate(2978.785156 0)"/>
    <use xlink:href="#DejaVuSans-53" transform="translate(3010.572266 0)"/>
    <use xlink:href="#DejaVuSans-43" transform="translate(3074.048828 0)"/>
    <use xlink:href="#DejaVuSans-20" transform="translate(3143.873047 0)"/>
    <use xlink:href="#DejaVuSans-61" transform="translate(3175.660156 0)"/>
    <use xlink:href="#DejaVuSans-6e" transform="translate(3236.939453 0)"/>
    <use xlink:href="#DejaVuSans-64" transform="translate(3300.318359 0)"/>
    <use xlink:href="#DejaVuSans-20" transform="translate(3363.794922 0)"/>
    <use xlink:href="#DejaVuSans-45" transform="translate(3395.582031 0)"/>
    <use xlink:href="#DejaVuSans-50" transform="translate(3458.765625 0)"/>
    <use xlink:href="#DejaVuSans-2f" transform="translate(3519.068359 0)"/>
    <use xlink:href="#DejaVuSans-64" transform="translate(3552.759766 0)"/>
    <use xlink:href="#DejaVuSans-65" transform="translate(3616.236328 0)"/>
    <use xlink:href="#DejaVuSans-72" transform="translate(3677.759766 0)"/>
    <use xlink:href="#DejaVuSans-6d" transform="translate(3717.123047 0)"/>
    <use xlink:href="#DejaVuSans-69" transform="translate(3814.535156 0)"/>
    <use xlink:href="#DejaVuSans-73" transform="translate(3842.318359 0)"/>
   </g>
  </g>
 </g>
 <defs>
  <clipPath id="p99fbe2be64">
   <rect x="46.965625" y="68.64" width="408.58" height="267.4"/>
  </clipPath>
  <clipPath id="pb601aa3353">
   <rect x="512.715625" y="68.64" width="408.58" height="267.4"/>
  </clipPath>
 </defs>
</svg>
