<?xml version="1.0" encoding="utf-8" standalone="no"?>
<!DOCTYPE svg PUBLIC "-//W3C//DTD SVG 1.1//EN"
  "http://www.w3.org/Graphics/SVG/1.1/DTD/svg11.dtd">
<svg xmlns:xlink="http://www.w3.org/1999/xlink" width="856.8pt" height="181.432557pt" viewBox="0 0 856.8 181.432557" xmlns="http://www.w3.org/2000/svg" version="1.1">
 <metadata>
  <rdf:RDF xmlns:dc="http://purl.org/dc/elements/1.1/" xmlns:cc="http://creativecommons.org/ns#" xmlns:rdf="http://www.w3.org/1999/02/22-rdf-syntax-ns#">
   <cc:Work>
    <dc:type rdf:resource="http://purl.org/dc/dcmitype/StillImage"/>
    <dc:date>2026-07-15T17:58:09.063867</dc:date>
    <dc:format>image/svg+xml</dc:format>
    <dc:creator>
     <cc:Agent>
      <dc:title>Matplotlib v3.10.8, https://matplotlib.org/</dc:title>
     </cc:Agent>
    </dc:creator>
   </cc:Work>
  </rdf:RDF>
 </metadata>
 <defs>
  <style type="text/css">*{stroke-linejoin: round; stroke-linecap: butt}</style>
 </defs>
 <g id="figure_1">
  <g id="patch_1">
   <path d="M -0 181.432557 
L 856.8 181.432557 
L 856.8 0 
L -0 0 
z
" style="fill: #ffffff"/>
  </g>
  <g id="axes_1">
   <g id="patch_2">
    <path d="M 7.2 143.876307 
L 849.6 143.876307 
L 849.6 40.396307 
L 7.2 40.396307 
z
" style="fill: #ffffff"/>
   </g>
   <g id="matplotlib.axis_1">
    <g id="xtick_1">
     <g id="line2d_1">
      <defs>
       <path id="m91c1dd3997" d="M 0 0 
L 0 3.5 
" style="stroke: #000000; stroke-width: 0.8"/>
      </defs>
      <g>
       <use xlink:href="#m91c1dd3997" x="91.904132" y="143.876307" style="stroke: #000000; stroke-width: 0.8"/>
      </g>
     </g>
     <g id="text_1">
      <!-- 0.46 -->
      <g transform="translate(80.77132 158.474744) scale(0.1 -0.1)">
       <defs>
        <path id="DejaVuSans-30" d="M 2034 4250 
Q 1547 4250 1301 3770 
Q 1056 3291 1056 2328 
Q 1056 1369 1301 889 
Q 1547 409 2034 409 
Q 2525 409 2770 889 
Q 3016 1369 3016 2328 
Q 3016 3291 2770 3770 
Q 2525 4250 2034 4250 
z
M 2034 4750 
Q 2819 4750 3233 4129 
Q 3647 3509 3647 2328 
Q 3647 1150 3233 529 
Q 2819 -91 2034 -91 
Q 1250 -91 836 529 
Q 422 1150 422 2328 
Q 422 3509 836 4129 
Q 1250 4750 2034 4750 
z
" transform="scale(0.015625)"/>
        <path id="DejaVuSans-2e" d="M 684 794 
L 1344 794 
L 1344 0 
L 684 0 
L 684 794 
z
" transform="scale(0.015625)"/>
        <path id="DejaVuSans-34" d="M 2419 4116 
L 825 1625 
L 2419 1625 
L 2419 4116 
z
M 2253 4666 
L 3047 4666 
L 3047 1625 
L 3713 1625 
L 3713 1100 
L 3047 1100 
L 3047 0 
L 2419 0 
L 2419 1100 
L 313 1100 
L 313 1709 
L 2253 4666 
z
" transform="scale(0.015625)"/>
        <path id="DejaVuSans-36" d="M 2113 2584 
Q 1688 2584 1439 2293 
Q 1191 2003 1191 1497 
Q 1191 994 1439 701 
Q 1688 409 2113 409 
Q 2538 409 2786 701 
Q 3034 994 3034 1497 
Q 3034 2003 2786 2293 
Q 2538 2584 2113 2584 
z
M 3366 4563 
L 3366 3988 
Q 3128 4100 2886 4159 
Q 2644 4219 2406 4219 
Q 1781 4219 1451 3797 
Q 1122 3375 1075 2522 
Q 1259 2794 1537 2939 
Q 1816 3084 2150 3084 
Q 2853 3084 3261 2657 
Q 3669 2231 3669 1497 
Q 3669 778 3244 343 
Q 2819 -91 2113 -91 
Q 1303 -91 875 529 
Q 447 1150 447 2328 
Q 447 3434 972 4092 
Q 1497 4750 2381 4750 
Q 2619 4750 2861 4703 
Q 3103 4656 3366 4563 
z
" transform="scale(0.015625)"/>
       </defs>
       <use xlink:href="#DejaVuSans-30"/>
       <use xlink:href="#DejaVuSans-2e" transform="translate(63.623047 0)"/>
       <use xlink:href="#DejaVuSans-34" transform="translate(95.410156 0)"/>
       <use xlink:href="#DejaVuSans-36" transform="translate(159.033203 0)"/>
      </g>
     </g>
    </g>
    <g id="xtick_2">
     <g id="line2d_2">
      <g>
       <use xlink:href="#m91c1dd3997" x="262.08595" y="143.876307" style="stroke: #000000; stroke-width: 0.8"/>
      </g>
     </g>
     <g id="text_2">
      <!-- 0.48 -->
      <g transform="translate(250.953138 158.474744) scale(0.1 -0.1)">
       <defs>
        <path id="DejaVuSans-38" d="M 2034 2216 
Q 1584 2216 1326 1975 
Q 1069 1734 1069 1313 
Q 1069 891 1326 650 
Q 1584 409 2034 409 
Q 2484 409 2743 651 
Q 3003 894 3003 1313 
Q 3003 1734 2745 1975 
Q 2488 2216 2034 2216 
z
M 1403 2484 
Q 997 2584 770 2862 
Q 544 3141 544 3541 
Q 544 4100 942 4425 
Q 1341 4750 2034 4750 
Q 2731 4750 3128 4425 
Q 3525 4100 3525 3541 
Q 3525 3141 3298 2862 
Q 3072 2584 2669 2484 
Q 3125 2378 3379 2068 
Q 3634 1759 3634 1313 
Q 3634 634 3220 271 
Q 2806 -91 2034 -91 
Q 1263 -91 848 271 
Q 434 634 434 1313 
Q 434 1759 690 2068 
Q 947 2378 1403 2484 
z
M 1172 3481 
Q 1172 3119 1398 2916 
Q 1625 2713 2034 2713 
Q 2441 2713 2670 2916 
Q 2900 3119 2900 3481 
Q 2900 3844 2670 4047 
Q 2441 4250 2034 4250 
Q 1625 4250 1398 4047 
Q 1172 3844 1172 3481 
z
" transform="scale(0.015625)"/>
       </defs>
       <use xlink:href="#DejaVuSans-30"/>
       <use xlink:href="#DejaVuSans-2e" transform="translate(63.623047 0)"/>
       <use xlink:href="#DejaVuSans-34" transform="translate(95.410156 0)"/>
       <use xlink:href="#DejaVuSans-38" transform="translate(159.033203 0)"/>
      </g>
     </g>
    </g>
    <g id="xtick_3">
     <g id="line2d_3">
      <g>
       <use xlink:href="#m91c1dd3997" x="432.267769" y="143.876307" style="stroke: #000000; stroke-width: 0.8"/>
      </g>
     </g>
     <g id="text_3">
      <!-- 0.50 -->
      <g transform="translate(421.134956 158.474744) scale(0.1 -0.1)">
       <defs>
        <path id="DejaVuSans-35" d="M 691 4666 
L 3169 4666 
L 3169 4134 
L 1269 4134 
L 1269 2991 
Q 1406 3038 1543 3061 
Q 1681 3084 1819 3084 
Q 2600 3084 3056 2656 
Q 3513 2228 3513 1497 
Q 3513 744 3044 326 
Q 2575 -91 1722 -91 
Q 1428 -91 1123 -41 
Q 819 9 494 109 
L 494 744 
Q 775 591 1075 516 
Q 1375 441 1709 441 
Q 2250 441 2565 725 
Q 2881 1009 2881 1497 
Q 2881 1984 2565 2268 
Q 2250 2553 1709 2553 
Q 1456 2553 1204 2497 
Q 953 2441 691 2322 
L 691 4666 
z
" transform="scale(0.015625)"/>
       </defs>
       <use xlink:href="#DejaVuSans-30"/>
       <use xlink:href="#DejaVuSans-2e" transform="translate(63.623047 0)"/>
       <use xlink:href="#DejaVuSans-35" transform="translate(95.410156 0)"/>
       <use xlink:href="#DejaVuSans-30" transform="translate(159.033203 0)"/>
      </g>
     </g>
    </g>
    <g id="xtick_4">
     <g id="line2d_4">
      <g>
       <use xlink:href="#m91c1dd3997" x="602.449587" y="143.876307" style="stroke: #000000; stroke-width: 0.8"/>
      </g>
     </g>
     <g id="text_4">
      <!-- 0.52 -->
      <g transform="translate(591.316774 158.474744) scale(0.1 -0.1)">
       <defs>
        <path id="DejaVuSans-32" d="M 1228 531 
L 3431 531 
L 3431 0 
L 469 0 
L 469 531 
Q 828 903 1448 1529 
Q 2069 2156 2228 2338 
Q 2531 2678 2651 2914 
Q 2772 3150 2772 3378 
Q 2772 3750 2511 3984 
Q 2250 4219 1831 4219 
Q 1534 4219 1204 4116 
Q 875 4013 500 3803 
L 500 4441 
Q 881 4594 1212 4672 
Q 1544 4750 1819 4750 
Q 2544 4750 2975 4387 
Q 3406 4025 3406 3419 
Q 3406 3131 3298 2873 
Q 3191 2616 2906 2266 
Q 2828 2175 2409 1742 
Q 1991 1309 1228 531 
z
" transform="scale(0.015625)"/>
       </defs>
       <use xlink:href="#DejaVuSans-30"/>
       <use xlink:href="#DejaVuSans-2e" transform="translate(63.623047 0)"/>
       <use xlink:href="#DejaVuSans-35" transform="translate(95.410156 0)"/>
       <use xlink:href="#DejaVuSans-32" transform="translate(159.033203 0)"/>
      </g>
     </g>
    </g>
    <g id="xtick_5">
     <g id="line2d_5">
      <g>
       <use xlink:href="#m91c1dd3997" x="772.631405" y="143.876307" style="stroke: #000000; stroke-width: 0.8"/>
      </g>
     </g>
     <g id="text_5">
      <!-- 0.54 -->
      <g transform="translate(761.498592 158.474744) scale(0.1 -0.1)">
       <use xlink:href="#DejaVuSans-30"/>
       <use xlink:href="#DejaVuSans-2e" transform="translate(63.623047 0)"/>
       <use xlink:href="#DejaVuSans-35" transform="translate(95.410156 0)"/>
       <use xlink:href="#DejaVuSans-34" transform="translate(159.033203 0)"/>
      </g>
     </g>
    </g>
    <g id="text_6">
     <!-- Position across computational domain (cm) -->
     <g transform="translate(320.23125 172.152869) scale(0.1 -0.1)">
      <defs>
       <path id="DejaVuSans-50" d="M 1259 4147 
L 1259 2394 
L 2053 2394 
Q 2494 2394 2734 2622 
Q 2975 2850 2975 3272 
Q 2975 3691 2734 3919 
Q 2494 4147 2053 4147 
L 1259 4147 
z
M 628 4666 
L 2053 4666 
Q 2838 4666 3239 4311 
Q 3641 3956 3641 3272 
Q 3641 2581 3239 2228 
Q 2838 1875 2053 1875 
L 1259 1875 
L 1259 0 
L 628 0 
L 628 4666 
z
" transform="scale(0.015625)"/>
       <path id="DejaVuSans-6f" d="M 1959 3097 
Q 1497 3097 1228 2736 
Q 959 2375 959 1747 
Q 959 1119 1226 758 
Q 1494 397 1959 397 
Q 2419 397 2687 759 
Q 2956 1122 2956 1747 
Q 2956 2369 2687 2733 
Q 2419 3097 1959 3097 
z
M 1959 3584 
Q 2709 3584 3137 3096 
Q 3566 2609 3566 1747 
Q 3566 888 3137 398 
Q 2709 -91 1959 -91 
Q 1206 -91 779 398 
Q 353 888 353 1747 
Q 353 2609 779 3096 
Q 1206 3584 1959 3584 
z
" transform="scale(0.015625)"/>
       <path id="DejaVuSans-73" d="M 2834 3397 
L 2834 2853 
Q 2591 2978 2328 3040 
Q 2066 3103 1784 3103 
Q 1356 3103 1142 2972 
Q 928 2841 928 2578 
Q 928 2378 1081 2264 
Q 1234 2150 1697 2047 
L 1894 2003 
Q 2506 1872 2764 1633 
Q 3022 1394 3022 966 
Q 3022 478 2636 193 
Q 2250 -91 1575 -91 
Q 1294 -91 989 -36 
Q 684 19 347 128 
L 347 722 
Q 666 556 975 473 
Q 1284 391 1588 391 
Q 1994 391 2212 530 
Q 2431 669 2431 922 
Q 2431 1156 2273 1281 
Q 2116 1406 1581 1522 
L 1381 1569 
Q 847 1681 609 1914 
Q 372 2147 372 2553 
Q 372 3047 722 3315 
Q 1072 3584 1716 3584 
Q 2034 3584 2315 3537 
Q 2597 3491 2834 3397 
z
" transform="scale(0.015625)"/>
       <path id="DejaVuSans-69" d="M 603 3500 
L 1178 3500 
L 1178 0 
L 603 0 
L 603 3500 
z
M 603 4863 
L 1178 4863 
L 1178 4134 
L 603 4134 
L 603 4863 
z
" transform="scale(0.015625)"/>
       <path id="DejaVuSans-74" d="M 1172 4494 
L 1172 3500 
L 2356 3500 
L 2356 3053 
L 1172 3053 
L 1172 1153 
Q 1172 725 1289 603 
Q 1406 481 1766 481 
L 2356 481 
L 2356 0 
L 1766 0 
Q 1100 0 847 248 
Q 594 497 594 1153 
L 594 3053 
L 172 3053 
L 172 3500 
L 594 3500 
L 594 4494 
L 1172 4494 
z
" transform="scale(0.015625)"/>
       <path id="DejaVuSans-6e" d="M 3513 2113 
L 3513 0 
L 2938 0 
L 2938 2094 
Q 2938 2591 2744 2837 
Q 2550 3084 2163 3084 
Q 1697 3084 1428 2787 
Q 1159 2491 1159 1978 
L 1159 0 
L 581 0 
L 581 3500 
L 1159 3500 
L 1159 2956 
Q 1366 3272 1645 3428 
Q 1925 3584 2291 3584 
Q 2894 3584 3203 3211 
Q 3513 2838 3513 2113 
z
" transform="scale(0.015625)"/>
       <path id="DejaVuSans-20" transform="scale(0.015625)"/>
       <path id="DejaVuSans-61" d="M 2194 1759 
Q 1497 1759 1228 1600 
Q 959 1441 959 1056 
Q 959 750 1161 570 
Q 1363 391 1709 391 
Q 2188 391 2477 730 
Q 2766 1069 2766 1631 
L 2766 1759 
L 2194 1759 
z
M 3341 1997 
L 3341 0 
L 2766 0 
L 2766 531 
Q 2569 213 2275 61 
Q 1981 -91 1556 -91 
Q 1019 -91 701 211 
Q 384 513 384 1019 
Q 384 1609 779 1909 
Q 1175 2209 1959 2209 
L 2766 2209 
L 2766 2266 
Q 2766 2663 2505 2880 
Q 2244 3097 1772 3097 
Q 1472 3097 1187 3025 
Q 903 2953 641 2809 
L 641 3341 
Q 956 3463 1253 3523 
Q 1550 3584 1831 3584 
Q 2591 3584 2966 3190 
Q 3341 2797 3341 1997 
z
" transform="scale(0.015625)"/>
       <path id="DejaVuSans-63" d="M 3122 3366 
L 3122 2828 
Q 2878 2963 2633 3030 
Q 2388 3097 2138 3097 
Q 1578 3097 1268 2742 
Q 959 2388 959 1747 
Q 959 1106 1268 751 
Q 1578 397 2138 397 
Q 2388 397 2633 464 
Q 2878 531 3122 666 
L 3122 134 
Q 2881 22 2623 -34 
Q 2366 -91 2075 -91 
Q 1284 -91 818 406 
Q 353 903 353 1747 
Q 353 2603 823 3093 
Q 1294 3584 2113 3584 
Q 2378 3584 2631 3529 
Q 2884 3475 3122 3366 
z
" transform="scale(0.015625)"/>
       <path id="DejaVuSans-72" d="M 2631 2963 
Q 2534 3019 2420 3045 
Q 2306 3072 2169 3072 
Q 1681 3072 1420 2755 
Q 1159 2438 1159 1844 
L 1159 0 
L 581 0 
L 581 3500 
L 1159 3500 
L 1159 2956 
Q 1341 3275 1631 3429 
Q 1922 3584 2338 3584 
Q 2397 3584 2469 3576 
Q 2541 3569 2628 3553 
L 2631 2963 
z
" transform="scale(0.015625)"/>
       <path id="DejaVuSans-6d" d="M 3328 2828 
Q 3544 3216 3844 3400 
Q 4144 3584 4550 3584 
Q 5097 3584 5394 3201 
Q 5691 2819 5691 2113 
L 5691 0 
L 5113 0 
L 5113 2094 
Q 5113 2597 4934 2840 
Q 4756 3084 4391 3084 
Q 3944 3084 3684 2787 
Q 3425 2491 3425 1978 
L 3425 0 
L 2847 0 
L 2847 2094 
Q 2847 2600 2669 2842 
Q 2491 3084 2119 3084 
Q 1678 3084 1418 2786 
Q 1159 2488 1159 1978 
L 1159 0 
L 581 0 
L 581 3500 
L 1159 3500 
L 1159 2956 
Q 1356 3278 1631 3431 
Q 1906 3584 2284 3584 
Q 2666 3584 2933 3390 
Q 3200 3197 3328 2828 
z
" transform="scale(0.015625)"/>
       <path id="DejaVuSans-70" d="M 1159 525 
L 1159 -1331 
L 581 -1331 
L 581 3500 
L 1159 3500 
L 1159 2969 
Q 1341 3281 1617 3432 
Q 1894 3584 2278 3584 
Q 2916 3584 3314 3078 
Q 3713 2572 3713 1747 
Q 3713 922 3314 415 
Q 2916 -91 2278 -91 
Q 1894 -91 1617 61 
Q 1341 213 1159 525 
z
M 3116 1747 
Q 3116 2381 2855 2742 
Q 2594 3103 2138 3103 
Q 1681 3103 1420 2742 
Q 1159 2381 1159 1747 
Q 1159 1113 1420 752 
Q 1681 391 2138 391 
Q 2594 391 2855 752 
Q 3116 1113 3116 1747 
z
" transform="scale(0.015625)"/>
       <path id="DejaVuSans-75" d="M 544 1381 
L 544 3500 
L 1119 3500 
L 1119 1403 
Q 1119 906 1312 657 
Q 1506 409 1894 409 
Q 2359 409 2629 706 
Q 2900 1003 2900 1516 
L 2900 3500 
L 3475 3500 
L 3475 0 
L 2900 0 
L 2900 538 
Q 2691 219 2414 64 
Q 2138 -91 1772 -91 
Q 1169 -91 856 284 
Q 544 659 544 1381 
z
M 1991 3584 
L 1991 3584 
z
" transform="scale(0.015625)"/>
       <path id="DejaVuSans-6c" d="M 603 4863 
L 1178 4863 
L 1178 0 
L 603 0 
L 603 4863 
z
" transform="scale(0.015625)"/>
       <path id="DejaVuSans-64" d="M 2906 2969 
L 2906 4863 
L 3481 4863 
L 3481 0 
L 2906 0 
L 2906 525 
Q 2725 213 2448 61 
Q 2172 -91 1784 -91 
Q 1150 -91 751 415 
Q 353 922 353 1747 
Q 353 2572 751 3078 
Q 1150 3584 1784 3584 
Q 2172 3584 2448 3432 
Q 2725 3281 2906 2969 
z
M 947 1747 
Q 947 1113 1208 752 
Q 1469 391 1925 391 
Q 2381 391 2643 752 
Q 2906 1113 2906 1747 
Q 2906 2381 2643 2742 
Q 2381 3103 1925 3103 
Q 1469 3103 1208 2742 
Q 947 2381 947 1747 
z
" transform="scale(0.015625)"/>
       <path id="DejaVuSans-28" d="M 1984 4856 
Q 1566 4138 1362 3434 
Q 1159 2731 1159 2009 
Q 1159 1288 1364 580 
Q 1569 -128 1984 -844 
L 1484 -844 
Q 1016 -109 783 600 
Q 550 1309 550 2009 
Q 550 2706 781 3412 
Q 1013 4119 1484 4856 
L 1984 4856 
z
" transform="scale(0.015625)"/>
       <path id="DejaVuSans-29" d="M 513 4856 
L 1013 4856 
Q 1481 4119 1714 3412 
Q 1947 2706 1947 2009 
Q 1947 1309 1714 600 
Q 1481 -109 1013 -844 
L 513 -844 
Q 928 -128 1133 580 
Q 1338 1288 1338 2009 
Q 1338 2731 1133 3434 
Q 928 4138 513 4856 
z
" transform="scale(0.015625)"/>
      </defs>
      <use xlink:href="#DejaVuSans-50"/>
      <use xlink:href="#DejaVuSans-6f" transform="translate(56.677734 0)"/>
      <use xlink:href="#DejaVuSans-73" transform="translate(117.859375 0)"/>
      <use xlink:href="#DejaVuSans-69" transform="translate(169.958984 0)"/>
      <use xlink:href="#DejaVuSans-74" transform="translate(197.742188 0)"/>
      <use xlink:href="#DejaVuSans-69" transform="translate(236.951172 0)"/>
      <use xlink:href="#DejaVuSans-6f" transform="translate(264.734375 0)"/>
      <use xlink:href="#DejaVuSans-6e" transform="translate(325.916016 0)"/>
      <use xlink:href="#DejaVuSans-20" transform="translate(389.294922 0)"/>
      <use xlink:href="#DejaVuSans-61" transform="translate(421.082031 0)"/>
      <use xlink:href="#DejaVuSans-63" transform="translate(482.361328 0)"/>
      <use xlink:href="#DejaVuSans-72" transform="translate(537.341797 0)"/>
      <use xlink:href="#DejaVuSans-6f" transform="translate(576.205078 0)"/>
      <use xlink:href="#DejaVuSans-73" transform="translate(637.386719 0)"/>
      <use xlink:href="#DejaVuSans-73" transform="translate(689.486328 0)"/>
      <use xlink:href="#DejaVuSans-20" transform="translate(741.585938 0)"/>
      <use xlink:href="#DejaVuSans-63" transform="translate(773.373047 0)"/>
      <use xlink:href="#DejaVuSans-6f" transform="translate(828.353516 0)"/>
      <use xlink:href="#DejaVuSans-6d" transform="translate(889.535156 0)"/>
      <use xlink:href="#DejaVuSans-70" transform="translate(986.947266 0)"/>
      <use xlink:href="#DejaVuSans-75" transform="translate(1050.423828 0)"/>
      <use xlink:href="#DejaVuSans-74" transform="translate(1113.802734 0)"/>
      <use xlink:href="#DejaVuSans-61" transform="translate(1153.011719 0)"/>
      <use xlink:href="#DejaVuSans-74" transform="translate(1214.291016 0)"/>
      <use xlink:href="#DejaVuSans-69" transform="translate(1253.5 0)"/>
      <use xlink:href="#DejaVuSans-6f" transform="translate(1281.283203 0)"/>
      <use xlink:href="#DejaVuSans-6e" transform="translate(1342.464844 0)"/>
      <use xlink:href="#DejaVuSans-61" transform="translate(1405.84375 0)"/>
      <use xlink:href="#DejaVuSans-6c" transform="translate(1467.123047 0)"/>
      <use xlink:href="#DejaVuSans-20" transform="translate(1494.90625 0)"/>
      <use xlink:href="#DejaVuSans-64" transform="translate(1526.693359 0)"/>
      <use xlink:href="#DejaVuSans-6f" transform="translate(1590.169922 0)"/>
      <use xlink:href="#DejaVuSans-6d" transform="translate(1651.351562 0)"/>
      <use xlink:href="#DejaVuSans-61" transform="translate(1748.763672 0)"/>
      <use xlink:href="#DejaVuSans-69" transform="translate(1810.042969 0)"/>
      <use xlink:href="#DejaVuSans-6e" transform="translate(1837.826172 0)"/>
      <use xlink:href="#DejaVuSans-20" transform="translate(1901.205078 0)"/>
      <use xlink:href="#DejaVuSans-28" transform="translate(1932.992188 0)"/>
      <use xlink:href="#DejaVuSans-63" transform="translate(1972.005859 0)"/>
      <use xlink:href="#DejaVuSans-6d" transform="translate(2026.986328 0)"/>
      <use xlink:href="#DejaVuSans-29" transform="translate(2124.398438 0)"/>
     </g>
    </g>
   </g>
   <g id="matplotlib.axis_2"/>
   <g id="line2d_6">
    <defs>
     <path id="mb45fb6fba5" d="M 0 1.5 
C 0.397805 1.5 0.77937 1.341951 1.06066 1.06066 
C 1.341951 0.77937 1.5 0.397805 1.5 0 
C 1.5 -0.397805 1.341951 -0.77937 1.06066 -1.06066 
C 0.77937 -1.341951 0.397805 -1.5 0 -1.5 
C -0.397805 -1.5 -0.77937 -1.341951 -1.06066 -1.06066 
C -1.341951 -0.77937 -1.5 -0.397805 -1.5 0 
C -1.5 0.397805 -1.341951 0.77937 -1.06066 1.06066 
C -0.77937 1.341951 -0.397805 1.5 0 1.5 
z
" style="stroke: #1f77b4"/>
    </defs>
    <g clip-path="url(#pe2c0b54704)">
     <use xlink:href="#mb45fb6fba5" x="45.490909" y="92.136307" style="fill: #1f77b4; stroke: #1f77b4"/>
     <use xlink:href="#mb45fb6fba5" x="45.490909" y="92.136307" style="fill: #1f77b4; stroke: #1f77b4"/>
     <use xlink:href="#mb45fb6fba5" x="47.192727" y="92.136307" style="fill: #1f77b4; stroke: #1f77b4"/>
     <use xlink:href="#mb45fb6fba5" x="48.894545" y="92.136307" style="fill: #1f77b4; stroke: #1f77b4"/>
     <use xlink:href="#mb45fb6fba5" x="50.596364" y="92.136307" style="fill: #1f77b4; stroke: #1f77b4"/>
     <use xlink:href="#mb45fb6fba5" x="52.298182" y="92.136307" style="fill: #1f77b4; stroke: #1f77b4"/>
     <use xlink:href="#mb45fb6fba5" x="54" y="92.136307" style="fill: #1f77b4; stroke: #1f77b4"/>
     <use xlink:href="#mb45fb6fba5" x="55.701818" y="92.136307" style="fill: #1f77b4; stroke: #1f77b4"/>
     <use xlink:href="#mb45fb6fba5" x="57.403636" y="92.136307" style="fill: #1f77b4; stroke: #1f77b4"/>
     <use xlink:href="#mb45fb6fba5" x="59.105455" y="92.136307" style="fill: #1f77b4; stroke: #1f77b4"/>
     <use xlink:href="#mb45fb6fba5" x="60.807273" y="92.136307" style="fill: #1f77b4; stroke: #1f77b4"/>
     <use xlink:href="#mb45fb6fba5" x="62.509091" y="92.136307" style="fill: #1f77b4; stroke: #1f77b4"/>
     <use xlink:href="#mb45fb6fba5" x="62.509091" y="92.136307" style="fill: #1f77b4; stroke: #1f77b4"/>
     <use xlink:href="#mb45fb6fba5" x="69.997091" y="92.136307" style="fill: #1f77b4; stroke: #1f77b4"/>
     <use xlink:href="#mb45fb6fba5" x="77.485091" y="92.136307" style="fill: #1f77b4; stroke: #1f77b4"/>
     <use xlink:href="#mb45fb6fba5" x="84.973091" y="92.136307" style="fill: #1f77b4; stroke: #1f77b4"/>
     <use xlink:href="#mb45fb6fba5" x="92.461091" y="92.136307" style="fill: #1f77b4; stroke: #1f77b4"/>
     <use xlink:href="#mb45fb6fba5" x="99.949091" y="92.136307" style="fill: #1f77b4; stroke: #1f77b4"/>
     <use xlink:href="#mb45fb6fba5" x="107.437091" y="92.136307" style="fill: #1f77b4; stroke: #1f77b4"/>
     <use xlink:href="#mb45fb6fba5" x="114.925091" y="92.136307" style="fill: #1f77b4; stroke: #1f77b4"/>
     <use xlink:href="#mb45fb6fba5" x="122.413091" y="92.136307" style="fill: #1f77b4; stroke: #1f77b4"/>
     <use xlink:href="#mb45fb6fba5" x="129.901091" y="92.136307" style="fill: #1f77b4; stroke: #1f77b4"/>
     <use xlink:href="#mb45fb6fba5" x="137.389091" y="92.136307" style="fill: #1f77b4; stroke: #1f77b4"/>
     <use xlink:href="#mb45fb6fba5" x="144.877091" y="92.136307" style="fill: #1f77b4; stroke: #1f77b4"/>
     <use xlink:href="#mb45fb6fba5" x="152.365091" y="92.136307" style="fill: #1f77b4; stroke: #1f77b4"/>
     <use xlink:href="#mb45fb6fba5" x="159.853091" y="92.136307" style="fill: #1f77b4; stroke: #1f77b4"/>
     <use xlink:href="#mb45fb6fba5" x="167.341091" y="92.136307" style="fill: #1f77b4; stroke: #1f77b4"/>
     <use xlink:href="#mb45fb6fba5" x="174.829091" y="92.136307" style="fill: #1f77b4; stroke: #1f77b4"/>
     <use xlink:href="#mb45fb6fba5" x="182.317091" y="92.136307" style="fill: #1f77b4; stroke: #1f77b4"/>
     <use xlink:href="#mb45fb6fba5" x="189.805091" y="92.136307" style="fill: #1f77b4; stroke: #1f77b4"/>
     <use xlink:href="#mb45fb6fba5" x="197.293091" y="92.136307" style="fill: #1f77b4; stroke: #1f77b4"/>
     <use xlink:href="#mb45fb6fba5" x="204.781091" y="92.136307" style="fill: #1f77b4; stroke: #1f77b4"/>
     <use xlink:href="#mb45fb6fba5" x="212.269091" y="92.136307" style="fill: #1f77b4; stroke: #1f77b4"/>
     <use xlink:href="#mb45fb6fba5" x="219.757091" y="92.136307" style="fill: #1f77b4; stroke: #1f77b4"/>
     <use xlink:href="#mb45fb6fba5" x="227.245091" y="92.136307" style="fill: #1f77b4; stroke: #1f77b4"/>
     <use xlink:href="#mb45fb6fba5" x="234.733091" y="92.136307" style="fill: #1f77b4; stroke: #1f77b4"/>
     <use xlink:href="#mb45fb6fba5" x="242.221091" y="92.136307" style="fill: #1f77b4; stroke: #1f77b4"/>
     <use xlink:href="#mb45fb6fba5" x="249.709091" y="92.136307" style="fill: #1f77b4; stroke: #1f77b4"/>
     <use xlink:href="#mb45fb6fba5" x="257.197091" y="92.136307" style="fill: #1f77b4; stroke: #1f77b4"/>
     <use xlink:href="#mb45fb6fba5" x="264.685091" y="92.136307" style="fill: #1f77b4; stroke: #1f77b4"/>
     <use xlink:href="#mb45fb6fba5" x="272.173091" y="92.136307" style="fill: #1f77b4; stroke: #1f77b4"/>
     <use xlink:href="#mb45fb6fba5" x="279.661091" y="92.136307" style="fill: #1f77b4; stroke: #1f77b4"/>
     <use xlink:href="#mb45fb6fba5" x="287.149091" y="92.136307" style="fill: #1f77b4; stroke: #1f77b4"/>
     <use xlink:href="#mb45fb6fba5" x="294.637091" y="92.136307" style="fill: #1f77b4; stroke: #1f77b4"/>
     <use xlink:href="#mb45fb6fba5" x="302.125091" y="92.136307" style="fill: #1f77b4; stroke: #1f77b4"/>
     <use xlink:href="#mb45fb6fba5" x="309.613091" y="92.136307" style="fill: #1f77b4; stroke: #1f77b4"/>
     <use xlink:href="#mb45fb6fba5" x="317.101091" y="92.136307" style="fill: #1f77b4; stroke: #1f77b4"/>
     <use xlink:href="#mb45fb6fba5" x="324.589091" y="92.136307" style="fill: #1f77b4; stroke: #1f77b4"/>
     <use xlink:href="#mb45fb6fba5" x="332.077091" y="92.136307" style="fill: #1f77b4; stroke: #1f77b4"/>
     <use xlink:href="#mb45fb6fba5" x="339.565091" y="92.136307" style="fill: #1f77b4; stroke: #1f77b4"/>
     <use xlink:href="#mb45fb6fba5" x="347.053091" y="92.136307" style="fill: #1f77b4; stroke: #1f77b4"/>
     <use xlink:href="#mb45fb6fba5" x="354.541091" y="92.136307" style="fill: #1f77b4; stroke: #1f77b4"/>
     <use xlink:href="#mb45fb6fba5" x="362.029091" y="92.136307" style="fill: #1f77b4; stroke: #1f77b4"/>
     <use xlink:href="#mb45fb6fba5" x="369.517091" y="92.136307" style="fill: #1f77b4; stroke: #1f77b4"/>
     <use xlink:href="#mb45fb6fba5" x="377.005091" y="92.136307" style="fill: #1f77b4; stroke: #1f77b4"/>
     <use xlink:href="#mb45fb6fba5" x="384.493091" y="92.136307" style="fill: #1f77b4; stroke: #1f77b4"/>
     <use xlink:href="#mb45fb6fba5" x="391.981091" y="92.136307" style="fill: #1f77b4; stroke: #1f77b4"/>
     <use xlink:href="#mb45fb6fba5" x="399.469091" y="92.136307" style="fill: #1f77b4; stroke: #1f77b4"/>
     <use xlink:href="#mb45fb6fba5" x="406.957091" y="92.136307" style="fill: #1f77b4; stroke: #1f77b4"/>
     <use xlink:href="#mb45fb6fba5" x="414.445091" y="92.136307" style="fill: #1f77b4; stroke: #1f77b4"/>
     <use xlink:href="#mb45fb6fba5" x="421.933091" y="92.136307" style="fill: #1f77b4; stroke: #1f77b4"/>
     <use xlink:href="#mb45fb6fba5" x="429.421091" y="92.136307" style="fill: #1f77b4; stroke: #1f77b4"/>
     <use xlink:href="#mb45fb6fba5" x="436.909091" y="92.136307" style="fill: #1f77b4; stroke: #1f77b4"/>
     <use xlink:href="#mb45fb6fba5" x="444.397091" y="92.136307" style="fill: #1f77b4; stroke: #1f77b4"/>
     <use xlink:href="#mb45fb6fba5" x="451.885091" y="92.136307" style="fill: #1f77b4; stroke: #1f77b4"/>
     <use xlink:href="#mb45fb6fba5" x="459.373091" y="92.136307" style="fill: #1f77b4; stroke: #1f77b4"/>
     <use xlink:href="#mb45fb6fba5" x="466.861091" y="92.136307" style="fill: #1f77b4; stroke: #1f77b4"/>
     <use xlink:href="#mb45fb6fba5" x="474.349091" y="92.136307" style="fill: #1f77b4; stroke: #1f77b4"/>
     <use xlink:href="#mb45fb6fba5" x="481.837091" y="92.136307" style="fill: #1f77b4; stroke: #1f77b4"/>
     <use xlink:href="#mb45fb6fba5" x="489.325091" y="92.136307" style="fill: #1f77b4; stroke: #1f77b4"/>
     <use xlink:href="#mb45fb6fba5" x="496.813091" y="92.136307" style="fill: #1f77b4; stroke: #1f77b4"/>
     <use xlink:href="#mb45fb6fba5" x="504.301091" y="92.136307" style="fill: #1f77b4; stroke: #1f77b4"/>
     <use xlink:href="#mb45fb6fba5" x="511.789091" y="92.136307" style="fill: #1f77b4; stroke: #1f77b4"/>
     <use xlink:href="#mb45fb6fba5" x="519.277091" y="92.136307" style="fill: #1f77b4; stroke: #1f77b4"/>
     <use xlink:href="#mb45fb6fba5" x="526.765091" y="92.136307" style="fill: #1f77b4; stroke: #1f77b4"/>
     <use xlink:href="#mb45fb6fba5" x="534.253091" y="92.136307" style="fill: #1f77b4; stroke: #1f77b4"/>
     <use xlink:href="#mb45fb6fba5" x="541.741091" y="92.136307" style="fill: #1f77b4; stroke: #1f77b4"/>
     <use xlink:href="#mb45fb6fba5" x="549.229091" y="92.136307" style="fill: #1f77b4; stroke: #1f77b4"/>
     <use xlink:href="#mb45fb6fba5" x="556.717091" y="92.136307" style="fill: #1f77b4; stroke: #1f77b4"/>
     <use xlink:href="#mb45fb6fba5" x="564.205091" y="92.136307" style="fill: #1f77b4; stroke: #1f77b4"/>
     <use xlink:href="#mb45fb6fba5" x="571.693091" y="92.136307" style="fill: #1f77b4; stroke: #1f77b4"/>
     <use xlink:href="#mb45fb6fba5" x="579.181091" y="92.136307" style="fill: #1f77b4; stroke: #1f77b4"/>
     <use xlink:href="#mb45fb6fba5" x="586.669091" y="92.136307" style="fill: #1f77b4; stroke: #1f77b4"/>
     <use xlink:href="#mb45fb6fba5" x="594.157091" y="92.136307" style="fill: #1f77b4; stroke: #1f77b4"/>
     <use xlink:href="#mb45fb6fba5" x="601.645091" y="92.136307" style="fill: #1f77b4; stroke: #1f77b4"/>
     <use xlink:href="#mb45fb6fba5" x="609.133091" y="92.136307" style="fill: #1f77b4; stroke: #1f77b4"/>
     <use xlink:href="#mb45fb6fba5" x="616.621091" y="92.136307" style="fill: #1f77b4; stroke: #1f77b4"/>
     <use xlink:href="#mb45fb6fba5" x="624.109091" y="92.136307" style="fill: #1f77b4; stroke: #1f77b4"/>
     <use xlink:href="#mb45fb6fba5" x="631.597091" y="92.136307" style="fill: #1f77b4; stroke: #1f77b4"/>
     <use xlink:href="#mb45fb6fba5" x="639.085091" y="92.136307" style="fill: #1f77b4; stroke: #1f77b4"/>
     <use xlink:href="#mb45fb6fba5" x="646.573091" y="92.136307" style="fill: #1f77b4; stroke: #1f77b4"/>
     <use xlink:href="#mb45fb6fba5" x="654.061091" y="92.136307" style="fill: #1f77b4; stroke: #1f77b4"/>
     <use xlink:href="#mb45fb6fba5" x="661.549091" y="92.136307" style="fill: #1f77b4; stroke: #1f77b4"/>
     <use xlink:href="#mb45fb6fba5" x="669.037091" y="92.136307" style="fill: #1f77b4; stroke: #1f77b4"/>
     <use xlink:href="#mb45fb6fba5" x="676.525091" y="92.136307" style="fill: #1f77b4; stroke: #1f77b4"/>
     <use xlink:href="#mb45fb6fba5" x="684.013091" y="92.136307" style="fill: #1f77b4; stroke: #1f77b4"/>
     <use xlink:href="#mb45fb6fba5" x="691.501091" y="92.136307" style="fill: #1f77b4; stroke: #1f77b4"/>
     <use xlink:href="#mb45fb6fba5" x="698.989091" y="92.136307" style="fill: #1f77b4; stroke: #1f77b4"/>
     <use xlink:href="#mb45fb6fba5" x="706.477091" y="92.136307" style="fill: #1f77b4; stroke: #1f77b4"/>
     <use xlink:href="#mb45fb6fba5" x="713.965091" y="92.136307" style="fill: #1f77b4; stroke: #1f77b4"/>
     <use xlink:href="#mb45fb6fba5" x="721.453091" y="92.136307" style="fill: #1f77b4; stroke: #1f77b4"/>
     <use xlink:href="#mb45fb6fba5" x="728.941091" y="92.136307" style="fill: #1f77b4; stroke: #1f77b4"/>
     <use xlink:href="#mb45fb6fba5" x="736.429091" y="92.136307" style="fill: #1f77b4; stroke: #1f77b4"/>
     <use xlink:href="#mb45fb6fba5" x="743.917091" y="92.136307" style="fill: #1f77b4; stroke: #1f77b4"/>
     <use xlink:href="#mb45fb6fba5" x="751.405091" y="92.136307" style="fill: #1f77b4; stroke: #1f77b4"/>
     <use xlink:href="#mb45fb6fba5" x="758.893091" y="92.136307" style="fill: #1f77b4; stroke: #1f77b4"/>
     <use xlink:href="#mb45fb6fba5" x="766.381091" y="92.136307" style="fill: #1f77b4; stroke: #1f77b4"/>
     <use xlink:href="#mb45fb6fba5" x="773.869091" y="92.136307" style="fill: #1f77b4; stroke: #1f77b4"/>
     <use xlink:href="#mb45fb6fba5" x="781.357091" y="92.136307" style="fill: #1f77b4; stroke: #1f77b4"/>
     <use xlink:href="#mb45fb6fba5" x="788.845091" y="92.136307" style="fill: #1f77b4; stroke: #1f77b4"/>
     <use xlink:href="#mb45fb6fba5" x="796.333091" y="92.136307" style="fill: #1f77b4; stroke: #1f77b4"/>
     <use xlink:href="#mb45fb6fba5" x="803.821091" y="92.136307" style="fill: #1f77b4; stroke: #1f77b4"/>
     <use xlink:href="#mb45fb6fba5" x="811.309091" y="92.136307" style="fill: #1f77b4; stroke: #1f77b4"/>
     <use xlink:href="#mb45fb6fba5" x="811.309091" y="92.136307" style="fill: #1f77b4; stroke: #1f77b4"/>
    </g>
   </g>
   <g id="line2d_7">
    <path d="M 45.490909 143.876307 
L 45.490909 40.396307 
" clip-path="url(#pe2c0b54704)" style="fill: none; stroke-dasharray: 3.7,1.6; stroke-dashoffset: 0; stroke: #1f77b4"/>
   </g>
   <g id="line2d_8">
    <path d="M 62.509091 143.876307 
L 62.509091 40.396307 
" clip-path="url(#pe2c0b54704)" style="fill: none; stroke-dasharray: 3.7,1.6; stroke-dashoffset: 0; stroke: #1f77b4"/>
   </g>
   <g id="line2d_9">
    <path d="M 62.509091 143.876307 
L 62.509091 40.396307 
" clip-path="url(#pe2c0b54704)" style="fill: none; stroke-dasharray: 3.7,1.6; stroke-dashoffset: 0; stroke: #1f77b4"/>
   </g>
   <g id="line2d_10">
    <path d="M 811.309091 143.876307 
L 811.309091 40.396307 
" clip-path="url(#pe2c0b54704)" style="fill: none; stroke-dasharray: 3.7,1.6; stroke-dashoffset: 0; stroke: #1f77b4"/>
   </g>
   <g id="patch_3">
    <path d="M 7.2 143.876307 
L 849.6 143.876307 
" style="fill: none; stroke: #000000; stroke-width: 0.8; stroke-linejoin: miter; stroke-linecap: square"/>
   </g>
   <g id="text_7">
    <!-- SC -->
    <g transform="translate(47.334375 14.798437) scale(0.1 -0.1)">
     <defs>
      <path id="DejaVuSans-53" d="M 3425 4513 
L 3425 3897 
Q 3066 4069 2747 4153 
Q 2428 4238 2131 4238 
Q 1616 4238 1336 4038 
Q 1056 3838 1056 3469 
Q 1056 3159 1242 3001 
Q 1428 2844 1947 2747 
L 2328 2669 
Q 3034 2534 3370 2195 
Q 3706 1856 3706 1288 
Q 3706 609 3251 259 
Q 2797 -91 1919 -91 
Q 1588 -91 1214 -16 
Q 841 59 441 206 
L 441 856 
Q 825 641 1194 531 
Q 1563 422 1919 422 
Q 2459 422 2753 634 
Q 3047 847 3047 1241 
Q 3047 1584 2836 1778 
Q 2625 1972 2144 2069 
L 1759 2144 
Q 1053 2284 737 2584 
Q 422 2884 422 3419 
Q 422 4038 858 4394 
Q 1294 4750 2059 4750 
Q 2388 4750 2728 4690 
Q 3069 4631 3425 4513 
z
" transform="scale(0.015625)"/>
      <path id="DejaVuSans-43" d="M 4122 4306 
L 4122 3641 
Q 3803 3938 3442 4084 
Q 3081 4231 2675 4231 
Q 1875 4231 1450 3742 
Q 1025 3253 1025 2328 
Q 1025 1406 1450 917 
Q 1875 428 2675 428 
Q 3081 428 3442 575 
Q 3803 722 4122 1019 
L 4122 359 
Q 3791 134 3420 21 
Q 3050 -91 2638 -91 
Q 1578 -91 968 557 
Q 359 1206 359 2328 
Q 359 3453 968 4101 
Q 1578 4750 2638 4750 
Q 3056 4750 3426 4639 
Q 3797 4528 4122 4306 
z
" transform="scale(0.015625)"/>
     </defs>
     <use xlink:href="#DejaVuSans-53"/>
     <use xlink:href="#DejaVuSans-43" transform="translate(63.476562 0)"/>
    </g>
   </g>
   <g id="text_8">
    <!-- EP/dermis -->
    <g transform="translate(411.967685 14.798437) scale(0.1 -0.1)">
     <defs>
      <path id="DejaVuSans-45" d="M 628 4666 
L 3578 4666 
L 3578 4134 
L 1259 4134 
L 1259 2753 
L 3481 2753 
L 3481 2222 
L 1259 2222 
L 1259 531 
L 3634 531 
L 3634 0 
L 628 0 
L 628 4666 
z
" transform="scale(0.015625)"/>
      <path id="DejaVuSans-2f" d="M 1625 4666 
L 2156 4666 
L 531 -594 
L 0 -594 
L 1625 4666 
z
" transform="scale(0.015625)"/>
      <path id="DejaVuSans-65" d="M 3597 1894 
L 3597 1613 
L 953 1613 
Q 991 1019 1311 708 
Q 1631 397 2203 397 
Q 2534 397 2845 478 
Q 3156 559 3463 722 
L 3463 178 
Q 3153 47 2828 -22 
Q 2503 -91 2169 -91 
Q 1331 -91 842 396 
Q 353 884 353 1716 
Q 353 2575 817 3079 
Q 1281 3584 2069 3584 
Q 2775 3584 3186 3129 
Q 3597 2675 3597 1894 
z
M 3022 2063 
Q 3016 2534 2758 2815 
Q 2500 3097 2075 3097 
Q 1594 3097 1305 2825 
Q 1016 2553 972 2059 
L 3022 2063 
z
" transform="scale(0.015625)"/>
     </defs>
     <use xlink:href="#DejaVuSans-45"/>
     <use xlink:href="#DejaVuSans-50" transform="translate(63.183594 0)"/>
     <use xlink:href="#DejaVuSans-2f" transform="translate(123.486328 0)"/>
     <use xlink:href="#DejaVuSans-64" transform="translate(157.177734 0)"/>
     <use xlink:href="#DejaVuSans-65" transform="translate(220.654297 0)"/>
     <use xlink:href="#DejaVuSans-72" transform="translate(282.177734 0)"/>
     <use xlink:href="#DejaVuSans-6d" transform="translate(321.541016 0)"/>
     <use xlink:href="#DejaVuSans-69" transform="translate(418.953125 0)"/>
     <use xlink:href="#DejaVuSans-73" transform="translate(446.736328 0)"/>
    </g>
   </g>
   <g id="text_9">
    <!-- Skin-domain FEM mesh zoom: SC and EP/dermis -->
    <g transform="translate(283.112813 34.396307) scale(0.12 -0.12)">
     <defs>
      <path id="DejaVuSans-6b" d="M 581 4863 
L 1159 4863 
L 1159 1991 
L 2875 3500 
L 3609 3500 
L 1753 1863 
L 3688 0 
L 2938 0 
L 1159 1709 
L 1159 0 
L 581 0 
L 581 4863 
z
" transform="scale(0.015625)"/>
      <path id="DejaVuSans-2d" d="M 313 2009 
L 1997 2009 
L 1997 1497 
L 313 1497 
L 313 2009 
z
" transform="scale(0.015625)"/>
      <path id="DejaVuSans-46" d="M 628 4666 
L 3309 4666 
L 3309 4134 
L 1259 4134 
L 1259 2759 
L 3109 2759 
L 3109 2228 
L 1259 2228 
L 1259 0 
L 628 0 
L 628 4666 
z
" transform="scale(0.015625)"/>
      <path id="DejaVuSans-4d" d="M 628 4666 
L 1569 4666 
L 2759 1491 
L 3956 4666 
L 4897 4666 
L 4897 0 
L 4281 0 
L 4281 4097 
L 3078 897 
L 2444 897 
L 1241 4097 
L 1241 0 
L 628 0 
L 628 4666 
z
" transform="scale(0.015625)"/>
      <path id="DejaVuSans-68" d="M 3513 2113 
L 3513 0 
L 2938 0 
L 2938 2094 
Q 2938 2591 2744 2837 
Q 2550 3084 2163 3084 
Q 1697 3084 1428 2787 
Q 1159 2491 1159 1978 
L 1159 0 
L 581 0 
L 581 4863 
L 1159 4863 
L 1159 2956 
Q 1366 3272 1645 3428 
Q 1925 3584 2291 3584 
Q 2894 3584 3203 3211 
Q 3513 2838 3513 2113 
z
" transform="scale(0.015625)"/>
      <path id="DejaVuSans-7a" d="M 353 3500 
L 3084 3500 
L 3084 2975 
L 922 459 
L 3084 459 
L 3084 0 
L 275 0 
L 275 525 
L 2438 3041 
L 353 3041 
L 353 3500 
z
" transform="scale(0.015625)"/>
      <path id="DejaVuSans-3a" d="M 750 794 
L 1409 794 
L 1409 0 
L 750 0 
L 750 794 
z
M 750 3309 
L 1409 3309 
L 1409 2516 
L 750 2516 
L 750 3309 
z
" transform="scale(0.015625)"/>
     </defs>
     <use xlink:href="#DejaVuSans-53"/>
     <use xlink:href="#DejaVuSans-6b" transform="translate(63.476562 0)"/>
     <use xlink:href="#DejaVuSans-69" transform="translate(121.386719 0)"/>
     <use xlink:href="#DejaVuSans-6e" transform="translate(149.169922 0)"/>
     <use xlink:href="#DejaVuSans-2d" transform="translate(212.548828 0)"/>
     <use xlink:href="#DejaVuSans-64" transform="translate(248.632812 0)"/>
     <use xlink:href="#DejaVuSans-6f" transform="translate(312.109375 0)"/>
     <use xlink:href="#DejaVuSans-6d" transform="translate(373.291016 0)"/>
     <use xlink:href="#DejaVuSans-61" transform="translate(470.703125 0)"/>
     <use xlink:href="#DejaVuSans-69" transform="translate(531.982422 0)"/>
     <use xlink:href="#DejaVuSans-6e" transform="translate(559.765625 0)"/>
     <use xlink:href="#DejaVuSans-20" transform="translate(623.144531 0)"/>
     <use xlink:href="#DejaVuSans-46" transform="translate(654.931641 0)"/>
     <use xlink:href="#DejaVuSans-45" transform="translate(712.451172 0)"/>
     <use xlink:href="#DejaVuSans-4d" transform="translate(775.634766 0)"/>
     <use xlink:href="#DejaVuSans-20" transform="translate(861.914062 0)"/>
     <use xlink:href="#DejaVuSans-6d" transform="translate(893.701172 0)"/>
     <use xlink:href="#DejaVuSans-65" transform="translate(991.113281 0)"/>
     <use xlink:href="#DejaVuSans-73" transform="translate(1052.636719 0)"/>
     <use xlink:href="#DejaVuSans-68" transform="translate(1104.736328 0)"/>
     <use xlink:href="#DejaVuSans-20" transform="translate(1168.115234 0)"/>
     <use xlink:href="#DejaVuSans-7a" transform="translate(1199.902344 0)"/>
     <use xlink:href="#DejaVuSans-6f" transform="translate(1252.392578 0)"/>
     <use xlink:href="#DejaVuSans-6f" transform="translate(1313.574219 0)"/>
     <use xlink:href="#DejaVuSans-6d" transform="translate(1374.755859 0)"/>
     <use xlink:href="#DejaVuSans-3a" transform="translate(1472.167969 0)"/>
     <use xlink:href="#DejaVuSans-20" transform="translate(1505.859375 0)"/>
     <use xlink:href="#DejaVuSans-53" transform="translate(1537.646484 0)"/>
     <use xlink:href="#DejaVuSans-43" transform="translate(1601.123047 0)"/>
     <use xlink:href="#DejaVuSans-20" transform="translate(1670.947266 0)"/>
     <use xlink:href="#DejaVuSans-61" transform="translate(1702.734375 0)"/>
     <use xlink:href="#DejaVuSans-6e" transform="translate(1764.013672 0)"/>
     <use xlink:href="#DejaVuSans-64" transform="translate(1827.392578 0)"/>
     <use xlink:href="#DejaVuSans-20" transform="translate(1890.869141 0)"/>
     <use xlink:href="#DejaVuSans-45" transform="translate(1922.65625 0)"/>
     <use xlink:href="#DejaVuSans-50" transform="translate(1985.839844 0)"/>
     <use xlink:href="#DejaVuSans-2f" transform="translate(2046.142578 0)"/>
     <use xlink:href="#DejaVuSans-64" transform="translate(2079.833984 0)"/>
     <use xlink:href="#DejaVuSans-65" transform="translate(2143.310547 0)"/>
     <use xlink:href="#DejaVuSans-72" transform="translate(2204.833984 0)"/>
     <use xlink:href="#DejaVuSans-6d" transform="translate(2244.197266 0)"/>
     <use xlink:href="#DejaVuSans-69" transform="translate(2341.609375 0)"/>
     <use xlink:href="#DejaVuSans-73" transform="translate(2369.392578 0)"/>
    </g>
   </g>
  </g>
 </g>
 <defs>
  <clipPath id="pe2c0b54704">
   <rect x="7.2" y="40.396307" width="842.4" height="103.48"/>
  </clipPath>
 </defs>
</svg>
