<?xml version="1.0" encoding="utf-8" standalone="no"?>
<!DOCTYPE svg PUBLIC "-//W3C//DTD SVG 1.1//EN"
  "http://www.w3.org/Graphics/SVG/1.1/DTD/svg11.dtd">
<svg xmlns:xlink="http://www.w3.org/1999/xlink" width="855.937503pt" height="336.51625pt" viewBox="0 0 855.937503 336.51625" xmlns="http://www.w3.org/2000/svg" version="1.1">
 <metadata>
  <rdf:RDF xmlns:dc="http://purl.org/dc/elements/1.1/" xmlns:cc="http://creativecommons.org/ns#" xmlns:rdf="http://www.w3.org/1999/02/22-rdf-syntax-ns#">
   <cc:Work>
    <dc:type rdf:resource="http://purl.org/dc/dcmitype/StillImage"/>
    <dc:date>2026-07-15T18:00:18.917708</dc:date>
    <dc:format>image/svg+xml</dc:format>
    <dc:creator>
     <cc:Agent>
      <dc:title>Matplotlib v3.10.8, https://matplotlib.org/</dc:title>
     </cc:Agent>
    </dc:creator>
   </cc:Work>
  </rdf:RDF>
 </metadata>
 <defs>
  <style type="text/css">*{stroke-linejoin: round; stroke-linecap: butt}</style>
 </defs>
 <g id="figure_1">
  <g id="patch_1">
   <path d="M 0 336.51625 
L 855.937503 336.51625 
L 855.937503 0 
L 0 0 
z
" style="fill: #ffffff"/>
  </g>
  <g id="axes_1">
   <g id="patch_2">
    <path d="M 40.603125 298.96 
L 418.63891 298.96 
L 418.63891 67.56 
L 40.603125 67.56 
z
" style="fill: #ffffff"/>
   </g>
   <g id="matplotlib.axis_1">
    <g id="xtick_1">
     <g id="line2d_1">
      <defs>
       <path id="mb4bb24b775" d="M 0 0 
L 0 3.5 
" style="stroke: #000000; stroke-width: 0.8"/>
      </defs>
      <g>
       <use xlink:href="#mb4bb24b775" x="57.78657" y="298.96" style="stroke: #000000; stroke-width: 0.8"/>
      </g>
     </g>
     <g id="text_1">
      <!-- 0 -->
      <g transform="translate(54.60532 313.558437) scale(0.1 -0.1)">
       <defs>
        <path id="DejaVuSans-30" d="M 2034 4250 
Q 1547 4250 1301 3770 
Q 1056 3291 1056 2328 
Q 1056 1369 1301 889 
Q 1547 409 2034 409 
Q 2525 409 2770 889 
Q 3016 1369 3016 2328 
Q 3016 3291 2770 3770 
Q 2525 4250 2034 4250 
z
M 2034 4750 
Q 2819 4750 3233 4129 
Q 3647 3509 3647 2328 
Q 3647 1150 3233 529 
Q 2819 -91 2034 -91 
Q 1250 -91 836 529 
Q 422 1150 422 2328 
Q 422 3509 836 4129 
Q 1250 4750 2034 4750 
z
" transform="scale(0.015625)"/>
       </defs>
       <use xlink:href="#DejaVuSans-30"/>
      </g>
     </g>
    </g>
    <g id="xtick_2">
     <g id="line2d_2">
      <g>
       <use xlink:href="#mb4bb24b775" x="129.384256" y="298.96" style="stroke: #000000; stroke-width: 0.8"/>
      </g>
     </g>
     <g id="text_2">
      <!-- 5 -->
      <g transform="translate(126.203006 313.558437) scale(0.1 -0.1)">
       <defs>
        <path id="DejaVuSans-35" d="M 691 4666 
L 3169 4666 
L 3169 4134 
L 1269 4134 
L 1269 2991 
Q 1406 3038 1543 3061 
Q 1681 3084 1819 3084 
Q 2600 3084 3056 2656 
Q 3513 2228 3513 1497 
Q 3513 744 3044 326 
Q 2575 -91 1722 -91 
Q 1428 -91 1123 -41 
Q 819 9 494 109 
L 494 744 
Q 775 591 1075 516 
Q 1375 441 1709 441 
Q 2250 441 2565 725 
Q 2881 1009 2881 1497 
Q 2881 1984 2565 2268 
Q 2250 2553 1709 2553 
Q 1456 2553 1204 2497 
Q 953 2441 691 2322 
L 691 4666 
z
" transform="scale(0.015625)"/>
       </defs>
       <use xlink:href="#DejaVuSans-35"/>
      </g>
     </g>
    </g>
    <g id="xtick_3">
     <g id="line2d_3">
      <g>
       <use xlink:href="#mb4bb24b775" x="200.981943" y="298.96" style="stroke: #000000; stroke-width: 0.8"/>
      </g>
     </g>
     <g id="text_3">
      <!-- 10 -->
      <g transform="translate(194.619443 313.558437) scale(0.1 -0.1)">
       <defs>
        <path id="DejaVuSans-31" d="M 794 531 
L 1825 531 
L 1825 4091 
L 703 3866 
L 703 4441 
L 1819 4666 
L 2450 4666 
L 2450 531 
L 3481 531 
L 3481 0 
L 794 0 
L 794 531 
z
" transform="scale(0.015625)"/>
       </defs>
       <use xlink:href="#DejaVuSans-31"/>
       <use xlink:href="#DejaVuSans-30" transform="translate(63.623047 0)"/>
      </g>
     </g>
    </g>
    <g id="xtick_4">
     <g id="line2d_4">
      <g>
       <use xlink:href="#mb4bb24b775" x="272.57963" y="298.96" style="stroke: #000000; stroke-width: 0.8"/>
      </g>
     </g>
     <g id="text_4">
      <!-- 15 -->
      <g transform="translate(266.21713 313.558437) scale(0.1 -0.1)">
       <use xlink:href="#DejaVuSans-31"/>
       <use xlink:href="#DejaVuSans-35" transform="translate(63.623047 0)"/>
      </g>
     </g>
    </g>
    <g id="xtick_5">
     <g id="line2d_5">
      <g>
       <use xlink:href="#mb4bb24b775" x="344.177316" y="298.96" style="stroke: #000000; stroke-width: 0.8"/>
      </g>
     </g>
     <g id="text_5">
      <!-- 20 -->
      <g transform="translate(337.814816 313.558437) scale(0.1 -0.1)">
       <defs>
        <path id="DejaVuSans-32" d="M 1228 531 
L 3431 531 
L 3431 0 
L 469 0 
L 469 531 
Q 828 903 1448 1529 
Q 2069 2156 2228 2338 
Q 2531 2678 2651 2914 
Q 2772 3150 2772 3378 
Q 2772 3750 2511 3984 
Q 2250 4219 1831 4219 
Q 1534 4219 1204 4116 
Q 875 4013 500 3803 
L 500 4441 
Q 881 4594 1212 4672 
Q 1544 4750 1819 4750 
Q 2544 4750 2975 4387 
Q 3406 4025 3406 3419 
Q 3406 3131 3298 2873 
Q 3191 2616 2906 2266 
Q 2828 2175 2409 1742 
Q 1991 1309 1228 531 
z
" transform="scale(0.015625)"/>
       </defs>
       <use xlink:href="#DejaVuSans-32"/>
       <use xlink:href="#DejaVuSans-30" transform="translate(63.623047 0)"/>
      </g>
     </g>
    </g>
    <g id="xtick_6">
     <g id="line2d_6">
      <g>
       <use xlink:href="#mb4bb24b775" x="415.775003" y="298.96" style="stroke: #000000; stroke-width: 0.8"/>
      </g>
     </g>
     <g id="text_6">
      <!-- 25 -->
      <g transform="translate(409.412503 313.558437) scale(0.1 -0.1)">
       <use xlink:href="#DejaVuSans-32"/>
       <use xlink:href="#DejaVuSans-35" transform="translate(63.623047 0)"/>
      </g>
     </g>
    </g>
    <g id="text_7">
     <!-- Time (h) -->
     <g transform="translate(208.728049 327.236562) scale(0.1 -0.1)">
      <defs>
       <path id="DejaVuSans-54" d="M -19 4666 
L 3928 4666 
L 3928 4134 
L 2272 4134 
L 2272 0 
L 1638 0 
L 1638 4134 
L -19 4134 
L -19 4666 
z
" transform="scale(0.015625)"/>
       <path id="DejaVuSans-69" d="M 603 3500 
L 1178 3500 
L 1178 0 
L 603 0 
L 603 3500 
z
M 603 4863 
L 1178 4863 
L 1178 4134 
L 603 4134 
L 603 4863 
z
" transform="scale(0.015625)"/>
       <path id="DejaVuSans-6d" d="M 3328 2828 
Q 3544 3216 3844 3400 
Q 4144 3584 4550 3584 
Q 5097 3584 5394 3201 
Q 5691 2819 5691 2113 
L 5691 0 
L 5113 0 
L 5113 2094 
Q 5113 2597 4934 2840 
Q 4756 3084 4391 3084 
Q 3944 3084 3684 2787 
Q 3425 2491 3425 1978 
L 3425 0 
L 2847 0 
L 2847 2094 
Q 2847 2600 2669 2842 
Q 2491 3084 2119 3084 
Q 1678 3084 1418 2786 
Q 1159 2488 1159 1978 
L 1159 0 
L 581 0 
L 581 3500 
L 1159 3500 
L 1159 2956 
Q 1356 3278 1631 3431 
Q 1906 3584 2284 3584 
Q 2666 3584 2933 3390 
Q 3200 3197 3328 2828 
z
" transform="scale(0.015625)"/>
       <path id="DejaVuSans-65" d="M 3597 1894 
L 3597 1613 
L 953 1613 
Q 991 1019 1311 708 
Q 1631 397 2203 397 
Q 2534 397 2845 478 
Q 3156 559 3463 722 
L 3463 178 
Q 3153 47 2828 -22 
Q 2503 -91 2169 -91 
Q 1331 -91 842 396 
Q 353 884 353 1716 
Q 353 2575 817 3079 
Q 1281 3584 2069 3584 
Q 2775 3584 3186 3129 
Q 3597 2675 3597 1894 
z
M 3022 2063 
Q 3016 2534 2758 2815 
Q 2500 3097 2075 3097 
Q 1594 3097 1305 2825 
Q 1016 2553 972 2059 
L 3022 2063 
z
" transform="scale(0.015625)"/>
       <path id="DejaVuSans-20" transform="scale(0.015625)"/>
       <path id="DejaVuSans-28" d="M 1984 4856 
Q 1566 4138 1362 3434 
Q 1159 2731 1159 2009 
Q 1159 1288 1364 580 
Q 1569 -128 1984 -844 
L 1484 -844 
Q 1016 -109 783 600 
Q 550 1309 550 2009 
Q 550 2706 781 3412 
Q 1013 4119 1484 4856 
L 1984 4856 
z
" transform="scale(0.015625)"/>
       <path id="DejaVuSans-68" d="M 3513 2113 
L 3513 0 
L 2938 0 
L 2938 2094 
Q 2938 2591 2744 2837 
Q 2550 3084 2163 3084 
Q 1697 3084 1428 2787 
Q 1159 2491 1159 1978 
L 1159 0 
L 581 0 
L 581 4863 
L 1159 4863 
L 1159 2956 
Q 1366 3272 1645 3428 
Q 1925 3584 2291 3584 
Q 2894 3584 3203 3211 
Q 3513 2838 3513 2113 
z
" transform="scale(0.015625)"/>
       <path id="DejaVuSans-29" d="M 513 4856 
L 1013 4856 
Q 1481 4119 1714 3412 
Q 1947 2706 1947 2009 
Q 1947 1309 1714 600 
Q 1481 -109 1013 -844 
L 513 -844 
Q 928 -128 1133 580 
Q 1338 1288 1338 2009 
Q 1338 2731 1133 3434 
Q 928 4138 513 4856 
z
" transform="scale(0.015625)"/>
      </defs>
      <use xlink:href="#DejaVuSans-54"/>
      <use xlink:href="#DejaVuSans-69" transform="translate(57.958984 0)"/>
      <use xlink:href="#DejaVuSans-6d" transform="translate(85.742188 0)"/>
      <use xlink:href="#DejaVuSans-65" transform="translate(183.154297 0)"/>
      <use xlink:href="#DejaVuSans-20" transform="translate(244.677734 0)"/>
      <use xlink:href="#DejaVuSans-28" transform="translate(276.464844 0)"/>
      <use xlink:href="#DejaVuSans-68" transform="translate(315.478516 0)"/>
      <use xlink:href="#DejaVuSans-29" transform="translate(378.857422 0)"/>
     </g>
    </g>
   </g>
   <g id="matplotlib.axis_2">
    <g id="ytick_1">
     <g id="line2d_7">
      <defs>
       <path id="m445f53c006" d="M 0 0 
L -3.5 0 
" style="stroke: #000000; stroke-width: 0.8"/>
      </defs>
      <g>
       <use xlink:href="#m445f53c006" x="40.603125" y="288.441818" style="stroke: #000000; stroke-width: 0.8"/>
      </g>
     </g>
     <g id="text_8">
      <!-- 0 -->
      <g transform="translate(27.240625 292.241037) scale(0.1 -0.1)">
       <use xlink:href="#DejaVuSans-30"/>
      </g>
     </g>
    </g>
    <g id="ytick_2">
     <g id="line2d_8">
      <g>
       <use xlink:href="#m445f53c006" x="40.603125" y="248.485538" style="stroke: #000000; stroke-width: 0.8"/>
      </g>
     </g>
     <g id="text_9">
      <!-- 5 -->
      <g transform="translate(27.240625 252.284756) scale(0.1 -0.1)">
       <use xlink:href="#DejaVuSans-35"/>
      </g>
     </g>
    </g>
    <g id="ytick_3">
     <g id="line2d_9">
      <g>
       <use xlink:href="#m445f53c006" x="40.603125" y="208.529257" style="stroke: #000000; stroke-width: 0.8"/>
      </g>
     </g>
     <g id="text_10">
      <!-- 10 -->
      <g transform="translate(20.878125 212.328476) scale(0.1 -0.1)">
       <use xlink:href="#DejaVuSans-31"/>
       <use xlink:href="#DejaVuSans-30" transform="translate(63.623047 0)"/>
      </g>
     </g>
    </g>
    <g id="ytick_4">
     <g id="line2d_10">
      <g>
       <use xlink:href="#m445f53c006" x="40.603125" y="168.572977" style="stroke: #000000; stroke-width: 0.8"/>
      </g>
     </g>
     <g id="text_11">
      <!-- 15 -->
      <g transform="translate(20.878125 172.372195) scale(0.1 -0.1)">
       <use xlink:href="#DejaVuSans-31"/>
       <use xlink:href="#DejaVuSans-35" transform="translate(63.623047 0)"/>
      </g>
     </g>
    </g>
    <g id="ytick_5">
     <g id="line2d_11">
      <g>
       <use xlink:href="#m445f53c006" x="40.603125" y="128.616696" style="stroke: #000000; stroke-width: 0.8"/>
      </g>
     </g>
     <g id="text_12">
      <!-- 20 -->
      <g transform="translate(20.878125 132.415915) scale(0.1 -0.1)">
       <use xlink:href="#DejaVuSans-32"/>
       <use xlink:href="#DejaVuSans-30" transform="translate(63.623047 0)"/>
      </g>
     </g>
    </g>
    <g id="ytick_6">
     <g id="line2d_12">
      <g>
       <use xlink:href="#m445f53c006" x="40.603125" y="88.660416" style="stroke: #000000; stroke-width: 0.8"/>
      </g>
     </g>
     <g id="text_13">
      <!-- 25 -->
      <g transform="translate(20.878125 92.459634) scale(0.1 -0.1)">
       <use xlink:href="#DejaVuSans-32"/>
       <use xlink:href="#DejaVuSans-35" transform="translate(63.623047 0)"/>
      </g>
     </g>
    </g>
    <g id="text_14">
     <!-- Receptor amount (µg/cm²) -->
     <g transform="translate(14.798438 249.695937) rotate(-90) scale(0.1 -0.1)">
      <defs>
       <path id="DejaVuSans-52" d="M 2841 2188 
Q 3044 2119 3236 1894 
Q 3428 1669 3622 1275 
L 4263 0 
L 3584 0 
L 2988 1197 
Q 2756 1666 2539 1819 
Q 2322 1972 1947 1972 
L 1259 1972 
L 1259 0 
L 628 0 
L 628 4666 
L 2053 4666 
Q 2853 4666 3247 4331 
Q 3641 3997 3641 3322 
Q 3641 2881 3436 2590 
Q 3231 2300 2841 2188 
z
M 1259 4147 
L 1259 2491 
L 2053 2491 
Q 2509 2491 2742 2702 
Q 2975 2913 2975 3322 
Q 2975 3731 2742 3939 
Q 2509 4147 2053 4147 
L 1259 4147 
z
" transform="scale(0.015625)"/>
       <path id="DejaVuSans-63" d="M 3122 3366 
L 3122 2828 
Q 2878 2963 2633 3030 
Q 2388 3097 2138 3097 
Q 1578 3097 1268 2742 
Q 959 2388 959 1747 
Q 959 1106 1268 751 
Q 1578 397 2138 397 
Q 2388 397 2633 464 
Q 2878 531 3122 666 
L 3122 134 
Q 2881 22 2623 -34 
Q 2366 -91 2075 -91 
Q 1284 -91 818 406 
Q 353 903 353 1747 
Q 353 2603 823 3093 
Q 1294 3584 2113 3584 
Q 2378 3584 2631 3529 
Q 2884 3475 3122 3366 
z
" transform="scale(0.015625)"/>
       <path id="DejaVuSans-70" d="M 1159 525 
L 1159 -1331 
L 581 -1331 
L 581 3500 
L 1159 3500 
L 1159 2969 
Q 1341 3281 1617 3432 
Q 1894 3584 2278 3584 
Q 2916 3584 3314 3078 
Q 3713 2572 3713 1747 
Q 3713 922 3314 415 
Q 2916 -91 2278 -91 
Q 1894 -91 1617 61 
Q 1341 213 1159 525 
z
M 3116 1747 
Q 3116 2381 2855 2742 
Q 2594 3103 2138 3103 
Q 1681 3103 1420 2742 
Q 1159 2381 1159 1747 
Q 1159 1113 1420 752 
Q 1681 391 2138 391 
Q 2594 391 2855 752 
Q 3116 1113 3116 1747 
z
" transform="scale(0.015625)"/>
       <path id="DejaVuSans-74" d="M 1172 4494 
L 1172 3500 
L 2356 3500 
L 2356 3053 
L 1172 3053 
L 1172 1153 
Q 1172 725 1289 603 
Q 1406 481 1766 481 
L 2356 481 
L 2356 0 
L 1766 0 
Q 1100 0 847 248 
Q 594 497 594 1153 
L 594 3053 
L 172 3053 
L 172 3500 
L 594 3500 
L 594 4494 
L 1172 4494 
z
" transform="scale(0.015625)"/>
       <path id="DejaVuSans-6f" d="M 1959 3097 
Q 1497 3097 1228 2736 
Q 959 2375 959 1747 
Q 959 1119 1226 758 
Q 1494 397 1959 397 
Q 2419 397 2687 759 
Q 2956 1122 2956 1747 
Q 2956 2369 2687 2733 
Q 2419 3097 1959 3097 
z
M 1959 3584 
Q 2709 3584 3137 3096 
Q 3566 2609 3566 1747 
Q 3566 888 3137 398 
Q 2709 -91 1959 -91 
Q 1206 -91 779 398 
Q 353 888 353 1747 
Q 353 2609 779 3096 
Q 1206 3584 1959 3584 
z
" transform="scale(0.015625)"/>
       <path id="DejaVuSans-72" d="M 2631 2963 
Q 2534 3019 2420 3045 
Q 2306 3072 2169 3072 
Q 1681 3072 1420 2755 
Q 1159 2438 1159 1844 
L 1159 0 
L 581 0 
L 581 3500 
L 1159 3500 
L 1159 2956 
Q 1341 3275 1631 3429 
Q 1922 3584 2338 3584 
Q 2397 3584 2469 3576 
Q 2541 3569 2628 3553 
L 2631 2963 
z
" transform="scale(0.015625)"/>
       <path id="DejaVuSans-61" d="M 2194 1759 
Q 1497 1759 1228 1600 
Q 959 1441 959 1056 
Q 959 750 1161 570 
Q 1363 391 1709 391 
Q 2188 391 2477 730 
Q 2766 1069 2766 1631 
L 2766 1759 
L 2194 1759 
z
M 3341 1997 
L 3341 0 
L 2766 0 
L 2766 531 
Q 2569 213 2275 61 
Q 1981 -91 1556 -91 
Q 1019 -91 701 211 
Q 384 513 384 1019 
Q 384 1609 779 1909 
Q 1175 2209 1959 2209 
L 2766 2209 
L 2766 2266 
Q 2766 2663 2505 2880 
Q 2244 3097 1772 3097 
Q 1472 3097 1187 3025 
Q 903 2953 641 2809 
L 641 3341 
Q 956 3463 1253 3523 
Q 1550 3584 1831 3584 
Q 2591 3584 2966 3190 
Q 3341 2797 3341 1997 
z
" transform="scale(0.015625)"/>
       <path id="DejaVuSans-75" d="M 544 1381 
L 544 3500 
L 1119 3500 
L 1119 1403 
Q 1119 906 1312 657 
Q 1506 409 1894 409 
Q 2359 409 2629 706 
Q 2900 1003 2900 1516 
L 2900 3500 
L 3475 3500 
L 3475 0 
L 2900 0 
L 2900 538 
Q 2691 219 2414 64 
Q 2138 -91 1772 -91 
Q 1169 -91 856 284 
Q 544 659 544 1381 
z
M 1991 3584 
L 1991 3584 
z
" transform="scale(0.015625)"/>
       <path id="DejaVuSans-6e" d="M 3513 2113 
L 3513 0 
L 2938 0 
L 2938 2094 
Q 2938 2591 2744 2837 
Q 2550 3084 2163 3084 
Q 1697 3084 1428 2787 
Q 1159 2491 1159 1978 
L 1159 0 
L 581 0 
L 581 3500 
L 1159 3500 
L 1159 2956 
Q 1366 3272 1645 3428 
Q 1925 3584 2291 3584 
Q 2894 3584 3203 3211 
Q 3513 2838 3513 2113 
z
" transform="scale(0.015625)"/>
       <path id="DejaVuSans-b5" d="M 544 -1331 
L 544 3500 
L 1119 3500 
L 1119 1325 
Q 1119 872 1334 640 
Q 1550 409 1972 409 
Q 2434 409 2667 671 
Q 2900 934 2900 1459 
L 2900 3500 
L 3475 3500 
L 3475 806 
Q 3475 619 3529 530 
Q 3584 441 3700 441 
Q 3728 441 3778 458 
Q 3828 475 3916 513 
L 3916 50 
Q 3788 -22 3673 -56 
Q 3559 -91 3450 -91 
Q 3234 -91 3106 31 
Q 2978 153 2931 403 
Q 2775 156 2548 32 
Q 2322 -91 2016 -91 
Q 1697 -91 1473 31 
Q 1250 153 1119 397 
L 1119 -1331 
L 544 -1331 
z
" transform="scale(0.015625)"/>
       <path id="DejaVuSans-67" d="M 2906 1791 
Q 2906 2416 2648 2759 
Q 2391 3103 1925 3103 
Q 1463 3103 1205 2759 
Q 947 2416 947 1791 
Q 947 1169 1205 825 
Q 1463 481 1925 481 
Q 2391 481 2648 825 
Q 2906 1169 2906 1791 
z
M 3481 434 
Q 3481 -459 3084 -895 
Q 2688 -1331 1869 -1331 
Q 1566 -1331 1297 -1286 
Q 1028 -1241 775 -1147 
L 775 -588 
Q 1028 -725 1275 -790 
Q 1522 -856 1778 -856 
Q 2344 -856 2625 -561 
Q 2906 -266 2906 331 
L 2906 616 
Q 2728 306 2450 153 
Q 2172 0 1784 0 
Q 1141 0 747 490 
Q 353 981 353 1791 
Q 353 2603 747 3093 
Q 1141 3584 1784 3584 
Q 2172 3584 2450 3431 
Q 2728 3278 2906 2969 
L 2906 3500 
L 3481 3500 
L 3481 434 
z
" transform="scale(0.015625)"/>
       <path id="DejaVuSans-2f" d="M 1625 4666 
L 2156 4666 
L 531 -594 
L 0 -594 
L 1625 4666 
z
" transform="scale(0.015625)"/>
       <path id="DejaVuSans-b2" d="M 838 2444 
L 2163 2444 
L 2163 2088 
L 294 2088 
L 294 2431 
Q 400 2528 597 2703 
Q 1672 3656 1672 3950 
Q 1672 4156 1509 4282 
Q 1347 4409 1081 4409 
Q 919 4409 728 4354 
Q 538 4300 313 4191 
L 313 4575 
Q 553 4663 761 4706 
Q 969 4750 1147 4750 
Q 1600 4750 1872 4544 
Q 2144 4338 2144 4000 
Q 2144 3566 1109 2678 
Q 934 2528 838 2444 
z
" transform="scale(0.015625)"/>
      </defs>
      <use xlink:href="#DejaVuSans-52"/>
      <use xlink:href="#DejaVuSans-65" transform="translate(64.982422 0)"/>
      <use xlink:href="#DejaVuSans-63" transform="translate(126.505859 0)"/>
      <use xlink:href="#DejaVuSans-65" transform="translate(181.486328 0)"/>
      <use xlink:href="#DejaVuSans-70" transform="translate(243.009766 0)"/>
      <use xlink:href="#DejaVuSans-74" transform="translate(306.486328 0)"/>
      <use xlink:href="#DejaVuSans-6f" transform="translate(345.695312 0)"/>
      <use xlink:href="#DejaVuSans-72" transform="translate(406.876953 0)"/>
      <use xlink:href="#DejaVuSans-20" transform="translate(447.990234 0)"/>
      <use xlink:href="#DejaVuSans-61" transform="translate(479.777344 0)"/>
      <use xlink:href="#DejaVuSans-6d" transform="translate(541.056641 0)"/>
      <use xlink:href="#DejaVuSans-6f" transform="translate(638.46875 0)"/>
      <use xlink:href="#DejaVuSans-75" transform="translate(699.650391 0)"/>
      <use xlink:href="#DejaVuSans-6e" transform="translate(763.029297 0)"/>
      <use xlink:href="#DejaVuSans-74" transform="translate(826.408203 0)"/>
      <use xlink:href="#DejaVuSans-20" transform="translate(865.617188 0)"/>
      <use xlink:href="#DejaVuSans-28" transform="translate(897.404297 0)"/>
      <use xlink:href="#DejaVuSans-b5" transform="translate(936.417969 0)"/>
      <use xlink:href="#DejaVuSans-67" transform="translate(1000.041016 0)"/>
      <use xlink:href="#DejaVuSans-2f" transform="translate(1063.517578 0)"/>
      <use xlink:href="#DejaVuSans-63" transform="translate(1097.208984 0)"/>
      <use xlink:href="#DejaVuSans-6d" transform="translate(1152.189453 0)"/>
      <use xlink:href="#DejaVuSans-b2" transform="translate(1249.601562 0)"/>
      <use xlink:href="#DejaVuSans-29" transform="translate(1289.689453 0)"/>
     </g>
    </g>
   </g>
   <g id="line2d_13">
    <path d="M 57.78657 288.441818 
L 115.064719 277.461987 
L 143.703794 262.449281 
L 172.342868 244.387834 
L 229.621018 204.196292 
L 401.455465 78.078185 
" clip-path="url(#p228078b5c9)" style="fill: none; stroke: #1f77b4; stroke-width: 2; stroke-linecap: square"/>
    <defs>
     <path id="m5c5a957fcc" d="M 0 3 
C 0.795609 3 1.55874 2.683901 2.12132 2.12132 
C 2.683901 1.55874 3 0.795609 3 0 
C 3 -0.795609 2.683901 -1.55874 2.12132 -2.12132 
C 1.55874 -2.683901 0.795609 -3 0 -3 
C -0.795609 -3 -1.55874 -2.683901 -2.12132 -2.12132 
C -2.683901 -1.55874 -3 -0.795609 -3 0 
C -3 0.795609 -2.683901 1.55874 -2.12132 2.12132 
C -1.55874 2.683901 -0.795609 3 0 3 
z
" style="stroke: #1f77b4"/>
    </defs>
    <g clip-path="url(#p228078b5c9)">
     <use xlink:href="#m5c5a957fcc" x="57.78657" y="288.441818" style="fill: #1f77b4; stroke: #1f77b4"/>
     <use xlink:href="#m5c5a957fcc" x="115.064719" y="277.461987" style="fill: #1f77b4; stroke: #1f77b4"/>
     <use xlink:href="#m5c5a957fcc" x="143.703794" y="262.449281" style="fill: #1f77b4; stroke: #1f77b4"/>
     <use xlink:href="#m5c5a957fcc" x="172.342868" y="244.387834" style="fill: #1f77b4; stroke: #1f77b4"/>
     <use xlink:href="#m5c5a957fcc" x="229.621018" y="204.196292" style="fill: #1f77b4; stroke: #1f77b4"/>
     <use xlink:href="#m5c5a957fcc" x="401.455465" y="78.078185" style="fill: #1f77b4; stroke: #1f77b4"/>
    </g>
   </g>
   <g id="line2d_14">
    <path d="M 57.78657 288.441818 
L 115.064719 277.46 
L 143.703794 262.44778 
L 172.342868 244.386788 
L 229.621018 204.195849 
L 401.455465 78.078183 
" clip-path="url(#p228078b5c9)" style="fill: none; stroke: #ff7f0e; stroke-width: 2; stroke-linecap: square"/>
    <defs>
     <path id="mb7cdaf770d" d="M 0 3 
C 0.795609 3 1.55874 2.683901 2.12132 2.12132 
C 2.683901 1.55874 3 0.795609 3 0 
C 3 -0.795609 2.683901 -1.55874 2.12132 -2.12132 
C 1.55874 -2.683901 0.795609 -3 0 -3 
C -0.795609 -3 -1.55874 -2.683901 -2.12132 -2.12132 
C -2.683901 -1.55874 -3 -0.795609 -3 0 
C -3 0.795609 -2.683901 1.55874 -2.12132 2.12132 
C -1.55874 2.683901 -0.795609 3 0 3 
z
" style="stroke: #ff7f0e"/>
    </defs>
    <g clip-path="url(#p228078b5c9)">
     <use xlink:href="#mb7cdaf770d" x="57.78657" y="288.441818" style="fill: #ff7f0e; stroke: #ff7f0e"/>
     <use xlink:href="#mb7cdaf770d" x="115.064719" y="277.46" style="fill: #ff7f0e; stroke: #ff7f0e"/>
     <use xlink:href="#mb7cdaf770d" x="143.703794" y="262.44778" style="fill: #ff7f0e; stroke: #ff7f0e"/>
     <use xlink:href="#mb7cdaf770d" x="172.342868" y="244.386788" style="fill: #ff7f0e; stroke: #ff7f0e"/>
     <use xlink:href="#mb7cdaf770d" x="229.621018" y="204.195849" style="fill: #ff7f0e; stroke: #ff7f0e"/>
     <use xlink:href="#mb7cdaf770d" x="401.455465" y="78.078183" style="fill: #ff7f0e; stroke: #ff7f0e"/>
    </g>
   </g>
   <g id="line2d_15">
    <path d="M 57.78657 288.441818 
L 115.064719 277.459504 
L 143.703794 262.447405 
L 172.342868 244.386527 
L 229.621018 204.195738 
L 401.455465 78.078182 
" clip-path="url(#p228078b5c9)" style="fill: none; stroke: #2ca02c; stroke-width: 2; stroke-linecap: square"/>
    <defs>
     <path id="mc497f7ebed" d="M 0 3 
C 0.795609 3 1.55874 2.683901 2.12132 2.12132 
C 2.683901 1.55874 3 0.795609 3 0 
C 3 -0.795609 2.683901 -1.55874 2.12132 -2.12132 
C 1.55874 -2.683901 0.795609 -3 0 -3 
C -0.795609 -3 -1.55874 -2.683901 -2.12132 -2.12132 
C -2.683901 -1.55874 -3 -0.795609 -3 0 
C -3 0.795609 -2.683901 1.55874 -2.12132 2.12132 
C -1.55874 2.683901 -0.795609 3 0 3 
z
" style="stroke: #2ca02c"/>
    </defs>
    <g clip-path="url(#p228078b5c9)">
     <use xlink:href="#mc497f7ebed" x="57.78657" y="288.441818" style="fill: #2ca02c; stroke: #2ca02c"/>
     <use xlink:href="#mc497f7ebed" x="115.064719" y="277.459504" style="fill: #2ca02c; stroke: #2ca02c"/>
     <use xlink:href="#mc497f7ebed" x="143.703794" y="262.447405" style="fill: #2ca02c; stroke: #2ca02c"/>
     <use xlink:href="#mc497f7ebed" x="172.342868" y="244.386527" style="fill: #2ca02c; stroke: #2ca02c"/>
     <use xlink:href="#mc497f7ebed" x="229.621018" y="204.195738" style="fill: #2ca02c; stroke: #2ca02c"/>
     <use xlink:href="#mc497f7ebed" x="401.455465" y="78.078182" style="fill: #2ca02c; stroke: #2ca02c"/>
    </g>
   </g>
   <g id="patch_3">
    <path d="M 40.603125 298.96 
L 40.603125 67.56 
" style="fill: none; stroke: #000000; stroke-width: 0.8; stroke-linejoin: miter; stroke-linecap: square"/>
   </g>
   <g id="patch_4">
    <path d="M 40.603125 298.96 
L 418.63891 298.96 
" style="fill: none; stroke: #000000; stroke-width: 0.8; stroke-linejoin: miter; stroke-linecap: square"/>
   </g>
   <g id="text_15">
    <!-- Free KC: receptor prediction by mesh -->
    <g transform="translate(118.30133 61.56) scale(0.12 -0.12)">
     <defs>
      <path id="DejaVuSans-46" d="M 628 4666 
L 3309 4666 
L 3309 4134 
L 1259 4134 
L 1259 2759 
L 3109 2759 
L 3109 2228 
L 1259 2228 
L 1259 0 
L 628 0 
L 628 4666 
z
" transform="scale(0.015625)"/>
      <path id="DejaVuSans-4b" d="M 628 4666 
L 1259 4666 
L 1259 2694 
L 3353 4666 
L 4166 4666 
L 1850 2491 
L 4331 0 
L 3500 0 
L 1259 2247 
L 1259 0 
L 628 0 
L 628 4666 
z
" transform="scale(0.015625)"/>
      <path id="DejaVuSans-43" d="M 4122 4306 
L 4122 3641 
Q 3803 3938 3442 4084 
Q 3081 4231 2675 4231 
Q 1875 4231 1450 3742 
Q 1025 3253 1025 2328 
Q 1025 1406 1450 917 
Q 1875 428 2675 428 
Q 3081 428 3442 575 
Q 3803 722 4122 1019 
L 4122 359 
Q 3791 134 3420 21 
Q 3050 -91 2638 -91 
Q 1578 -91 968 557 
Q 359 1206 359 2328 
Q 359 3453 968 4101 
Q 1578 4750 2638 4750 
Q 3056 4750 3426 4639 
Q 3797 4528 4122 4306 
z
" transform="scale(0.015625)"/>
      <path id="DejaVuSans-3a" d="M 750 794 
L 1409 794 
L 1409 0 
L 750 0 
L 750 794 
z
M 750 3309 
L 1409 3309 
L 1409 2516 
L 750 2516 
L 750 3309 
z
" transform="scale(0.015625)"/>
      <path id="DejaVuSans-64" d="M 2906 2969 
L 2906 4863 
L 3481 4863 
L 3481 0 
L 2906 0 
L 2906 525 
Q 2725 213 2448 61 
Q 2172 -91 1784 -91 
Q 1150 -91 751 415 
Q 353 922 353 1747 
Q 353 2572 751 3078 
Q 1150 3584 1784 3584 
Q 2172 3584 2448 3432 
Q 2725 3281 2906 2969 
z
M 947 1747 
Q 947 1113 1208 752 
Q 1469 391 1925 391 
Q 2381 391 2643 752 
Q 2906 1113 2906 1747 
Q 2906 2381 2643 2742 
Q 2381 3103 1925 3103 
Q 1469 3103 1208 2742 
Q 947 2381 947 1747 
z
" transform="scale(0.015625)"/>
      <path id="DejaVuSans-62" d="M 3116 1747 
Q 3116 2381 2855 2742 
Q 2594 3103 2138 3103 
Q 1681 3103 1420 2742 
Q 1159 2381 1159 1747 
Q 1159 1113 1420 752 
Q 1681 391 2138 391 
Q 2594 391 2855 752 
Q 3116 1113 3116 1747 
z
M 1159 2969 
Q 1341 3281 1617 3432 
Q 1894 3584 2278 3584 
Q 2916 3584 3314 3078 
Q 3713 2572 3713 1747 
Q 3713 922 3314 415 
Q 2916 -91 2278 -91 
Q 1894 -91 1617 61 
Q 1341 213 1159 525 
L 1159 0 
L 581 0 
L 581 4863 
L 1159 4863 
L 1159 2969 
z
" transform="scale(0.015625)"/>
      <path id="DejaVuSans-79" d="M 2059 -325 
Q 1816 -950 1584 -1140 
Q 1353 -1331 966 -1331 
L 506 -1331 
L 506 -850 
L 844 -850 
Q 1081 -850 1212 -737 
Q 1344 -625 1503 -206 
L 1606 56 
L 191 3500 
L 800 3500 
L 1894 763 
L 2988 3500 
L 3597 3500 
L 2059 -325 
z
" transform="scale(0.015625)"/>
      <path id="DejaVuSans-73" d="M 2834 3397 
L 2834 2853 
Q 2591 2978 2328 3040 
Q 2066 3103 1784 3103 
Q 1356 3103 1142 2972 
Q 928 2841 928 2578 
Q 928 2378 1081 2264 
Q 1234 2150 1697 2047 
L 1894 2003 
Q 2506 1872 2764 1633 
Q 3022 1394 3022 966 
Q 3022 478 2636 193 
Q 2250 -91 1575 -91 
Q 1294 -91 989 -36 
Q 684 19 347 128 
L 347 722 
Q 666 556 975 473 
Q 1284 391 1588 391 
Q 1994 391 2212 530 
Q 2431 669 2431 922 
Q 2431 1156 2273 1281 
Q 2116 1406 1581 1522 
L 1381 1569 
Q 847 1681 609 1914 
Q 372 2147 372 2553 
Q 372 3047 722 3315 
Q 1072 3584 1716 3584 
Q 2034 3584 2315 3537 
Q 2597 3491 2834 3397 
z
" transform="scale(0.015625)"/>
     </defs>
     <use xlink:href="#DejaVuSans-46"/>
     <use xlink:href="#DejaVuSans-72" transform="translate(50.269531 0)"/>
     <use xlink:href="#DejaVuSans-65" transform="translate(89.132812 0)"/>
     <use xlink:href="#DejaVuSans-65" transform="translate(150.65625 0)"/>
     <use xlink:href="#DejaVuSans-20" transform="translate(212.179688 0)"/>
     <use xlink:href="#DejaVuSans-4b" transform="translate(243.966797 0)"/>
     <use xlink:href="#DejaVuSans-43" transform="translate(304.042969 0)"/>
     <use xlink:href="#DejaVuSans-3a" transform="translate(373.867188 0)"/>
     <use xlink:href="#DejaVuSans-20" transform="translate(407.558594 0)"/>
     <use xlink:href="#DejaVuSans-72" transform="translate(439.345703 0)"/>
     <use xlink:href="#DejaVuSans-65" transform="translate(478.208984 0)"/>
     <use xlink:href="#DejaVuSans-63" transform="translate(539.732422 0)"/>
     <use xlink:href="#DejaVuSans-65" transform="translate(594.712891 0)"/>
     <use xlink:href="#DejaVuSans-70" transform="translate(656.236328 0)"/>
     <use xlink:href="#DejaVuSans-74" transform="translate(719.712891 0)"/>
     <use xlink:href="#DejaVuSans-6f" transform="translate(758.921875 0)"/>
     <use xlink:href="#DejaVuSans-72" transform="translate(820.103516 0)"/>
     <use xlink:href="#DejaVuSans-20" transform="translate(861.216797 0)"/>
     <use xlink:href="#DejaVuSans-70" transform="translate(893.003906 0)"/>
     <use xlink:href="#DejaVuSans-72" transform="translate(956.480469 0)"/>
     <use xlink:href="#DejaVuSans-65" transform="translate(995.34375 0)"/>
     <use xlink:href="#DejaVuSans-64" transform="translate(1056.867188 0)"/>
     <use xlink:href="#DejaVuSans-69" transform="translate(1120.34375 0)"/>
     <use xlink:href="#DejaVuSans-63" transform="translate(1148.126953 0)"/>
     <use xlink:href="#DejaVuSans-74" transform="translate(1203.107422 0)"/>
     <use xlink:href="#DejaVuSans-69" transform="translate(1242.316406 0)"/>
     <use xlink:href="#DejaVuSans-6f" transform="translate(1270.099609 0)"/>
     <use xlink:href="#DejaVuSans-6e" transform="translate(1331.28125 0)"/>
     <use xlink:href="#DejaVuSans-20" transform="translate(1394.660156 0)"/>
     <use xlink:href="#DejaVuSans-62" transform="translate(1426.447266 0)"/>
     <use xlink:href="#DejaVuSans-79" transform="translate(1489.923828 0)"/>
     <use xlink:href="#DejaVuSans-20" transform="translate(1549.103516 0)"/>
     <use xlink:href="#DejaVuSans-6d" transform="translate(1580.890625 0)"/>
     <use xlink:href="#DejaVuSans-65" transform="translate(1678.302734 0)"/>
     <use xlink:href="#DejaVuSans-73" transform="translate(1739.826172 0)"/>
     <use xlink:href="#DejaVuSans-68" transform="translate(1791.925781 0)"/>
    </g>
   </g>
   <g id="legend_1">
    <g id="line2d_16">
     <path d="M 49.603125 80.658437 
L 59.603125 80.658437 
L 69.603125 80.658437 
" style="fill: none; stroke: #1f77b4; stroke-width: 2; stroke-linecap: square"/>
     <g>
      <use xlink:href="#m5c5a957fcc" x="59.603125" y="80.658437" style="fill: #1f77b4; stroke: #1f77b4"/>
     </g>
    </g>
    <g id="text_16">
     <!-- Coarse -->
     <g transform="translate(77.603125 84.158437) scale(0.1 -0.1)">
      <use xlink:href="#DejaVuSans-43"/>
      <use xlink:href="#DejaVuSans-6f" transform="translate(69.824219 0)"/>
      <use xlink:href="#DejaVuSans-61" transform="translate(131.005859 0)"/>
      <use xlink:href="#DejaVuSans-72" transform="translate(192.285156 0)"/>
      <use xlink:href="#DejaVuSans-73" transform="translate(233.398438 0)"/>
      <use xlink:href="#DejaVuSans-65" transform="translate(285.498047 0)"/>
     </g>
    </g>
    <g id="line2d_17">
     <path d="M 49.603125 95.336562 
L 59.603125 95.336562 
L 69.603125 95.336562 
" style="fill: none; stroke: #ff7f0e; stroke-width: 2; stroke-linecap: square"/>
     <g>
      <use xlink:href="#mb7cdaf770d" x="59.603125" y="95.336562" style="fill: #ff7f0e; stroke: #ff7f0e"/>
     </g>
    </g>
    <g id="text_17">
     <!-- Base -->
     <g transform="translate(77.603125 98.836562) scale(0.1 -0.1)">
      <defs>
       <path id="DejaVuSans-42" d="M 1259 2228 
L 1259 519 
L 2272 519 
Q 2781 519 3026 730 
Q 3272 941 3272 1375 
Q 3272 1813 3026 2020 
Q 2781 2228 2272 2228 
L 1259 2228 
z
M 1259 4147 
L 1259 2741 
L 2194 2741 
Q 2656 2741 2882 2914 
Q 3109 3088 3109 3444 
Q 3109 3797 2882 3972 
Q 2656 4147 2194 4147 
L 1259 4147 
z
M 628 4666 
L 2241 4666 
Q 2963 4666 3353 4366 
Q 3744 4066 3744 3513 
Q 3744 3084 3544 2831 
Q 3344 2578 2956 2516 
Q 3422 2416 3680 2098 
Q 3938 1781 3938 1306 
Q 3938 681 3513 340 
Q 3088 0 2303 0 
L 628 0 
L 628 4666 
z
" transform="scale(0.015625)"/>
      </defs>
      <use xlink:href="#DejaVuSans-42"/>
      <use xlink:href="#DejaVuSans-61" transform="translate(68.603516 0)"/>
      <use xlink:href="#DejaVuSans-73" transform="translate(129.882812 0)"/>
      <use xlink:href="#DejaVuSans-65" transform="translate(181.982422 0)"/>
     </g>
    </g>
    <g id="line2d_18">
     <path d="M 49.603125 110.014687 
L 59.603125 110.014687 
L 69.603125 110.014687 
" style="fill: none; stroke: #2ca02c; stroke-width: 2; stroke-linecap: square"/>
     <g>
      <use xlink:href="#mc497f7ebed" x="59.603125" y="110.014687" style="fill: #2ca02c; stroke: #2ca02c"/>
     </g>
    </g>
    <g id="text_18">
     <!-- Fine -->
     <g transform="translate(77.603125 113.514687) scale(0.1 -0.1)">
      <use xlink:href="#DejaVuSans-46"/>
      <use xlink:href="#DejaVuSans-69" transform="translate(50.269531 0)"/>
      <use xlink:href="#DejaVuSans-6e" transform="translate(78.052734 0)"/>
      <use xlink:href="#DejaVuSans-65" transform="translate(141.431641 0)"/>
     </g>
    </g>
   </g>
  </g>
  <g id="axes_2">
   <g id="patch_5">
    <path d="M 467.203125 298.96 
L 845.23891 298.96 
L 845.23891 67.56 
L 467.203125 67.56 
z
" style="fill: #ffffff"/>
   </g>
   <g id="matplotlib.axis_3">
    <g id="xtick_7">
     <g id="line2d_19">
      <g>
       <use xlink:href="#mb4bb24b775" x="484.38657" y="298.96" style="stroke: #000000; stroke-width: 0.8"/>
      </g>
     </g>
     <g id="text_19">
      <!-- 0 -->
      <g transform="translate(481.20532 313.558437) scale(0.1 -0.1)">
       <use xlink:href="#DejaVuSans-30"/>
      </g>
     </g>
    </g>
    <g id="xtick_8">
     <g id="line2d_20">
      <g>
       <use xlink:href="#mb4bb24b775" x="555.984256" y="298.96" style="stroke: #000000; stroke-width: 0.8"/>
      </g>
     </g>
     <g id="text_20">
      <!-- 5 -->
      <g transform="translate(552.803006 313.558437) scale(0.1 -0.1)">
       <use xlink:href="#DejaVuSans-35"/>
      </g>
     </g>
    </g>
    <g id="xtick_9">
     <g id="line2d_21">
      <g>
       <use xlink:href="#mb4bb24b775" x="627.581943" y="298.96" style="stroke: #000000; stroke-width: 0.8"/>
      </g>
     </g>
     <g id="text_21">
      <!-- 10 -->
      <g transform="translate(621.219443 313.558437) scale(0.1 -0.1)">
       <use xlink:href="#DejaVuSans-31"/>
       <use xlink:href="#DejaVuSans-30" transform="translate(63.623047 0)"/>
      </g>
     </g>
    </g>
    <g id="xtick_10">
     <g id="line2d_22">
      <g>
       <use xlink:href="#mb4bb24b775" x="699.17963" y="298.96" style="stroke: #000000; stroke-width: 0.8"/>
      </g>
     </g>
     <g id="text_22">
      <!-- 15 -->
      <g transform="translate(692.81713 313.558437) scale(0.1 -0.1)">
       <use xlink:href="#DejaVuSans-31"/>
       <use xlink:href="#DejaVuSans-35" transform="translate(63.623047 0)"/>
      </g>
     </g>
    </g>
    <g id="xtick_11">
     <g id="line2d_23">
      <g>
       <use xlink:href="#mb4bb24b775" x="770.777316" y="298.96" style="stroke: #000000; stroke-width: 0.8"/>
      </g>
     </g>
     <g id="text_23">
      <!-- 20 -->
      <g transform="translate(764.414816 313.558437) scale(0.1 -0.1)">
       <use xlink:href="#DejaVuSans-32"/>
       <use xlink:href="#DejaVuSans-30" transform="translate(63.623047 0)"/>
      </g>
     </g>
    </g>
    <g id="xtick_12">
     <g id="line2d_24">
      <g>
       <use xlink:href="#mb4bb24b775" x="842.375003" y="298.96" style="stroke: #000000; stroke-width: 0.8"/>
      </g>
     </g>
     <g id="text_24">
      <!-- 25 -->
      <g transform="translate(836.012503 313.558437) scale(0.1 -0.1)">
       <use xlink:href="#DejaVuSans-32"/>
       <use xlink:href="#DejaVuSans-35" transform="translate(63.623047 0)"/>
      </g>
     </g>
    </g>
    <g id="text_25">
     <!-- Time (h) -->
     <g transform="translate(635.328049 327.236562) scale(0.1 -0.1)">
      <use xlink:href="#DejaVuSans-54"/>
      <use xlink:href="#DejaVuSans-69" transform="translate(57.958984 0)"/>
      <use xlink:href="#DejaVuSans-6d" transform="translate(85.742188 0)"/>
      <use xlink:href="#DejaVuSans-65" transform="translate(183.154297 0)"/>
      <use xlink:href="#DejaVuSans-20" transform="translate(244.677734 0)"/>
      <use xlink:href="#DejaVuSans-28" transform="translate(276.464844 0)"/>
      <use xlink:href="#DejaVuSans-68" transform="translate(315.478516 0)"/>
      <use xlink:href="#DejaVuSans-29" transform="translate(378.857422 0)"/>
     </g>
    </g>
   </g>
   <g id="matplotlib.axis_4">
    <g id="ytick_7">
     <g id="line2d_25">
      <g>
       <use xlink:href="#m445f53c006" x="467.203125" y="288.441818" style="stroke: #000000; stroke-width: 0.8"/>
      </g>
     </g>
     <g id="text_26">
      <!-- 0 -->
      <g transform="translate(453.840625 292.241037) scale(0.1 -0.1)">
       <use xlink:href="#DejaVuSans-30"/>
      </g>
     </g>
    </g>
    <g id="ytick_8">
     <g id="line2d_26">
      <g>
       <use xlink:href="#m445f53c006" x="467.203125" y="256.686234" style="stroke: #000000; stroke-width: 0.8"/>
      </g>
     </g>
     <g id="text_27">
      <!-- 5 -->
      <g transform="translate(453.840625 260.485453) scale(0.1 -0.1)">
       <use xlink:href="#DejaVuSans-35"/>
      </g>
     </g>
    </g>
    <g id="ytick_9">
     <g id="line2d_27">
      <g>
       <use xlink:href="#m445f53c006" x="467.203125" y="224.93065" style="stroke: #000000; stroke-width: 0.8"/>
      </g>
     </g>
     <g id="text_28">
      <!-- 10 -->
      <g transform="translate(447.478125 228.729869) scale(0.1 -0.1)">
       <use xlink:href="#DejaVuSans-31"/>
       <use xlink:href="#DejaVuSans-30" transform="translate(63.623047 0)"/>
      </g>
     </g>
    </g>
    <g id="ytick_10">
     <g id="line2d_28">
      <g>
       <use xlink:href="#m445f53c006" x="467.203125" y="193.175066" style="stroke: #000000; stroke-width: 0.8"/>
      </g>
     </g>
     <g id="text_29">
      <!-- 15 -->
      <g transform="translate(447.478125 196.974285) scale(0.1 -0.1)">
       <use xlink:href="#DejaVuSans-31"/>
       <use xlink:href="#DejaVuSans-35" transform="translate(63.623047 0)"/>
      </g>
     </g>
    </g>
    <g id="ytick_11">
     <g id="line2d_29">
      <g>
       <use xlink:href="#m445f53c006" x="467.203125" y="161.419482" style="stroke: #000000; stroke-width: 0.8"/>
      </g>
     </g>
     <g id="text_30">
      <!-- 20 -->
      <g transform="translate(447.478125 165.218701) scale(0.1 -0.1)">
       <use xlink:href="#DejaVuSans-32"/>
       <use xlink:href="#DejaVuSans-30" transform="translate(63.623047 0)"/>
      </g>
     </g>
    </g>
    <g id="ytick_12">
     <g id="line2d_30">
      <g>
       <use xlink:href="#m445f53c006" x="467.203125" y="129.663898" style="stroke: #000000; stroke-width: 0.8"/>
      </g>
     </g>
     <g id="text_31">
      <!-- 25 -->
      <g transform="translate(447.478125 133.463117) scale(0.1 -0.1)">
       <use xlink:href="#DejaVuSans-32"/>
       <use xlink:href="#DejaVuSans-35" transform="translate(63.623047 0)"/>
      </g>
     </g>
    </g>
    <g id="ytick_13">
     <g id="line2d_31">
      <g>
       <use xlink:href="#m445f53c006" x="467.203125" y="97.908314" style="stroke: #000000; stroke-width: 0.8"/>
      </g>
     </g>
     <g id="text_32">
      <!-- 30 -->
      <g transform="translate(447.478125 101.707533) scale(0.1 -0.1)">
       <defs>
        <path id="DejaVuSans-33" d="M 2597 2516 
Q 3050 2419 3304 2112 
Q 3559 1806 3559 1356 
Q 3559 666 3084 287 
Q 2609 -91 1734 -91 
Q 1441 -91 1130 -33 
Q 819 25 488 141 
L 488 750 
Q 750 597 1062 519 
Q 1375 441 1716 441 
Q 2309 441 2620 675 
Q 2931 909 2931 1356 
Q 2931 1769 2642 2001 
Q 2353 2234 1838 2234 
L 1294 2234 
L 1294 2753 
L 1863 2753 
Q 2328 2753 2575 2939 
Q 2822 3125 2822 3475 
Q 2822 3834 2567 4026 
Q 2313 4219 1838 4219 
Q 1578 4219 1281 4162 
Q 984 4106 628 3988 
L 628 4550 
Q 988 4650 1302 4700 
Q 1616 4750 1894 4750 
Q 2613 4750 3031 4423 
Q 3450 4097 3450 3541 
Q 3450 3153 3228 2886 
Q 3006 2619 2597 2516 
z
" transform="scale(0.015625)"/>
       </defs>
       <use xlink:href="#DejaVuSans-33"/>
       <use xlink:href="#DejaVuSans-30" transform="translate(63.623047 0)"/>
      </g>
     </g>
    </g>
    <g id="text_33">
     <!-- Receptor amount (µg/cm²) -->
     <g transform="translate(441.398438 249.695937) rotate(-90) scale(0.1 -0.1)">
      <use xlink:href="#DejaVuSans-52"/>
      <use xlink:href="#DejaVuSans-65" transform="translate(64.982422 0)"/>
      <use xlink:href="#DejaVuSans-63" transform="translate(126.505859 0)"/>
      <use xlink:href="#DejaVuSans-65" transform="translate(181.486328 0)"/>
      <use xlink:href="#DejaVuSans-70" transform="translate(243.009766 0)"/>
      <use xlink:href="#DejaVuSans-74" transform="translate(306.486328 0)"/>
      <use xlink:href="#DejaVuSans-6f" transform="translate(345.695312 0)"/>
      <use xlink:href="#DejaVuSans-72" transform="translate(406.876953 0)"/>
      <use xlink:href="#DejaVuSans-20" transform="translate(447.990234 0)"/>
      <use xlink:href="#DejaVuSans-61" transform="translate(479.777344 0)"/>
      <use xlink:href="#DejaVuSans-6d" transform="translate(541.056641 0)"/>
      <use xlink:href="#DejaVuSans-6f" transform="translate(638.46875 0)"/>
      <use xlink:href="#DejaVuSans-75" transform="translate(699.650391 0)"/>
      <use xlink:href="#DejaVuSans-6e" transform="translate(763.029297 0)"/>
      <use xlink:href="#DejaVuSans-74" transform="translate(826.408203 0)"/>
      <use xlink:href="#DejaVuSans-20" transform="translate(865.617188 0)"/>
      <use xlink:href="#DejaVuSans-28" transform="translate(897.404297 0)"/>
      <use xlink:href="#DejaVuSans-b5" transform="translate(936.417969 0)"/>
      <use xlink:href="#DejaVuSans-67" transform="translate(1000.041016 0)"/>
      <use xlink:href="#DejaVuSans-2f" transform="translate(1063.517578 0)"/>
      <use xlink:href="#DejaVuSans-63" transform="translate(1097.208984 0)"/>
      <use xlink:href="#DejaVuSans-6d" transform="translate(1152.189453 0)"/>
      <use xlink:href="#DejaVuSans-b2" transform="translate(1249.601562 0)"/>
      <use xlink:href="#DejaVuSans-29" transform="translate(1289.689453 0)"/>
     </g>
    </g>
   </g>
   <g id="line2d_32">
    <path d="M 484.38657 288.441818 
L 541.664719 277.52448 
L 570.303794 261.964942 
L 598.942868 243.458683 
L 656.221018 203.019842 
L 828.055465 78.078232 
" clip-path="url(#p6997313531)" style="fill: none; stroke: #1f77b4; stroke-width: 2; stroke-linecap: square"/>
    <g clip-path="url(#p6997313531)">
     <use xlink:href="#m5c5a957fcc" x="484.38657" y="288.441818" style="fill: #1f77b4; stroke: #1f77b4"/>
     <use xlink:href="#m5c5a957fcc" x="541.664719" y="277.52448" style="fill: #1f77b4; stroke: #1f77b4"/>
     <use xlink:href="#m5c5a957fcc" x="570.303794" y="261.964942" style="fill: #1f77b4; stroke: #1f77b4"/>
     <use xlink:href="#m5c5a957fcc" x="598.942868" y="243.458683" style="fill: #1f77b4; stroke: #1f77b4"/>
     <use xlink:href="#m5c5a957fcc" x="656.221018" y="203.019842" style="fill: #1f77b4; stroke: #1f77b4"/>
     <use xlink:href="#m5c5a957fcc" x="828.055465" y="78.078232" style="fill: #1f77b4; stroke: #1f77b4"/>
    </g>
   </g>
   <g id="line2d_33">
    <path d="M 484.38657 288.441818 
L 541.664719 277.521592 
L 570.303794 261.962945 
L 598.942868 243.457417 
L 656.221018 203.019384 
L 828.055465 78.078192 
" clip-path="url(#p6997313531)" style="fill: none; stroke: #ff7f0e; stroke-width: 2; stroke-linecap: square"/>
    <g clip-path="url(#p6997313531)">
     <use xlink:href="#mb7cdaf770d" x="484.38657" y="288.441818" style="fill: #ff7f0e; stroke: #ff7f0e"/>
     <use xlink:href="#mb7cdaf770d" x="541.664719" y="277.521592" style="fill: #ff7f0e; stroke: #ff7f0e"/>
     <use xlink:href="#mb7cdaf770d" x="570.303794" y="261.962945" style="fill: #ff7f0e; stroke: #ff7f0e"/>
     <use xlink:href="#mb7cdaf770d" x="598.942868" y="243.457417" style="fill: #ff7f0e; stroke: #ff7f0e"/>
     <use xlink:href="#mb7cdaf770d" x="656.221018" y="203.019384" style="fill: #ff7f0e; stroke: #ff7f0e"/>
     <use xlink:href="#mb7cdaf770d" x="828.055465" y="78.078192" style="fill: #ff7f0e; stroke: #ff7f0e"/>
    </g>
   </g>
   <g id="line2d_34">
    <path d="M 484.38657 288.441818 
L 541.664719 277.520871 
L 570.303794 261.962445 
L 598.942868 243.4571 
L 656.221018 203.019269 
L 828.055465 78.078182 
" clip-path="url(#p6997313531)" style="fill: none; stroke: #2ca02c; stroke-width: 2; stroke-linecap: square"/>
    <g clip-path="url(#p6997313531)">
     <use xlink:href="#mc497f7ebed" x="484.38657" y="288.441818" style="fill: #2ca02c; stroke: #2ca02c"/>
     <use xlink:href="#mc497f7ebed" x="541.664719" y="277.520871" style="fill: #2ca02c; stroke: #2ca02c"/>
     <use xlink:href="#mc497f7ebed" x="570.303794" y="261.962445" style="fill: #2ca02c; stroke: #2ca02c"/>
     <use xlink:href="#mc497f7ebed" x="598.942868" y="243.4571" style="fill: #2ca02c; stroke: #2ca02c"/>
     <use xlink:href="#mc497f7ebed" x="656.221018" y="203.019269" style="fill: #2ca02c; stroke: #2ca02c"/>
     <use xlink:href="#mc497f7ebed" x="828.055465" y="78.078182" style="fill: #2ca02c; stroke: #2ca02c"/>
    </g>
   </g>
   <g id="patch_6">
    <path d="M 467.203125 298.96 
L 467.203125 67.56 
" style="fill: none; stroke: #000000; stroke-width: 0.8; stroke-linejoin: miter; stroke-linecap: square"/>
   </g>
   <g id="patch_7">
    <path d="M 467.203125 298.96 
L 845.23891 298.96 
" style="fill: none; stroke: #000000; stroke-width: 0.8; stroke-linejoin: miter; stroke-linecap: square"/>
   </g>
   <g id="text_34">
    <!-- KLZ-NPs: receptor prediction by mesh -->
    <g transform="translate(542.759143 61.56) scale(0.12 -0.12)">
     <defs>
      <path id="DejaVuSans-4c" d="M 628 4666 
L 1259 4666 
L 1259 531 
L 3531 531 
L 3531 0 
L 628 0 
L 628 4666 
z
" transform="scale(0.015625)"/>
      <path id="DejaVuSans-5a" d="M 359 4666 
L 4025 4666 
L 4025 4184 
L 1075 531 
L 4097 531 
L 4097 0 
L 288 0 
L 288 481 
L 3238 4134 
L 359 4134 
L 359 4666 
z
" transform="scale(0.015625)"/>
      <path id="DejaVuSans-2d" d="M 313 2009 
L 1997 2009 
L 1997 1497 
L 313 1497 
L 313 2009 
z
" transform="scale(0.015625)"/>
      <path id="DejaVuSans-4e" d="M 628 4666 
L 1478 4666 
L 3547 763 
L 3547 4666 
L 4159 4666 
L 4159 0 
L 3309 0 
L 1241 3903 
L 1241 0 
L 628 0 
L 628 4666 
z
" transform="scale(0.015625)"/>
      <path id="DejaVuSans-50" d="M 1259 4147 
L 1259 2394 
L 2053 2394 
Q 2494 2394 2734 2622 
Q 2975 2850 2975 3272 
Q 2975 3691 2734 3919 
Q 2494 4147 2053 4147 
L 1259 4147 
z
M 628 4666 
L 2053 4666 
Q 2838 4666 3239 4311 
Q 3641 3956 3641 3272 
Q 3641 2581 3239 2228 
Q 2838 1875 2053 1875 
L 1259 1875 
L 1259 0 
L 628 0 
L 628 4666 
z
" transform="scale(0.015625)"/>
     </defs>
     <use xlink:href="#DejaVuSans-4b"/>
     <use xlink:href="#DejaVuSans-4c" transform="translate(65.576172 0)"/>
     <use xlink:href="#DejaVuSans-5a" transform="translate(121.289062 0)"/>
     <use xlink:href="#DejaVuSans-2d" transform="translate(188.044922 0)"/>
     <use xlink:href="#DejaVuSans-4e" transform="translate(224.128906 0)"/>
     <use xlink:href="#DejaVuSans-50" transform="translate(298.933594 0)"/>
     <use xlink:href="#DejaVuSans-73" transform="translate(357.486328 0)"/>
     <use xlink:href="#DejaVuSans-3a" transform="translate(409.585938 0)"/>
     <use xlink:href="#DejaVuSans-20" transform="translate(443.277344 0)"/>
     <use xlink:href="#DejaVuSans-72" transform="translate(475.064453 0)"/>
     <use xlink:href="#DejaVuSans-65" transform="translate(513.927734 0)"/>
     <use xlink:href="#DejaVuSans-63" transform="translate(575.451172 0)"/>
     <use xlink:href="#DejaVuSans-65" transform="translate(630.431641 0)"/>
     <use xlink:href="#DejaVuSans-70" transform="translate(691.955078 0)"/>
     <use xlink:href="#DejaVuSans-74" transform="translate(755.431641 0)"/>
     <use xlink:href="#DejaVuSans-6f" transform="translate(794.640625 0)"/>
     <use xlink:href="#DejaVuSans-72" transform="translate(855.822266 0)"/>
     <use xlink:href="#DejaVuSans-20" transform="translate(896.935547 0)"/>
     <use xlink:href="#DejaVuSans-70" transform="translate(928.722656 0)"/>
     <use xlink:href="#DejaVuSans-72" transform="translate(992.199219 0)"/>
     <use xlink:href="#DejaVuSans-65" transform="translate(1031.0625 0)"/>
     <use xlink:href="#DejaVuSans-64" transform="translate(1092.585938 0)"/>
     <use xlink:href="#DejaVuSans-69" transform="translate(1156.0625 0)"/>
     <use xlink:href="#DejaVuSans-63" transform="translate(1183.845703 0)"/>
     <use xlink:href="#DejaVuSans-74" transform="translate(1238.826172 0)"/>
     <use xlink:href="#DejaVuSans-69" transform="translate(1278.035156 0)"/>
     <use xlink:href="#DejaVuSans-6f" transform="translate(1305.818359 0)"/>
     <use xlink:href="#DejaVuSans-6e" transform="translate(1367 0)"/>
     <use xlink:href="#DejaVuSans-20" transform="translate(1430.378906 0)"/>
     <use xlink:href="#DejaVuSans-62" transform="translate(1462.166016 0)"/>
     <use xlink:href="#DejaVuSans-79" transform="translate(1525.642578 0)"/>
     <use xlink:href="#DejaVuSans-20" transform="translate(1584.822266 0)"/>
     <use xlink:href="#DejaVuSans-6d" transform="translate(1616.609375 0)"/>
     <use xlink:href="#DejaVuSans-65" transform="translate(1714.021484 0)"/>
     <use xlink:href="#DejaVuSans-73" transform="translate(1775.544922 0)"/>
     <use xlink:href="#DejaVuSans-68" transform="translate(1827.644531 0)"/>
    </g>
   </g>
   <g id="legend_2">
    <g id="line2d_35">
     <path d="M 476.203125 80.658437 
L 486.203125 80.658437 
L 496.203125 80.658437 
" style="fill: none; stroke: #1f77b4; stroke-width: 2; stroke-linecap: square"/>
     <g>
      <use xlink:href="#m5c5a957fcc" x="486.203125" y="80.658437" style="fill: #1f77b4; stroke: #1f77b4"/>
     </g>
    </g>
    <g id="text_35">
     <!-- Coarse -->
     <g transform="translate(504.203125 84.158437) scale(0.1 -0.1)">
      <use xlink:href="#DejaVuSans-43"/>
      <use xlink:href="#DejaVuSans-6f" transform="translate(69.824219 0)"/>
      <use xlink:href="#DejaVuSans-61" transform="translate(131.005859 0)"/>
      <use xlink:href="#DejaVuSans-72" transform="translate(192.285156 0)"/>
      <use xlink:href="#DejaVuSans-73" transform="translate(233.398438 0)"/>
      <use xlink:href="#DejaVuSans-65" transform="translate(285.498047 0)"/>
     </g>
    </g>
    <g id="line2d_36">
     <path d="M 476.203125 95.336562 
L 486.203125 95.336562 
L 496.203125 95.336562 
" style="fill: none; stroke: #ff7f0e; stroke-width: 2; stroke-linecap: square"/>
     <g>
      <use xlink:href="#mb7cdaf770d" x="486.203125" y="95.336562" style="fill: #ff7f0e; stroke: #ff7f0e"/>
     </g>
    </g>
    <g id="text_36">
     <!-- Base -->
     <g transform="translate(504.203125 98.836562) scale(0.1 -0.1)">
      <use xlink:href="#DejaVuSans-42"/>
      <use xlink:href="#DejaVuSans-61" transform="translate(68.603516 0)"/>
      <use xlink:href="#DejaVuSans-73" transform="translate(129.882812 0)"/>
      <use xlink:href="#DejaVuSans-65" transform="translate(181.982422 0)"/>
     </g>
    </g>
    <g id="line2d_37">
     <path d="M 476.203125 110.014687 
L 486.203125 110.014687 
L 496.203125 110.014687 
" style="fill: none; stroke: #2ca02c; stroke-width: 2; stroke-linecap: square"/>
     <g>
      <use xlink:href="#mc497f7ebed" x="486.203125" y="110.014687" style="fill: #2ca02c; stroke: #2ca02c"/>
     </g>
    </g>
    <g id="text_37">
     <!-- Fine -->
     <g transform="translate(504.203125 113.514687) scale(0.1 -0.1)">
      <use xlink:href="#DejaVuSans-46"/>
      <use xlink:href="#DejaVuSans-69" transform="translate(50.269531 0)"/>
      <use xlink:href="#DejaVuSans-6e" transform="translate(78.052734 0)"/>
      <use xlink:href="#DejaVuSans-65" transform="translate(141.431641 0)"/>
     </g>
    </g>
   </g>
  </g>
  <g id="text_38">
   <!-- Mesh independence test: receptor time-course prediction -->
   <g transform="translate(255.4 16.318125) scale(0.12 -0.12)">
    <defs>
     <path id="DejaVuSans-4d" d="M 628 4666 
L 1569 4666 
L 2759 1491 
L 3956 4666 
L 4897 4666 
L 4897 0 
L 4281 0 
L 4281 4097 
L 3078 897 
L 2444 897 
L 1241 4097 
L 1241 0 
L 628 0 
L 628 4666 
z
" transform="scale(0.015625)"/>
    </defs>
    <use xlink:href="#DejaVuSans-4d"/>
    <use xlink:href="#DejaVuSans-65" transform="translate(86.279297 0)"/>
    <use xlink:href="#DejaVuSans-73" transform="translate(147.802734 0)"/>
    <use xlink:href="#DejaVuSans-68" transform="translate(199.902344 0)"/>
    <use xlink:href="#DejaVuSans-20" transform="translate(263.28125 0)"/>
    <use xlink:href="#DejaVuSans-69" transform="translate(295.068359 0)"/>
    <use xlink:href="#DejaVuSans-6e" transform="translate(322.851562 0)"/>
    <use xlink:href="#DejaVuSans-64" transform="translate(386.230469 0)"/>
    <use xlink:href="#DejaVuSans-65" transform="translate(449.707031 0)"/>
    <use xlink:href="#DejaVuSans-70" transform="translate(511.230469 0)"/>
    <use xlink:href="#DejaVuSans-65" transform="translate(574.707031 0)"/>
    <use xlink:href="#DejaVuSans-6e" transform="translate(636.230469 0)"/>
    <use xlink:href="#DejaVuSans-64" transform="translate(699.609375 0)"/>
    <use xlink:href="#DejaVuSans-65" transform="translate(763.085938 0)"/>
    <use xlink:href="#DejaVuSans-6e" transform="translate(824.609375 0)"/>
    <use xlink:href="#DejaVuSans-63" transform="translate(887.988281 0)"/>
    <use xlink:href="#DejaVuSans-65" transform="translate(942.96875 0)"/>
    <use xlink:href="#DejaVuSans-20" transform="translate(1004.492188 0)"/>
    <use xlink:href="#DejaVuSans-74" transform="translate(1036.279297 0)"/>
    <use xlink:href="#DejaVuSans-65" transform="translate(1075.488281 0)"/>
    <use xlink:href="#DejaVuSans-73" transform="translate(1137.011719 0)"/>
    <use xlink:href="#DejaVuSans-74" transform="translate(1189.111328 0)"/>
    <use xlink:href="#DejaVuSans-3a" transform="translate(1228.320312 0)"/>
    <use xlink:href="#DejaVuSans-20" transform="translate(1262.011719 0)"/>
    <use xlink:href="#DejaVuSans-72" transform="translate(1293.798828 0)"/>
    <use xlink:href="#DejaVuSans-65" transform="translate(1332.662109 0)"/>
    <use xlink:href="#DejaVuSans-63" transform="translate(1394.185547 0)"/>
    <use xlink:href="#DejaVuSans-65" transform="translate(1449.166016 0)"/>
    <use xlink:href="#DejaVuSans-70" transform="translate(1510.689453 0)"/>
    <use xlink:href="#DejaVuSans-74" transform="translate(1574.166016 0)"/>
    <use xlink:href="#DejaVuSans-6f" transform="translate(1613.375 0)"/>
    <use xlink:href="#DejaVuSans-72" transform="translate(1674.556641 0)"/>
    <use xlink:href="#DejaVuSans-20" transform="translate(1715.669922 0)"/>
    <use xlink:href="#DejaVuSans-74" transform="translate(1747.457031 0)"/>
    <use xlink:href="#DejaVuSans-69" transform="translate(1786.666016 0)"/>
    <use xlink:href="#DejaVuSans-6d" transform="translate(1814.449219 0)"/>
    <use xlink:href="#DejaVuSans-65" transform="translate(1911.861328 0)"/>
    <use xlink:href="#DejaVuSans-2d" transform="translate(1973.384766 0)"/>
    <use xlink:href="#DejaVuSans-63" transform="translate(2009.46875 0)"/>
    <use xlink:href="#DejaVuSans-6f" transform="translate(2064.449219 0)"/>
    <use xlink:href="#DejaVuSans-75" transform="translate(2125.630859 0)"/>
    <use xlink:href="#DejaVuSans-72" transform="translate(2189.009766 0)"/>
    <use xlink:href="#DejaVuSans-73" transform="translate(2230.123047 0)"/>
    <use xlink:href="#DejaVuSans-65" transform="translate(2282.222656 0)"/>
    <use xlink:href="#DejaVuSans-20" transform="translate(2343.746094 0)"/>
    <use xlink:href="#DejaVuSans-70" transform="translate(2375.533203 0)"/>
    <use xlink:href="#DejaVuSans-72" transform="translate(2439.009766 0)"/>
    <use xlink:href="#DejaVuSans-65" transform="translate(2477.873047 0)"/>
    <use xlink:href="#DejaVuSans-64" transform="translate(2539.396484 0)"/>
    <use xlink:href="#DejaVuSans-69" transform="translate(2602.873047 0)"/>
    <use xlink:href="#DejaVuSans-63" transform="translate(2630.65625 0)"/>
    <use xlink:href="#DejaVuSans-74" transform="translate(2685.636719 0)"/>
    <use xlink:href="#DejaVuSans-69" transform="translate(2724.845703 0)"/>
    <use xlink:href="#DejaVuSans-6f" transform="translate(2752.628906 0)"/>
    <use xlink:href="#DejaVuSans-6e" transform="translate(2813.810547 0)"/>
   </g>
  </g>
 </g>
 <defs>
  <clipPath id="p228078b5c9">
   <rect x="40.603125" y="67.56" width="378.035785" height="231.4"/>
  </clipPath>
  <clipPath id="p6997313531">
   <rect x="467.203125" y="67.56" width="378.035785" height="231.4"/>
  </clipPath>
 </defs>
</svg>
