<?xml version="1.0" encoding="utf-8" standalone="no"?>
<!DOCTYPE svg PUBLIC "-//W3C//DTD SVG 1.1//EN"
  "http://www.w3.org/Graphics/SVG/1.1/DTD/svg11.dtd">
<svg xmlns:xlink="http://www.w3.org/1999/xlink" width="855.851139pt" height="336.51625pt" viewBox="0 0 855.851139 336.51625" xmlns="http://www.w3.org/2000/svg" version="1.1">
 <metadata>
  <rdf:RDF xmlns:dc="http://purl.org/dc/elements/1.1/" xmlns:cc="http://creativecommons.org/ns#" xmlns:rdf="http://www.w3.org/1999/02/22-rdf-syntax-ns#">
   <cc:Work>
    <dc:type rdf:resource="http://purl.org/dc/dcmitype/StillImage"/>
    <dc:date>2026-07-15T17:59:01.230767</dc:date>
    <dc:format>image/svg+xml</dc:format>
    <dc:creator>
     <cc:Agent>
      <dc:title>Matplotlib v3.10.8, https://matplotlib.org/</dc:title>
     </cc:Agent>
    </dc:creator>
   </cc:Work>
  </rdf:RDF>
 </metadata>
 <defs>
  <style type="text/css">*{stroke-linejoin: round; stroke-linecap: butt}</style>
 </defs>
 <g id="figure_1">
  <g id="patch_1">
   <path d="M 0 336.51625 
L 855.851139 336.51625 
L 855.851139 0 
L 0 0 
z
" style="fill: #ffffff"/>
  </g>
  <g id="axes_1">
   <g id="patch_2">
    <path d="M 34.240625 298.96 
L 415.42641 298.96 
L 415.42641 67.56 
L 34.240625 67.56 
z
" style="fill: #ffffff"/>
   </g>
   <g id="PathCollection_1">
    <defs>
     <path id="m7716220470" d="M 0 3.708099 
C 0.983399 3.708099 1.926654 3.317391 2.622022 2.622022 
C 3.317391 1.926654 3.708099 0.983399 3.708099 0 
C 3.708099 -0.983399 3.317391 -1.926654 2.622022 -2.622022 
C 1.926654 -3.317391 0.983399 -3.708099 0 -3.708099 
C -0.983399 -3.708099 -1.926654 -3.317391 -2.622022 -2.622022 
C -3.317391 -1.926654 -3.708099 -0.983399 -3.708099 0 
C -3.708099 0.983399 -3.317391 1.926654 -2.622022 2.622022 
C -1.926654 3.317391 -0.983399 3.708099 0 3.708099 
z
" style="stroke: #1f77b4"/>
    </defs>
    <g clip-path="url(#p6ebc0a0c2c)">
     <use xlink:href="#m7716220470" x="109.322674" y="282.949295" style="fill: #1f77b4; stroke: #1f77b4"/>
     <use xlink:href="#m7716220470" x="138.200385" y="274.318187" style="fill: #1f77b4; stroke: #1f77b4"/>
     <use xlink:href="#m7716220470" x="167.078096" y="254.702033" style="fill: #1f77b4; stroke: #1f77b4"/>
     <use xlink:href="#m7716220470" x="224.833518" y="206.838617" style="fill: #1f77b4; stroke: #1f77b4"/>
     <use xlink:href="#m7716220470" x="398.099784" y="78.078182" style="fill: #1f77b4; stroke: #1f77b4"/>
    </g>
   </g>
   <g id="matplotlib.axis_1">
    <g id="xtick_1">
     <g id="line2d_1">
      <defs>
       <path id="m9c9b1333f3" d="M 0 0 
L 0 3.5 
" style="stroke: #000000; stroke-width: 0.8"/>
      </defs>
      <g>
       <use xlink:href="#m9c9b1333f3" x="51.567252" y="298.96" style="stroke: #000000; stroke-width: 0.8"/>
      </g>
     </g>
     <g id="text_1">
      <!-- 0 -->
      <g transform="translate(48.386002 313.558437) scale(0.1 -0.1)">
       <defs>
        <path id="DejaVuSans-30" d="M 2034 4250 
Q 1547 4250 1301 3770 
Q 1056 3291 1056 2328 
Q 1056 1369 1301 889 
Q 1547 409 2034 409 
Q 2525 409 2770 889 
Q 3016 1369 3016 2328 
Q 3016 3291 2770 3770 
Q 2525 4250 2034 4250 
z
M 2034 4750 
Q 2819 4750 3233 4129 
Q 3647 3509 3647 2328 
Q 3647 1150 3233 529 
Q 2819 -91 2034 -91 
Q 1250 -91 836 529 
Q 422 1150 422 2328 
Q 422 3509 836 4129 
Q 1250 4750 2034 4750 
z
" transform="scale(0.015625)"/>
       </defs>
       <use xlink:href="#DejaVuSans-30"/>
      </g>
     </g>
    </g>
    <g id="xtick_2">
     <g id="line2d_2">
      <g>
       <use xlink:href="#m9c9b1333f3" x="123.761529" y="298.96" style="stroke: #000000; stroke-width: 0.8"/>
      </g>
     </g>
     <g id="text_2">
      <!-- 5 -->
      <g transform="translate(120.580279 313.558437) scale(0.1 -0.1)">
       <defs>
        <path id="DejaVuSans-35" d="M 691 4666 
L 3169 4666 
L 3169 4134 
L 1269 4134 
L 1269 2991 
Q 1406 3038 1543 3061 
Q 1681 3084 1819 3084 
Q 2600 3084 3056 2656 
Q 3513 2228 3513 1497 
Q 3513 744 3044 326 
Q 2575 -91 1722 -91 
Q 1428 -91 1123 -41 
Q 819 9 494 109 
L 494 744 
Q 775 591 1075 516 
Q 1375 441 1709 441 
Q 2250 441 2565 725 
Q 2881 1009 2881 1497 
Q 2881 1984 2565 2268 
Q 2250 2553 1709 2553 
Q 1456 2553 1204 2497 
Q 953 2441 691 2322 
L 691 4666 
z
" transform="scale(0.015625)"/>
       </defs>
       <use xlink:href="#DejaVuSans-35"/>
      </g>
     </g>
    </g>
    <g id="xtick_3">
     <g id="line2d_3">
      <g>
       <use xlink:href="#m9c9b1333f3" x="195.955807" y="298.96" style="stroke: #000000; stroke-width: 0.8"/>
      </g>
     </g>
     <g id="text_3">
      <!-- 10 -->
      <g transform="translate(189.593307 313.558437) scale(0.1 -0.1)">
       <defs>
        <path id="DejaVuSans-31" d="M 794 531 
L 1825 531 
L 1825 4091 
L 703 3866 
L 703 4441 
L 1819 4666 
L 2450 4666 
L 2450 531 
L 3481 531 
L 3481 0 
L 794 0 
L 794 531 
z
" transform="scale(0.015625)"/>
       </defs>
       <use xlink:href="#DejaVuSans-31"/>
       <use xlink:href="#DejaVuSans-30" transform="translate(63.623047 0)"/>
      </g>
     </g>
    </g>
    <g id="xtick_4">
     <g id="line2d_4">
      <g>
       <use xlink:href="#m9c9b1333f3" x="268.150084" y="298.96" style="stroke: #000000; stroke-width: 0.8"/>
      </g>
     </g>
     <g id="text_4">
      <!-- 15 -->
      <g transform="translate(261.787584 313.558437) scale(0.1 -0.1)">
       <use xlink:href="#DejaVuSans-31"/>
       <use xlink:href="#DejaVuSans-35" transform="translate(63.623047 0)"/>
      </g>
     </g>
    </g>
    <g id="xtick_5">
     <g id="line2d_5">
      <g>
       <use xlink:href="#m9c9b1333f3" x="340.344362" y="298.96" style="stroke: #000000; stroke-width: 0.8"/>
      </g>
     </g>
     <g id="text_5">
      <!-- 20 -->
      <g transform="translate(333.981862 313.558437) scale(0.1 -0.1)">
       <defs>
        <path id="DejaVuSans-32" d="M 1228 531 
L 3431 531 
L 3431 0 
L 469 0 
L 469 531 
Q 828 903 1448 1529 
Q 2069 2156 2228 2338 
Q 2531 2678 2651 2914 
Q 2772 3150 2772 3378 
Q 2772 3750 2511 3984 
Q 2250 4219 1831 4219 
Q 1534 4219 1204 4116 
Q 875 4013 500 3803 
L 500 4441 
Q 881 4594 1212 4672 
Q 1544 4750 1819 4750 
Q 2544 4750 2975 4387 
Q 3406 4025 3406 3419 
Q 3406 3131 3298 2873 
Q 3191 2616 2906 2266 
Q 2828 2175 2409 1742 
Q 1991 1309 1228 531 
z
" transform="scale(0.015625)"/>
       </defs>
       <use xlink:href="#DejaVuSans-32"/>
       <use xlink:href="#DejaVuSans-30" transform="translate(63.623047 0)"/>
      </g>
     </g>
    </g>
    <g id="xtick_6">
     <g id="line2d_6">
      <g>
       <use xlink:href="#m9c9b1333f3" x="412.538639" y="298.96" style="stroke: #000000; stroke-width: 0.8"/>
      </g>
     </g>
     <g id="text_6">
      <!-- 25 -->
      <g transform="translate(406.176139 313.558437) scale(0.1 -0.1)">
       <use xlink:href="#DejaVuSans-32"/>
       <use xlink:href="#DejaVuSans-35" transform="translate(63.623047 0)"/>
      </g>
     </g>
    </g>
    <g id="text_7">
     <!-- Time (h) -->
     <g transform="translate(203.940549 327.236562) scale(0.1 -0.1)">
      <defs>
       <path id="DejaVuSans-54" d="M -19 4666 
L 3928 4666 
L 3928 4134 
L 2272 4134 
L 2272 0 
L 1638 0 
L 1638 4134 
L -19 4134 
L -19 4666 
z
" transform="scale(0.015625)"/>
       <path id="DejaVuSans-69" d="M 603 3500 
L 1178 3500 
L 1178 0 
L 603 0 
L 603 3500 
z
M 603 4863 
L 1178 4863 
L 1178 4134 
L 603 4134 
L 603 4863 
z
" transform="scale(0.015625)"/>
       <path id="DejaVuSans-6d" d="M 3328 2828 
Q 3544 3216 3844 3400 
Q 4144 3584 4550 3584 
Q 5097 3584 5394 3201 
Q 5691 2819 5691 2113 
L 5691 0 
L 5113 0 
L 5113 2094 
Q 5113 2597 4934 2840 
Q 4756 3084 4391 3084 
Q 3944 3084 3684 2787 
Q 3425 2491 3425 1978 
L 3425 0 
L 2847 0 
L 2847 2094 
Q 2847 2600 2669 2842 
Q 2491 3084 2119 3084 
Q 1678 3084 1418 2786 
Q 1159 2488 1159 1978 
L 1159 0 
L 581 0 
L 581 3500 
L 1159 3500 
L 1159 2956 
Q 1356 3278 1631 3431 
Q 1906 3584 2284 3584 
Q 2666 3584 2933 3390 
Q 3200 3197 3328 2828 
z
" transform="scale(0.015625)"/>
       <path id="DejaVuSans-65" d="M 3597 1894 
L 3597 1613 
L 953 1613 
Q 991 1019 1311 708 
Q 1631 397 2203 397 
Q 2534 397 2845 478 
Q 3156 559 3463 722 
L 3463 178 
Q 3153 47 2828 -22 
Q 2503 -91 2169 -91 
Q 1331 -91 842 396 
Q 353 884 353 1716 
Q 353 2575 817 3079 
Q 1281 3584 2069 3584 
Q 2775 3584 3186 3129 
Q 3597 2675 3597 1894 
z
M 3022 2063 
Q 3016 2534 2758 2815 
Q 2500 3097 2075 3097 
Q 1594 3097 1305 2825 
Q 1016 2553 972 2059 
L 3022 2063 
z
" transform="scale(0.015625)"/>
       <path id="DejaVuSans-20" transform="scale(0.015625)"/>
       <path id="DejaVuSans-28" d="M 1984 4856 
Q 1566 4138 1362 3434 
Q 1159 2731 1159 2009 
Q 1159 1288 1364 580 
Q 1569 -128 1984 -844 
L 1484 -844 
Q 1016 -109 783 600 
Q 550 1309 550 2009 
Q 550 2706 781 3412 
Q 1013 4119 1484 4856 
L 1984 4856 
z
" transform="scale(0.015625)"/>
       <path id="DejaVuSans-68" d="M 3513 2113 
L 3513 0 
L 2938 0 
L 2938 2094 
Q 2938 2591 2744 2837 
Q 2550 3084 2163 3084 
Q 1697 3084 1428 2787 
Q 1159 2491 1159 1978 
L 1159 0 
L 581 0 
L 581 4863 
L 1159 4863 
L 1159 2956 
Q 1366 3272 1645 3428 
Q 1925 3584 2291 3584 
Q 2894 3584 3203 3211 
Q 3513 2838 3513 2113 
z
" transform="scale(0.015625)"/>
       <path id="DejaVuSans-29" d="M 513 4856 
L 1013 4856 
Q 1481 4119 1714 3412 
Q 1947 2706 1947 2009 
Q 1947 1309 1714 600 
Q 1481 -109 1013 -844 
L 513 -844 
Q 928 -128 1133 580 
Q 1338 1288 1338 2009 
Q 1338 2731 1133 3434 
Q 928 4138 513 4856 
z
" transform="scale(0.015625)"/>
      </defs>
      <use xlink:href="#DejaVuSans-54"/>
      <use xlink:href="#DejaVuSans-69" transform="translate(57.958984 0)"/>
      <use xlink:href="#DejaVuSans-6d" transform="translate(85.742188 0)"/>
      <use xlink:href="#DejaVuSans-65" transform="translate(183.154297 0)"/>
      <use xlink:href="#DejaVuSans-20" transform="translate(244.677734 0)"/>
      <use xlink:href="#DejaVuSans-28" transform="translate(276.464844 0)"/>
      <use xlink:href="#DejaVuSans-68" transform="translate(315.478516 0)"/>
      <use xlink:href="#DejaVuSans-29" transform="translate(378.857422 0)"/>
     </g>
    </g>
   </g>
   <g id="matplotlib.axis_2">
    <g id="ytick_1">
     <g id="line2d_7">
      <defs>
       <path id="m524377142b" d="M 0 0 
L -3.5 0 
" style="stroke: #000000; stroke-width: 0.8"/>
      </defs>
      <g>
       <use xlink:href="#m524377142b" x="34.240625" y="288.441818" style="stroke: #000000; stroke-width: 0.8"/>
      </g>
     </g>
     <g id="text_8">
      <!-- 0 -->
      <g transform="translate(20.878125 292.241037) scale(0.1 -0.1)">
       <use xlink:href="#DejaVuSans-30"/>
      </g>
     </g>
    </g>
    <g id="ytick_2">
     <g id="line2d_8">
      <g>
       <use xlink:href="#m524377142b" x="34.240625" y="242.076363" style="stroke: #000000; stroke-width: 0.8"/>
      </g>
     </g>
     <g id="text_9">
      <!-- 2 -->
      <g transform="translate(20.878125 245.875582) scale(0.1 -0.1)">
       <use xlink:href="#DejaVuSans-32"/>
      </g>
     </g>
    </g>
    <g id="ytick_3">
     <g id="line2d_9">
      <g>
       <use xlink:href="#m524377142b" x="34.240625" y="195.710908" style="stroke: #000000; stroke-width: 0.8"/>
      </g>
     </g>
     <g id="text_10">
      <!-- 4 -->
      <g transform="translate(20.878125 199.510127) scale(0.1 -0.1)">
       <defs>
        <path id="DejaVuSans-34" d="M 2419 4116 
L 825 1625 
L 2419 1625 
L 2419 4116 
z
M 2253 4666 
L 3047 4666 
L 3047 1625 
L 3713 1625 
L 3713 1100 
L 3047 1100 
L 3047 0 
L 2419 0 
L 2419 1100 
L 313 1100 
L 313 1709 
L 2253 4666 
z
" transform="scale(0.015625)"/>
       </defs>
       <use xlink:href="#DejaVuSans-34"/>
      </g>
     </g>
    </g>
    <g id="ytick_4">
     <g id="line2d_10">
      <g>
       <use xlink:href="#m524377142b" x="34.240625" y="149.345453" style="stroke: #000000; stroke-width: 0.8"/>
      </g>
     </g>
     <g id="text_11">
      <!-- 6 -->
      <g transform="translate(20.878125 153.144672) scale(0.1 -0.1)">
       <defs>
        <path id="DejaVuSans-36" d="M 2113 2584 
Q 1688 2584 1439 2293 
Q 1191 2003 1191 1497 
Q 1191 994 1439 701 
Q 1688 409 2113 409 
Q 2538 409 2786 701 
Q 3034 994 3034 1497 
Q 3034 2003 2786 2293 
Q 2538 2584 2113 2584 
z
M 3366 4563 
L 3366 3988 
Q 3128 4100 2886 4159 
Q 2644 4219 2406 4219 
Q 1781 4219 1451 3797 
Q 1122 3375 1075 2522 
Q 1259 2794 1537 2939 
Q 1816 3084 2150 3084 
Q 2853 3084 3261 2657 
Q 3669 2231 3669 1497 
Q 3669 778 3244 343 
Q 2819 -91 2113 -91 
Q 1303 -91 875 529 
Q 447 1150 447 2328 
Q 447 3434 972 4092 
Q 1497 4750 2381 4750 
Q 2619 4750 2861 4703 
Q 3103 4656 3366 4563 
z
" transform="scale(0.015625)"/>
       </defs>
       <use xlink:href="#DejaVuSans-36"/>
      </g>
     </g>
    </g>
    <g id="ytick_5">
     <g id="line2d_11">
      <g>
       <use xlink:href="#m524377142b" x="34.240625" y="102.979998" style="stroke: #000000; stroke-width: 0.8"/>
      </g>
     </g>
     <g id="text_12">
      <!-- 8 -->
      <g transform="translate(20.878125 106.779217) scale(0.1 -0.1)">
       <defs>
        <path id="DejaVuSans-38" d="M 2034 2216 
Q 1584 2216 1326 1975 
Q 1069 1734 1069 1313 
Q 1069 891 1326 650 
Q 1584 409 2034 409 
Q 2484 409 2743 651 
Q 3003 894 3003 1313 
Q 3003 1734 2745 1975 
Q 2488 2216 2034 2216 
z
M 1403 2484 
Q 997 2584 770 2862 
Q 544 3141 544 3541 
Q 544 4100 942 4425 
Q 1341 4750 2034 4750 
Q 2731 4750 3128 4425 
Q 3525 4100 3525 3541 
Q 3525 3141 3298 2862 
Q 3072 2584 2669 2484 
Q 3125 2378 3379 2068 
Q 3634 1759 3634 1313 
Q 3634 634 3220 271 
Q 2806 -91 2034 -91 
Q 1263 -91 848 271 
Q 434 634 434 1313 
Q 434 1759 690 2068 
Q 947 2378 1403 2484 
z
M 1172 3481 
Q 1172 3119 1398 2916 
Q 1625 2713 2034 2713 
Q 2441 2713 2670 2916 
Q 2900 3119 2900 3481 
Q 2900 3844 2670 4047 
Q 2441 4250 2034 4250 
Q 1625 4250 1398 4047 
Q 1172 3844 1172 3481 
z
" transform="scale(0.015625)"/>
       </defs>
       <use xlink:href="#DejaVuSans-38"/>
      </g>
     </g>
    </g>
    <g id="text_13">
     <!-- Receptor concentration (µg/mL) -->
     <g transform="translate(14.798438 263.065469) rotate(-90) scale(0.1 -0.1)">
      <defs>
       <path id="DejaVuSans-52" d="M 2841 2188 
Q 3044 2119 3236 1894 
Q 3428 1669 3622 1275 
L 4263 0 
L 3584 0 
L 2988 1197 
Q 2756 1666 2539 1819 
Q 2322 1972 1947 1972 
L 1259 1972 
L 1259 0 
L 628 0 
L 628 4666 
L 2053 4666 
Q 2853 4666 3247 4331 
Q 3641 3997 3641 3322 
Q 3641 2881 3436 2590 
Q 3231 2300 2841 2188 
z
M 1259 4147 
L 1259 2491 
L 2053 2491 
Q 2509 2491 2742 2702 
Q 2975 2913 2975 3322 
Q 2975 3731 2742 3939 
Q 2509 4147 2053 4147 
L 1259 4147 
z
" transform="scale(0.015625)"/>
       <path id="DejaVuSans-63" d="M 3122 3366 
L 3122 2828 
Q 2878 2963 2633 3030 
Q 2388 3097 2138 3097 
Q 1578 3097 1268 2742 
Q 959 2388 959 1747 
Q 959 1106 1268 751 
Q 1578 397 2138 397 
Q 2388 397 2633 464 
Q 2878 531 3122 666 
L 3122 134 
Q 2881 22 2623 -34 
Q 2366 -91 2075 -91 
Q 1284 -91 818 406 
Q 353 903 353 1747 
Q 353 2603 823 3093 
Q 1294 3584 2113 3584 
Q 2378 3584 2631 3529 
Q 2884 3475 3122 3366 
z
" transform="scale(0.015625)"/>
       <path id="DejaVuSans-70" d="M 1159 525 
L 1159 -1331 
L 581 -1331 
L 581 3500 
L 1159 3500 
L 1159 2969 
Q 1341 3281 1617 3432 
Q 1894 3584 2278 3584 
Q 2916 3584 3314 3078 
Q 3713 2572 3713 1747 
Q 3713 922 3314 415 
Q 2916 -91 2278 -91 
Q 1894 -91 1617 61 
Q 1341 213 1159 525 
z
M 3116 1747 
Q 3116 2381 2855 2742 
Q 2594 3103 2138 3103 
Q 1681 3103 1420 2742 
Q 1159 2381 1159 1747 
Q 1159 1113 1420 752 
Q 1681 391 2138 391 
Q 2594 391 2855 752 
Q 3116 1113 3116 1747 
z
" transform="scale(0.015625)"/>
       <path id="DejaVuSans-74" d="M 1172 4494 
L 1172 3500 
L 2356 3500 
L 2356 3053 
L 1172 3053 
L 1172 1153 
Q 1172 725 1289 603 
Q 1406 481 1766 481 
L 2356 481 
L 2356 0 
L 1766 0 
Q 1100 0 847 248 
Q 594 497 594 1153 
L 594 3053 
L 172 3053 
L 172 3500 
L 594 3500 
L 594 4494 
L 1172 4494 
z
" transform="scale(0.015625)"/>
       <path id="DejaVuSans-6f" d="M 1959 3097 
Q 1497 3097 1228 2736 
Q 959 2375 959 1747 
Q 959 1119 1226 758 
Q 1494 397 1959 397 
Q 2419 397 2687 759 
Q 2956 1122 2956 1747 
Q 2956 2369 2687 2733 
Q 2419 3097 1959 3097 
z
M 1959 3584 
Q 2709 3584 3137 3096 
Q 3566 2609 3566 1747 
Q 3566 888 3137 398 
Q 2709 -91 1959 -91 
Q 1206 -91 779 398 
Q 353 888 353 1747 
Q 353 2609 779 3096 
Q 1206 3584 1959 3584 
z
" transform="scale(0.015625)"/>
       <path id="DejaVuSans-72" d="M 2631 2963 
Q 2534 3019 2420 3045 
Q 2306 3072 2169 3072 
Q 1681 3072 1420 2755 
Q 1159 2438 1159 1844 
L 1159 0 
L 581 0 
L 581 3500 
L 1159 3500 
L 1159 2956 
Q 1341 3275 1631 3429 
Q 1922 3584 2338 3584 
Q 2397 3584 2469 3576 
Q 2541 3569 2628 3553 
L 2631 2963 
z
" transform="scale(0.015625)"/>
       <path id="DejaVuSans-6e" d="M 3513 2113 
L 3513 0 
L 2938 0 
L 2938 2094 
Q 2938 2591 2744 2837 
Q 2550 3084 2163 3084 
Q 1697 3084 1428 2787 
Q 1159 2491 1159 1978 
L 1159 0 
L 581 0 
L 581 3500 
L 1159 3500 
L 1159 2956 
Q 1366 3272 1645 3428 
Q 1925 3584 2291 3584 
Q 2894 3584 3203 3211 
Q 3513 2838 3513 2113 
z
" transform="scale(0.015625)"/>
       <path id="DejaVuSans-61" d="M 2194 1759 
Q 1497 1759 1228 1600 
Q 959 1441 959 1056 
Q 959 750 1161 570 
Q 1363 391 1709 391 
Q 2188 391 2477 730 
Q 2766 1069 2766 1631 
L 2766 1759 
L 2194 1759 
z
M 3341 1997 
L 3341 0 
L 2766 0 
L 2766 531 
Q 2569 213 2275 61 
Q 1981 -91 1556 -91 
Q 1019 -91 701 211 
Q 384 513 384 1019 
Q 384 1609 779 1909 
Q 1175 2209 1959 2209 
L 2766 2209 
L 2766 2266 
Q 2766 2663 2505 2880 
Q 2244 3097 1772 3097 
Q 1472 3097 1187 3025 
Q 903 2953 641 2809 
L 641 3341 
Q 956 3463 1253 3523 
Q 1550 3584 1831 3584 
Q 2591 3584 2966 3190 
Q 3341 2797 3341 1997 
z
" transform="scale(0.015625)"/>
       <path id="DejaVuSans-b5" d="M 544 -1331 
L 544 3500 
L 1119 3500 
L 1119 1325 
Q 1119 872 1334 640 
Q 1550 409 1972 409 
Q 2434 409 2667 671 
Q 2900 934 2900 1459 
L 2900 3500 
L 3475 3500 
L 3475 806 
Q 3475 619 3529 530 
Q 3584 441 3700 441 
Q 3728 441 3778 458 
Q 3828 475 3916 513 
L 3916 50 
Q 3788 -22 3673 -56 
Q 3559 -91 3450 -91 
Q 3234 -91 3106 31 
Q 2978 153 2931 403 
Q 2775 156 2548 32 
Q 2322 -91 2016 -91 
Q 1697 -91 1473 31 
Q 1250 153 1119 397 
L 1119 -1331 
L 544 -1331 
z
" transform="scale(0.015625)"/>
       <path id="DejaVuSans-67" d="M 2906 1791 
Q 2906 2416 2648 2759 
Q 2391 3103 1925 3103 
Q 1463 3103 1205 2759 
Q 947 2416 947 1791 
Q 947 1169 1205 825 
Q 1463 481 1925 481 
Q 2391 481 2648 825 
Q 2906 1169 2906 1791 
z
M 3481 434 
Q 3481 -459 3084 -895 
Q 2688 -1331 1869 -1331 
Q 1566 -1331 1297 -1286 
Q 1028 -1241 775 -1147 
L 775 -588 
Q 1028 -725 1275 -790 
Q 1522 -856 1778 -856 
Q 2344 -856 2625 -561 
Q 2906 -266 2906 331 
L 2906 616 
Q 2728 306 2450 153 
Q 2172 0 1784 0 
Q 1141 0 747 490 
Q 353 981 353 1791 
Q 353 2603 747 3093 
Q 1141 3584 1784 3584 
Q 2172 3584 2450 3431 
Q 2728 3278 2906 2969 
L 2906 3500 
L 3481 3500 
L 3481 434 
z
" transform="scale(0.015625)"/>
       <path id="DejaVuSans-2f" d="M 1625 4666 
L 2156 4666 
L 531 -594 
L 0 -594 
L 1625 4666 
z
" transform="scale(0.015625)"/>
       <path id="DejaVuSans-4c" d="M 628 4666 
L 1259 4666 
L 1259 531 
L 3531 531 
L 3531 0 
L 628 0 
L 628 4666 
z
" transform="scale(0.015625)"/>
      </defs>
      <use xlink:href="#DejaVuSans-52"/>
      <use xlink:href="#DejaVuSans-65" transform="translate(64.982422 0)"/>
      <use xlink:href="#DejaVuSans-63" transform="translate(126.505859 0)"/>
      <use xlink:href="#DejaVuSans-65" transform="translate(181.486328 0)"/>
      <use xlink:href="#DejaVuSans-70" transform="translate(243.009766 0)"/>
      <use xlink:href="#DejaVuSans-74" transform="translate(306.486328 0)"/>
      <use xlink:href="#DejaVuSans-6f" transform="translate(345.695312 0)"/>
      <use xlink:href="#DejaVuSans-72" transform="translate(406.876953 0)"/>
      <use xlink:href="#DejaVuSans-20" transform="translate(447.990234 0)"/>
      <use xlink:href="#DejaVuSans-63" transform="translate(479.777344 0)"/>
      <use xlink:href="#DejaVuSans-6f" transform="translate(534.757812 0)"/>
      <use xlink:href="#DejaVuSans-6e" transform="translate(595.939453 0)"/>
      <use xlink:href="#DejaVuSans-63" transform="translate(659.318359 0)"/>
      <use xlink:href="#DejaVuSans-65" transform="translate(714.298828 0)"/>
      <use xlink:href="#DejaVuSans-6e" transform="translate(775.822266 0)"/>
      <use xlink:href="#DejaVuSans-74" transform="translate(839.201172 0)"/>
      <use xlink:href="#DejaVuSans-72" transform="translate(878.410156 0)"/>
      <use xlink:href="#DejaVuSans-61" transform="translate(919.523438 0)"/>
      <use xlink:href="#DejaVuSans-74" transform="translate(980.802734 0)"/>
      <use xlink:href="#DejaVuSans-69" transform="translate(1020.011719 0)"/>
      <use xlink:href="#DejaVuSans-6f" transform="translate(1047.794922 0)"/>
      <use xlink:href="#DejaVuSans-6e" transform="translate(1108.976562 0)"/>
      <use xlink:href="#DejaVuSans-20" transform="translate(1172.355469 0)"/>
      <use xlink:href="#DejaVuSans-28" transform="translate(1204.142578 0)"/>
      <use xlink:href="#DejaVuSans-b5" transform="translate(1243.15625 0)"/>
      <use xlink:href="#DejaVuSans-67" transform="translate(1306.779297 0)"/>
      <use xlink:href="#DejaVuSans-2f" transform="translate(1370.255859 0)"/>
      <use xlink:href="#DejaVuSans-6d" transform="translate(1403.947266 0)"/>
      <use xlink:href="#DejaVuSans-4c" transform="translate(1501.359375 0)"/>
      <use xlink:href="#DejaVuSans-29" transform="translate(1557.072266 0)"/>
     </g>
    </g>
   </g>
   <g id="line2d_12">
    <path d="M 51.567252 288.441818 
L 54.455023 288.441818 
L 57.342794 288.441774 
L 60.230565 288.439282 
L 63.118336 288.42064 
L 66.006107 288.361544 
L 68.893878 288.238623 
L 71.781649 288.035539 
L 74.66942 287.743104 
L 77.557191 287.357459 
L 80.444963 286.878258 
L 83.332734 286.307318 
L 86.220505 285.647721 
L 89.108276 284.903234 
L 91.996047 284.077949 
L 94.883818 283.176065 
L 97.771589 282.201749 
L 100.65936 281.159063 
L 103.547131 280.051913 
L 106.434902 278.884036 
L 109.322674 277.65898 
L 112.210445 276.380111 
L 115.098216 275.050609 
L 117.985987 273.67348 
L 120.873758 272.251558 
L 123.761529 270.787517 
L 126.6493 269.283875 
L 129.537071 267.743007 
L 132.424842 266.167149 
L 135.312613 264.558408 
L 138.200385 262.918769 
L 141.088156 261.250101 
L 143.975927 259.554164 
L 146.863698 257.832615 
L 149.751469 256.087018 
L 152.63924 254.318841 
L 155.527011 252.529471 
L 158.414782 250.720211 
L 161.302553 248.892291 
L 164.190324 247.046866 
L 167.078096 245.185026 
L 169.965867 243.307798 
L 172.853638 241.416146 
L 175.741409 239.510982 
L 178.62918 237.593163 
L 181.516951 235.663495 
L 184.404722 233.722738 
L 187.292493 231.771608 
L 190.180264 229.81078 
L 193.068035 227.840887 
L 195.955807 225.862529 
L 198.843578 223.876266 
L 201.731349 221.882631 
L 204.61912 219.882121 
L 207.506891 217.875207 
L 210.394662 215.862332 
L 213.282433 213.843913 
L 216.170204 211.820342 
L 219.057975 209.79199 
L 221.945746 207.759203 
L 224.833518 205.722311 
L 227.721289 203.681621 
L 230.60906 201.637425 
L 233.496831 199.589996 
L 236.384602 197.539592 
L 239.272373 195.486456 
L 242.160144 193.430816 
L 245.047915 191.372888 
L 247.935686 189.312873 
L 250.823457 187.250964 
L 253.711229 185.18734 
L 256.599 183.122169 
L 259.486771 181.055612 
L 262.374542 178.987818 
L 265.262313 176.918928 
L 268.150084 174.849075 
L 271.037855 172.778385 
L 273.925626 170.706975 
L 276.813397 168.634956 
L 279.701168 166.562433 
L 282.58894 164.489504 
L 285.476711 162.416261 
L 288.364482 160.342793 
L 291.252253 158.26918 
L 294.140024 156.1955 
L 297.027795 154.121826 
L 299.915566 152.048225 
L 302.803337 149.974764 
L 305.691108 147.901501 
L 308.578879 145.828494 
L 311.466651 143.755797 
L 314.354422 141.68346 
L 317.242193 139.611532 
L 320.129964 137.540055 
L 323.017735 135.469073 
L 325.905506 133.398626 
L 328.793277 131.328749 
L 331.681048 129.25948 
L 334.568819 127.19085 
L 337.45659 125.12289 
L 340.344362 123.05563 
L 343.232133 120.989098 
L 346.119904 118.923318 
L 349.007675 116.858315 
L 351.895446 114.794112 
L 354.783217 112.730731 
L 357.670988 110.668191 
L 360.558759 108.606511 
L 363.44653 106.54571 
L 366.334301 104.485804 
L 369.222073 102.426808 
L 372.109844 100.368738 
L 374.997615 98.311607 
L 377.885386 96.255428 
L 380.773157 94.200214 
L 383.660928 92.145976 
L 386.548699 90.092725 
L 389.43647 88.040471 
L 392.324241 85.989223 
L 395.212012 83.93899 
L 398.099784 81.889781 
" clip-path="url(#p6ebc0a0c2c)" style="fill: none; stroke: #1f77b4; stroke-width: 2; stroke-linecap: square"/>
   </g>
   <g id="patch_3">
    <path d="M 34.240625 298.96 
L 34.240625 67.56 
" style="fill: none; stroke: #000000; stroke-width: 0.8; stroke-linejoin: miter; stroke-linecap: square"/>
   </g>
   <g id="patch_4">
    <path d="M 34.240625 298.96 
L 415.42641 298.96 
" style="fill: none; stroke: #000000; stroke-width: 0.8; stroke-linejoin: miter; stroke-linecap: square"/>
   </g>
   <g id="text_14">
    <!-- Free KC receptor concentration -->
    <g transform="translate(131.719143 61.56) scale(0.12 -0.12)">
     <defs>
      <path id="DejaVuSans-46" d="M 628 4666 
L 3309 4666 
L 3309 4134 
L 1259 4134 
L 1259 2759 
L 3109 2759 
L 3109 2228 
L 1259 2228 
L 1259 0 
L 628 0 
L 628 4666 
z
" transform="scale(0.015625)"/>
      <path id="DejaVuSans-4b" d="M 628 4666 
L 1259 4666 
L 1259 2694 
L 3353 4666 
L 4166 4666 
L 1850 2491 
L 4331 0 
L 3500 0 
L 1259 2247 
L 1259 0 
L 628 0 
L 628 4666 
z
" transform="scale(0.015625)"/>
      <path id="DejaVuSans-43" d="M 4122 4306 
L 4122 3641 
Q 3803 3938 3442 4084 
Q 3081 4231 2675 4231 
Q 1875 4231 1450 3742 
Q 1025 3253 1025 2328 
Q 1025 1406 1450 917 
Q 1875 428 2675 428 
Q 3081 428 3442 575 
Q 3803 722 4122 1019 
L 4122 359 
Q 3791 134 3420 21 
Q 3050 -91 2638 -91 
Q 1578 -91 968 557 
Q 359 1206 359 2328 
Q 359 3453 968 4101 
Q 1578 4750 2638 4750 
Q 3056 4750 3426 4639 
Q 3797 4528 4122 4306 
z
" transform="scale(0.015625)"/>
     </defs>
     <use xlink:href="#DejaVuSans-46"/>
     <use xlink:href="#DejaVuSans-72" transform="translate(50.269531 0)"/>
     <use xlink:href="#DejaVuSans-65" transform="translate(89.132812 0)"/>
     <use xlink:href="#DejaVuSans-65" transform="translate(150.65625 0)"/>
     <use xlink:href="#DejaVuSans-20" transform="translate(212.179688 0)"/>
     <use xlink:href="#DejaVuSans-4b" transform="translate(243.966797 0)"/>
     <use xlink:href="#DejaVuSans-43" transform="translate(304.042969 0)"/>
     <use xlink:href="#DejaVuSans-20" transform="translate(373.867188 0)"/>
     <use xlink:href="#DejaVuSans-72" transform="translate(405.654297 0)"/>
     <use xlink:href="#DejaVuSans-65" transform="translate(444.517578 0)"/>
     <use xlink:href="#DejaVuSans-63" transform="translate(506.041016 0)"/>
     <use xlink:href="#DejaVuSans-65" transform="translate(561.021484 0)"/>
     <use xlink:href="#DejaVuSans-70" transform="translate(622.544922 0)"/>
     <use xlink:href="#DejaVuSans-74" transform="translate(686.021484 0)"/>
     <use xlink:href="#DejaVuSans-6f" transform="translate(725.230469 0)"/>
     <use xlink:href="#DejaVuSans-72" transform="translate(786.412109 0)"/>
     <use xlink:href="#DejaVuSans-20" transform="translate(827.525391 0)"/>
     <use xlink:href="#DejaVuSans-63" transform="translate(859.3125 0)"/>
     <use xlink:href="#DejaVuSans-6f" transform="translate(914.292969 0)"/>
     <use xlink:href="#DejaVuSans-6e" transform="translate(975.474609 0)"/>
     <use xlink:href="#DejaVuSans-63" transform="translate(1038.853516 0)"/>
     <use xlink:href="#DejaVuSans-65" transform="translate(1093.833984 0)"/>
     <use xlink:href="#DejaVuSans-6e" transform="translate(1155.357422 0)"/>
     <use xlink:href="#DejaVuSans-74" transform="translate(1218.736328 0)"/>
     <use xlink:href="#DejaVuSans-72" transform="translate(1257.945312 0)"/>
     <use xlink:href="#DejaVuSans-61" transform="translate(1299.058594 0)"/>
     <use xlink:href="#DejaVuSans-74" transform="translate(1360.337891 0)"/>
     <use xlink:href="#DejaVuSans-69" transform="translate(1399.546875 0)"/>
     <use xlink:href="#DejaVuSans-6f" transform="translate(1427.330078 0)"/>
     <use xlink:href="#DejaVuSans-6e" transform="translate(1488.511719 0)"/>
    </g>
   </g>
   <g id="legend_1">
    <g id="line2d_13">
     <path d="M 43.240625 80.658437 
L 53.240625 80.658437 
L 63.240625 80.658437 
" style="fill: none; stroke: #1f77b4; stroke-width: 2; stroke-linecap: square"/>
    </g>
    <g id="text_15">
     <!-- Model (Case 1) -->
     <g transform="translate(71.240625 84.158437) scale(0.1 -0.1)">
      <defs>
       <path id="DejaVuSans-4d" d="M 628 4666 
L 1569 4666 
L 2759 1491 
L 3956 4666 
L 4897 4666 
L 4897 0 
L 4281 0 
L 4281 4097 
L 3078 897 
L 2444 897 
L 1241 4097 
L 1241 0 
L 628 0 
L 628 4666 
z
" transform="scale(0.015625)"/>
       <path id="DejaVuSans-64" d="M 2906 2969 
L 2906 4863 
L 3481 4863 
L 3481 0 
L 2906 0 
L 2906 525 
Q 2725 213 2448 61 
Q 2172 -91 1784 -91 
Q 1150 -91 751 415 
Q 353 922 353 1747 
Q 353 2572 751 3078 
Q 1150 3584 1784 3584 
Q 2172 3584 2448 3432 
Q 2725 3281 2906 2969 
z
M 947 1747 
Q 947 1113 1208 752 
Q 1469 391 1925 391 
Q 2381 391 2643 752 
Q 2906 1113 2906 1747 
Q 2906 2381 2643 2742 
Q 2381 3103 1925 3103 
Q 1469 3103 1208 2742 
Q 947 2381 947 1747 
z
" transform="scale(0.015625)"/>
       <path id="DejaVuSans-6c" d="M 603 4863 
L 1178 4863 
L 1178 0 
L 603 0 
L 603 4863 
z
" transform="scale(0.015625)"/>
       <path id="DejaVuSans-73" d="M 2834 3397 
L 2834 2853 
Q 2591 2978 2328 3040 
Q 2066 3103 1784 3103 
Q 1356 3103 1142 2972 
Q 928 2841 928 2578 
Q 928 2378 1081 2264 
Q 1234 2150 1697 2047 
L 1894 2003 
Q 2506 1872 2764 1633 
Q 3022 1394 3022 966 
Q 3022 478 2636 193 
Q 2250 -91 1575 -91 
Q 1294 -91 989 -36 
Q 684 19 347 128 
L 347 722 
Q 666 556 975 473 
Q 1284 391 1588 391 
Q 1994 391 2212 530 
Q 2431 669 2431 922 
Q 2431 1156 2273 1281 
Q 2116 1406 1581 1522 
L 1381 1569 
Q 847 1681 609 1914 
Q 372 2147 372 2553 
Q 372 3047 722 3315 
Q 1072 3584 1716 3584 
Q 2034 3584 2315 3537 
Q 2597 3491 2834 3397 
z
" transform="scale(0.015625)"/>
      </defs>
      <use xlink:href="#DejaVuSans-4d"/>
      <use xlink:href="#DejaVuSans-6f" transform="translate(86.279297 0)"/>
      <use xlink:href="#DejaVuSans-64" transform="translate(147.460938 0)"/>
      <use xlink:href="#DejaVuSans-65" transform="translate(210.9375 0)"/>
      <use xlink:href="#DejaVuSans-6c" transform="translate(272.460938 0)"/>
      <use xlink:href="#DejaVuSans-20" transform="translate(300.244141 0)"/>
      <use xlink:href="#DejaVuSans-28" transform="translate(332.03125 0)"/>
      <use xlink:href="#DejaVuSans-43" transform="translate(371.044922 0)"/>
      <use xlink:href="#DejaVuSans-61" transform="translate(440.869141 0)"/>
      <use xlink:href="#DejaVuSans-73" transform="translate(502.148438 0)"/>
      <use xlink:href="#DejaVuSans-65" transform="translate(554.248047 0)"/>
      <use xlink:href="#DejaVuSans-20" transform="translate(615.771484 0)"/>
      <use xlink:href="#DejaVuSans-31" transform="translate(647.558594 0)"/>
      <use xlink:href="#DejaVuSans-29" transform="translate(711.181641 0)"/>
     </g>
    </g>
    <g id="PathCollection_2">
     <g>
      <use xlink:href="#m7716220470" x="53.240625" y="96.211562" style="fill: #1f77b4; stroke: #1f77b4"/>
     </g>
    </g>
    <g id="text_16">
     <!-- Experimental -->
     <g transform="translate(71.240625 98.836562) scale(0.1 -0.1)">
      <defs>
       <path id="DejaVuSans-45" d="M 628 4666 
L 3578 4666 
L 3578 4134 
L 1259 4134 
L 1259 2753 
L 3481 2753 
L 3481 2222 
L 1259 2222 
L 1259 531 
L 3634 531 
L 3634 0 
L 628 0 
L 628 4666 
z
" transform="scale(0.015625)"/>
       <path id="DejaVuSans-78" d="M 3513 3500 
L 2247 1797 
L 3578 0 
L 2900 0 
L 1881 1375 
L 863 0 
L 184 0 
L 1544 1831 
L 300 3500 
L 978 3500 
L 1906 2253 
L 2834 3500 
L 3513 3500 
z
" transform="scale(0.015625)"/>
      </defs>
      <use xlink:href="#DejaVuSans-45"/>
      <use xlink:href="#DejaVuSans-78" transform="translate(63.183594 0)"/>
      <use xlink:href="#DejaVuSans-70" transform="translate(122.363281 0)"/>
      <use xlink:href="#DejaVuSans-65" transform="translate(185.839844 0)"/>
      <use xlink:href="#DejaVuSans-72" transform="translate(247.363281 0)"/>
      <use xlink:href="#DejaVuSans-69" transform="translate(288.476562 0)"/>
      <use xlink:href="#DejaVuSans-6d" transform="translate(316.259766 0)"/>
      <use xlink:href="#DejaVuSans-65" transform="translate(413.671875 0)"/>
      <use xlink:href="#DejaVuSans-6e" transform="translate(475.195312 0)"/>
      <use xlink:href="#DejaVuSans-74" transform="translate(538.574219 0)"/>
      <use xlink:href="#DejaVuSans-61" transform="translate(577.783203 0)"/>
      <use xlink:href="#DejaVuSans-6c" transform="translate(639.0625 0)"/>
     </g>
    </g>
   </g>
  </g>
  <g id="axes_2">
   <g id="patch_5">
    <path d="M 463.990625 298.96 
L 845.17641 298.96 
L 845.17641 67.56 
L 463.990625 67.56 
z
" style="fill: #ffffff"/>
   </g>
   <g id="PathCollection_3">
    <g clip-path="url(#p3f384c3290)">
     <use xlink:href="#m7716220470" x="539.072674" y="277.666941" style="fill: #1f77b4; stroke: #1f77b4"/>
     <use xlink:href="#m7716220470" x="567.950385" y="264.356798" style="fill: #1f77b4; stroke: #1f77b4"/>
     <use xlink:href="#m7716220470" x="596.828096" y="245.976125" style="fill: #1f77b4; stroke: #1f77b4"/>
     <use xlink:href="#m7716220470" x="654.583518" y="202.242799" style="fill: #1f77b4; stroke: #1f77b4"/>
     <use xlink:href="#m7716220470" x="827.849784" y="78.078182" style="fill: #1f77b4; stroke: #1f77b4"/>
    </g>
   </g>
   <g id="matplotlib.axis_3">
    <g id="xtick_7">
     <g id="line2d_14">
      <g>
       <use xlink:href="#m9c9b1333f3" x="481.317252" y="298.96" style="stroke: #000000; stroke-width: 0.8"/>
      </g>
     </g>
     <g id="text_17">
      <!-- 0 -->
      <g transform="translate(478.136002 313.558437) scale(0.1 -0.1)">
       <use xlink:href="#DejaVuSans-30"/>
      </g>
     </g>
    </g>
    <g id="xtick_8">
     <g id="line2d_15">
      <g>
       <use xlink:href="#m9c9b1333f3" x="553.511529" y="298.96" style="stroke: #000000; stroke-width: 0.8"/>
      </g>
     </g>
     <g id="text_18">
      <!-- 5 -->
      <g transform="translate(550.330279 313.558437) scale(0.1 -0.1)">
       <use xlink:href="#DejaVuSans-35"/>
      </g>
     </g>
    </g>
    <g id="xtick_9">
     <g id="line2d_16">
      <g>
       <use xlink:href="#m9c9b1333f3" x="625.705807" y="298.96" style="stroke: #000000; stroke-width: 0.8"/>
      </g>
     </g>
     <g id="text_19">
      <!-- 10 -->
      <g transform="translate(619.343307 313.558437) scale(0.1 -0.1)">
       <use xlink:href="#DejaVuSans-31"/>
       <use xlink:href="#DejaVuSans-30" transform="translate(63.623047 0)"/>
      </g>
     </g>
    </g>
    <g id="xtick_10">
     <g id="line2d_17">
      <g>
       <use xlink:href="#m9c9b1333f3" x="697.900084" y="298.96" style="stroke: #000000; stroke-width: 0.8"/>
      </g>
     </g>
     <g id="text_20">
      <!-- 15 -->
      <g transform="translate(691.537584 313.558437) scale(0.1 -0.1)">
       <use xlink:href="#DejaVuSans-31"/>
       <use xlink:href="#DejaVuSans-35" transform="translate(63.623047 0)"/>
      </g>
     </g>
    </g>
    <g id="xtick_11">
     <g id="line2d_18">
      <g>
       <use xlink:href="#m9c9b1333f3" x="770.094362" y="298.96" style="stroke: #000000; stroke-width: 0.8"/>
      </g>
     </g>
     <g id="text_21">
      <!-- 20 -->
      <g transform="translate(763.731862 313.558437) scale(0.1 -0.1)">
       <use xlink:href="#DejaVuSans-32"/>
       <use xlink:href="#DejaVuSans-30" transform="translate(63.623047 0)"/>
      </g>
     </g>
    </g>
    <g id="xtick_12">
     <g id="line2d_19">
      <g>
       <use xlink:href="#m9c9b1333f3" x="842.288639" y="298.96" style="stroke: #000000; stroke-width: 0.8"/>
      </g>
     </g>
     <g id="text_22">
      <!-- 25 -->
      <g transform="translate(835.926139 313.558437) scale(0.1 -0.1)">
       <use xlink:href="#DejaVuSans-32"/>
       <use xlink:href="#DejaVuSans-35" transform="translate(63.623047 0)"/>
      </g>
     </g>
    </g>
    <g id="text_23">
     <!-- Time (h) -->
     <g transform="translate(633.690549 327.236562) scale(0.1 -0.1)">
      <use xlink:href="#DejaVuSans-54"/>
      <use xlink:href="#DejaVuSans-69" transform="translate(57.958984 0)"/>
      <use xlink:href="#DejaVuSans-6d" transform="translate(85.742188 0)"/>
      <use xlink:href="#DejaVuSans-65" transform="translate(183.154297 0)"/>
      <use xlink:href="#DejaVuSans-20" transform="translate(244.677734 0)"/>
      <use xlink:href="#DejaVuSans-28" transform="translate(276.464844 0)"/>
      <use xlink:href="#DejaVuSans-68" transform="translate(315.478516 0)"/>
      <use xlink:href="#DejaVuSans-29" transform="translate(378.857422 0)"/>
     </g>
    </g>
   </g>
   <g id="matplotlib.axis_4">
    <g id="ytick_6">
     <g id="line2d_20">
      <g>
       <use xlink:href="#m524377142b" x="463.990625" y="288.441818" style="stroke: #000000; stroke-width: 0.8"/>
      </g>
     </g>
     <g id="text_24">
      <!-- 0 -->
      <g transform="translate(450.628125 292.241037) scale(0.1 -0.1)">
       <use xlink:href="#DejaVuSans-30"/>
      </g>
     </g>
    </g>
    <g id="ytick_7">
     <g id="line2d_21">
      <g>
       <use xlink:href="#m524377142b" x="463.990625" y="250.989036" style="stroke: #000000; stroke-width: 0.8"/>
      </g>
     </g>
     <g id="text_25">
      <!-- 2 -->
      <g transform="translate(450.628125 254.788254) scale(0.1 -0.1)">
       <use xlink:href="#DejaVuSans-32"/>
      </g>
     </g>
    </g>
    <g id="ytick_8">
     <g id="line2d_22">
      <g>
       <use xlink:href="#m524377142b" x="463.990625" y="213.536253" style="stroke: #000000; stroke-width: 0.8"/>
      </g>
     </g>
     <g id="text_26">
      <!-- 4 -->
      <g transform="translate(450.628125 217.335472) scale(0.1 -0.1)">
       <use xlink:href="#DejaVuSans-34"/>
      </g>
     </g>
    </g>
    <g id="ytick_9">
     <g id="line2d_23">
      <g>
       <use xlink:href="#m524377142b" x="463.990625" y="176.083471" style="stroke: #000000; stroke-width: 0.8"/>
      </g>
     </g>
     <g id="text_27">
      <!-- 6 -->
      <g transform="translate(450.628125 179.882689) scale(0.1 -0.1)">
       <use xlink:href="#DejaVuSans-36"/>
      </g>
     </g>
    </g>
    <g id="ytick_10">
     <g id="line2d_24">
      <g>
       <use xlink:href="#m524377142b" x="463.990625" y="138.630688" style="stroke: #000000; stroke-width: 0.8"/>
      </g>
     </g>
     <g id="text_28">
      <!-- 8 -->
      <g transform="translate(450.628125 142.429907) scale(0.1 -0.1)">
       <use xlink:href="#DejaVuSans-38"/>
      </g>
     </g>
    </g>
    <g id="ytick_11">
     <g id="line2d_25">
      <g>
       <use xlink:href="#m524377142b" x="463.990625" y="101.177906" style="stroke: #000000; stroke-width: 0.8"/>
      </g>
     </g>
     <g id="text_29">
      <!-- 10 -->
      <g transform="translate(444.265625 104.977124) scale(0.1 -0.1)">
       <use xlink:href="#DejaVuSans-31"/>
       <use xlink:href="#DejaVuSans-30" transform="translate(63.623047 0)"/>
      </g>
     </g>
    </g>
    <g id="text_30">
     <!-- Receptor concentration (µg/mL) -->
     <g transform="translate(438.185937 263.065469) rotate(-90) scale(0.1 -0.1)">
      <use xlink:href="#DejaVuSans-52"/>
      <use xlink:href="#DejaVuSans-65" transform="translate(64.982422 0)"/>
      <use xlink:href="#DejaVuSans-63" transform="translate(126.505859 0)"/>
      <use xlink:href="#DejaVuSans-65" transform="translate(181.486328 0)"/>
      <use xlink:href="#DejaVuSans-70" transform="translate(243.009766 0)"/>
      <use xlink:href="#DejaVuSans-74" transform="translate(306.486328 0)"/>
      <use xlink:href="#DejaVuSans-6f" transform="translate(345.695312 0)"/>
      <use xlink:href="#DejaVuSans-72" transform="translate(406.876953 0)"/>
      <use xlink:href="#DejaVuSans-20" transform="translate(447.990234 0)"/>
      <use xlink:href="#DejaVuSans-63" transform="translate(479.777344 0)"/>
      <use xlink:href="#DejaVuSans-6f" transform="translate(534.757812 0)"/>
      <use xlink:href="#DejaVuSans-6e" transform="translate(595.939453 0)"/>
      <use xlink:href="#DejaVuSans-63" transform="translate(659.318359 0)"/>
      <use xlink:href="#DejaVuSans-65" transform="translate(714.298828 0)"/>
      <use xlink:href="#DejaVuSans-6e" transform="translate(775.822266 0)"/>
      <use xlink:href="#DejaVuSans-74" transform="translate(839.201172 0)"/>
      <use xlink:href="#DejaVuSans-72" transform="translate(878.410156 0)"/>
      <use xlink:href="#DejaVuSans-61" transform="translate(919.523438 0)"/>
      <use xlink:href="#DejaVuSans-74" transform="translate(980.802734 0)"/>
      <use xlink:href="#DejaVuSans-69" transform="translate(1020.011719 0)"/>
      <use xlink:href="#DejaVuSans-6f" transform="translate(1047.794922 0)"/>
      <use xlink:href="#DejaVuSans-6e" transform="translate(1108.976562 0)"/>
      <use xlink:href="#DejaVuSans-20" transform="translate(1172.355469 0)"/>
      <use xlink:href="#DejaVuSans-28" transform="translate(1204.142578 0)"/>
      <use xlink:href="#DejaVuSans-b5" transform="translate(1243.15625 0)"/>
      <use xlink:href="#DejaVuSans-67" transform="translate(1306.779297 0)"/>
      <use xlink:href="#DejaVuSans-2f" transform="translate(1370.255859 0)"/>
      <use xlink:href="#DejaVuSans-6d" transform="translate(1403.947266 0)"/>
      <use xlink:href="#DejaVuSans-4c" transform="translate(1501.359375 0)"/>
      <use xlink:href="#DejaVuSans-29" transform="translate(1557.072266 0)"/>
     </g>
    </g>
   </g>
   <g id="line2d_26">
    <path d="M 481.317252 288.441818 
L 484.205023 288.441818 
L 487.092794 288.441809 
L 489.980565 288.440853 
L 492.868336 288.430888 
L 495.756107 288.392134 
L 498.643878 288.300006 
L 501.531649 288.133238 
L 504.41942 287.877043 
L 507.307191 287.52291 
L 510.194963 287.067234 
L 513.082734 286.509878 
L 515.970505 285.852999 
L 518.858276 285.100189 
L 521.746047 284.255875 
L 524.633818 283.324917 
L 527.521589 282.312335 
L 530.40936 281.223142 
L 533.297131 280.062231 
L 536.184902 278.83431 
L 539.072674 277.543865 
L 541.960445 276.19514 
L 544.848216 274.792135 
L 547.735987 273.338602 
L 550.623758 271.838057 
L 553.511529 270.293785 
L 556.3993 268.708854 
L 559.287071 267.086127 
L 562.174842 265.428272 
L 565.062613 263.737774 
L 567.950385 262.016951 
L 570.838156 260.267958 
L 573.725927 258.492804 
L 576.613698 256.69336 
L 579.501469 254.871366 
L 582.38924 253.028443 
L 585.277011 251.166098 
L 588.164782 249.285736 
L 591.052553 247.388663 
L 593.940324 245.476096 
L 596.828096 243.549166 
L 599.715867 241.608927 
L 602.603638 239.65636 
L 605.491409 237.692378 
L 608.37918 235.717829 
L 611.266951 233.733505 
L 614.154722 231.740141 
L 617.042493 229.738421 
L 619.930264 227.728983 
L 622.818035 225.71242 
L 625.705807 223.689285 
L 628.593578 221.66009 
L 631.481349 219.625314 
L 634.36912 217.585402 
L 637.256891 215.540767 
L 640.144662 213.491796 
L 643.032433 211.438847 
L 645.920204 209.382254 
L 648.807975 207.322327 
L 651.695746 205.259356 
L 654.583518 203.193609 
L 657.471289 201.125338 
L 660.35906 199.054774 
L 663.246831 196.982135 
L 666.134602 194.907623 
L 669.022373 192.831426 
L 671.910144 190.753717 
L 674.797915 188.674661 
L 677.685686 186.594408 
L 680.573457 184.513098 
L 683.461229 182.430864 
L 686.349 180.347827 
L 689.236771 178.264101 
L 692.124542 176.17979 
L 695.012313 174.094995 
L 697.900084 172.009805 
L 700.787855 169.924306 
L 703.675626 167.838577 
L 706.563397 165.752691 
L 709.451168 163.666719 
L 712.33894 161.580721 
L 715.226711 159.49476 
L 718.114482 157.408888 
L 721.002253 155.323159 
L 723.890024 153.237619 
L 726.777795 151.152313 
L 729.665566 149.067282 
L 732.553337 146.982566 
L 735.441108 144.898198 
L 738.328879 142.814214 
L 741.216651 140.730643 
L 744.104422 138.647515 
L 746.992193 136.564855 
L 749.879964 134.48269 
L 752.767735 132.401042 
L 755.655506 130.319933 
L 758.543277 128.239382 
L 761.431048 126.159409 
L 764.318819 124.08003 
L 767.20659 122.001261 
L 770.094362 119.923118 
L 772.982133 117.845615 
L 775.869904 115.768763 
L 778.757675 113.692576 
L 781.645446 111.617064 
L 784.533217 109.542237 
L 787.420988 107.468106 
L 790.308759 105.394679 
L 793.19653 103.321964 
L 796.084301 101.249969 
L 798.972073 99.178701 
L 801.859844 97.108166 
L 804.747615 95.038372 
L 807.635386 92.969323 
L 810.523157 90.901024 
L 813.410928 88.833481 
L 816.298699 86.766698 
L 819.18647 84.70068 
L 822.074241 82.635429 
L 824.962012 80.57095 
L 827.849784 78.507246 
" clip-path="url(#p3f384c3290)" style="fill: none; stroke: #1f77b4; stroke-width: 2; stroke-linecap: square"/>
   </g>
   <g id="patch_6">
    <path d="M 463.990625 298.96 
L 463.990625 67.56 
" style="fill: none; stroke: #000000; stroke-width: 0.8; stroke-linejoin: miter; stroke-linecap: square"/>
   </g>
   <g id="patch_7">
    <path d="M 463.990625 298.96 
L 845.17641 298.96 
" style="fill: none; stroke: #000000; stroke-width: 0.8; stroke-linejoin: miter; stroke-linecap: square"/>
   </g>
   <g id="text_31">
    <!-- KLZ-NPs receptor concentration -->
    <g transform="translate(559.326955 61.56) scale(0.12 -0.12)">
     <defs>
      <path id="DejaVuSans-5a" d="M 359 4666 
L 4025 4666 
L 4025 4184 
L 1075 531 
L 4097 531 
L 4097 0 
L 288 0 
L 288 481 
L 3238 4134 
L 359 4134 
L 359 4666 
z
" transform="scale(0.015625)"/>
      <path id="DejaVuSans-2d" d="M 313 2009 
L 1997 2009 
L 1997 1497 
L 313 1497 
L 313 2009 
z
" transform="scale(0.015625)"/>
      <path id="DejaVuSans-4e" d="M 628 4666 
L 1478 4666 
L 3547 763 
L 3547 4666 
L 4159 4666 
L 4159 0 
L 3309 0 
L 1241 3903 
L 1241 0 
L 628 0 
L 628 4666 
z
" transform="scale(0.015625)"/>
      <path id="DejaVuSans-50" d="M 1259 4147 
L 1259 2394 
L 2053 2394 
Q 2494 2394 2734 2622 
Q 2975 2850 2975 3272 
Q 2975 3691 2734 3919 
Q 2494 4147 2053 4147 
L 1259 4147 
z
M 628 4666 
L 2053 4666 
Q 2838 4666 3239 4311 
Q 3641 3956 3641 3272 
Q 3641 2581 3239 2228 
Q 2838 1875 2053 1875 
L 1259 1875 
L 1259 0 
L 628 0 
L 628 4666 
z
" transform="scale(0.015625)"/>
     </defs>
     <use xlink:href="#DejaVuSans-4b"/>
     <use xlink:href="#DejaVuSans-4c" transform="translate(65.576172 0)"/>
     <use xlink:href="#DejaVuSans-5a" transform="translate(121.289062 0)"/>
     <use xlink:href="#DejaVuSans-2d" transform="translate(188.044922 0)"/>
     <use xlink:href="#DejaVuSans-4e" transform="translate(224.128906 0)"/>
     <use xlink:href="#DejaVuSans-50" transform="translate(298.933594 0)"/>
     <use xlink:href="#DejaVuSans-73" transform="translate(357.486328 0)"/>
     <use xlink:href="#DejaVuSans-20" transform="translate(409.585938 0)"/>
     <use xlink:href="#DejaVuSans-72" transform="translate(441.373047 0)"/>
     <use xlink:href="#DejaVuSans-65" transform="translate(480.236328 0)"/>
     <use xlink:href="#DejaVuSans-63" transform="translate(541.759766 0)"/>
     <use xlink:href="#DejaVuSans-65" transform="translate(596.740234 0)"/>
     <use xlink:href="#DejaVuSans-70" transform="translate(658.263672 0)"/>
     <use xlink:href="#DejaVuSans-74" transform="translate(721.740234 0)"/>
     <use xlink:href="#DejaVuSans-6f" transform="translate(760.949219 0)"/>
     <use xlink:href="#DejaVuSans-72" transform="translate(822.130859 0)"/>
     <use xlink:href="#DejaVuSans-20" transform="translate(863.244141 0)"/>
     <use xlink:href="#DejaVuSans-63" transform="translate(895.03125 0)"/>
     <use xlink:href="#DejaVuSans-6f" transform="translate(950.011719 0)"/>
     <use xlink:href="#DejaVuSans-6e" transform="translate(1011.193359 0)"/>
     <use xlink:href="#DejaVuSans-63" transform="translate(1074.572266 0)"/>
     <use xlink:href="#DejaVuSans-65" transform="translate(1129.552734 0)"/>
     <use xlink:href="#DejaVuSans-6e" transform="translate(1191.076172 0)"/>
     <use xlink:href="#DejaVuSans-74" transform="translate(1254.455078 0)"/>
     <use xlink:href="#DejaVuSans-72" transform="translate(1293.664062 0)"/>
     <use xlink:href="#DejaVuSans-61" transform="translate(1334.777344 0)"/>
     <use xlink:href="#DejaVuSans-74" transform="translate(1396.056641 0)"/>
     <use xlink:href="#DejaVuSans-69" transform="translate(1435.265625 0)"/>
     <use xlink:href="#DejaVuSans-6f" transform="translate(1463.048828 0)"/>
     <use xlink:href="#DejaVuSans-6e" transform="translate(1524.230469 0)"/>
    </g>
   </g>
   <g id="legend_2">
    <g id="line2d_27">
     <path d="M 472.990625 80.658437 
L 482.990625 80.658437 
L 492.990625 80.658437 
" style="fill: none; stroke: #1f77b4; stroke-width: 2; stroke-linecap: square"/>
    </g>
    <g id="text_32">
     <!-- Model (Case 2) -->
     <g transform="translate(500.990625 84.158437) scale(0.1 -0.1)">
      <use xlink:href="#DejaVuSans-4d"/>
      <use xlink:href="#DejaVuSans-6f" transform="translate(86.279297 0)"/>
      <use xlink:href="#DejaVuSans-64" transform="translate(147.460938 0)"/>
      <use xlink:href="#DejaVuSans-65" transform="translate(210.9375 0)"/>
      <use xlink:href="#DejaVuSans-6c" transform="translate(272.460938 0)"/>
      <use xlink:href="#DejaVuSans-20" transform="translate(300.244141 0)"/>
      <use xlink:href="#DejaVuSans-28" transform="translate(332.03125 0)"/>
      <use xlink:href="#DejaVuSans-43" transform="translate(371.044922 0)"/>
      <use xlink:href="#DejaVuSans-61" transform="translate(440.869141 0)"/>
      <use xlink:href="#DejaVuSans-73" transform="translate(502.148438 0)"/>
      <use xlink:href="#DejaVuSans-65" transform="translate(554.248047 0)"/>
      <use xlink:href="#DejaVuSans-20" transform="translate(615.771484 0)"/>
      <use xlink:href="#DejaVuSans-32" transform="translate(647.558594 0)"/>
      <use xlink:href="#DejaVuSans-29" transform="translate(711.181641 0)"/>
     </g>
    </g>
    <g id="PathCollection_4">
     <g>
      <use xlink:href="#m7716220470" x="482.990625" y="96.211562" style="fill: #1f77b4; stroke: #1f77b4"/>
     </g>
    </g>
    <g id="text_33">
     <!-- Experimental -->
     <g transform="translate(500.990625 98.836562) scale(0.1 -0.1)">
      <use xlink:href="#DejaVuSans-45"/>
      <use xlink:href="#DejaVuSans-78" transform="translate(63.183594 0)"/>
      <use xlink:href="#DejaVuSans-70" transform="translate(122.363281 0)"/>
      <use xlink:href="#DejaVuSans-65" transform="translate(185.839844 0)"/>
      <use xlink:href="#DejaVuSans-72" transform="translate(247.363281 0)"/>
      <use xlink:href="#DejaVuSans-69" transform="translate(288.476562 0)"/>
      <use xlink:href="#DejaVuSans-6d" transform="translate(316.259766 0)"/>
      <use xlink:href="#DejaVuSans-65" transform="translate(413.671875 0)"/>
      <use xlink:href="#DejaVuSans-6e" transform="translate(475.195312 0)"/>
      <use xlink:href="#DejaVuSans-74" transform="translate(538.574219 0)"/>
      <use xlink:href="#DejaVuSans-61" transform="translate(577.783203 0)"/>
      <use xlink:href="#DejaVuSans-6c" transform="translate(639.0625 0)"/>
     </g>
    </g>
   </g>
  </g>
  <g id="text_34">
   <!-- Experimental and model-predicted receptor concentration-time profiles -->
   <g transform="translate(213.164062 16.318125) scale(0.12 -0.12)">
    <defs>
     <path id="DejaVuSans-66" d="M 2375 4863 
L 2375 4384 
L 1825 4384 
Q 1516 4384 1395 4259 
Q 1275 4134 1275 3809 
L 1275 3500 
L 2222 3500 
L 2222 3053 
L 1275 3053 
L 1275 0 
L 697 0 
L 697 3053 
L 147 3053 
L 147 3500 
L 697 3500 
L 697 3744 
Q 697 4328 969 4595 
Q 1241 4863 1831 4863 
L 2375 4863 
z
" transform="scale(0.015625)"/>
    </defs>
    <use xlink:href="#DejaVuSans-45"/>
    <use xlink:href="#DejaVuSans-78" transform="translate(63.183594 0)"/>
    <use xlink:href="#DejaVuSans-70" transform="translate(122.363281 0)"/>
    <use xlink:href="#DejaVuSans-65" transform="translate(185.839844 0)"/>
    <use xlink:href="#DejaVuSans-72" transform="translate(247.363281 0)"/>
    <use xlink:href="#DejaVuSans-69" transform="translate(288.476562 0)"/>
    <use xlink:href="#DejaVuSans-6d" transform="translate(316.259766 0)"/>
    <use xlink:href="#DejaVuSans-65" transform="translate(413.671875 0)"/>
    <use xlink:href="#DejaVuSans-6e" transform="translate(475.195312 0)"/>
    <use xlink:href="#DejaVuSans-74" transform="translate(538.574219 0)"/>
    <use xlink:href="#DejaVuSans-61" transform="translate(577.783203 0)"/>
    <use xlink:href="#DejaVuSans-6c" transform="translate(639.0625 0)"/>
    <use xlink:href="#DejaVuSans-20" transform="translate(666.845703 0)"/>
    <use xlink:href="#DejaVuSans-61" transform="translate(698.632812 0)"/>
    <use xlink:href="#DejaVuSans-6e" transform="translate(759.912109 0)"/>
    <use xlink:href="#DejaVuSans-64" transform="translate(823.291016 0)"/>
    <use xlink:href="#DejaVuSans-20" transform="translate(886.767578 0)"/>
    <use xlink:href="#DejaVuSans-6d" transform="translate(918.554688 0)"/>
    <use xlink:href="#DejaVuSans-6f" transform="translate(1015.966797 0)"/>
    <use xlink:href="#DejaVuSans-64" transform="translate(1077.148438 0)"/>
    <use xlink:href="#DejaVuSans-65" transform="translate(1140.625 0)"/>
    <use xlink:href="#DejaVuSans-6c" transform="translate(1202.148438 0)"/>
    <use xlink:href="#DejaVuSans-2d" transform="translate(1229.931641 0)"/>
    <use xlink:href="#DejaVuSans-70" transform="translate(1266.015625 0)"/>
    <use xlink:href="#DejaVuSans-72" transform="translate(1329.492188 0)"/>
    <use xlink:href="#DejaVuSans-65" transform="translate(1368.355469 0)"/>
    <use xlink:href="#DejaVuSans-64" transform="translate(1429.878906 0)"/>
    <use xlink:href="#DejaVuSans-69" transform="translate(1493.355469 0)"/>
    <use xlink:href="#DejaVuSans-63" transform="translate(1521.138672 0)"/>
    <use xlink:href="#DejaVuSans-74" transform="translate(1576.119141 0)"/>
    <use xlink:href="#DejaVuSans-65" transform="translate(1615.328125 0)"/>
    <use xlink:href="#DejaVuSans-64" transform="translate(1676.851562 0)"/>
    <use xlink:href="#DejaVuSans-20" transform="translate(1740.328125 0)"/>
    <use xlink:href="#DejaVuSans-72" transform="translate(1772.115234 0)"/>
    <use xlink:href="#DejaVuSans-65" transform="translate(1810.978516 0)"/>
    <use xlink:href="#DejaVuSans-63" transform="translate(1872.501953 0)"/>
    <use xlink:href="#DejaVuSans-65" transform="translate(1927.482422 0)"/>
    <use xlink:href="#DejaVuSans-70" transform="translate(1989.005859 0)"/>
    <use xlink:href="#DejaVuSans-74" transform="translate(2052.482422 0)"/>
    <use xlink:href="#DejaVuSans-6f" transform="translate(2091.691406 0)"/>
    <use xlink:href="#DejaVuSans-72" transform="translate(2152.873047 0)"/>
    <use xlink:href="#DejaVuSans-20" transform="translate(2193.986328 0)"/>
    <use xlink:href="#DejaVuSans-63" transform="translate(2225.773438 0)"/>
    <use xlink:href="#DejaVuSans-6f" transform="translate(2280.753906 0)"/>
    <use xlink:href="#DejaVuSans-6e" transform="translate(2341.935547 0)"/>
    <use xlink:href="#DejaVuSans-63" transform="translate(2405.314453 0)"/>
    <use xlink:href="#DejaVuSans-65" transform="translate(2460.294922 0)"/>
    <use xlink:href="#DejaVuSans-6e" transform="translate(2521.818359 0)"/>
    <use xlink:href="#DejaVuSans-74" transform="translate(2585.197266 0)"/>
    <use xlink:href="#DejaVuSans-72" transform="translate(2624.40625 0)"/>
    <use xlink:href="#DejaVuSans-61" transform="translate(2665.519531 0)"/>
    <use xlink:href="#DejaVuSans-74" transform="translate(2726.798828 0)"/>
    <use xlink:href="#DejaVuSans-69" transform="translate(2766.007812 0)"/>
    <use xlink:href="#DejaVuSans-6f" transform="translate(2793.791016 0)"/>
    <use xlink:href="#DejaVuSans-6e" transform="translate(2854.972656 0)"/>
    <use xlink:href="#DejaVuSans-2d" transform="translate(2918.351562 0)"/>
    <use xlink:href="#DejaVuSans-74" transform="translate(2954.435547 0)"/>
    <use xlink:href="#DejaVuSans-69" transform="translate(2993.644531 0)"/>
    <use xlink:href="#DejaVuSans-6d" transform="translate(3021.427734 0)"/>
    <use xlink:href="#DejaVuSans-65" transform="translate(3118.839844 0)"/>
    <use xlink:href="#DejaVuSans-20" transform="translate(3180.363281 0)"/>
    <use xlink:href="#DejaVuSans-70" transform="translate(3212.150391 0)"/>
    <use xlink:href="#DejaVuSans-72" transform="translate(3275.626953 0)"/>
    <use xlink:href="#DejaVuSans-6f" transform="translate(3314.490234 0)"/>
    <use xlink:href="#DejaVuSans-66" transform="translate(3375.671875 0)"/>
    <use xlink:href="#DejaVuSans-69" transform="translate(3410.876953 0)"/>
    <use xlink:href="#DejaVuSans-6c" transform="translate(3438.660156 0)"/>
    <use xlink:href="#DejaVuSans-65" transform="translate(3466.443359 0)"/>
    <use xlink:href="#DejaVuSans-73" transform="translate(3527.966797 0)"/>
   </g>
  </g>
 </g>
 <defs>
  <clipPath id="p6ebc0a0c2c">
   <rect x="34.240625" y="67.56" width="381.185785" height="231.4"/>
  </clipPath>
  <clipPath id="p3f384c3290">
   <rect x="463.990625" y="67.56" width="381.185785" height="231.4"/>
  </clipPath>
 </defs>
</svg>
